<svg width="160" height="113" viewBox="0 0 160 113" fill="none" xmlns="http://www.w3.org/2000/svg">
<path d="M38.7 36.2256C42.0585 38.4229 43.3375 38.4163 43.5 39C43.6207 39.4337 43.3917 40.0497 43.3369 40.3528C43.0869 41.8246 42.8843 43.6023 43.0965 47.2618C43.1508 50.483 43.3017 53.553 43.5018 59.3391C43.6596 63.9041 43.878 71.5825 44.132 76.9758C44.386 82.3692 44.6113 85.3943 44.9203 87.4463L44.9625 87.7265C45.4081 90.6877 45.6742 92.456 46.1564 93.5645C46.7897 95.02 47.4799 96.4017 48.7926 97.5022C49.0875 97.7494 49.36 97.8416 49.7679 97.9075C50.1759 97.9734 50.7034 98.0118 51.1309 97.9967C51.5584 97.9816 51.8762 97.9151 52.3294 97.6759C52.7826 97.4368 53.3537 97.0373 53.6914 96.6884C54.0292 96.3396 54.1679 96.0571 54.2225 95.6376C54.4753 93.6971 54.5654 92.0804 54.3725 86.8614L54.3691 86.771C54.3004 84.9139 54.2027 82.2728 54.2948 79.1498L54.2975 79.0565C54.3454 77.4394 54.4408 74.2135 54.1538 68.3107C53.995 65.0435 53.7138 61.3759 53.5678 58.7228C53.4218 56.0697 53.3945 54.4789 53.4205 53.4584C53.4576 51.9996 53.5416 47.8886 53.5783 42.1766C53.5967 39.3231 53.489 38.2071 53.7978 37.696C53.9423 37.457 54.1955 37.3187 54.467 37.268C54.7385 37.2173 55.0197 37.2532 55.2917 37.2131C55.5636 37.173 55.8262 37.0732 56.0631 36.9182C56.5346 36.6096 56.9775 36.2503 57.3991 35.8605C58.401 34.9342 59.9296 34.2115 60.5817 33.0021C61.3992 31.4861 62.757 29.2594 62.9128 26.1997C63.0124 24.2452 63.0706 22.6627 62.8376 21.7481C62.3741 19.929 61.7892 17.3722 60.4408 16.1718C60.1407 15.9046 59.8141 15.7663 59.3043 15.6971C58.7946 15.628 58.1222 15.628 57.561 15.6755C56.9999 15.723 56.3986 15.7631 56.3449 16.2399C56.0906 18.4989 55.8257 20.2644 55.4424 22.2716C55.005 24.5623 54.9012 26.0834 54.022 26.9082C53.1585 27.7183 52.5449 28.9958 51.5336 29.5696C51.2874 29.7093 50.9375 29.7455 50.6238 29.6811C50.0248 29.5582 48.938 29.6788 47.921 28.8282C47.0297 28.0829 46.1154 27.1193 45.2977 26.1548C45.1042 25.9266 44.9121 25.6604 44.9031 25.3755C44.8853 24.8168 45.1053 23.9047 44.8971 21.4739C44.6467 18.5497 45.1249 17.1159 44.6189 15.656C44.5065 15.3315 44.2882 15.1266 44.0386 15.0479C43.7891 14.9692 43.5091 14.9889 43.1978 15.0964C41.898 15.5454 40.6688 15.9202 39.8722 16.8316C39.0285 17.7967 38.2081 19.0382 37.105 20.5361C36.0625 21.9517 35.0769 23.024 34.6035 24.2051C34.3246 24.901 34.0434 25.5655 34.0249 26.514L34.0245 26.5333C33.9923 28.178 33.9646 29.599 34.1289 30.3677C34.2086 30.7401 34.3188 31.0759 34.5213 31.4061C34.9423 32.0926 36.3978 34.7194 38.7 36.2256Z" fill="white" stroke="white" stroke-width="4" stroke-linecap="round" stroke-linejoin="round"/>
<path d="M75.1635 17.2793C74.6518 17.4191 74.2219 17.7626 73.9667 18.2283C73.7116 18.694 73.6523 19.2448 73.8017 19.7584C73.9511 20.272 74.2966 20.705 74.7617 20.9612C75.2268 21.2174 75.7739 21.2767 76.2808 21.1202C76.2808 21.1202 76.2808 21.1202 76.2808 21.1202C76.0573 21.1806 76.0261 21.1741 75.9805 21.1822C75.9406 21.1869 75.9335 21.1871 75.9274 21.1876C75.9147 21.1886 75.9114 21.1885 75.9124 21.1883C75.9159 21.1877 75.9256 21.1868 75.9407 21.1858C75.9702 21.1837 76.0032 21.1816 76.0411 21.1795C76.1117 21.1756 76.1879 21.1718 76.2715 21.1681C76.4241 21.161 76.5918 21.1542 76.7497 21.1479C77.0746 21.1351 77.3996 21.1234 77.7257 21.112C78.3818 21.0892 79.0351 21.068 79.691 21.0473C80.9993 21.0062 82.3121 20.9674 83.6265 20.9298C84.8542 20.8947 86.0825 20.8606 87.3166 20.8273C90.4227 20.7348 93.5158 20.8229 96.6544 20.9924C98.3989 21.0735 100.243 21.944 102.191 22.9628C102.764 23.2429 103.425 23.9019 104.178 24.6561C105.002 25.3966 105.139 26.9242 105.882 29.0701C106.462 30.5103 106.714 32.5883 107.329 34.5552C107.845 36.2057 108.116 37.5684 108.428 39.512C108.602 40.2963 109.087 40.8167 109.379 41.1208C109.768 41.5254 110.224 41.8476 110.679 42.0887C111.2 42.3653 111.724 42.5518 112.254 42.6883C114.83 43.2792 116.92 42.6519 118.888 42.6201C119.866 42.5691 120.863 42.8338 122.068 43.1872C123.246 43.5202 123.973 44.0655 125.011 45.2231C125.288 45.4491 125.585 46.4869 125.778 47.4405C125.826 47.6925 125.827 47.7957 125.731 48.1082C125.664 48.3219 125.536 48.5503 125.349 48.7837C125.15 49.0331 124.913 49.2531 124.659 49.4207C124.388 49.6014 124.074 49.7266 123.671 49.8347C121.45 50.4101 118.819 50.1311 116.168 50.0769C114.867 50.0532 113.778 49.8504 112.316 49.5177C111.891 49.4291 111.421 49.6229 111.213 49.8018C110.987 49.9835 110.879 50.146 110.789 50.2886C110.619 50.5743 110.539 50.8079 110.471 51.054C109.941 53.182 110.69 54.9901 111.03 56.5301C111.476 58.3412 111.466 60.2803 111.965 62.4486C112.339 63.9034 112.589 65.3871 112.754 66.8991C112.931 68.519 113.359 69.9887 113.471 71.3647C113.573 72.6448 113.729 73.9689 113.544 74.9608C113.572 74.8413 113.625 74.8404 113.521 74.9196C113.426 74.9947 113.25 75.0942 113.022 75.2299C110.856 76.4962 108.408 77.5112 105.967 78.2958C105.285 78.5114 104.602 78.7183 103.919 78.9135C101.335 79.6662 98.7493 80.1612 96.042 80.5677C92.6299 81.1057 89.0075 80.9264 85.7065 80.1474C84.4606 79.8326 83.1757 79.2014 81.5331 78.817C81.4917 78.8076 81.3668 78.7965 81.3245 78.7933C79.8369 78.681 78.3595 78.6013 76.8792 78.5348C74.9668 78.4635 73.2309 78.3525 71.0884 78.426L71.1827 78.4173C70.6838 78.4111 69.8157 78.3127 69.0521 78.2551C68.5226 78.2113 68.0087 78.4055 67.6239 78.7734C67.2391 79.1414 67.0149 79.6568 67.0007 80.2023C66.9865 80.7478 67.1835 81.2742 67.5486 81.6618C67.9137 82.0491 68.4169 82.2698 68.9479 82.2537C68.9479 82.2537 68.9479 82.2537 68.9479 82.2537C69.7224 82.2203 70.392 82.251 71.4295 82.1585C71.4483 82.1563 71.5051 82.1531 71.5238 82.1499C73.0779 81.9283 75.0724 81.8322 76.8753 81.7476C78.3231 81.686 79.7734 81.6476 81.2105 81.6502L81.0019 81.6264C82.1947 81.7968 83.5746 82.343 85.1464 82.656C88.929 83.3061 92.6767 83.316 96.4031 82.6415C99.0637 82.1732 101.827 81.6084 104.469 80.8364C105.171 80.6356 105.872 80.4236 106.57 80.2035C109.164 79.3667 111.648 78.3525 114.058 76.9564C114.232 76.8512 114.471 76.7281 114.749 76.5177C115.013 76.3157 115.405 75.9438 115.523 75.3565C115.794 73.7825 115.579 72.4948 115.496 71.1963C115.358 69.545 114.933 68.0792 114.796 66.6798C114.632 65.0966 114.374 63.5019 113.983 61.9391C113.583 60.2178 113.581 58.1222 113.1 56.0473C112.698 54.3525 112.217 52.8131 112.567 51.6207C112.59 51.5331 112.633 51.4383 112.643 51.4274C112.644 51.4229 112.643 51.445 112.553 51.5192C112.48 51.5905 112.187 51.7201 111.935 51.6649C113.106 51.9534 114.69 52.272 116.105 52.299C118.67 52.3599 121.351 52.7584 124.255 52.0772C124.786 51.9439 125.391 51.7311 125.929 51.3818C126.408 51.0742 126.823 50.6972 127.175 50.2697C127.498 49.878 127.797 49.4053 127.983 48.8505C128.174 48.344 128.259 47.5514 128.118 46.9532C127.861 45.941 127.866 44.821 126.739 43.5071C125.934 42.5175 124.364 41.1834 122.763 40.7823C121.648 40.4394 120.266 40.0068 118.798 40.0567C116.601 40.0999 114.475 40.5383 112.938 40.0974C112.588 40.0006 112.25 39.8676 111.969 39.7103C111.719 39.5703 111.519 39.4156 111.356 39.2387C111.124 38.9965 111.103 38.898 111.117 38.9254C110.928 37.4525 110.568 35.4055 110.072 33.746C109.55 31.9977 109.442 30.157 108.655 27.9517C108.178 26.7597 108.188 24.371 106.397 22.4661C105.699 21.7564 104.949 20.8423 103.685 20.1381C101.767 19.0936 99.5771 17.8581 96.8787 17.6305C93.7114 17.3728 90.4865 17.1883 87.2721 17.189C86.0366 17.1858 84.8067 17.1827 83.5768 17.1802C80.7747 17.207 78.8807 17.064 75.1635 17.2793Z" fill="#1E1E1E"/>
<path d="M71 56.8817C70.4696 56.8365 69.9609 57.0423 69.5858 57.4214C69.2107 57.8009 69 58.3282 69 58.8817C69 59.4352 69.2107 59.9625 69.5858 60.342C69.9609 60.7211 70.4696 60.9269 71 60.8817C71 60.8817 71 60.8817 71 60.8817C72.285 60.812 73.9202 60.771 75.3777 60.7114C75.5871 60.7034 75.7946 60.6954 76.0055 60.6874C79.246 60.565 82.531 60.5702 85.7625 60.7184C88.6547 60.89 91.6308 60.9956 94.5445 60.998C95.1815 61.0012 95.8182 61.0007 96.4557 60.9977C98.3331 61.0219 100.432 60.6872 102.076 60.3807C103.186 60.2548 104.145 59.6862 104.864 59.2346C105.438 58.8757 105.744 58.3953 105.975 58.0592C106.278 57.6095 106.528 57.09 106.68 56.5473C107.433 53.7113 106.924 50.9585 106.39 48.4323C105.949 46.381 105.71 44.2111 105.093 41.9963C104.626 40.3517 103.94 38.8975 103.675 37.5622C103.336 35.7989 102.682 34.0528 102.024 32.498C101.318 30.7624 100.202 29.1489 98.8863 27.8444C98.6632 27.6223 98.3713 27.255 97.8998 26.8731C97.3987 26.4695 96.7942 26.1979 96.2191 26.0582C93.9469 25.5181 91.8529 25.6154 89.9578 25.4528C87.9717 25.3024 86.0875 25.3497 84.2567 25.3111C84.2437 25.3109 84.2046 25.3126 84.1916 25.3129C82.5839 25.3466 81.0475 25.3768 79.5366 25.2903C79.1541 25.269 78.7731 25.2413 78.3926 25.2066C78.3823 25.2057 78.3515 25.2049 78.3413 25.2042C77.2051 25.1392 76.1356 25.1135 75.0587 25.0791C74.5282 25.0627 74.0195 25.2716 73.6445 25.6482C73.2694 26.0248 73.0587 26.5403 73.0587 27.0791C73.0587 27.6179 73.2694 28.1333 73.6445 28.51C74.0195 28.8865 74.5282 29.0955 75.0587 29.0791C76.1284 29.0471 77.2068 29.0101 78.216 29.0091L78.1647 29.0067C78.5916 29.0205 79.0174 29.0267 79.442 29.0258C81.1202 29.0252 82.7727 28.8988 84.3499 28.7828L84.2848 28.7845C86.1853 28.7219 88.0352 28.5895 89.7774 28.6406C91.8999 28.7043 93.8801 28.5673 95.5588 28.9057C95.7992 28.9531 95.9787 29.0281 96.1385 29.1407C96.3158 29.2629 96.5587 29.5238 96.9234 29.872C98.068 30.9255 98.9737 32.1404 99.6078 33.543C100.322 35.0872 100.908 36.5206 101.261 38.0833C101.687 39.848 102.427 41.2599 102.85 42.6563C103.449 44.5986 103.743 46.74 104.248 48.909C104.828 51.3404 105.243 53.8277 104.68 55.9936C104.593 56.3186 104.454 56.6221 104.258 56.9205C104.052 57.2416 103.89 57.433 103.782 57.4959C103.047 57.9697 102.454 58.2929 101.824 58.3703C99.8392 58.7423 98.2743 59.0016 96.4444 58.996C95.8129 59.0001 95.1831 59.0012 94.5545 58.998C91.6612 58.9942 88.837 58.806 85.9481 58.4532C82.6572 58.0951 79.3956 57.7702 76.0945 57.454C75.8874 57.4345 75.6836 57.4145 75.4781 57.394C73.9834 57.2494 72.6631 57.0713 71 56.8817Z" fill="#1E1E1E"/>
<path d="M101.407 65.1581C101.371 65.1462 101.366 65.1369 101.446 65.1388C101.844 65.1794 102.208 65.1864 102.735 65.1899C103.932 65.1934 104.723 65.2232 104.964 65.291C105.212 65.3767 105.471 65.446 105.684 65.5807C106.145 65.8709 106.584 66.1805 106.99 66.7286C107.358 67.2262 107.723 67.7766 107.899 68.3766C107.97 68.6168 108.051 69.061 107.958 69.6546C107.788 70.7308 107.749 71.7099 107.306 72.2937C106.547 73.2933 106.055 73.9723 105.419 74.5891C105.146 74.8543 104.87 75.1158 104.532 75.2218C103.953 75.4034 103.048 75.6295 102.246 75.7481C101.524 75.8549 100.507 76.0213 97.1885 75.9977C95.023 75.9824 91.2526 75.9244 89.0429 75.8521C86.8332 75.7798 86.2033 75.6958 85.4665 75.6147C84.7298 75.5335 83.911 75.4575 82.6789 75.2938C81.4468 75.1301 79.8511 74.8781 78.6419 74.7121C76.6393 74.437 75.6161 74.3434 75.3071 74.1439C74.6702 73.7328 73.9113 73.2361 73.4651 72.7429C73.3681 72.6358 73.2951 72.5293 73.2463 72.4048C73.1471 72.1518 73.0094 71.7433 73.0025 71.1734C72.9897 70.1324 73.0188 69.4317 73.2807 68.643C73.5107 67.9503 73.8166 66.8455 74.2934 66.2736C74.3872 66.1611 74.4854 66.0492 74.6049 65.994C74.8302 65.89 75.1779 65.7693 75.7111 65.7286C76.3264 65.6817 76.9292 65.666 80.1745 65.5085C81.827 65.4282 83.2218 65.3764 84.7372 65.2823C85.611 65.228 86.6834 65.144 87.9516 65.0871C89.2198 65.0301 90.6406 65.0011 92.7991 65C94.9575 64.9989 97.7684 65.0249 99.2991 65.0508C100.83 65.0767 101.075 65.0931 101.281 65.1332C101.329 65.1427 101.371 65.1509 101.407 65.1581Z" fill="#1E1E1E"/>
<path d="M101.446 65.1388C101.144 65.1318 102.051 65.2831 101.281 65.1332C101.075 65.0931 100.83 65.0767 99.2991 65.0508C97.7684 65.0249 94.9575 64.9989 92.7991 65C90.6406 65.0011 89.2198 65.0301 87.9516 65.0871C86.6834 65.144 85.611 65.228 84.7372 65.2823C83.2218 65.3764 81.827 65.4282 80.1745 65.5085C76.9292 65.666 76.3264 65.6817 75.7111 65.7286C75.1779 65.7693 74.8302 65.89 74.6049 65.994C74.4854 66.0492 74.3872 66.1611 74.2934 66.2736C73.8166 66.8455 73.5107 67.9503 73.2807 68.643C73.0188 69.4317 72.9897 70.1324 73.0025 71.1734C73.0094 71.7433 73.1471 72.1518 73.2463 72.4048C73.2951 72.5293 73.3681 72.6358 73.4651 72.7429C73.9113 73.2361 74.6702 73.7328 75.3071 74.1439C75.6161 74.3434 76.6393 74.437 78.6419 74.7121C79.8511 74.8781 81.4468 75.1301 82.6789 75.2938C83.911 75.4575 84.7298 75.5335 85.4665 75.6147C86.2033 75.6958 86.8332 75.7798 89.0429 75.8521C91.2526 75.9244 95.023 75.9824 97.1885 75.9977C100.507 76.0213 101.524 75.8549 102.246 75.7481C103.048 75.6295 103.953 75.4034 104.532 75.2218C104.87 75.1158 105.146 74.8543 105.419 74.5891C106.055 73.9723 106.547 73.2933 107.306 72.2937C107.749 71.7099 107.788 70.7308 107.958 69.6546C108.051 69.061 107.97 68.6168 107.899 68.3766C107.723 67.7766 107.358 67.2262 106.99 66.7286C106.584 66.1805 106.145 65.8709 105.684 65.5807C105.471 65.446 105.212 65.3767 104.964 65.291C104.723 65.2232 103.932 65.1934 102.735 65.1899C102.208 65.1864 101.844 65.1794 101.446 65.1388Z" stroke="#1E1E1E" stroke-width="4" stroke-linecap="round" stroke-linejoin="round"/>
<path d="M99.1618 83.1362C99.2121 83.0638 99.2526 82.9336 99.2931 82.9336C99.2119 82.8194 99.3816 82.7528 99.5293 82.6897C100.237 82.4132 101.389 81.9712 102.112 81.728C102.795 81.5971 104.217 80.9395 105.128 81.0045C105.441 81.0268 105.743 81.053 105.979 81.1724C106.093 81.2299 106.2 81.2983 106.254 81.4206C106.368 81.6789 106.466 81.9608 106.505 82.2376C106.543 82.5075 106.541 82.8584 106.574 83.4045C106.662 84.8158 106.685 86.9176 106.917 88.1391C106.968 88.413 107.057 90.4333 106.948 93.4266C106.887 95.1074 106.83 95.9204 106.691 96.4746C106.561 96.9966 106.432 97.3731 106.283 97.6005C106.132 97.8315 106.003 98.1255 105.751 98.2078C105.133 98.4102 104.413 98.7637 103.675 98.874C103.157 98.9513 102.555 99.0297 102.04 98.9888C101.436 98.9408 100.71 99.0534 100.341 98.5384C100.196 98.3368 100.027 97.9869 99.8757 97.3492C99.7478 96.8106 99.7107 95.7008 99.6235 94.8766C99.5394 94.0812 99.3789 93.0044 99.3032 91.5918C99.2634 90.8486 99.2933 89.5011 99.1811 87.5411C99.0657 85.5235 98.9505 84.1626 99.0222 83.5943C99.0526 83.3537 99.1115 83.2087 99.1618 83.1362Z" fill="#1E1E1E" stroke="#1E1E1E" stroke-width="4" stroke-linecap="round" stroke-linejoin="round"/>
<path d="M49.2054 86.9901C49.2054 86.5809 49.5164 86.2985 49.5316 86.2985C49.7855 86.2048 50.0319 86.0866 50.2977 86.0322C50.5635 85.9779 50.8403 85.9872 51.0845 86.0993C51.3287 86.2114 51.5341 86.4201 51.6939 86.7071C51.8538 86.9941 52.0022 87.3469 52 87.7124C51.9956 88.4377 51.8696 89.1769 51.581 89.8878C51.4315 90.2563 51.249 90.6272 50.9908 90.8257C50.7327 91.0243 50.4087 91.0498 50.137 90.9193C49.8653 90.7887 49.6524 90.5106 49.4722 90.1505C49.2921 89.7905 49.1491 89.3617 49.0737 88.9383C48.9983 88.5148 48.9907 88.1092 49.0073 87.7761C49.0238 87.4431 49.2054 87.2324 49.2054 86.9901Z" stroke="#1E1E1E" stroke-width="4" stroke-linecap="round" stroke-linejoin="round"/>
<path d="M97.5 66.5C98 66 98.3421 66.0908 98.4711 66.0908C99.5544 65.9893 100.637 65.9893 101.406 66.0128C102.175 66.0364 102.619 66.082 103.025 66.2179C103.431 66.3537 103.788 66.573 104.056 66.8317C104.324 67.0905 104.497 67.3798 104.639 67.7065C104.781 68.0332 104.92 68.3844 104.949 69.0198C105.019 70.5395 105.037 71.7789 104.873 72.4433C104.704 73.1308 104.504 73.8311 104.05 74.4245C103.801 74.7494 103.466 75.0814 103.081 75.3399C102.696 75.5985 102.278 75.8305 101.516 75.8681C99.6963 75.958 97.7365 76.2735 96.2107 75.4238C95.8447 75.2199 95.5846 74.9336 95.3988 74.5739C95.213 74.2142 95.1048 73.7938 95.0507 73.2698C94.9966 72.7458 94.966 72.1325 95.063 71.5072C95.2585 70.2473 95.5163 69.1125 95.9639 68.221C96.1897 67.7715 96.4602 67.3511 96.7852 67.0609C97.1102 66.7707 97.2393 66.7607 97.5 66.5Z" fill="white"/>
</svg>
