<svg width="160" height="113" viewBox="0 0 160 113" fill="none" xmlns="http://www.w3.org/2000/svg">
<path d="M45.1168 29.3526C46.0935 28.5522 48.4623 25.9706 50.4826 25.474C50.9748 24.8964 51.2132 24.6966 51.4663 24.5294C51.7193 24.3622 51.9791 24.2316 52.262 24.1256C52.8418 23.9404 55.9351 23.8109 60.1434 23.9897C61.925 24.0654 62.4992 24.1074 63.0155 24.287C64.2442 24.7145 68.244 26.2898 70.5445 28.3132C71.0449 28.7533 71.4224 29.1523 71.6962 29.6343C71.9759 30.1268 72.9235 32.0669 73.5873 34.818C74.0517 36.7423 74.4266 39.0717 73.984 40.7387C73.3702 43.0504 72.0076 47.4897 70.3123 49.7849C68.5879 52.1193 67.0356 54.2102 65.9643 55.0515C64.6469 56.086 61.28 58.771 58.663 58.8898C57.966 58.9215 55.3194 58.9589 53.126 58.3215C51.6606 57.8957 48.6466 57.1398 46.9651 55.7917C45.7443 54.8129 44.8741 53.5647 42.6086 50.5617C40.9989 48.428 39.9352 47.1765 39.6194 45.3075C39.0963 42.2115 39.0207 39.4699 39.5083 37.8772C39.7509 37.0848 40.0281 36.3189 41.0269 34.8891C43.1011 31.9202 44.601 29.7754 45.1168 29.3526Z" fill="#D9D9D9"/>
<path d="M56.6618 34.9043C55.8044 35.0186 54.0844 35.3512 53.3978 35.5863C53.0556 35.7035 52.7544 35.8864 52.4948 36.1037C51.981 36.5338 51.7207 37.0504 51.4641 37.5658C50.6526 39.1961 50.404 40.6391 50.2339 42.1785C50.1078 43.3207 50.2352 44.2483 50.3497 44.8003C50.4676 45.3691 50.7117 45.9284 50.9496 46.4668C51.1724 46.9709 51.5143 47.3905 51.8567 47.7808C52.1942 48.1656 52.6397 48.4542 53.1112 48.7174C54.1607 49.3033 55.6029 49.5272 57.8817 49.8223C59.0637 49.9755 59.8993 49.8812 60.3703 49.804C60.8402 49.7271 61.2455 49.4343 61.641 49.1654C62.0512 48.8866 62.3733 48.4222 62.7028 47.9258C63.3873 46.8949 63.6753 45.5533 64.0505 43.697C64.2177 42.8697 64.1994 42.0062 64.1361 41.0846C64.0753 40.2012 63.7174 39.5591 63.4379 38.9771C63.0364 38.141 62.5744 37.5021 62.2574 37.1486C62.0965 36.9691 61.9102 36.8108 61.6489 36.63C61.0699 36.2292 59.5194 35.7633 57.6133 35.3036C56.6739 35.077 55.9854 35.0775 55.0986 35.1455C54.6568 35.1794 54.2492 35.3495 53.8829 35.5703C53.5166 35.7911 53.2083 36.0927 52.9826 36.3554C52.236 37.2243 51.8979 38.4516 51.5425 39.7608C51.1785 41.1018 51.2584 43.5335 51.4342 45.795C51.5003 46.646 51.8172 47.3042 52.0921 47.8049C52.2261 48.049 52.4059 48.2425 52.5956 48.4072C52.7854 48.5718 52.9942 48.694 53.2372 48.7924C54.3228 49.2322 56.4747 49.1363 58.2525 48.9454C58.9558 48.8699 59.5498 48.4949 60.0869 48.1615C60.6216 47.8297 60.9969 47.3094 61.341 46.7725C62.1032 45.5832 62.2992 44.0413 62.5076 42.7971C62.6005 42.2422 62.5889 41.6936 62.5702 41.1643C62.5516 40.6385 62.3631 40.1247 62.1216 39.6272C61.8798 39.1292 61.5459 38.7067 61.2216 38.3381C60.4653 37.4787 59.0568 36.9608 58.042 36.6265C56.9757 36.2751 55.8335 36.2959 54.9231 36.3422C54.5416 36.3616 54.3339 36.4811 54.1362 36.6106C53.9386 36.7401 53.76 36.9037 53.5967 37.1102C53.2577 37.5388 53.0388 38.1282 52.842 38.7853C52.6352 39.4759 52.5825 40.5432 52.6003 41.7529C52.6129 42.617 52.9821 43.3709 53.3765 44.2129C53.7864 45.0876 54.3734 45.8343 54.9515 46.4681C55.5051 47.0749 56.1586 47.415 56.7057 47.6428C56.9751 47.7549 57.2614 47.7778 57.532 47.8002C57.8027 47.8225 58.0577 47.8225 58.3237 47.7545C58.5897 47.6865 58.859 47.5505 59.1137 47.3514C59.3684 47.1522 59.6003 46.8941 59.8213 46.564C61.0006 44.8025 61.1886 42.4334 61.2265 41.2068C61.2455 40.5943 61.0159 39.9917 60.7592 39.4216C60.6326 39.1406 60.4708 38.8949 60.3035 38.6655C60.1363 38.436 59.9577 38.235 59.6706 38.0742C59.3834 37.9135 58.9931 37.7992 58.586 37.8162C58.179 37.8332 57.7671 37.985 57.4461 38.1735C56.86 38.5178 56.5036 39.0763 56.1451 39.6509C55.7527 40.2798 55.4976 40.9789 55.2812 41.6155C55.0787 42.2112 55.0354 43.205 55.0301 44.3466C55.028 44.8083 55.0781 45.0309 55.2249 45.2422C55.3716 45.4535 55.6266 45.6467 55.9264 45.624C56.2263 45.6013 56.5633 45.3569 56.9018 44.8624C58.3978 42.6775 58.4989 40.9462 58.7286 39.5429C58.8333 38.903 58.7584 38.3072 58.6256 37.7632C58.554 37.4697 58.2912 37.1955 58.0481 37.0552C57.805 36.9148 57.5429 36.9306 57.3445 37.053C57.1461 37.1755 57.0193 37.4041 56.9094 37.6864C56.4182 38.9478 56.3381 40.4017 56.3145 42.0415C56.3096 42.3867 56.4102 42.5925 56.5869 42.7031C56.7636 42.8136 57.0488 42.8215 57.2894 42.725C57.5299 42.6286 57.7171 42.4276 57.8626 42.1949C58.008 41.9623 58.1059 41.7041 58.0325 41.5464C57.9591 41.3888 57.7114 41.3395 57.5312 41.461C57.351 41.5824 57.2458 41.8761 57.2702 42.1062C57.2945 42.3363 57.4515 42.494 57.6001 42.4816C57.7486 42.4692 57.884 42.282 57.9912 42.0387C58.0984 41.7954 58.1733 41.5017 58.186 41.1681C58.1986 40.8346 58.1468 40.4699 57.9472 40.156C57.7477 39.842 57.402 39.5897 57.0331 39.4598C56.6642 39.3298 56.2825 39.3298 55.9584 39.4589C55.6343 39.588 55.3794 39.8462 55.2221 40.0905C55.0649 40.3349 55.013 40.5576 55.1167 40.8946" stroke="#1E1E1E" stroke-width="4" stroke-linecap="round" stroke-linejoin="round"/>
<path d="M101.239 25.0389C102.641 24.9449 103.924 24.8996 104.274 24.8423C105.629 24.786 110.755 23.6392 111.422 23.617C113.166 23.4763 114.79 23.0563 116.201 22.9043C116.774 22.9543 117.31 23.0477 117.805 23.2876C118.365 23.5589 118.914 23.8561 119.332 24.2558C119.763 24.6686 120.153 25.1219 120.412 25.6639C120.694 26.2541 120.933 26.8022 121.063 27.3264C121.133 27.6082 121.192 27.9247 121.18 31.5092C121.168 35.0936 121.244 41.7542 120.9 45.9035C120.42 51.6807 120.088 53.7452 119.799 54.4461C119.58 54.9776 119.35 55.4613 118.931 55.8003C118.507 56.144 118.005 56.4379 117.435 56.6374C115.52 57.307 111.996 58.683 109.864 58.6519C107.663 58.6199 104.672 58.8112 101.032 58.8801C98.977 58.919 96.5197 58.9271 94.7135 58.7793C91.7725 58.5388 90.2601 58.3669 89.688 58.0337C88.6048 57.4027 87.2247 56.7999 86.5701 55.6889C86.2647 55.1706 85.9376 54.5558 85.7198 53.8303C85.5155 53.1497 85.1791 51.6348 85.1817 47.4837C85.1835 44.4857 85.2048 39.7759 85.4877 36.6995C85.902 32.1933 86.2026 29.757 86.7827 28.7518C87.007 28.3632 87.2531 27.9522 87.6315 27.6423C88.0196 27.3245 88.4636 26.988 89.0223 26.8271C89.61 26.6579 90.7655 26.5776 92.4006 26.3488C96.0595 25.8368 99.0596 25.185 101.239 25.0389Z" fill="white"/>
<path d="M95.291 40.446C95.2403 40.446 95.1897 40.446 95.1819 40.5597C95.1585 40.9013 96.6519 43.5803 98.936 47.4486C99.7866 48.8891 100.132 49.1993 100.415 49.4356C100.698 49.672 100.94 49.8073 101.189 49.873C101.438 49.9388 101.687 49.931 102.177 49.5456C104.591 47.6454 105.101 46.3514 107.049 43.0935C108.369 40.8856 109.798 38.9045 110.827 37.2456C111.733 35.9436 112.36 35.1287 112.71 34.6427C112.862 34.3998 112.965 34.1645 113.182 33.9043" stroke="#1E1E1E" stroke-width="4" stroke-linecap="round" stroke-linejoin="round"/>
<path d="M42.5879 78.3346C43.1183 78.3697 43.627 78.1628 44.0021 77.7846C44.3771 77.4061 44.5879 76.8829 44.5879 76.3346C44.5879 75.7863 44.3771 75.2632 44.0021 74.8847C43.627 74.5065 43.1183 74.2996 42.5879 74.3346C42.5879 74.3346 42.5879 74.3346 42.5879 74.3346C43.4963 74.3861 43.6922 74.7006 43.7733 74.7247C43.8771 74.8014 43.9461 74.8677 43.9755 74.8961C44.0381 74.957 44.0768 75.0022 44.093 75.0209C44.1342 75.0693 44.1456 75.0855 44.1572 75.1006C44.1757 75.1254 44.1778 75.1295 44.1787 75.1313C44.1791 75.1334 44.1693 75.1213 44.1594 75.109C44.1385 75.0828 44.1123 75.0497 44.0859 75.0172C44.0324 74.9514 43.9764 74.8856 43.9195 74.822C43.8059 74.6949 43.6892 74.5768 43.5699 74.4657C43.1361 74.0117 42.4749 73.8336 42.1114 73.8344C41.7265 73.8256 41.501 73.8916 41.3207 73.9446C40.9711 74.0583 40.7892 74.1705 40.6243 74.2679C40.0504 74.6044 39.6649 75.1015 39.4511 75.4609C38.9314 76.3343 38.7232 77.2032 38.5912 77.9542C38.3741 79.4113 38.5621 80.3688 38.6589 81.4084C38.7221 81.9835 38.8279 82.5742 39.0174 83.1741C39.1373 83.5534 39.2944 83.9386 39.4915 84.304C39.6725 84.6511 39.9784 85.0781 40.0402 85.1591C40.3566 85.6876 40.7327 85.969 41.0813 86.1902C43.9949 87.5329 46.0708 87.2632 48.3166 87.7741C52.7244 88.2633 56.4829 87.9155 60.5562 87.9945C60.6298 87.9947 60.7039 87.9948 60.7785 87.995C73.6872 88.013 86.5945 87.9921 99.4888 87.9903C103.398 87.9729 107.155 88.0376 111.184 87.9136C113.367 87.8039 115.565 86.9837 117.388 86.0803C117.792 85.9045 118.39 85.471 118.677 85.0031C119.467 83.8634 119.836 82.5456 120.153 81.4638C120.386 80.6586 120.415 79.8781 120.344 79.1212C120.285 78.4672 119.888 77.9614 119.629 77.7034C117.758 76.1092 116.129 76.1077 114.631 75.5181C111.869 74.5956 109.183 74.5631 106.581 74.2798C99.3197 73.5886 92.003 72.9877 84.6721 72.6851C75.9235 72.3311 67.1841 72.2974 58.4529 72.3852C55.946 72.4156 53.465 72.4468 50.9249 72.554C50.3939 72.5769 49.8458 72.608 49.3372 72.6354C47.5238 72.7462 45.8077 72.7158 43.7582 72.8888C43.7188 72.8926 43.6028 72.9126 43.5641 72.9203C43.1616 73.0021 42.7885 73.1092 42.4362 73.2268C42.3294 73.2626 42.2243 73.299 42.1024 73.3451C42.0396 73.3692 41.9773 73.393 41.8817 73.435C41.8296 73.4589 41.784 73.4766 41.655 73.5478C41.6195 73.568 41.578 73.5917 41.511 73.6363C41.4285 73.7043 41.3768 73.6864 41.055 74.0522C40.9622 74.1827 40.8694 74.2507 40.7087 74.6891C40.6427 74.9 40.5885 75.1348 40.6172 75.4948C40.6461 75.8593 40.8047 76.2497 41.0109 76.517C41.373 76.9785 41.6935 77.0956 41.8692 77.1743C42.0193 77.234 42.1329 77.2614 42.2254 77.2803C42.5151 77.3318 42.5814 77.3177 42.6674 77.32C43.1979 77.3189 43.7031 77.1006 44.0719 76.7188C44.4407 76.3368 44.643 75.8216 44.6342 75.2874C44.6254 74.7531 44.4063 74.2448 44.025 73.8753C43.6438 73.5058 43.1317 73.3043 42.6015 73.3206C42.6015 73.3206 42.6015 73.3206 42.6015 73.3206C42.6749 73.3231 42.7299 73.3087 43.0088 73.3582C43.098 73.3765 43.2088 73.4031 43.3567 73.4618C43.5295 73.5394 43.8474 73.6549 44.2079 74.1143C44.4132 74.3803 44.5713 74.7695 44.6 75.1325C44.6286 75.491 44.5746 75.7247 44.5091 75.9342C44.3495 76.3693 44.258 76.4355 44.1671 76.5637C43.8527 76.9206 43.8105 76.896 43.7378 76.9574C43.6801 76.9957 43.6486 77.0134 43.6234 77.0278C43.5347 77.0763 43.5309 77.0746 43.521 77.0794C43.5099 77.0835 43.533 77.0728 43.5566 77.063C43.6068 77.0419 43.6757 77.0154 43.7436 76.9904C43.9731 76.906 44.1918 76.8381 44.3918 76.7909L44.1977 76.8225C45.7938 76.6359 47.7481 76.5938 49.589 76.4335C50.1231 76.3901 50.6272 76.3479 51.1397 76.312C53.5784 76.1435 56.0516 76.0468 58.5373 75.9544C67.2121 75.6479 75.9141 75.486 84.5773 75.6639C91.8402 75.819 99.0922 76.2847 106.364 76.8632C108.978 77.0963 111.615 77.1348 113.865 77.8732C115.433 78.3838 117.279 78.7713 117.915 79.3983C118.032 79.5166 117.965 79.4791 117.956 79.3685C118.013 79.8728 117.988 80.3851 117.87 80.8027C117.554 81.9489 117.275 82.9084 116.741 83.698C116.681 83.787 116.666 83.8017 116.619 83.8422C116.574 83.8805 116.488 83.9348 116.375 83.9907C114.576 84.8953 112.901 85.5361 111.011 85.6638C107.292 85.8136 103.343 85.7931 99.4792 85.8387C86.5899 85.9415 73.6794 86.013 60.7831 85.995C60.7086 85.9948 60.6346 85.9946 60.5611 85.9944C56.6102 85.9284 52.3396 86.0946 48.8111 85.5033C46.5784 84.9358 43.8493 84.6303 42.6127 83.8514C42.5201 83.7821 42.486 83.7018 42.5412 83.7657C42.2825 83.3082 42.2244 83.218 42.1323 82.9974C42.0507 82.8006 41.9886 82.5926 41.9415 82.3663C41.8673 82.0101 41.833 81.6143 41.8311 81.2005C41.8182 80.2643 41.8353 79.2159 42.0053 78.7194C42.1632 78.1757 42.3623 77.7523 42.5744 77.5087C42.6448 77.4326 42.6158 77.5265 42.501 77.6089C42.5281 77.5991 42.5448 77.612 42.4067 77.6631C42.332 77.6855 42.2161 77.7299 41.9415 77.7256C41.6874 77.7302 41.1382 77.5895 40.7816 77.2155C40.8135 77.2576 40.8409 77.2986 40.8638 77.3374C40.8754 77.357 40.8854 77.3754 40.8963 77.3959C40.902 77.4065 40.9072 77.4165 40.9177 77.4342C40.9233 77.4436 40.9292 77.4534 40.9454 77.4773C40.9541 77.49 40.9644 77.5052 40.9907 77.5403C41.0067 77.5611 41.0221 77.5822 41.0677 77.6357C41.0856 77.6565 41.1274 77.705 41.192 77.7678C41.2224 77.7972 41.2931 77.8651 41.398 77.9426C41.4801 77.9674 41.6783 78.2833 42.5879 78.3346Z" fill="#1E1E1E"/>
<path d="M94.3727 77.1539C94.3242 77.1539 94.5842 77.1027 95.1185 77.0957C95.3736 77.0924 95.5724 77.2812 95.7802 77.4598C96.2152 77.8337 96.5932 78.3049 96.9865 78.8653C97.4759 79.5625 97.732 80.3186 97.9156 80.9118C98.0028 81.1935 98.0204 81.4468 97.9777 81.7136C97.935 81.9803 97.8167 82.2556 97.4957 82.6666C96.7243 83.6542 95.8898 84.3434 95.4443 84.6602C94.0861 85.3403 92.3199 86.0169 91.7943 86.0757C91.5295 86.0957 91.2687 86.0957 91 86.0957" stroke="#1E1E1E" stroke-width="4" stroke-linecap="round" stroke-linejoin="round"/>
<path d="M53 76.0957C52.7951 76.2291 51.7839 77.6406 49.9791 80.026C49.3673 80.7098 48.5763 81.5036 47.8115 82.3853C47.0468 83.267 46.3324 84.2125 46 85.0957" stroke="#1E1E1E" stroke-linecap="round" stroke-linejoin="round"/>
<path d="M59.8386 77.4402C59.8508 77.4133 59.8631 77.3865 59.9268 77.2605C59.9906 77.1345 60.1055 76.9103 59.7833 77.3832C58.6982 79.0332 57.3205 81.0204 56.0675 82.7507C55.4063 83.7066 54.6936 84.8204 54 86.0957" stroke="#1E1E1E" stroke-linecap="round" stroke-linejoin="round"/>
<path d="M73.1816 74C72.9164 74.1397 71.6794 75.2451 68.6187 78.7486C66.0669 81.3146 63.654 83.9254 62.3627 85.6387C62.004 86.1678 62.2474 86.0058 62.4983 85.839" stroke="#1E1E1E" stroke-linecap="round" stroke-linejoin="round"/>
<path d="M79.1816 75C79.1016 75.3085 77.6256 77.4144 74.9953 80.1754C73.2889 81.7138 71.4935 83.4939 70.342 84.7981C70.0227 85.1704 70.2417 84.955 70.4672 84.733" stroke="#1E1E1E" stroke-linecap="round" stroke-linejoin="round"/>
<path d="M88.1816 74C87.8731 74.3206 85.667 77.182 83.3937 79.8394C79.36 83.6511 77.3587 85.8384 77.1816 86C77.1866 85.9913 77.384 85.7984 77.5874 85.5996" stroke="#1E1E1E" stroke-linecap="round" stroke-linejoin="round"/>
<path d="M92.1441 76C92.1506 76 92.157 76 92.1707 76.1143C92.1844 76.2285 92.2052 76.4571 92.0909 76.7896C91.567 78.3135 90.1374 79.6353 87.4205 82.2228C86.8656 82.7457 86.6299 83.0018 86.1582 83.5672C85.6865 84.1326 84.9859 84.9994 84.1816 86" stroke="#1E1E1E" stroke-linecap="round" stroke-linejoin="round"/>
</svg>
