<svg width="160" height="113" viewBox="0 0 160 113" fill="none" xmlns="http://www.w3.org/2000/svg">
<path d="M115.763 36.646C115.72 38.6797 114.44 38.8972 113.587 39.0421C112.165 39.2837 108.443 39.4693 104.648 39.6692C99.1158 39.9606 93.5839 40.252 90.6097 40.1899C87.6355 40.1278 86.8877 35.2292 86.5138 32.7799L86.5138 32.7799C86.1398 30.3306 85.5364 18.5174 85.1625 16.0681C84.7885 13.6188 88.1876 13.6898 90.3205 13.3274C92.4534 12.9651 103.092 12.3734 106.491 12.4444C109.891 12.5153 110.281 14.1512 111.531 15.398C112.78 16.6448 114.92 22.8082 115.151 25.2396C115.499 28.9091 115.839 32.9853 115.763 36.646Z" fill="white"/>
<path d="M36 42.814C36 40.314 37.5 40.0139 38.5 39.8139C40.1667 39.4806 44.541 39.1571 49 38.814C55.5 38.314 62 37.814 65.5 37.814C69 37.814 70 43.814 70.5 46.814C71 49.814 72 64.314 72.5 67.314C73 70.314 69 70.314 66.5 70.814C64 71.314 51.5 72.314 47.5 72.314C43.5 72.314 43 70.314 41.5 68.814C40 67.314 37.331 59.7956 37 56.814C36.5004 52.3139 36 47.314 36 42.814Z" fill="white"/>
<path d="M94.2952 23.7968C94.8257 23.8894 95.3344 23.6886 95.7094 23.3053C96.0845 22.9213 96.2952 22.3744 96.2952 21.7968C96.2952 21.2191 96.0845 20.6722 95.7094 20.2882C95.3344 19.9049 94.8257 19.7041 94.2952 19.7968C94.2664 19.8026 94.0391 19.8057 93.8068 19.8598C93.5714 19.9121 93.3644 20.0009 93.2174 20.0818C92.9215 20.248 92.7908 20.3793 92.6769 20.4884C92.1944 21.0062 91.9983 21.3667 91.7416 21.9404C91.6747 22.1003 91.6165 22.2701 91.5723 22.4366C91.4212 23.0179 91.4345 23.468 91.4448 23.8361C91.4768 24.5288 91.5224 25.1965 91.7393 26.0069C91.9161 26.6712 92.3119 27.3511 92.7756 27.81C93.1533 28.2016 93.6354 28.5346 94.1078 28.7469C95.8679 29.5297 97.5877 29.332 99.0537 29.2569C99.1498 29.2514 99.2452 29.2461 99.3382 29.2415C99.9943 29.2215 100.712 28.9804 101.219 28.712C102.314 28.1511 103.09 27.3304 103.774 26.5547C104.181 26.0867 104.449 25.56 104.65 25.0898C104.872 24.5851 105.004 24.0019 105.064 23.5032C105.14 22.8628 105.176 22.2456 105.089 21.5272C105.016 20.9229 104.785 20.2854 104.508 19.7894C104.267 19.3428 103.947 18.8827 103.533 18.4869C103.113 18.0828 102.637 17.7777 102.166 17.5428C101.673 17.2974 101.149 17.1153 100.615 16.9965C100.08 16.8777 99.4451 16.8043 98.7564 16.9237C97.7058 17.1141 97.0187 17.6784 96.4954 18.0639C95.5546 18.8023 94.7647 19.502 93.9225 20.3353C93.8613 20.3972 93.8005 20.4597 93.7377 20.5262C93.2836 20.9483 92.6442 21.9776 92.4471 22.6355C92.2537 23.1316 92.309 23.6775 92.5683 24.1436C92.828 24.6099 93.2762 24.9598 93.8086 25.1147C94.341 25.2696 94.9069 25.2149 95.3762 24.9608C95.8452 24.7067 96.1848 24.2757 96.2878 23.7533C96.3276 23.5273 96.3426 23.4256 96.3672 23.3303C96.3918 23.2331 96.4733 23.0756 96.6017 22.8839C96.6355 22.8331 96.6711 22.7813 96.7095 22.7272C97.2582 21.9656 97.9502 21.1424 98.5942 20.4776C98.7734 20.2945 98.9491 20.1299 99.0866 20.0185C99.2329 19.9039 99.2759 19.867 99.3775 19.8245C99.5469 19.7594 99.8033 19.7327 100.128 19.7658C100.453 19.7981 100.771 19.8694 101.074 19.9807C101.369 20.0894 101.624 20.2233 101.831 20.3826C102.038 20.5424 102.226 20.7527 102.405 21.0235C102.606 21.3279 102.718 21.5747 102.787 21.8937C102.87 22.2867 102.886 22.8024 102.855 23.2787C102.828 23.6657 102.777 23.9635 102.658 24.2829C102.517 24.6645 102.365 24.9712 102.176 25.208C101.591 25.9322 100.971 26.571 100.302 26.9197C99.8978 27.132 99.6135 27.2227 99.2358 27.2438C99.1365 27.249 99.0375 27.2546 98.94 27.2601C97.4781 27.3599 96.0852 27.312 95.1709 26.7092C94.9413 26.5589 94.7881 26.3984 94.6512 26.1895C94.4856 25.9329 94.443 25.7311 94.4368 25.4596C94.4287 25.1031 94.4966 24.5719 94.6146 24.0841C94.6767 23.8124 94.7607 23.6166 94.8247 23.5901C94.8436 23.5789 94.8607 23.5753 94.8806 23.5678C94.943 23.5402 95.1712 23.353 95.1957 23.4169C95.1841 23.4385 95.1598 23.4879 94.9841 23.5931C94.8969 23.6438 94.753 23.7089 94.5835 23.7482C94.417 23.7888 94.2571 23.7906 94.2952 23.7968Z" fill="#1E1E1E"/>
<path d="M103.006 27.314C102.973 27.314 103.08 27.5702 103.369 28.0392C104.372 28.8803 105.47 29.638 105.994 29.9933C106.284 30.2014 106.626 30.4657 107 30.2061" stroke="#1E1E1E" stroke-width="4" stroke-linecap="round" stroke-linejoin="round"/>
<path d="M49.021 52.2407C48.9022 52.5475 49.2823 51.878 50.2687 50.474C51.3276 48.9669 52.5337 47.9783 53.1638 47.5758C53.4565 47.3888 53.7486 47.3617 54.0138 47.3317C54.2789 47.3018 54.5222 47.3018 54.8427 47.3948C56.2274 48.0096 57.0446 48.4208 57.5762 48.676C57.8419 48.8127 58.0993 48.9638 57.9617 49.042" stroke="#1E1E1E" stroke-width="4" stroke-linecap="round" stroke-linejoin="round"/>
<path d="M54.0016 51.314C54.5321 51.314 55.0408 51.1033 55.4158 50.7282C55.7909 50.3531 56.0016 49.8444 56.0016 49.314C56.0016 48.7835 55.7909 48.2748 55.4158 47.8998C55.0408 47.5247 54.5321 47.314 54.0016 47.314C54.0205 47.3177 53.6606 47.2909 53.2421 47.4637C52.8553 47.6077 52.4751 47.9781 52.3425 48.1964C52.149 48.4884 52.0945 48.7052 52.0633 48.8179C52.0256 48.9664 52.0157 49.0681 52.0109 49.1111C52.0025 49.1929 52.0015 49.2437 52.0008 49.2646C51.9994 49.3214 52.0001 49.3372 52.0003 49.3587C52.0008 49.3921 52.0016 49.4088 52.0021 49.4233C52.0033 49.451 52.0042 49.4664 52.0051 49.4832C52.0068 49.5131 52.0083 49.5359 52.0098 49.5592C52.0128 49.6047 52.0156 49.6447 52.0185 49.6851C52.0244 49.7663 52.0302 49.8436 52.036 49.9215C52.0599 50.2364 52.0845 50.5486 52.1091 50.8608C52.2623 52.7872 52.4162 54.7062 52.5859 56.6422C52.5883 56.6696 52.5907 56.6966 52.5931 56.7234C52.6458 57.2394 52.6537 57.6298 52.7953 58.4047C52.8319 58.5521 52.8419 58.691 53.0133 59.0731C53.1198 59.2574 53.2317 59.6175 53.8854 60.0301C54.213 60.228 54.6614 60.3266 54.9844 60.3135C55.3164 60.304 55.5208 60.2381 55.6755 60.1849C56.1747 60.0057 56.5824 59.6356 56.8087 59.1559C57.0351 58.6761 57.0616 58.1262 56.8825 57.6269C56.7033 57.1276 56.3332 56.72 55.8535 56.4936C55.3738 56.2673 54.8238 56.2408 54.3245 56.4199C54.3245 56.4199 54.3245 56.4199 54.3245 56.4199C54.4423 56.3798 54.6105 56.323 54.9036 56.3143C55.1883 56.3022 55.5985 56.3919 55.8929 56.5703C56.4806 56.9441 56.55 57.2348 56.6238 57.3513C56.731 57.5956 56.7051 57.5831 56.7098 57.5821C56.6724 57.4006 56.6172 56.8176 56.5773 56.3675C56.575 56.3415 56.5726 56.3152 56.5702 56.2885C56.4035 54.3866 56.249 52.4609 56.0967 50.5458C56.0723 50.2358 56.0477 49.9244 56.0246 49.6198C56.019 49.5448 56.0134 49.4708 56.0082 49.3983C56.0057 49.3626 56.0032 49.3277 56.0011 49.2961C56.0001 49.2805 55.9992 49.266 55.9987 49.258C55.9985 49.2543 55.9984 49.2517 55.9988 49.2603C55.999 49.2652 55.9994 49.2721 55.9998 49.2964C55.9999 49.3127 56.0005 49.3243 55.9993 49.3761C55.9986 49.3952 55.9977 49.4427 55.9896 49.5227C55.9849 49.5646 55.9753 49.6647 55.9377 49.8124C55.9067 49.9245 55.8524 50.1406 55.6592 50.4322C55.5267 50.6503 55.1468 51.0204 54.7603 51.1644C54.342 51.337 53.9825 51.3102 54.0016 51.314Z" fill="#1E1E1E"/>
<path d="M61.2098 51.314C61.0987 51.314 60.9876 51.314 60.8502 51.4021C60.7128 51.4902 60.5524 51.6665 60.4185 51.8717C60.2846 52.077 60.1819 52.3059 60.1143 52.5413C59.9816 53.0029 59.9867 53.7178 60.0197 54.5352C60.034 54.8899 60.1189 55.1176 60.2155 55.3307C60.6102 56.2014 61.4719 57.0283 62.0887 57.8604C62.8841 58.9332 64.3341 59.5282 66.2139 61.0816C68.7202 63.1526 71.6025 64.4859 73.0192 65.8587C74.7599 67.5455 76.4597 69.7206 77.8767 71.1684C79.2742 73.0254 80.5698 75.5261 81.6924 77.4873C82.0208 77.9713 82.4821 78.6114 83 79.314" stroke="#1E1E1E" stroke-width="4" stroke-linecap="round" stroke-linejoin="round"/>
<path d="M61.7349 53.7699C62.2955 53.7742 62.7176 53.4319 62.9496 52.9421C63.1813 52.4511 63.1966 51.8309 62.9996 51.2399C62.8025 50.649 62.418 50.1621 61.9381 49.9083C61.4585 49.6558 60.9154 49.6353 60.4696 49.9753C60.4696 49.9753 60.4696 49.9753 60.4696 49.9753C60.4749 49.9912 60.4022 49.9855 60.8146 49.9301C60.9499 49.9312 61.0956 49.8649 61.644 50.0287C61.9066 50.113 62.3528 50.3589 62.6358 50.7943C62.9188 51.2246 62.9589 51.6214 62.9614 51.8581C62.9492 52.3227 62.8664 52.4448 62.8286 52.5617C62.7841 52.6694 62.7551 52.7185 62.7295 52.7628C62.5606 53.0233 62.5178 53.0134 62.4501 53.0681C62.3892 53.107 62.3382 53.1283 62.2899 53.1443C62.1938 53.1754 62.11 53.1814 62.0401 53.175C62.1066 53.0609 62.2577 52.9478 62.448 52.86C63.4634 52.4167 64.9618 52.5604 66.367 52.8318C66.4007 52.8381 66.4343 52.8443 66.4677 52.8505C67.2324 53.0922 68.7773 54.2635 70.0534 54.9819C72.7931 56.607 75.6828 57.8878 78.0023 59.6523C79.4702 60.7959 80.8533 62.2721 82.3729 63.7098C83.3764 64.6633 84.4384 65.6154 85.4073 66.5174C85.4749 66.5811 85.5416 66.6448 85.6075 66.7083C85.9732 67.0595 86.2789 67.3841 86.634 67.7748C86.9935 68.1671 87.506 68.3638 88.0386 68.3433C88.5714 68.3226 89.0843 68.0826 89.4609 67.6799C89.8374 67.2772 90.0425 66.7494 90.0274 66.2164C90.0121 65.6836 89.7814 65.1854 89.366 64.8531C89.366 64.8531 89.366 64.8531 89.366 64.8531C88.9481 64.5144 88.4591 64.1319 88.0041 63.808C87.9198 63.7476 87.8358 63.6879 87.7519 63.6286C86.5908 62.8222 85.5073 62.081 84.4231 61.2715C82.8448 60.1042 81.311 58.7457 79.4757 57.5398C76.6573 55.7591 73.7305 54.6782 71.0767 53.1906C69.6924 52.5036 68.9255 51.6099 66.8287 50.8833C66.7977 50.8776 66.7664 50.8718 66.7348 50.8659C65.3419 50.62 64.0259 50.045 62.1784 49.8101C61.7955 49.7732 61.3754 49.7604 60.898 49.8317C60.6452 49.8878 60.3872 49.9812 60.1338 50.1246C60.007 50.1967 59.8817 50.2801 59.7527 50.3876C59.6173 50.5111 59.5109 50.575 59.295 50.9199C59.2632 50.9759 59.229 51.0358 59.1798 51.1557C59.1375 51.2844 59.0508 51.4189 59.0386 51.8961C59.0412 52.1392 59.0826 52.5424 59.3691 52.9781C59.6556 53.4188 60.1075 53.6682 60.376 53.7546C60.9367 53.9223 61.0953 53.8554 61.2431 53.8552C61.7061 53.7932 61.6814 53.7696 61.7349 53.7699Z" fill="#1E1E1E"/>
<path d="M78.9466 58.7171C79.4591 58.5684 79.8509 58.1848 80.0519 57.6899C80.2527 57.1947 80.2434 56.6217 80.029 56.104C79.8146 55.5862 79.416 55.1745 78.9238 54.9663C78.4317 54.7585 77.8835 54.7643 77.4159 55.0215C77.4159 55.0215 77.4159 55.0215 77.4159 55.0215C77.383 55.0395 77.3448 55.0594 77.2812 55.0915C77.2468 55.1091 77.2136 55.125 77.1297 55.1696C77.0782 55.2 77.0519 55.2025 76.8499 55.3433C76.7916 55.3883 76.7242 55.4288 76.5617 55.597C76.5286 55.632 76.4648 55.7033 76.4036 55.7876C76.3404 55.8781 76.2747 55.964 76.1759 56.1915C76.092 56.4079 75.9884 56.6824 76.0345 57.1772C76.0832 57.6562 76.3332 58.0847 76.5727 58.3268C76.8427 58.5958 76.9802 58.6537 77.1237 58.7313C77.2651 58.8009 77.3689 58.8338 77.4336 58.8535C77.5776 58.8964 77.6777 58.9109 77.7366 58.9192C77.8756 58.937 77.9275 58.936 77.9884 58.9374C78.7575 58.8871 79.0842 58.7347 79.4571 58.6294C80.7582 58.1945 81.87 57.9079 83.1342 57.808C85.7172 57.5817 87.9649 57.9276 90.4809 59.04C90.858 59.1761 91.2993 59.4653 91.7414 59.7961C92.3757 60.2548 92.9765 61.027 93.5784 61.7868C93.5819 61.7912 93.5853 61.7956 93.5888 61.8C93.6056 61.8216 93.6245 61.8419 93.6394 61.8656C94.7426 63.6352 95.5445 65.6609 96.669 67.4506C96.8936 67.8089 97.131 68.1583 97.3856 68.495C97.3921 68.5035 97.3985 68.512 97.405 68.5205C97.725 68.9436 98.1999 69.2222 98.7253 69.295C99.2507 69.3679 99.7835 69.229 100.207 68.909C100.63 68.589 100.908 68.1141 100.981 67.5887C101.054 67.0632 100.915 66.5304 100.595 66.1074C100.595 66.1074 100.595 66.1074 100.595 66.1074C100.589 66.099 100.582 66.0905 100.576 66.0821C100.324 65.7489 100.056 65.4275 99.7754 65.1145C98.3718 63.5497 96.6845 62.1925 95.2187 60.6374C95.1988 60.6164 95.1832 60.5924 95.1658 60.5701C95.1623 60.5655 95.1587 60.5609 95.1551 60.5564C94.526 59.774 93.9381 58.9308 93.0009 58.1735C92.5177 57.7902 92.0018 57.3812 91.295 57.0646C88.9955 55.8424 85.9207 54.9601 83.1431 54.8201C81.6657 54.697 80.0561 54.8155 78.6897 54.9837C78.3636 55.0199 77.9871 55.0346 78.0395 54.9855C78.0953 54.9868 78.1432 54.9856 78.2775 55.0028C78.3344 55.0108 78.4318 55.0249 78.5738 55.0671C78.6376 55.0866 78.7401 55.119 78.8805 55.1881C79.023 55.2652 79.1597 55.3226 79.4287 55.5907C79.6675 55.832 79.917 56.2595 79.9655 56.7374C80.0115 57.2309 79.9082 57.5045 79.8247 57.7197C79.7264 57.9461 79.6612 58.0311 79.5987 58.1208C79.5381 58.2042 79.4753 58.2744 79.4429 58.3087C79.2834 58.4736 79.2197 58.5113 79.1651 58.5537C78.9779 58.6839 78.9679 58.6779 78.9325 58.7C78.8812 58.728 78.881 58.729 78.88 58.7319C78.8831 58.7348 78.9122 58.7269 78.9466 58.7171Z" fill="#1E1E1E"/>
<path d="M88.0034 57.0574C87.9728 57.0574 88.1462 56.9004 88.6461 56.6232C89.3127 56.2535 90.9876 56.322 92.9644 56.3147C95.5133 56.3055 98.1642 57.411 100.008 58.1963C100.916 58.5828 101.603 59.232 102.223 59.825C102.8 60.5123 103.8 62.1214 104.986 64.1965C105.456 65.0387 105.657 65.4529 106 66.314" stroke="#1E1E1E" stroke-width="4" stroke-linecap="round" stroke-linejoin="round"/>
<path d="M50.9727 57.9849C50.9761 57.4466 50.6942 56.9779 50.2545 56.671C49.8141 56.3642 49.2403 56.2462 48.6709 56.3412C48.1016 56.4362 47.5971 56.734 47.2801 57.1671C46.9638 57.6001 46.8494 58.1349 47.0273 58.643C47.0273 58.643 47.0273 58.643 47.0273 58.643C47.1427 58.9979 47.2532 59.2875 47.3663 59.5995C47.8637 60.9411 48.3386 62.2565 48.9164 63.6153C49.3512 64.581 49.8153 64.8594 50.2433 65.2629C50.5747 65.5945 51.2733 65.9171 51.6399 65.9647C53.2544 66.2666 54.5863 66.1557 55.9054 66.2644C55.9388 66.2668 55.9721 66.2693 56.0051 66.2719C57.359 66.3781 58.6904 66.3894 60.0347 66.3944C60.3767 66.3789 60.7508 66.344 61.2132 66.1465C61.6408 65.9648 62.1502 65.5484 62.4007 64.9553C62.6815 64.2654 62.6322 63.7761 62.6314 63.4105C62.6274 63.2952 62.6193 63.1794 62.6094 63.0692C62.5642 62.6011 62.5087 62.2412 62.4658 61.8891C62.4102 61.3407 62.0422 60.9391 61.5431 60.733C61.043 60.5274 60.4351 60.541 59.8707 60.764C59.3064 60.987 58.8533 61.3926 58.6289 61.8846C58.4055 62.3761 58.4114 62.9208 58.7457 63.3591C58.7457 63.3591 58.7457 63.3591 58.7457 63.3591C58.9309 63.5885 59.0998 63.8124 59.213 63.9485C59.24 63.9813 59.2645 64.0096 59.2878 64.0394C59.3731 64.1436 59.3754 64.1528 59.496 63.9217C59.6063 63.7327 59.7976 63.6396 59.8525 63.6585C59.8943 63.689 59.7974 63.7716 59.6682 63.8245C58.5185 64.1834 57.3186 64.3596 56.1566 64.2772C56.1205 64.2747 56.0844 64.2721 56.0482 64.2695C54.6659 64.1686 53.2515 64.1406 52.2208 63.7953C51.9464 63.6936 52.0391 63.7044 51.9083 63.563C51.7613 63.3925 51.6309 63.2239 51.5354 63.0699C51.4411 62.9245 51.3818 62.7548 51.4266 62.7898C51.1663 61.5517 51.036 60.1982 50.9832 58.8669C50.9731 58.5671 50.9619 58.2406 50.9727 57.9849Z" fill="#1E1E1E"/>
<path d="M102.968 60.5697C103.478 60.4127 103.866 60.0253 104.062 59.529C104.259 59.0323 104.245 58.4609 104.027 57.947C103.809 57.433 103.407 57.0264 102.913 56.8229C102.419 56.6198 101.871 56.6302 101.404 56.888C101.404 56.888 101.404 56.888 101.404 56.888C101.376 56.9051 101.356 56.9133 101.456 56.8827C101.533 56.8709 101.534 56.8231 102.008 56.7996C102.14 56.8023 102.322 56.7973 102.652 56.9049C102.964 56.9943 103.517 57.3558 103.757 57.8556C104.002 58.3415 103.983 58.7009 103.974 58.8943C103.957 59.1033 103.925 59.2134 103.898 59.3063C103.775 59.6663 103.734 59.6712 103.694 59.7446C103.656 59.7998 103.631 59.8286 103.609 59.8538C103.565 59.9019 103.533 59.9284 103.498 59.9555C103.429 60.0071 103.355 60.0576 103.215 60.1179C102.803 60.2822 102.559 60.1855 102.455 60.1327C102.476 60.1268 102.526 60.134 102.587 60.1511C103.989 60.6895 105.891 62.377 107.661 63.6719C108.446 64.237 108.988 64.7961 109.553 65.6123C111.054 67.7545 112.38 70.0433 113.946 72.2924C113.981 72.3412 114.015 72.3896 114.049 72.4375C114.984 73.707 115.571 75.2441 116.331 76.8409C116.335 76.848 116.346 76.8683 116.35 76.8753C117.869 79.7738 119.124 82.6391 120.759 85.712C120.791 85.7692 120.822 85.8246 120.852 85.8787L120.821 85.8332C120.921 86.0399 120.938 86.1338 120.976 86.2967C121.011 86.4561 121.051 86.6696 121.088 86.9023C121.184 87.4279 121.528 87.8542 122.003 88.1006C122.477 88.347 123.05 88.391 123.588 88.2255C124.126 88.0599 124.575 87.7012 124.829 87.2306C125.083 86.7601 125.128 86.2139 124.912 85.7256C124.912 85.7256 124.912 85.7256 124.912 85.7256C124.69 85.1963 124.302 84.3687 123.853 83.836C123.846 83.8275 123.829 83.7987 123.822 83.7904C123.782 83.7443 123.742 83.6996 123.703 83.6552C121.752 81.3544 119.959 78.5209 118.265 75.7964L118.283 75.8308C117.464 74.4112 116.767 72.7574 115.674 71.2705C115.642 71.2266 115.61 71.1821 115.579 71.1371C114.114 69.0385 112.872 66.6817 111.522 64.3599C110.998 63.4172 110.185 62.3797 109.359 61.6443C107.719 60.1706 106.628 58.5315 104.193 56.879C104.032 56.7874 103.848 56.6935 103.635 56.6096C103.096 56.4104 102.354 56.2902 101.523 56.6597C101.228 56.7963 101.012 56.9506 100.817 57.1209C100.72 57.2076 100.629 57.2976 100.531 57.4136C100.481 57.4727 100.431 57.5363 100.37 57.6282C100.306 57.7382 100.243 57.7809 100.107 58.1823C100.078 58.2845 100.044 58.4035 100.026 58.6219C100.016 58.8243 99.9981 59.1938 100.247 59.6879C100.492 60.1962 101.053 60.5635 101.374 60.6558C101.713 60.7664 101.904 60.7622 102.045 60.7649C102.557 60.7402 102.595 60.6812 102.707 60.6579C102.878 60.6034 102.927 60.5817 102.968 60.5697Z" fill="#1E1E1E"/>
<path d="M74.043 69.3169C74.1006 69.818 74.3192 70.2985 74.6886 70.6529C75.0576 71.0072 75.5418 71.2062 76.043 71.2062C76.5443 71.2062 77.0285 71.0072 77.3975 70.6529C77.7668 70.2985 77.9855 69.818 78.043 69.3169C78.043 69.3169 78.043 69.3169 78.043 69.3169C78.0422 69.198 78.0361 69.0454 77.9828 68.8283C77.9555 68.72 77.9152 68.595 77.8486 68.4549C77.767 68.2781 77.5926 68.0046 77.3423 67.794C77.0928 67.5771 76.7606 67.4197 76.462 67.3583C76.1929 67.3033 76.024 67.3084 75.8515 67.3225C75.5247 67.3544 75.3017 67.4519 75.1917 67.5024C74.8323 67.683 74.777 67.7679 74.707 67.8207C74.5857 67.9302 74.5584 67.9663 74.5261 68.0006C74.466 68.0682 74.4451 68.0953 74.4213 68.1244C74.3799 68.1762 74.3582 68.2047 74.3368 68.2324C74.2964 68.285 74.268 68.3227 74.241 68.3586C74.188 68.429 74.1439 68.4888 74.1012 68.5471C74.0165 68.6628 73.9396 68.7707 73.8645 68.8776C73.4311 69.5543 73.238 70.1955 73.0917 70.7221C72.9615 71.2075 72.8731 71.6423 72.7929 72.0661C72.1486 75.246 72.4059 79.0329 73.5562 82.0884C74.4676 84.6388 76.082 86.0555 77.1604 87.3199C77.1926 87.3555 77.2249 87.3914 77.2575 87.4274C79.0567 89.4453 81.1144 91.7333 83.5375 93.6001C85.1212 94.8436 86.6621 95.465 87.1252 95.9687L87.0053 95.8249C88.9145 97.9472 90.7076 99.4061 92.494 101.039C92.5685 101.107 92.6457 101.177 92.7179 101.243L92.457 100.894C92.6249 101.074 92.9037 101.608 93.1511 102.077C93.3868 102.528 93.7726 102.895 94.252 103.086C94.7312 103.276 95.2605 103.276 95.7294 103.082C96.1983 102.889 96.5739 102.516 96.7795 102.043C96.9853 101.57 97.0001 101.038 96.8489 100.551C96.8489 100.551 96.8489 100.551 96.8489 100.551C96.6612 99.9876 96.5352 99.4715 96.1336 98.6857C96.0818 98.6135 95.9381 98.3973 95.8727 98.3371C95.8057 98.2515 95.7345 98.162 95.6671 98.0773C94.1285 96.1401 92.391 94.2157 91.2066 92.5649C91.1821 92.5365 91.1132 92.4478 91.0868 92.4212C89.4519 90.5621 87.9643 90.0069 87.1868 89.1968C85.2777 87.5068 83.6326 85.565 81.7129 83.4088C81.678 83.3701 81.643 83.3314 81.608 83.2929C80.3697 81.9313 79.3146 80.8624 78.9984 80.059C77.8926 77.5871 77.4373 75.2816 77.428 72.5328C77.4275 72.172 77.4319 71.8252 77.4455 71.5361C77.4597 71.2129 77.4878 71.0022 77.4825 70.922C77.5218 70.8266 77.5612 70.7328 77.5961 70.6496C77.6133 70.6085 77.6301 70.5688 77.6397 70.5418C77.6441 70.5289 77.6478 70.5176 77.6403 70.5227C77.6357 70.5264 77.6305 70.5316 77.6067 70.5602C77.5922 70.5773 77.5798 70.5936 77.5295 70.65C77.5017 70.6792 77.4796 70.7097 77.3638 70.8143C77.2964 70.8649 77.2443 70.9471 76.8877 71.1264C76.7785 71.1765 76.5566 71.2736 76.2306 71.3054C76.0585 71.3196 75.89 71.3246 75.6213 71.2697C75.3231 71.2084 74.9914 71.0512 74.7423 70.8346C74.4923 70.6243 74.3182 70.3512 74.2368 70.1748C74.1704 70.0351 74.1301 69.9105 74.103 69.8025C74.0498 69.5863 74.0438 69.4346 74.043 69.3169Z" fill="#1E1E1E"/>
</svg>
