<svg width="265" height="265" viewBox="0 0 265 265" fill="none" xmlns="http://www.w3.org/2000/svg">
<rect width="265" height="265" fill="#CBCFC6"/>
<path d="M95.3237 69.7183C96.1406 68.2194 96.123 66.8456 96.3335 66.6284C96.5672 66.4208 96.7941 66.2193 97.1558 66.1243C97.5176 66.0292 97.9996 66.0403 98.3925 66.1126C98.7855 66.185 99.0804 66.3147 99.3242 66.5132C99.5681 66.7117 99.7552 66.9712 99.8585 67.6953C99.9619 68.4193 99.9808 69.5731 100.061 70.3319C100.142 71.0908 100.28 71.4441 100.51 71.6762C100.741 71.9083 101.054 72.0545 101.41 72.0442C102.148 72.0227 103.469 71.8095 104.969 71.2127C106.063 70.7777 106.882 70.1461 107.729 69.7126C108.102 69.5214 108.416 69.4717 108.69 69.5506C108.963 69.6296 109.19 69.8311 109.476 70.1437C109.762 70.4563 110.096 70.8675 110.299 71.2481C110.501 71.6286 110.569 71.9681 110.578 72.3084C110.587 72.6488 110.577 73.0025 110.396 73.285C110.028 73.8604 109.152 74.481 108.497 75.8849C107.921 77.1214 107.425 78.2143 107.45 78.9144C107.462 79.2502 107.527 79.5782 107.746 79.8195C108.196 80.317 108.852 80.6259 109.448 81.026C109.737 81.2201 110.035 81.4479 110.047 81.741C110.071 82.3336 110.005 83.2885 109.467 85.175C108.737 87.738 108.209 90.6412 106.745 91.4696C106.47 91.6252 106.156 91.6059 105.766 91.4981C105.375 91.3904 104.919 91.2053 104.548 91.0478C103.077 90.4247 100.828 88.2385 98.2234 87.9023C97.1531 87.7642 96.2727 87.7193 95.6557 87.9541C95.0301 88.1922 94.3303 88.379 93.9071 88.9197C92.7822 90.3571 92.0829 91.9003 91.4788 91.9877C90.8403 92.08 88.6023 92.2158 86.9984 91.3454C86.6941 91.1803 86.3898 90.9401 86.2425 90.6495C86.0952 90.3588 86.0579 90.0186 86.1444 89.6814C86.5034 88.2815 87.5693 86.7579 87.7127 85.2035C87.7524 84.7731 87.7524 84.2404 87.7017 83.7778C87.6511 83.3153 87.624 82.8819 87.3771 82.6103C86.3651 81.4971 84.6294 80.404 83.7711 78.9594C83.5985 78.6689 83.5588 78.3487 83.5896 77.8516C83.6204 77.3546 83.7187 76.7004 83.8389 76.2141C83.9592 75.7278 84.0749 75.4015 84.3132 75.1034C84.8147 74.4763 85.2717 73.7347 85.8978 73.4976C86.4722 73.28 87.2678 73.3302 88.2064 73.1571C90.1065 72.8066 91.8139 72.5051 93.7338 71.183L93.7381 71.18C94.4423 70.6952 95.0009 70.3105 95.3237 69.7183Z" fill="#1E1E1E" stroke="#1E1E1E" stroke-width="4" stroke-linecap="round" stroke-linejoin="round"/>
<path d="M97.5197 75.4999C97.5818 75.4987 97.6374 75.498 97.6864 75.4976C97.7521 75.4518 97.8287 75.376 97.9157 75.3125C98.1474 75.1435 98.4441 75.0643 98.898 75.0557C99.9453 75.1071 100.887 75.129 101.513 75.2815C101.824 75.3572 102.109 75.4855 102.394 75.6874C102.68 75.8893 102.958 76.1568 103.158 76.4804C103.359 76.8039 103.512 77.1698 103.538 77.7236C103.598 78.9872 103.604 80.0426 103.486 80.697C103.367 81.357 103.213 82.0451 102.879 82.6722C102.544 83.3032 102.124 83.9379 101.523 84.4173C101.221 84.6578 100.894 84.8543 100.543 84.9525C100.191 85.0508 99.8187 85.0963 99.4339 85.01C97.7812 84.6394 95.8336 84.1632 94.4699 82.9285C94.1289 82.6198 93.8418 82.2432 93.7031 81.82C93.5645 81.3969 93.5617 80.94 93.6042 80.529C93.6839 79.7593 93.7718 78.9908 94.0805 78.2336C94.4152 77.4126 94.7751 76.5717 95.3929 76.0583C95.6998 75.8033 96.0587 75.5885 96.4718 75.5551C96.9213 75.5188 97.2722 75.5049 97.5197 75.4999Z" fill="white"/>
<path d="M97.9282 75.4979C97.8103 75.4979 97.3141 75.487 96.4718 75.5551C96.0587 75.5885 95.6998 75.8033 95.3929 76.0583C94.7751 76.5717 94.4152 77.4126 94.0805 78.2336C93.7718 78.9908 93.6839 79.7593 93.6042 80.529C93.5617 80.94 93.5645 81.3969 93.7031 81.82C93.8418 82.2432 94.1289 82.6198 94.4699 82.9285C95.8336 84.1632 97.7812 84.6394 99.4339 85.01C99.8187 85.0963 100.191 85.0508 100.543 84.9525C100.894 84.8543 101.221 84.6578 101.523 84.4173C102.124 83.9379 102.544 83.3032 102.879 82.6722C103.213 82.0451 103.367 81.357 103.486 80.697C103.604 80.0426 103.598 78.9872 103.538 77.7236C103.512 77.1698 103.359 76.8039 103.158 76.4804C102.958 76.1568 102.68 75.8893 102.394 75.6874C102.109 75.4855 101.824 75.3572 101.513 75.2815C100.887 75.129 99.9453 75.1071 98.898 75.0557C98.4441 75.0643 98.1474 75.1435 97.9157 75.3125C97.684 75.4816 97.5261 75.7381 97.45 75.2829" stroke="#1E1E1E" stroke-width="4" stroke-linecap="round" stroke-linejoin="round"/>
<path d="M162.058 70.3598C162.675 70.3119 162.97 70.3116 162.97 70.2896C163.491 69.7542 163.59 70.3088 163.91 70.2837C164.555 70.2283 165.265 70.1586 165.988 70.1462C166.653 70.26 167.328 70.3109 167.813 70.6636C168.304 71.0208 168.832 71.8013 170.126 72.8751C170.441 73.1366 170.746 73.2848 171.101 73.3957C171.455 73.5065 171.846 73.5779 172.24 73.598C172.634 73.6181 173.028 73.6226 173.401 73.4796C174.156 73.19 175.721 70.5899 177.542 70.5674C177.838 70.5637 178.165 70.6649 178.75 71.0375C180.198 71.9585 181.315 72.7442 181.747 73.2385C181.96 73.4824 182.142 73.7321 182.287 74.0408C182.432 74.3494 182.537 74.7062 182.569 75.0697C182.602 75.4333 182.563 75.7928 182.445 76.1521C182.327 76.5114 182.156 76.8766 181.893 77.1897C181.363 77.8213 180.117 78.5125 179.592 79.8187C179.472 80.1173 179.433 80.4466 179.473 80.7922C179.514 81.1378 179.629 81.4891 179.845 81.6944C180.06 81.8997 180.365 81.9574 180.645 82.095C180.925 82.2327 181.173 82.444 181.333 82.7037C181.492 82.9635 181.594 83.2663 181.509 83.9465C181.296 85.6678 181.089 87.0294 180.802 87.5883C180.495 88.1856 180.12 88.819 179.567 89.3216C178.996 89.84 178.454 90.3552 177.866 90.5467C177.574 90.6415 177.258 90.6878 176.962 90.5859C176.36 90.3793 175.673 89.6009 174.716 88.9977C174.32 88.7479 174.006 88.7369 173.7 88.7469C173.394 88.757 173.09 88.7526 172.833 88.8956C172.313 89.1851 171.269 91.2335 169.226 92.3913C167.613 93.3049 166.33 93.9894 165.644 94.0454C165.279 94.0751 164.877 94.045 164.567 93.8913C164.258 93.7377 164.049 93.4687 163.875 93.1604C163.701 92.852 163.532 92.5196 163.504 92.1803C163.451 91.5251 163.945 90.5468 163.974 89.0473C163.993 88.0747 163.987 87.1661 163.699 86.5411C163.553 86.2225 163.356 85.901 163.066 85.6999C162.492 85.3008 161.892 84.885 161.226 84.8279C160.522 84.7676 159.514 84.9684 158.482 84.795C158.048 84.7221 157.8 84.5328 157.528 84.1554C157.256 83.7779 156.969 83.2291 156.786 82.8006C156.603 82.3721 156.526 82.073 156.621 81.8471C156.716 81.6212 156.975 81.473 157.277 81.3777C157.579 81.2824 157.945 81.3102 158.238 81.1188C159.39 80.3638 160.841 79.3532 161.528 77.981C161.688 77.6613 161.823 77.3018 161.89 76.8704C161.957 76.439 161.957 75.9506 161.892 75.5522C161.828 75.1539 161.732 74.8354 161.552 74.5766C160.839 73.5529 160.093 72.796 160.047 72.1632C160.025 71.8638 160.15 71.5757 160.345 71.3284C160.54 71.0811 160.797 70.8808 161.099 70.7142C161.401 70.5476 161.733 70.385 162.058 70.3598Z" fill="#1E1E1E" stroke="#1E1E1E" stroke-width="4" stroke-linecap="round" stroke-linejoin="round"/>
<path d="M169.234 76.1973C170.022 76.0845 170.479 76.0337 170.551 76.0646C171.562 76.4972 171.905 76.8675 172.507 76.9684C173.109 77.0693 173.091 77.6518 173.359 77.9102C173.861 78.4988 174.129 79.679 174.447 80.7235C174.585 81.1785 174.595 81.5201 174.568 81.8991C174.542 82.2782 174.505 82.6903 174.377 83.0547C174.13 83.7572 173.826 84.4388 173.359 84.9957C173.125 85.2741 172.861 85.5132 172.507 85.6973C172.153 85.8814 171.726 86.046 171.215 86.0532C170.135 86.0683 169.228 86.0212 168.517 85.728L168.487 85.7158C167.539 85.3249 166.598 84.9371 166.119 84.3122C165.873 83.9901 165.668 83.5915 165.628 83.1329C165.547 82.1932 165.561 81.3376 165.729 80.6166C165.909 79.8419 166.089 79.0354 166.48 78.328C166.684 77.9611 166.927 77.5809 167.246 77.3245C167.858 76.8331 168.483 76.3046 169.234 76.1973Z" fill="white" stroke="#1E1E1E" stroke-width="4" stroke-linecap="round" stroke-linejoin="round"/>
<path d="M125.586 73.3014C126.115 73.266 126.601 73.0087 126.938 72.5976C127.275 72.1864 127.435 71.6531 127.383 71.117C127.33 70.5809 127.071 70.0884 126.661 69.7499C126.251 69.4115 125.725 69.2528 125.198 69.3202C125.198 69.3202 125.198 69.3202 125.198 69.3202C125.155 69.3302 124.667 69.3496 124.174 69.6533C123.685 69.9554 123.451 70.3346 123.327 70.5665C123.003 71.2396 123.005 71.58 122.958 71.9185C122.926 72.2462 122.923 72.523 122.924 72.7879C122.928 73.3144 122.959 73.7865 122.989 74.246C122.991 74.7732 123.249 75.73 123.63 76.2349C124.019 76.813 124.487 77.2161 124.99 77.5296C126.804 78.6007 128.561 78.9137 130.24 79.2026C132.752 79.593 135.178 79.7489 137.601 79.9275C138.354 79.9614 139.253 80.0862 140.368 79.6734C140.978 79.4421 141.457 79.0864 141.831 78.7534C142.138 78.4833 142.509 78.0942 142.77 77.6312C143.071 77.1109 143.22 76.5313 143.279 76.0426C143.349 75.4171 143.342 74.8879 143.253 74.2577C143.192 73.7934 142.975 73.0899 142.539 72.5979C141.467 71.4825 140.585 71.3078 139.785 70.9096C138.874 70.5 137.934 70.3626 137.112 70.2923C135.384 70.1333 133.819 70.5883 132.706 70.5289C132.482 70.5618 131.944 70.2191 130.954 69.9627C128.87 69.5488 127.333 70.6357 126.323 70.7302C125.413 70.8583 124.731 71.2669 124.211 71.5207C123.193 72.0922 123.146 72.8951 123.023 73.3357C122.928 73.8195 122.891 74.2267 122.825 74.5414C122.5 76.3699 122.544 77.8863 122.454 79.5102C122.348 82.6639 122.421 85.7524 122.361 88.8184C122.336 91.0619 122.11 93.1957 122.022 95.555C122.02 95.6133 122.019 95.6713 122.018 95.729C121.927 99.3997 121.903 103.113 121.603 106.69C121.55 107.241 121.418 107.832 121.237 108.365C121.292 108.148 121.572 107.936 121.656 107.924C121.752 107.892 121.741 107.906 121.71 107.904C121.638 107.906 121.478 107.892 121.311 107.871C120.965 107.832 120.563 107.762 120.046 107.787C117.27 108.139 115.498 109.371 113.365 109.928C112.486 110.188 111.576 110.591 110.796 111.188C109.928 111.873 109.671 112.713 109.392 113.318C108.92 114.424 108.685 115.584 108.563 116.701C108.508 117.225 108.514 117.753 108.646 118.326C108.806 119.077 109.336 119.671 109.709 120.027C112.874 122.984 116.518 124.978 120.655 126.346C123.165 126.913 125.346 126.821 127.58 127C131.276 127.207 134.9 127.245 138.557 127.262C142.633 127.288 146.532 125.936 150.025 124.404C152.555 123.297 154.825 122.547 157.736 121.111C158.197 120.798 158.533 120.469 158.847 120.12C159.149 119.783 159.437 119.352 159.625 118.894C160.092 117.603 159.966 116.734 159.959 115.845C159.937 115.217 159.758 114.59 159.56 114.105C159.158 113.103 158.499 112.329 157.897 111.711C156.148 109.983 154.176 109.145 152.305 108.273C150.786 107.59 149.279 106.859 147.8 106.093C147.058 105.708 146.326 105.315 145.614 104.91C145.259 104.707 144.906 104.5 144.576 104.293C144.411 104.189 144.253 104.087 144.114 103.989C144.047 103.941 143.983 103.894 143.942 103.86C143.924 103.845 143.908 103.831 143.915 103.836C143.924 103.849 143.943 103.84 144.077 104.033C144.227 104.282 144.197 104.356 144.205 104.331C144.205 104.309 144.21 104.215 144.227 104.106C144.261 103.881 144.332 103.587 144.416 103.284C144.584 102.672 144.799 102.006 145.001 101.316C145.692 97.3396 145.623 94.3392 145.86 90.8992C145.958 88.8462 145.745 86.9497 145.542 85.0941C145.401 83.8538 145.247 82.6346 145.099 81.4151L145.107 81.481C144.911 79.7802 144.981 78.3465 144.24 76.0929C144.232 76.0713 144.203 76.0081 144.193 75.987C143.917 75.3459 143.319 74.5518 142.736 74.0924C142.329 73.7517 141.802 73.5936 141.274 73.6486C140.746 73.7036 140.259 73.9678 139.922 74.3825C139.585 74.7972 139.425 75.3273 139.479 75.8555C139.533 76.3837 139.796 76.8675 140.212 77.196C140.212 77.196 140.212 77.196 140.212 77.196C140.43 77.3752 140.475 77.4109 140.628 77.6994L140.581 77.5935C140.925 78.4392 141.125 80.3218 141.311 81.8641C141.312 81.8773 141.316 81.9169 141.318 81.93C141.502 83.1506 141.688 84.3617 141.858 85.5615C142.107 87.3533 142.335 89.1259 142.296 90.7541C142.182 94.0189 142.181 97.7682 141.808 100.421C141.636 101.068 141.438 101.729 141.254 102.46C141.163 102.829 141.073 103.21 141.013 103.674C141.001 104.148 140.767 104.665 141.372 105.779C141.558 106.052 141.654 106.12 141.747 106.21C141.824 106.28 141.903 106.343 141.961 106.388C142.088 106.486 142.198 106.562 142.304 106.633C142.52 106.777 142.714 106.896 142.913 107.016C143.307 107.25 143.695 107.465 144.081 107.674C144.853 108.091 145.623 108.482 146.401 108.865C147.951 109.625 149.516 110.343 151.106 111.019C152.899 111.789 154.707 112.614 155.854 113.734C156.365 114.236 156.742 114.706 156.941 115.177C157.078 115.502 157.14 115.733 157.157 115.983C157.209 116.738 157.188 117.576 157.071 117.849C157.007 118.011 156.925 118.148 156.785 118.313C156.597 118.534 156.38 118.739 156.212 118.856C154.261 119.822 151.421 120.942 148.992 122.034C145.581 123.596 142.118 124.816 138.548 124.845C134.929 124.876 131.284 124.88 127.716 124.72C125.471 124.578 123.108 124.628 121.22 124.205C117.654 123.072 113.951 121.102 111.174 118.504C111.027 118.364 110.901 118.228 110.825 118.121C110.748 118.009 110.724 117.958 110.691 117.835C110.628 117.58 110.613 117.246 110.647 116.925C110.748 115.931 110.944 114.983 111.303 114.128C111.561 113.496 111.811 112.99 112.047 112.831C112.595 112.407 113.235 112.112 113.957 111.892C116.202 111.261 118.401 109.986 120.165 109.808C120.375 109.794 120.697 109.833 121.072 109.879C121.265 109.9 121.467 109.928 121.759 109.923C121.908 109.917 122.083 109.913 122.349 109.82C122.604 109.748 123.037 109.41 123.148 109.016C123.381 108.314 123.534 107.625 123.608 106.879C123.912 103.119 123.925 99.4605 124.018 95.7706C124.019 95.7128 124.02 95.6548 124.021 95.5965C124.099 93.4637 124.344 91.1272 124.382 88.8678C124.462 85.7494 124.424 82.6399 124.571 79.612C124.674 78.0379 124.702 76.3339 124.975 75.0111C125.083 74.5245 125.127 74.1131 125.2 73.7938C125.234 73.6377 125.278 73.5075 125.304 73.4595C125.335 73.4029 125.305 73.4894 125.19 73.547C125.803 73.2491 126.257 73.036 126.613 73.004C128.441 72.6991 129.583 72.0302 130.422 72.3037C130.764 72.353 131.391 72.8593 132.551 72.9818C134.351 73.07 135.666 72.6942 136.851 72.8714C137.563 72.9548 138.168 73.0861 138.662 73.3329C139.438 73.6969 140.285 74.1495 140.408 74.3625C140.435 74.4127 140.443 74.4114 140.473 74.6451C140.506 74.9393 140.496 75.3514 140.445 75.6501C140.403 75.8931 140.344 76.0393 140.266 76.1564C140.193 76.2661 140.103 76.3622 139.908 76.5212C139.678 76.7099 139.487 76.8152 139.342 76.8581C139.111 76.9534 138.541 76.9293 137.888 76.8515C135.498 76.5696 133.105 76.293 130.864 75.824C129.381 75.5083 127.92 75.0755 126.984 74.42C126.875 74.3399 126.795 74.2362 126.787 74.2012C126.754 74.1368 126.789 74.1831 126.797 74.1996C126.807 74.2179 126.802 74.1831 126.804 74.0992C126.8 73.6603 126.8 73.2332 126.82 72.8606C126.83 72.6764 126.846 72.5038 126.867 72.3844C126.876 72.2783 126.953 72.1664 126.836 72.4384C126.772 72.5571 126.618 72.8295 126.24 73.0646C125.858 73.2999 125.502 73.3031 125.586 73.3014Z" fill="#1E1E1E"/>
<path d="M109.783 118.094C109.656 118.343 109.477 123.712 109.654 126.983C109.692 127.672 110.354 128.34 110.917 129.041C111.76 130.092 113.863 131.253 115.825 132.664C116.423 133.094 117.146 133.492 118.147 133.853C119.18 134.225 120.428 134.273 122.823 134.621C127.415 135.288 132.075 135.954 134.946 136.054C136.457 136.107 141.12 134.905 147.707 133.083C151.98 131.901 154.716 130.519 155.235 130.11C155.495 129.906 155.647 129.597 155.792 129.295C156.406 128.015 156.735 126.148 157.067 124.635C157.17 123.923 157.337 122.918 157.529 121.03C157.604 119.774 157.634 117.915 157.34 116.056" stroke="#1E1E1E" stroke-width="4" stroke-linecap="round" stroke-linejoin="round"/>
<path d="M90.6884 94.0557C91.2188 94.1005 91.7275 93.8946 92.1026 93.5155C92.4776 93.1361 92.6884 92.609 92.6884 92.0557C92.6884 91.5024 92.4776 90.9752 92.1026 90.5958C91.7275 90.2167 91.2188 90.0108 90.6884 90.0557C90.6884 90.0557 90.6884 90.0557 90.6884 90.0557C90.6648 90.0607 90.5063 90.047 90.2023 90.1102C89.9026 90.1664 89.4647 90.3759 89.2039 90.6331C88.6786 91.1656 88.655 91.4851 88.5846 91.6857C88.3252 93.2407 88.6013 93.8639 88.7137 94.7313C88.8607 95.5435 89.0267 96.3161 89.1872 97.0819C89.5788 98.9295 89.9454 100.75 90.2256 102.583C90.8911 106.782 90.9427 111.075 91.3515 115.474C91.3592 115.549 91.3667 115.624 91.3739 115.698C91.6065 118.115 91.6924 120.53 91.347 122.859C91.2669 123.467 90.9127 123.923 90.3089 124.723C89.7605 125.569 88.2317 125.966 86.7749 126.871C85.4709 127.727 84.3791 128.108 82.6858 129.297C82.23 129.733 82.0567 130.182 81.9121 130.523C80.9625 134.363 81.7632 137.268 81.9913 140.504C82.4382 144.669 82.832 148.856 83.2893 153.05C83.6611 156.396 84.2362 159.989 85.5116 163.148C85.7726 163.904 86.1361 164.548 86.3931 165.069C86.9464 166.02 87.5619 166.169 87.9487 166.362C88.4789 166.591 89.2046 166.676 89.811 166.54C90.5065 166.387 91.0496 166.084 91.5413 165.635C92.0605 165.148 92.3471 164.597 92.5463 164.162C93.9218 160.886 93.8185 157.895 94.0582 154.946C94.0766 154.586 94.0848 154.212 94.0497 153.781C94.0257 153.373 93.8849 152.779 93.777 152.473C93.7057 152.223 93.4346 151.552 92.9181 151.13C92.4191 150.712 91.9809 150.578 91.6447 150.478C91.6086 150.468 91.5731 150.458 91.5372 150.449C91.4873 150.436 91.3364 150.413 91.2852 150.407C89.7487 150.267 88.5382 150.04 86.4439 150.453C86.4193 150.459 86.3473 150.484 86.3231 150.492C86.1271 150.569 85.9845 150.579 85.5079 150.885C85.3791 150.984 85.2054 151.074 84.9193 151.48C84.7823 151.688 84.5931 152.041 84.5725 152.556C84.5462 153.073 84.7657 153.573 84.9544 153.825C85.3571 154.345 85.5764 154.399 85.7382 154.501C85.8976 154.583 86.0007 154.621 86.0954 154.655C86.5928 154.84 87.1418 154.806 87.6184 154.572C88.0951 154.337 88.461 153.918 88.6349 153.409C88.8088 152.901 88.7759 152.346 88.5428 151.868C88.3096 151.391 87.896 151.028 87.3895 150.87C87.3895 150.87 87.3895 150.87 87.3895 150.87C87.4224 150.883 87.4679 150.898 87.5706 150.951C87.6761 151.023 87.8403 151.043 88.2045 151.511C88.3749 151.738 88.5824 152.207 88.5575 152.692C88.5379 153.174 88.3616 153.497 88.2423 153.679C87.9915 154.033 87.8689 154.081 87.7914 154.144C87.5262 154.307 87.6242 154.227 87.6661 154.217L87.5453 154.256C88.1439 154.071 89.7257 154.047 90.92 154.138L90.6681 154.096C90.6757 154.097 90.6823 154.098 90.688 154.099C90.7471 154.105 90.7022 154.119 90.5186 153.967C90.323 153.808 90.2327 153.525 90.2891 153.662C90.3899 153.934 90.3947 153.942 90.4279 154.148C90.4541 154.331 90.4654 154.571 90.464 154.827C90.4036 157.684 90.4654 160.707 89.6046 162.884C89.4967 163.157 89.4035 163.299 89.3592 163.349C89.3107 163.412 89.1795 163.486 89.1473 163.496C89.1149 163.504 89.1614 163.521 89.0865 163.503C88.8773 163.453 88.8538 163.3 89.0879 163.664C88.7514 163.054 88.4732 162.585 88.3003 162.136C86.9523 159.105 86.3781 156.026 85.8996 152.722C85.3227 148.583 84.8225 144.406 84.2859 140.231C83.9436 137.197 83.3249 133.667 83.9035 131.316C84.0038 131.046 84.1115 130.874 84.1412 130.852C84.9286 130.296 86.6461 129.444 87.8813 128.627C88.9452 127.864 90.6776 127.607 91.9673 125.903C92.4048 125.307 93.2127 124.322 93.3459 123.146C93.7118 120.573 93.6042 118.005 93.3644 115.504C93.3569 115.427 93.3493 115.35 93.3414 115.272C92.9539 111.068 93.1047 106.702 92.8261 102.308C92.7146 100.403 92.5503 98.4952 92.4083 96.6239C92.3513 95.8524 92.2975 95.0803 92.2764 94.3473C92.2664 93.9815 92.2651 93.6262 92.2841 93.3086C92.2968 93.0102 92.3672 92.6674 92.3898 92.752C92.3459 92.8607 92.3575 93.0867 91.9027 93.5525C91.677 93.7768 91.2837 93.9644 91.031 94.011C90.7741 94.0642 90.664 94.0507 90.6884 94.0557Z" fill="#1E1E1E"/>
<path d="M90.9935 152.056C90.9645 151.789 90.8651 150.345 88.9805 143.036C88.49 141.133 88.461 138.658 88.8339 135.18C88.9849 133.772 89.9527 133.254 90.4564 132.852C91.9426 131.667 94.5853 130.4 96.2721 129.111C96.9542 128.589 97.4003 127.745 97.8766 126.915C99.0225 124.917 98.9274 122.312 99.3947 120.856C99.5063 120.508 99.5727 120.212 99.5795 116.941C99.5864 113.67 99.5271 107.432 99.421 103.24C99.2653 97.0877 98.8399 94.0937 98.5103 92.3518C98.1999 91.0801 97.9161 90.1916 97.6751 89.4901C97.5641 89.1508 97.4762 88.8454 97.3218 88.0557" stroke="#1E1E1E" stroke-width="4" stroke-linecap="round" stroke-linejoin="round"/>
<path d="M171.59 93.6103C171.766 93.109 171.707 92.5627 171.448 92.0976C171.189 91.6324 170.747 91.2854 170.223 91.1341C169.698 90.9827 169.139 91.0407 168.672 91.2962C168.205 91.5519 167.865 91.9831 167.746 92.5011C167.746 92.5011 167.746 92.5011 167.746 92.5011C167.653 92.8702 167.658 93.021 167.645 93.1795C167.637 93.3303 167.636 93.4531 167.636 93.5736C167.636 93.8065 167.641 94.0219 167.647 94.2336C167.658 94.6537 167.67 95.0676 167.682 95.4757C167.704 96.2967 167.721 97.117 167.733 97.9357C167.739 98.3954 167.744 98.8552 167.747 99.3181C167.775 104.735 167.675 110.179 167.564 115.617C167.564 117.33 167.398 118.725 167.617 120.799C167.777 121.565 168.055 122.316 168.425 122.999C169.65 125.077 171.389 125.995 172.746 127.26C172.779 127.29 172.813 127.32 172.847 127.35C174.565 128.904 176.854 129.488 178.49 130.223C179.44 130.679 180.309 131.231 180.951 131.932C181.033 132.018 181.136 132.218 181.238 132.533C181.491 134.143 181.303 136.734 181.202 138.888C181.006 142.659 180.278 146.298 179.319 150.055C178.962 151.543 178.666 153.24 178.338 154.47C178.152 155.079 178.178 155.708 178.439 156.311C178.786 157.046 179.264 157.327 179.554 157.553C180.435 158.177 181.333 158.576 182.235 158.916C183.116 159.249 184.034 159.35 184.774 159.427C186.394 159.565 187.773 159.386 189.179 159.202C189.736 159.135 190.608 158.872 191.194 158.336C191.762 157.838 192.062 157.302 192.298 156.815C193.108 155.137 193.264 153.236 193.22 151.652C193.215 150.974 192.979 150.2 192.635 149.642C192.306 149.085 191.812 148.616 191.269 148.308C189.341 147.302 187.772 147.168 186.183 146.873C185.398 146.745 184.622 146.632 183.918 146.5C183.876 146.493 183.751 146.483 183.709 146.48C183.025 146.435 182.404 146.411 181.662 146.442C181.493 146.45 181.325 146.461 181.11 146.489C180.994 146.507 180.899 146.514 180.645 146.584C180.577 146.604 180.496 146.626 180.332 146.7C180.243 146.744 180.143 146.78 179.915 146.953C179.856 147 179.796 147.05 179.719 147.128C179.632 147.217 179.534 147.33 179.439 147.484C179.222 147.792 179.016 148.545 179.234 149.152C179.417 149.697 179.7 149.939 179.839 150.067C180.017 150.216 180.096 150.256 180.19 150.311C180.351 150.399 180.443 150.43 180.512 150.456C180.655 150.506 180.723 150.52 180.791 150.537C181.305 150.668 181.847 150.575 182.295 150.289C182.743 150.002 183.06 149.545 183.177 149.019C183.295 148.493 183.201 147.944 182.917 147.494C182.632 147.045 182.181 146.731 181.66 146.632C181.66 146.632 181.66 146.632 181.66 146.632C181.694 146.641 181.731 146.648 181.841 146.686C181.895 146.707 181.971 146.732 182.118 146.812C182.204 146.862 182.277 146.899 182.448 147.042C182.581 147.164 182.858 147.399 183.039 147.937C183.254 148.536 183.05 149.281 182.837 149.581C182.643 149.887 182.48 150.011 182.378 150.095C182.164 150.256 182.078 150.286 182.005 150.323C181.87 150.383 181.822 150.393 181.785 150.405C181.659 150.437 181.696 150.421 181.711 150.419C181.759 150.407 181.857 150.392 181.953 150.381C182.42 150.329 183.013 150.311 183.538 150.315L183.33 150.294C184.163 150.398 184.934 150.462 185.692 150.541C187.16 150.693 188.751 150.908 189.604 151.32C189.677 151.351 189.714 151.376 189.752 151.419C189.854 151.57 189.879 151.621 189.901 151.782C190.012 153.216 189.933 154.438 189.473 155.54C189.367 155.806 189.235 156.001 189.18 156.057C189.116 156.118 189.113 156.125 189.046 156.159C188.982 156.191 188.859 156.23 188.703 156.26C187.435 156.491 186.104 156.684 185.016 156.628C184.265 156.581 183.675 156.527 183.141 156.35C182.376 156.097 181.634 155.782 181.055 155.399C180.811 155.248 180.731 155.12 180.8 155.245C180.799 155.265 180.786 155.217 180.786 155.214C181.195 153.449 181.357 152.091 181.679 150.567C182.516 146.859 183.22 142.905 183.35 138.989C183.379 136.653 183.692 134.699 183.185 131.87C183.051 131.492 182.871 130.993 182.448 130.538C181.544 129.575 180.446 128.916 179.356 128.4C177.295 127.517 175.506 127.062 174.169 125.848C174.133 125.817 174.097 125.785 174.061 125.754C172.614 124.459 170.915 123.342 170.24 122.041C169.968 121.514 169.779 120.964 169.673 120.388C169.581 119.188 169.74 117.289 169.822 115.706C170.153 110.299 170.615 104.88 171.091 99.4521C171.131 98.9858 171.171 98.522 171.21 98.0578C171.279 97.2313 171.346 96.3994 171.41 95.5712C171.442 95.1607 171.474 94.742 171.508 94.3411C171.524 94.1409 171.542 93.9393 171.562 93.7651C171.572 93.6769 171.583 93.5948 171.594 93.5402C171.601 93.494 171.628 93.4379 171.59 93.6103Z" fill="#1E1E1E"/>
<path d="M189.566 149.056C189.466 149.056 189.365 149.056 189.314 148.895C189.165 148.432 189.683 144.771 190.321 139.205C190.948 133.725 190.267 131.241 190.055 130.397C189.482 128.113 188.148 126.664 187.191 125.458C186.468 124.545 185.623 123.969 185.07 123.617C183.909 122.877 180.23 121.689 177.22 120.235C176.515 119.894 175.902 119.653 175.28 119.265C173.947 118.432 173.416 117.595 173.036 117.056C172.837 116.773 172.707 116.42 172.63 115.637C172.432 113.645 172.853 109.259 173.395 104.037C174.045 97.6573 174.286 92.2731 174.529 90.9546C174.589 90.6377 174.649 90.335 174.746 90.0557" stroke="#1E1E1E" stroke-width="4" stroke-linecap="round" stroke-linejoin="round"/>
<path d="M158.58 124.13C159.095 123.982 161.627 124.119 163.318 124.056C163.588 124.046 163.748 124.383 163.908 124.642C164.65 125.837 165.182 129.054 165.726 131.448C165.952 132.446 166.183 137.475 166.482 144.439C166.654 148.449 166.764 152.111 166.989 154.897C167.129 156.629 167.485 157.812 167.553 159.258C167.569 159.608 167.629 159.901 167.492 160.131C167.354 160.36 167.03 160.516 166.668 160.615C165.175 161.025 163.679 161.197 162.353 161.748C162.046 161.876 161.81 162.059 161.54 162.056C161.27 162.053 160.984 161.886 160.813 161.653C159.801 160.276 159.81 155.023 159.453 150.785C159.151 147.214 159.478 144.522 159.338 143.217C159.103 141.02 158.803 139.206 158.744 137.034C158.724 132.416 158.754 129.106 158.798 128.371C158.813 127.941 158.813 127.395 158.613 127.092" stroke="#1E1E1E" stroke-width="4" stroke-linecap="round" stroke-linejoin="round"/>
<path d="M160.012 136.365C160.215 136.581 160.354 136.789 160.429 136.905C160.942 136.664 161.189 136.592 161.432 136.516C162.028 136.322 162.968 136.042 164.858 136.056C165.285 136.122 165.619 136.191 165.755 136.448C166.039 136.981 166.431 139.023 166.491 140.982C166.595 144.336 166.668 148.894 166.349 150.595C166.281 150.957 166.199 151.387 165.87 151.498C164.435 151.981 162.828 153.337 160.337 153.004C159.898 152.945 159.75 152.672 159.727 151.996C159.67 150.282 159.743 148.843 159.724 146.59C159.681 141.477 159.491 137.768 159.63 136.984C159.694 136.623 159.9 136.246 160.012 136.365Z" fill="#1E1E1E"/>
<path d="M160.497 137C160.479 137 160.319 136.692 160.012 136.365C159.9 136.246 159.694 136.623 159.63 136.984C159.491 137.768 159.681 141.477 159.724 146.59C159.743 148.843 159.67 150.282 159.727 151.996C159.75 152.672 159.898 152.945 160.337 153.004C162.828 153.337 164.435 151.981 165.87 151.498C166.199 151.387 166.281 150.957 166.349 150.595C166.668 148.894 166.595 144.336 166.491 140.982C166.431 139.023 166.039 136.981 165.755 136.448C165.619 136.191 165.285 136.122 164.858 136.056C162.968 136.042 162.028 136.322 161.432 136.516C161.127 136.611 160.817 136.701 159.982 137.124" stroke="#1E1E1E" stroke-width="4" stroke-linecap="round" stroke-linejoin="round"/>
<path d="M136.97 167.008C138.667 166.967 140.125 166.582 140.731 166.372C140.771 165.839 141.664 166.408 141.865 166.222C142.065 166.037 142.417 166.037 142.78 166.078C143.506 166.2 144.235 166.404 144.825 166.795C145.109 166.984 145.341 167.195 145.54 167.44C145.738 167.685 145.918 167.949 146.02 168.248C146.223 168.842 145.929 170.625 146.651 172.427C146.794 172.783 147.014 173.036 147.136 173.346C147.655 174.658 148.636 176.9 148.578 179.021C148.494 182.043 147.78 187.9 146.324 190.885C145.549 192.475 144.492 194.62 143.109 196.271C142.323 197.21 141.257 198.028 139.749 198.842C138.515 199.509 137.639 199.935 136.535 200.225C134.576 200.738 132.608 201.214 131.234 201.005C130.057 200.826 129.205 200.709 128.602 200.554C126.888 200.116 124.335 199.973 122.275 199.174C119.688 198.171 115.307 195.923 113.405 193.292C113.104 192.876 112.788 192.429 112.592 191.913C111.805 189.84 110.194 185.114 110.665 179.394C110.998 175.341 111.397 171.959 112.097 170.372C112.383 169.723 112.629 169.359 112.967 169.248C113.619 169.034 114.325 168.707 115.108 168.608C115.832 168.517 116.529 168.809 117.265 168.78C118.886 168.717 121.26 167.17 123.592 166.95C124.544 166.86 126 167.08 128.018 167.025C131.993 166.917 134.818 167.061 136.97 167.008Z" fill="white" stroke="#1E1E1E" stroke-width="4" stroke-linecap="round" stroke-linejoin="round"/>
<path d="M147.639 192.408C147.6 192.397 147.56 192.387 147.591 192.439C147.622 192.492 147.724 192.608 147.86 192.696C148.14 192.878 148.639 192.948 149.308 193.024C150.069 193.11 150.714 193.03 152.246 192.682C153.559 192.384 155.938 191.756 157.29 191.399C158.897 190.976 159.377 190.766 159.822 190.552C160.25 190.347 160.598 190.018 160.919 189.66C161.249 189.291 161.82 187.836 162.547 185.888C163.142 184.29 163.449 181.964 163.575 179.704C163.61 179.075 163.472 178.643 163.366 178.235C163.263 177.836 163.107 177.495 162.923 177.165C162.382 176.198 160.986 175.185 160.2 174.649C159.564 174.216 157.932 173.988 156.595 173.794C155.559 173.643 154.328 173.479 153.106 173.379C151.513 173.248 150.833 173.044 150.134 173.056C149.912 173.075 149.629 173.11 149.43 173.192C149.231 173.274 149.124 173.403 149.014 173.536" stroke="#1E1E1E" stroke-width="4" stroke-linecap="round" stroke-linejoin="round"/>
<path d="M148.921 173.056L150.13 177.122C150.237 177.128 151.205 177.337 152.316 177.574C153.882 177.908 154.621 177.925 155.263 178.164C155.565 178.277 155.904 178.539 156.29 178.863C156.64 179.157 156.869 179.537 157.102 179.91C157.336 180.287 157.455 180.707 157.545 181.142C157.593 181.375 157.588 181.644 157.553 181.881C157.378 183.035 156.051 184.578 155.365 185.341C154.678 186.104 153.15 186.802 152.488 187.275C151.82 187.751 150.929 187.753 150.29 187.88C150.13 187.911 149.978 187.976 149.81 188.012C149.641 188.048 149.463 188.063 149.286 188.03C149.109 187.998 148.94 187.918 148.85 187.796C148.761 187.674 148.756 187.512 148.828 187.285L146.58 193.056" stroke="#1E1E1E" stroke-width="4" stroke-linecap="round" stroke-linejoin="round"/>
<path d="M118.026 173.123C118.075 172.991 118.567 172.997 118.674 172.965C119.739 172.841 120.176 172.853 120.576 172.884C121.329 172.961 122.394 172.968 124.687 172.904C127.034 172.639 128.925 172.23 131.293 172.198C135.275 172.144 136.707 171.839 139.8 172.113C140.493 172.174 140.836 172.293 140.952 172.46C141.068 172.628 140.962 172.837 140.749 173.006C140.536 173.175 140.244 173.32 139.917 173.409C138.591 173.77 137.164 174.227 135.745 174.577C135.02 174.756 134.18 174.947 132.907 174.971C130.981 175.008 128.923 175.045 127.421 174.841C125.002 174.514 122.313 174.307 119.39 174.022C118.723 173.957 118.36 173.838 118.173 173.661C117.986 173.483 117.976 173.254 118.026 173.123Z" fill="#1E1E1E" stroke="#1E1E1E" stroke-width="4" stroke-linecap="round" stroke-linejoin="round"/>
<path d="M82.9758 184.018C83.5078 183.975 83.9675 183.676 84.2622 183.23C84.5568 182.784 84.6607 182.22 84.5525 181.67C84.4443 181.119 84.1347 180.637 83.6932 180.335C83.2518 180.034 82.7132 179.932 82.2043 180.093C82.2043 180.093 82.2043 180.093 82.2043 180.093C82.102 180.114 81.9748 180.145 81.8034 180.217C81.6943 180.262 81.2306 180.469 80.9098 180.963C80.5035 181.479 80.562 182.493 80.6922 182.719C80.8016 183.034 80.9611 183.239 81.0232 183.317C81.1666 183.494 81.2728 183.577 81.3249 183.621C81.3863 183.671 81.4378 183.706 81.4682 183.727C81.6094 183.82 81.6542 183.838 81.7087 183.866C81.8047 183.912 81.8573 183.932 81.9098 183.952C82.0093 183.989 82.0843 184.012 82.1567 184.034C82.2994 184.075 82.4251 184.107 82.5495 184.137C82.7955 184.196 83.0303 184.245 83.2627 184.292C83.4105 184.332 83.5398 184.351 83.6081 184.359C89.6685 184.192 94.7259 183.718 100.256 183.81C100.278 183.811 100.3 183.811 100.321 183.811L100.301 183.811C103.324 183.872 106.113 184.264 109.419 184.481C109.423 184.481 109.436 184.479 109.44 184.479C109.753 184.483 109.883 184.519 110.069 184.572C110.357 184.659 110.707 184.806 111.075 184.991C111.564 185.216 112.107 185.15 112.567 184.874C113.027 184.597 113.369 184.12 113.515 183.561C113.661 183.001 113.596 182.418 113.33 181.952C113.064 181.486 112.622 181.164 112.085 181.121C112.085 181.121 112.085 181.121 112.085 181.121C111.512 181.061 110.906 181.014 110.223 181.056C109.811 181.08 109.342 181.167 109.063 181.245L109.083 181.243C106.452 181.82 103.287 181.872 100.358 181.811C100.354 181.811 100.342 181.811 100.338 181.811C100.316 181.811 100.294 181.811 100.273 181.81C94.9206 181.737 89.0592 181.568 84.2536 180.73C84.2494 180.725 84.2613 180.719 84.3419 180.738C84.153 180.657 83.9662 180.573 83.7963 180.49C83.7117 180.448 83.6297 180.406 83.5671 180.369C83.537 180.351 83.5089 180.333 83.5081 180.326C83.5097 180.323 83.5131 180.32 83.5602 180.341C83.5895 180.356 83.6118 180.362 83.7292 180.438C83.7955 180.494 83.8485 180.483 84.1431 180.822C84.2033 180.897 84.3602 181.099 84.4687 181.411C84.5979 181.634 84.6564 182.644 84.2519 183.157C83.9325 183.649 83.4732 183.853 83.3665 183.897C83.1978 183.969 83.074 183.998 82.9758 184.018Z" fill="#1E1E1E"/>
<path d="M83.7605 181.056C83.708 181.084 83.6555 181.113 83.3559 184.954C83.0564 188.796 82.5114 196.45 82.1844 200.639C81.8188 205.323 81.5671 206.212 81.5806 206.91C81.587 207.241 82.034 207.441 82.4029 207.581C83.9973 208.188 87.8191 209.119 97.9972 211.528C100.412 212.099 103.634 212.096 114.897 212.02C123.431 211.962 137.685 211.634 145.717 211.429C153.749 211.224 155.126 211.092 157.846 210.961C164.582 210.634 169.427 210.416 170.838 210.073C173.717 209.376 179.063 209.067 184.063 208.835C186.665 208.715 187.923 208.438 188.728 208.193C189.123 208.073 189.367 207.66 189.495 207.287C189.623 206.914 189.595 206.515 189.49 206.109C189.046 204.398 188.49 202.57 188.117 198.756C187.594 193.407 186.578 191.192 185.765 186.371C185.566 185.195 185.359 184.432 185.128 183.883C184.898 183.334 184.638 183.024 184.276 182.838C180.909 181.103 172.069 182.537 168.672 182.336C167.058 182.26 165.366 182.206 164.008 182.2C163.405 182.22 162.978 182.284 162.341 182.005" stroke="#1E1E1E" stroke-width="4" stroke-linecap="round" stroke-linejoin="round"/>
<path d="M83.077 206.588C82.9714 206.573 82.8657 206.558 82.7207 206.798C82.3057 207.483 82.847 213.22 83.8477 222.001C84.2574 225.596 84.275 227.462 84.4722 228.573C84.6694 229.683 84.9964 229.987 85.4013 230.196C86.2311 230.625 87.7877 230.518 90.948 230.634C92.0208 230.673 93.3333 231.036 96.5656 231.411C99.7978 231.787 104.902 232.266 110.246 232.499C115.591 232.733 121.022 232.708 125.481 232.781C133.266 232.908 138.767 233.455 142.796 233.857C146.485 234.225 149.194 234.023 152.369 233.724C158.309 233.164 163.763 232.681 168.225 232.727C179.688 232.845 183.066 232.413 184.816 231.942C185.195 231.84 185.373 231.355 185.482 230.474C185.762 228.216 185.553 222.977 185.638 216.897C185.696 212.693 186.107 210.836 186.32 209.023C186.398 208.564 186.502 208.125 186.555 207.647C186.608 207.169 186.608 206.664 186.249 206.056" stroke="#1E1E1E" stroke-width="4" stroke-linecap="round" stroke-linejoin="round"/>
<path d="M84.018 180.851C84.018 180.995 84.018 181.139 83.9531 180.997C83.8882 180.855 83.7584 180.423 83.6391 179.76C83.5199 179.097 83.415 178.217 83.1464 159.99C82.8778 141.762 82.4485 106.212 82.1562 87.2497C81.864 68.2874 81.7217 66.9894 81.6035 66.0522C81.2581 63.3136 80.7494 60.8412 80.6004 59.0114C80.5391 58.2577 80.6162 57.8522 80.8365 57.6045C81.0569 57.3568 81.4463 57.2775 81.8427 57.2961C83.5648 57.377 85.5758 57.7093 88.2269 57.3504C89.8529 57.1302 94.3128 57.1193 101.308 57.0796C104.731 57.0602 107.898 56.9606 112.697 57.3849C117.496 57.8091 123.83 58.7393 135.104 59.4745C146.379 60.2097 162.402 60.7216 171.013 61.0178C180.339 61.3386 183.174 61.4458 186.384 61.6477C187.509 61.7184 187.546 62.2534 187.573 63.379C187.644 66.339 187.198 72.2398 186.589 79.232C185.956 86.5058 186.541 89.5642 186.271 94.7724C186.145 97.1958 186.198 101.103 186.23 105.512C186.34 114.717 186.382 120.09 186.326 121.053C186.306 121.585 186.306 122.201 186.306 122.749" stroke="#1E1E1E" stroke-width="4" stroke-linecap="round" stroke-linejoin="round"/>
<path d="M185.746 158.056C185.687 158.253 185.627 158.45 185.596 158.773C185.565 159.095 185.565 159.536 185.733 162.933C185.902 166.33 186.238 172.67 186.417 176.666C186.605 182.122 186.605 184.265 186.544 185.421C186.493 185.938 186.401 186.315 186.306 185.833" stroke="#1E1E1E" stroke-width="4" stroke-linecap="round" stroke-linejoin="round"/>
<path d="M82.4876 59.5438C82.7327 59.073 82.763 58.524 82.5841 58.0234C82.4051 57.5227 82.0294 57.1104 81.5418 56.8782C81.0542 56.646 80.4973 56.6141 79.9958 56.7907C79.4943 56.9673 79.0872 57.3369 78.8762 57.8239C78.8762 57.8239 78.8762 57.8239 78.8762 57.8239C78.8517 57.8809 78.8263 57.9361 78.7768 58.0545C78.7636 58.0868 78.7489 58.122 78.7245 58.1884C78.7124 58.2218 78.6968 58.2643 78.6738 58.3423C78.6607 58.3885 78.6477 58.4315 78.6271 58.5343C78.6183 58.5804 78.6057 58.6479 78.5966 58.7532C78.5926 58.8424 78.5655 59.0201 78.6386 59.366C78.6979 59.5994 78.7792 59.9065 79.1349 60.2975C79.5063 60.7346 80.2568 60.9441 80.5527 60.9214C80.9165 60.9267 81.1761 60.8335 81.2706 60.7998C81.3957 60.7537 81.4866 60.7077 81.5602 60.6668C81.7818 60.5382 81.8408 60.4758 81.8998 60.4279C82.0013 60.3384 82.0328 60.3016 82.0678 60.2648C82.1271 60.2 82.1521 60.1682 82.1782 60.136C83.5096 58.3419 84.4052 56.6658 85.3828 54.9371C86.9633 52.094 88.4471 49.2052 89.9694 46.4287C90.1118 46.1648 90.153 46.1122 90.1232 46.137C90.0912 46.1598 90.0749 46.1455 90.1714 46.1076C92.75 45.1364 95.4325 45.2166 98.7272 44.1979C102.153 43.0643 106.417 42.8827 110.385 42.528C116.366 42.1056 122.44 42.0202 128.467 42.0766C128.49 42.0769 128.513 42.0772 128.536 42.0775C132.121 42.126 135.675 42.3032 139.17 42.8948C142.458 43.4587 145.819 44.1299 149.166 44.6815C155.741 45.7854 162.323 46.83 168.878 47.9393C171.81 48.4769 175.176 48.9294 177.401 49.9177L176.839 49.4605C178.787 52.213 180.517 55.3596 182.152 58.4607C182.481 59.0898 182.805 59.7215 183.123 60.3552L183.111 60.3331C183.687 61.5001 184.18 62.7016 184.808 63.9825C185.039 64.4599 185.46 64.8138 185.968 64.9717C186.475 65.1296 187.03 65.0775 187.507 64.828C187.984 64.5784 188.343 64.1529 188.503 63.646C188.663 63.1392 188.612 62.5915 188.352 62.1289C188.352 62.1289 188.352 62.1289 188.352 62.1289C187.732 61.0377 187.131 59.796 186.452 58.5923C186.45 58.5879 186.443 58.5745 186.44 58.5702C186.078 57.9383 185.71 57.3093 185.339 56.6832C183.475 53.5778 181.619 50.5329 179.317 47.5639C179.216 47.4387 178.901 47.1731 178.755 47.1067C175.265 45.7988 172.403 45.7136 169.288 45.2239C162.686 44.3529 156.079 43.49 149.512 42.5131C146.16 42.0244 142.883 41.4165 139.491 40.868C135.865 40.2902 132.187 40.1264 128.563 40.0777C128.539 40.0774 128.516 40.0771 128.492 40.0768C122.41 40.02 116.351 40.0335 110.242 40.3238C106.158 40.6178 102.196 40.5466 97.8514 41.7711C95.5496 42.4296 92.2492 42.3496 89.2753 43.2846C88.903 43.3944 88.4336 43.607 88.0464 43.9741C87.6569 44.3404 87.4595 44.7281 87.3534 44.8881C85.6427 47.663 84.0224 50.4201 82.3034 53.0987C81.2747 54.6894 80.19 56.3634 79.1074 57.612C79.114 57.6034 79.1207 57.5932 79.16 57.55C79.1843 57.5245 79.2058 57.498 79.2962 57.4181C79.3497 57.375 79.4026 57.3174 79.6183 57.1921C79.69 57.1523 79.7792 57.1071 79.9027 57.0616C79.996 57.0284 80.2531 56.9359 80.6153 56.941C80.9096 56.9184 81.658 57.1272 82.0282 57.563C82.3827 57.9526 82.4633 58.2582 82.5222 58.4895C82.5945 58.8324 82.5675 59.0054 82.5638 59.0915C82.5549 59.1932 82.543 59.2567 82.5349 59.2995C82.5158 59.3946 82.5045 59.4312 82.4937 59.4698C82.4747 59.5343 82.4642 59.562 82.4571 59.5821C82.4431 59.6209 82.4397 59.6288 82.4382 59.634C82.4357 59.6443 82.4615 59.5934 82.4876 59.5438Z" fill="#1E1E1E"/>
<path d="M85.5801 55.0557C85.9982 50.6704 87.1184 39.6993 87.8015 37.6669C87.9756 37.1489 88.2476 36.7045 88.5088 36.3147C89.4956 34.8423 91.6198 33.3711 93.6265 31.8393C94.0921 31.4839 94.6724 31.3154 95.1546 31.1739C95.6369 31.0325 96.0435 30.9925 96.3393 31.197C96.6351 31.4014 96.8076 31.8514 97.0006 32.8216C97.6277 37.4619 97.5288 39.7248 97.4844 41.5004C97.5033 41.6003 97.5411 41.1757 97.5801 40.7383" stroke="#1E1E1E" stroke-width="4" stroke-linecap="round" stroke-linejoin="round"/>
<path d="M168.581 45.4311C168.557 45.5588 168.923 42.1006 169.387 38.8792C169.579 37.5458 170.195 36.4753 170.75 35.7238C171.02 35.3586 171.511 35.2569 171.97 35.1547C172.429 35.0525 172.902 35.0118 173.316 35.1184C173.73 35.225 174.071 35.48 174.409 35.8535C176.046 37.6568 177.289 39.7745 179.573 44.3899C180.703 46.6743 181.233 48.1791 181.579 48.9181C181.608 50.7526 181.08 54.7259 180.621 59.313C180.521 60.1293 180.43 60.5469 180.215 61.0557" stroke="#1E1E1E" stroke-width="4" stroke-linecap="round" stroke-linejoin="round"/>
<path d="M108.847 41.1748C108.712 40.7667 108.516 39.069 108.601 37.5535C108.637 36.901 108.907 36.5095 109.151 36.12C109.395 35.7305 109.668 35.361 109.966 35.03C110.263 34.6989 110.577 34.4175 111.013 34.2461C112.918 33.4974 116.216 33.7881 123.002 33.5162C127.593 33.3323 134.524 33.4238 139.027 33.3534C145.398 33.2539 148.178 32.9973 150.246 33.0677C152.987 33.161 156.225 33.4238 158.854 33.6296C159.832 33.7062 160.008 34.2471 160.136 34.6632C160.37 37.1605 160.447 40.5866 160.565 42.4049C160.605 43.3401 160.605 44.3006 160.012 45.0557" stroke="#1E1E1E" stroke-width="4" stroke-linecap="round" stroke-linejoin="round"/>
<path d="M129.148 149.056C128.75 149.135 128.118 149.307 127.313 149.749C126.882 149.986 126.614 150.55 126.35 151.045C126.086 151.539 125.887 152.025 125.758 152.539C125.629 153.054 125.575 153.583 125.58 154.053C125.586 154.523 125.652 154.917 125.853 155.338C126.285 156.247 127.298 157.113 128.345 157.919C130.072 159.249 134.47 159.865 137.354 160.053C137.852 160.086 138.299 159.803 138.698 159.538C139.096 159.273 139.428 158.918 139.699 158.498C140.246 157.647 140.44 156.628 140.547 155.688C140.599 155.234 140.6 154.824 140.474 154.408C140.348 153.993 140.083 153.583 139.653 153.182C137.751 151.404 136.128 150.796 135.251 150.498C134.176 150.291 132.989 150.208 131.717 150.275C131.031 150.342 130.26 150.476 128.862 150.768" stroke="#1E1E1E" stroke-width="4" stroke-linecap="round" stroke-linejoin="round"/>
<path d="M127.08 140.712C126.886 141.142 126.28 143.349 125.072 151.443C124.813 153.177 124.59 153.707 124.58 154.19C124.571 154.673 124.754 155.089 125.018 155.499C126.563 157.898 129.722 159.847 131.361 160.628C133.238 161.522 135.68 160.769 139.554 160.566C141.366 160.471 142.766 160.035 143.8 159.521C144.289 159.278 144.585 158.86 144.825 158.481C145.064 158.103 145.207 157.723 145.236 157.326C145.361 155.591 144.08 153.867 143.629 152.139C142.921 149.431 142.75 145.629 141.939 143.202C141.764 142.681 141.459 142.327 141.585 142.094C141.712 141.86 142.221 141.782 142.732 141.736C143.738 141.645 145.386 141.653 147.36 141.513C148.206 141.453 148.708 141.151 149.213 140.828C150.246 140.168 151.379 139.271 152.53 138.467C153.03 138.118 153.251 137.746 153.471 137.266C154.479 135.062 154.627 132.91 154.57 131.229C154.445 130.852 154.197 130.54 153.873 130.352C153.549 130.165 153.158 130.111 152.754 130.056" stroke="#1E1E1E" stroke-width="4" stroke-linecap="round" stroke-linejoin="round"/>
<path d="M113.183 133.195C113.183 133.087 113.183 132.979 113.086 133.131C112.989 133.283 112.794 133.697 112.68 134.23C112.566 134.762 112.539 135.399 112.654 135.985C112.77 136.572 113.029 137.087 113.339 137.495C113.913 138.251 114.803 138.757 115.718 139.341C117.784 140.502 121.821 141.337 125.348 141.977C125.936 142.084 126.35 142.134 126.58 141.778" stroke="#1E1E1E" stroke-width="4" stroke-linecap="round" stroke-linejoin="round"/>
<path d="M126.581 141.761C126.557 141.826 126.944 141.943 127.836 142.011C130.133 142.187 132.708 140.562 134.982 139.342C135.455 139.089 135.866 139.043 136.297 139.058C137.178 139.189 138.444 140.048 140.162 140.931C140.569 141.128 140.92 141.364 141.58 142.056" stroke="#1E1E1E" stroke-width="4" stroke-linecap="round" stroke-linejoin="round"/>
<path d="M125.58 149.644L127.775 143.026C129.678 141.703 134.097 139.056 136.556 139.056C139.014 139.056 140.507 140.526 140.946 141.262L143.58 153.614L141.824 154.056C140.8 153.173 137.961 151.144 134.8 150.085C131.639 149.026 127.336 149.35 125.58 149.644Z" fill="#1E1E1E"/>
</svg>
