<svg width="265" height="265" viewBox="0 0 265 265" fill="none" xmlns="http://www.w3.org/2000/svg">
<rect width="265" height="265" fill="#F1EDE7"/>
<path d="M224.506 181.55V181.937" stroke="#1E1E1E" stroke-width="4" stroke-linecap="round" stroke-linejoin="round"/>
<path d="M224.895 181.55H224.895" stroke="#1E1E1E" stroke-width="4" stroke-linecap="round" stroke-linejoin="round"/>
<path d="M80.9603 164.515C81.4907 164.568 81.9994 164.363 82.3745 163.983C82.7495 163.603 82.9603 163.072 82.9603 162.515C82.9603 161.957 82.7495 161.427 82.3745 161.046C81.9994 160.667 81.4907 160.462 80.9603 160.515C80.9517 160.513 81.231 160.519 81.4205 160.571C81.6175 160.62 81.7444 160.679 81.8307 160.722C82 160.81 82.0528 160.855 82.0983 160.888C82.1799 160.95 82.1947 160.968 82.2098 160.983C82.2334 161.008 82.2245 161.005 82.2154 161C82.2246 161.041 82.275 161.2 82.2326 161.181C81.9553 160.582 81.8935 159.332 81.7497 158.102C81.7426 158.042 81.7353 157.982 81.7276 157.921C81.3455 154.813 83.001 151.005 84.8788 147.934C85.3419 147.208 86.4844 146.403 87.4541 145.645C87.4756 145.629 87.4971 145.612 87.5186 145.596C89.8883 143.804 92.3903 142.07 94.9082 140.656C95.6373 140.261 96.3688 139.949 97.2203 139.403C97.9691 138.894 98.4741 138.245 98.8927 137.609C99.5512 136.544 99.6816 135.568 99.8938 134.662C100.298 132.683 100.405 130.732 100.297 128.733C100.285 128.578 100.263 128.391 100.16 128.151C100.064 127.913 99.8247 127.623 99.5657 127.48C99.0427 127.207 98.7759 127.267 98.7953 127.247C97.7015 127.028 96.6788 126.892 95.6331 126.751C95.6174 126.75 95.6178 126.743 95.6824 126.766C95.7322 126.787 95.8904 126.847 96.0381 127.065C96.1821 127.279 96.1878 127.521 96.1743 127.607C96.1618 127.7 96.1491 127.715 96.1535 127.71C96.1752 127.658 96.3419 127.427 96.5152 127.237C96.8753 126.835 97.3155 126.419 97.7625 126.005C98.6649 125.152 99.6006 124.418 100.564 123.253C100.654 123.142 100.726 123.104 100.77 123.092C100.689 123.128 100.636 123.1 100.742 123.135C101.808 123.489 102.894 124.13 103.856 124.861C103.729 124.746 103.668 124.732 103.648 124.414C103.657 124.167 103.743 124.05 103.756 124.026C103.773 123.999 103.749 124.03 103.699 124.071C103.578 124.188 102.861 124.493 102.233 124.738C101.929 124.852 101.463 125.154 101.206 125.562C100.946 125.961 100.874 126.291 100.817 126.549C100.361 130.717 102.121 133.361 102.731 136.38C102.824 136.723 102.965 137.225 103.366 137.731C103.771 138.225 104.137 138.436 104.391 138.616C105.507 139.383 106.902 140.148 107.73 140.695C109.043 141.757 110.447 143.858 111.665 145.744C111.692 145.787 111.718 145.83 111.743 145.875C112 146.326 112.187 146.867 112.343 147.521L112.318 147.42C112.35 147.595 112.298 147.561 112.336 147.382C112.483 147.022 112.261 147.42 111.983 147.686C111.621 148.075 111.443 148.595 111.478 149.125C111.514 149.655 111.762 150.153 112.166 150.509C112.57 150.864 113.096 151.045 113.627 151.012C114.157 150.978 114.65 150.734 114.988 150.325C115.279 149.916 115.711 149.66 116.117 148.436C116.321 147.669 116.201 147.011 116.105 146.597C116.1 146.576 116.086 146.515 116.08 146.495C115.833 145.67 115.486 144.751 114.93 143.896C114.875 143.81 114.818 143.726 114.758 143.642C113.29 141.688 112.082 139.742 109.655 137.907C108.222 137.058 107.238 136.614 106.128 135.921C105.905 135.789 105.783 135.684 105.825 135.733C105.861 135.794 105.809 135.743 105.747 135.538C104.891 132.475 103.253 129.287 103.534 127.069C103.545 126.982 103.569 126.967 103.502 127.071C103.435 127.181 103.271 127.273 103.291 127.254C103.922 126.946 104.555 126.816 105.496 126.034C105.718 125.782 106.192 125.5 106.285 124.493C106.272 123.672 105.937 123.172 105.41 122.759C104.22 121.919 102.963 121.205 101.481 120.752C101.08 120.626 100.462 120.549 99.8788 120.785C99.3326 120.999 98.9042 121.383 98.6153 121.773C98.0192 122.55 97.0333 123.427 96.1437 124.297C95.6871 124.742 95.231 125.186 94.7692 125.724C94.5372 126.009 94.3103 126.252 94.0623 126.777C94.0054 126.909 93.9385 127.079 93.9072 127.322C93.8734 127.564 93.8992 127.968 94.1287 128.311C94.6493 128.99 95.0902 128.944 95.359 129.005C96.3766 129.12 97.4151 129.241 98.3617 129.413C98.6707 129.451 98.7154 129.504 98.4548 129.38C98.3253 129.311 98.1869 129.14 98.1498 129.039C98.1067 128.935 98.1103 128.896 98.1092 128.89C98.2389 130.656 98.1629 132.513 97.8298 134.239C97.6547 135.112 97.4716 135.988 97.1489 136.486C96.8267 136.995 96.4568 137.438 96.0698 137.702C95.5098 138.075 94.6999 138.455 93.9508 138.863C91.2165 140.425 88.7568 142.157 86.3085 144.004C86.2866 144.02 86.2645 144.037 86.2425 144.054C85.2398 144.868 84.1763 145.435 83.1529 146.783C81.0178 150.132 78.8366 153.456 78.5612 158.1C78.5598 158.15 78.5582 158.201 78.5563 158.252C78.5401 159.345 78.2898 160.458 78.5588 162.138C78.6594 162.679 78.9929 163.368 79.4201 163.81C79.4544 163.848 79.4891 163.887 79.5579 163.953C79.5959 163.989 79.6336 164.026 79.7398 164.107C79.7975 164.148 79.863 164.202 80.0459 164.297C80.139 164.343 80.2729 164.405 80.4774 164.456C80.6742 164.51 80.9612 164.516 80.9603 164.515Z" fill="#1E1E1E"/>
<path d="M94.1841 146.135C94.2182 146.033 94.2524 145.93 94.1432 146.012C92.2165 148.929 89.0144 154.338 88.3547 155.478C88.2528 155.849 88.6235 155.8 89.2124 155.545" stroke="#1E1E1E" stroke-width="2" stroke-linecap="round" stroke-linejoin="round"/>
<path d="M96.9045 145.669C96.9208 145.618 96.9292 145.922 96.6584 147.303C96.3877 148.353 95.8462 150.113 95.5161 151.16C95.1859 152.206 95.0835 152.485 95.3376 152.11" stroke="#1E1E1E" stroke-width="2" stroke-linecap="round" stroke-linejoin="round"/>
<path d="M100.363 145.006C100.397 144.955 100.432 144.904 100.559 145.046C100.686 145.189 100.906 145.526 101.069 146.254C101.233 146.982 101.334 148.09 101.901 149.387" stroke="#1E1E1E" stroke-width="2" stroke-linecap="round" stroke-linejoin="round"/>
<path d="M105.287 144.773C105.295 144.773 105.303 144.773 105.438 144.989C105.574 145.204 105.835 145.635 106.544 146.699" stroke="#1E1E1E" stroke-width="4" stroke-linecap="round" stroke-linejoin="round"/>
<path d="M100.596 155.44C100.246 155.609 96.8966 158.112 91.8386 162.089C87.6129 165.41 85.0829 167.383 84.0823 168.613C83.024 169.915 82.0151 170.78 81.5954 171.324C81.4287 171.54 81.6668 171.803 85.8059 171.871C89.9449 171.938 98.0571 171.845 103.978 171.725C109.9 171.605 113.384 171.46 115.344 171.42C117.305 171.379 117.635 171.447 117.588 171.194C117.191 169.019 113.575 167.191 110.082 164.143C104.866 159.591 103.414 157.677 102.044 156.89C101.667 156.674 101.127 156.546 100.967 156.378C100.807 156.21 101.019 156.056 101.115 155.847C101.211 155.637 101.185 155.377 101.104 155.107C100.888 154.568 100.646 153.95 100.385 153.515C100.227 153.42 100.016 153.581 99.7978 153.852" stroke="#1E1E1E" stroke-width="2" stroke-linecap="round" stroke-linejoin="round"/>
<path d="M100.211 162.078C100.101 162.078 99.99 162.078 99.8274 162.188C99.6647 162.299 99.4533 162.52 99.3363 162.765C99.2193 163.011 99.203 163.274 99.2873 163.503C99.3716 163.731 99.557 163.917 99.8005 163.983C100.044 164.049 100.34 163.988 100.556 163.826C100.772 163.663 100.898 163.4 100.875 163.171C100.852 162.942 100.675 162.756 100.347 162.652C100.019 162.548 99.5457 162.532 98.6738 163.157" stroke="#1E1E1E" stroke-width="4" stroke-linecap="round" stroke-linejoin="round"/>
<path d="M85.3693 178.027C85.2601 177.687 85.0884 176.623 85.0502 176.227C84.9961 175.668 84.8487 179.118 85.0266 183.674C85.2761 190.06 86.0518 194.135 86.2716 194.567C86.3476 194.716 86.662 194.398 86.8306 194.136C86.9993 193.874 87.092 193.594 87.1356 193.307C87.1793 193.02 87.1712 192.734 87.0361 192.607C86.901 192.481 86.6392 192.523 86.4491 192.666C86.2589 192.81 86.1484 193.055 86.0995 193.045C86.0507 193.036 86.067 192.766 86.1379 192.516" stroke="#1E1E1E" stroke-width="4" stroke-linecap="round" stroke-linejoin="round"/>
<path d="M91.9651 180.945C92.2784 181.381 92.7789 181.602 93.3145 181.602C93.8505 181.601 94.3852 181.372 94.7934 180.971C95.2017 180.57 95.4411 180.04 95.4516 179.504C95.4617 178.969 95.2495 178.464 94.8197 178.143C94.8197 178.143 94.8197 178.143 94.8197 178.143C94.7129 178.063 94.7773 178.169 94.7213 178.132C94.7164 178.13 94.6956 178.1 94.6411 178.029C94.5756 177.957 94.5345 177.849 94.1832 177.58C94.0807 177.507 93.9683 177.434 93.775 177.354C93.5767 177.273 93.3159 177.206 93.011 177.21C92.7138 177.209 92.3599 177.313 92.1587 177.421C91.9473 177.529 91.7814 177.664 91.6661 177.78C91.2998 178.176 91.2843 178.339 91.2233 178.465C91.0811 178.885 91.1116 178.941 91.0931 179.073C91.0796 179.288 91.0866 179.43 91.0924 179.577C91.1587 180.659 91.2793 181.564 91.3735 182.531C91.6922 185.573 91.8962 188.595 91.9516 191.625C91.9924 193.718 91.9108 195.806 91.7377 197.921C91.6688 198.851 91.5602 199.728 91.5243 200.799C91.5227 200.918 91.5229 201.045 91.535 201.203C91.5424 201.286 91.55 201.369 91.5744 201.493C91.6145 201.63 91.5834 201.72 91.8478 202.177C91.9148 202.279 92.0479 202.482 92.3307 202.693C92.61 202.932 93.3417 203.179 93.9077 203.023C94.1983 202.955 94.3697 202.861 94.5132 202.774C94.6533 202.688 94.7691 202.588 94.8277 202.534C94.9633 202.407 95.0496 202.295 95.0991 202.229C95.3045 201.941 95.3369 201.845 95.3946 201.743C95.4929 201.552 95.5465 201.44 95.6021 201.332C95.8645 200.859 95.8301 200.314 95.5788 199.839C95.3267 199.364 94.8655 198.995 94.3094 198.816C93.7533 198.638 93.1632 198.67 92.6818 198.909C92.2011 199.149 91.8557 199.572 91.7937 200.109C91.7937 200.109 91.7937 200.109 91.7937 200.109C91.7899 200.185 91.7828 200.258 91.8069 200.246C91.8278 200.231 91.8196 200.226 91.97 200.017C92.0073 199.969 92.0755 199.879 92.1951 199.768C92.2466 199.72 92.3506 199.63 92.4809 199.55C92.6143 199.469 92.7758 199.381 93.0538 199.315C93.596 199.165 94.3033 199.405 94.5631 199.629C94.8284 199.828 94.9431 200.008 94.9987 200.093C95.2113 200.468 95.1519 200.464 95.1661 200.509C95.1645 200.537 95.1529 200.529 95.1414 200.515C95.1175 200.483 95.0899 200.417 95.0641 200.348C94.8198 199.624 94.6462 198.685 94.4992 197.811C94.165 195.757 93.9918 193.67 93.9513 191.588C93.896 188.571 94.0139 185.535 94.3386 182.539C94.4432 181.612 94.5618 180.644 94.7438 179.836C94.7669 179.743 94.7939 179.646 94.8147 179.626C94.8149 179.638 94.8641 179.575 94.764 179.884C94.7143 179.983 94.7125 180.117 94.3659 180.493C94.2565 180.603 94.0969 180.734 93.8916 180.838C93.6964 180.944 93.3508 181.045 93.0608 181.044C92.7633 181.048 92.5096 180.982 92.3186 180.904C92.1323 180.827 92.0258 180.757 91.9298 180.69C91.6022 180.438 91.5807 180.355 91.5325 180.307C91.4959 180.26 91.4915 180.255 91.5032 180.277C91.6086 180.487 91.8633 180.818 91.9651 180.945Z" fill="#1E1E1E"/>
<path d="M97.6982 179.41C97.5785 179.801 97.3504 181.524 97.1393 183.041C97.0581 183.625 97.2924 183.852 97.595 183.966C98.2896 184.227 99.3822 183.961 100.771 183.637C102.504 183.232 103.668 182.719 104.002 182.381C104.855 181.518 104.176 180.092 104.146 179.513C104.13 179.196 103.887 178.864 103.52 178.499C103.153 178.134 102.612 177.755 102.135 177.479C101.657 177.203 101.261 177.043 100.84 176.972C100.419 176.9 99.9867 176.924 99.6753 177.038C99.3638 177.153 99.1866 177.357 98.9896 177.556C98.7926 177.755 98.5812 177.941 98.6455 178.019C98.7098 178.098 99.0561 178.063 99.413 178.027" stroke="#1E1E1E" stroke-width="4" stroke-linecap="round" stroke-linejoin="round"/>
<path d="M109.745 179.332C109.464 179.873 109.19 183.786 109.467 186.662C109.557 187.123 109.65 187.48 109.832 187.583C110.015 187.686 110.285 187.525 110.563 187.36" stroke="#1E1E1E" stroke-width="4" stroke-linecap="round" stroke-linejoin="round"/>
<path d="M114.949 178.465C114.949 178.362 114.432 181.296 113.569 187.475C112.667 193.933 112.984 197.654 113.247 198.052C113.425 198.179 113.695 198.156 113.885 198.012C114.076 197.869 114.178 197.606 114.284 197.335" stroke="#1E1E1E" stroke-width="2" stroke-linecap="round" stroke-linejoin="round"/>
<path d="M119.713 176.052C119.493 175.891 119.274 175.731 119.355 175.694C119.436 175.658 119.825 175.751 120.457 176.252C123.605 178.747 124.835 180.176 125.362 180.71C125.56 180.91 125.306 181.185 125.041 181.325C124.475 181.623 122.492 181.736 120.192 182.1C119.457 182.217 119.67 182.519 120.937 182.62C122.204 182.721 124.537 182.695 125.676 182.876C126.815 183.058 126.688 183.446 126.521 184.611C126.354 185.777 126.151 187.707 126.017 190.617C125.883 193.527 125.824 197.358 125.765 199.485C125.705 201.611 125.647 201.916 125.429 202.258" stroke="#1E1E1E" stroke-width="2" stroke-linecap="round" stroke-linejoin="round"/>
<path d="M83.0895 176.821C82.6643 177.228 81.4701 178.512 79.6566 179.675C77.5198 181.047 75.651 181.904 75.0833 182.507C74.8304 182.775 74.7432 183.049 74.8383 183.252C74.9333 183.455 75.2374 183.599 75.5339 183.664C77.4434 184.083 79.8546 182.455 80.3707 182.354C80.6316 182.303 80.8965 182.286 80.9598 182.4C81.0231 182.513 80.8784 182.767 80.6518 183.046C80.4252 183.324 80.1212 183.62 79.7995 183.857C79.4778 184.094 79.1477 184.264 78.8045 184.394C78.1292 184.648 77.2931 184.71 76.4486 184.671C76.0657 184.654 75.7896 184.491 75.5227 184.346C74.9985 184.061 74.5541 183.663 74.1746 183.228C73.9877 183.014 73.8553 182.777 73.7726 183.755C73.6114 189.62 73.1028 192.459 72.6465 194.674C72.6616 195.007 72.8226 195.219 73.1954 195.359" stroke="#1E1E1E" stroke-width="4" stroke-linecap="round" stroke-linejoin="round"/>
<path d="M121.408 160.212C121.939 160.228 122.447 160.019 122.822 159.643C123.197 159.266 123.408 158.751 123.408 158.212C123.408 157.673 123.197 157.158 122.822 156.781C122.447 156.405 121.939 156.196 121.408 156.212C121.408 156.212 121.408 156.212 121.408 156.212C121.663 156.219 121.637 156.228 121.68 156.231C121.705 156.235 121.72 156.238 121.729 156.24C121.749 156.243 121.755 156.245 121.76 156.246C121.77 156.249 121.769 156.249 121.767 156.249C121.762 156.249 121.749 156.247 121.736 156.244C121.709 156.239 121.677 156.232 121.648 156.224C121.59 156.21 121.538 156.192 121.527 156.191C121.603 156.229 121.706 156.279 121.871 156.406C121.953 156.471 122.051 156.557 122.163 156.691C122.324 156.868 122.674 157.434 122.609 158.102C122.584 158.428 122.471 158.729 122.34 158.946C122.308 159.001 122.274 159.051 122.241 159.097C122.218 159.129 122.2 159.152 122.18 159.177C122.141 159.225 122.102 159.269 122.064 159.307C121.913 159.462 121.784 159.55 121.683 159.612C121.479 159.734 121.357 159.769 121.323 159.782C121.114 159.849 121.098 159.838 121.074 159.844C121.039 159.847 121.079 159.839 121.11 159.836C121.187 159.826 121.29 159.817 121.4 159.809C121.619 159.793 121.856 159.782 122.099 159.772C122.576 159.752 123.075 159.737 123.569 159.725C125.825 159.669 128.113 159.637 130.396 159.589C133.151 159.555 136.406 159.366 138.551 159.566C140.411 159.952 141.862 160.495 143.555 161.34C146.284 162.77 148.992 164.946 151.767 166.912C153.09 167.861 154.42 168.806 155.323 169.922C155.315 169.911 155.301 169.894 155.281 169.862C155.27 169.847 155.249 169.812 155.227 169.768C155.203 169.714 155.18 169.694 155.133 169.498C155.115 169.407 155.1 169.287 155.119 169.133C155.13 168.971 155.25 168.646 155.446 168.466C155.657 168.265 155.81 168.22 155.922 168.183C156.038 168.149 156.126 168.141 156.195 168.138C156.396 168.134 156.447 168.16 156.479 168.165C156.595 168.198 156.545 168.188 156.531 168.18C156.482 168.16 156.401 168.122 156.322 168.083C156.161 168.004 155.986 167.915 155.807 167.826C155.433 167.646 155.114 167.463 154.536 167.285C152.497 166.848 151.051 167.178 149.436 167.237C146.703 167.442 144.055 167.758 141.402 167.924C137.981 168.132 134.527 168.19 131.199 167.77C131.149 167.763 131.099 167.756 131.051 167.749L131.114 167.76C129.19 167.359 127.308 166.73 125.477 165.94C124.514 165.526 123.575 165.067 122.603 164.575C122.568 164.557 122.449 164.544 122.412 164.53C122.29 164.488 122.179 164.45 122.095 164.415C122.061 164.4 122.001 164.376 122.067 164.38C122.1 164.388 122.093 164.373 122.299 164.446C122.324 164.455 122.373 164.474 122.426 164.499C122.484 164.529 122.53 164.545 122.685 164.648C122.757 164.697 122.843 164.761 122.946 164.86C123.016 164.928 123.308 165.218 123.452 165.677C123.621 166.138 123.542 166.841 123.295 167.24C123.059 167.655 122.793 167.828 122.719 167.885C122.251 168.186 122.205 168.138 122.101 168.182C122.009 168.207 121.986 168.211 121.947 168.22C121.741 168.258 121.789 168.249 121.773 168.258C122.308 168.336 122.805 168.11 123.159 167.705C123.513 167.3 123.693 166.737 123.661 166.152C123.63 165.568 123.389 165.027 122.994 164.663C122.599 164.299 122.08 164.128 121.556 164.264C121.556 164.264 121.556 164.264 121.556 164.264C121.487 164.275 121.483 164.27 121.226 164.317C121.179 164.327 121.152 164.331 121.053 164.358C120.942 164.404 120.89 164.358 120.417 164.663C120.342 164.721 120.074 164.895 119.837 165.311C119.59 165.712 119.511 166.416 119.68 166.879C119.824 167.339 120.117 167.631 120.188 167.699C120.293 167.8 120.38 167.865 120.453 167.915C120.612 168.02 120.66 168.037 120.721 168.068C120.777 168.094 120.829 168.116 120.857 168.126C121.088 168.208 121.106 168.199 121.164 168.213C121.332 168.24 121.375 168.234 121.443 168.236C121.565 168.236 121.66 168.231 121.742 168.226L121.552 168.181C122.589 168.279 123.654 168.433 124.707 168.601C126.721 168.923 128.713 169.317 130.712 169.72C130.725 169.723 130.762 169.729 130.775 169.731C130.828 169.738 130.881 169.745 130.935 169.752C134.498 170.199 138.014 170.148 141.521 169.971C144.235 169.828 146.937 169.543 149.565 169.392C151.099 169.334 152.855 169.158 153.914 169.449C154.077 169.5 154.45 169.684 154.769 169.853C154.936 169.941 155.104 170.032 155.291 170.129C155.385 170.177 155.478 170.226 155.608 170.284C155.681 170.314 155.722 170.343 155.932 170.401C155.982 170.41 156.065 170.442 156.287 170.438C156.363 170.435 156.458 170.425 156.579 170.39C156.696 170.351 156.854 170.304 157.069 170.099C157.27 169.914 157.393 169.583 157.404 169.416C157.424 169.256 157.408 169.13 157.389 169.034C157.339 168.823 157.311 168.795 157.283 168.73C157.256 168.676 157.226 168.627 157.21 168.603C157.178 168.553 157.15 168.517 157.124 168.484C155.951 166.987 154.538 165.97 153.2 164.943C150.516 162.937 148.015 160.719 144.82 158.873C143.184 157.956 141.113 157.099 139.293 156.657C135.803 156.141 133.333 156.326 130.412 156.184C128.141 156.116 125.872 156.024 123.582 155.948C123.079 155.932 122.568 155.917 122.055 155.908C121.793 155.904 121.534 155.901 121.254 155.904C121.111 155.905 120.977 155.907 120.795 155.918C120.713 155.923 120.621 155.927 120.458 155.95C120.376 155.965 120.291 155.968 120.029 156.053C119.986 156.069 119.841 156.112 119.625 156.242C119.516 156.309 119.383 156.4 119.227 156.56C119.188 156.6 119.148 156.644 119.108 156.694C119.088 156.719 119.07 156.742 119.046 156.775C119.012 156.822 118.978 156.873 118.945 156.929C118.812 157.149 118.697 157.455 118.672 157.784C118.606 158.459 118.96 159.035 119.127 159.219C119.242 159.357 119.346 159.447 119.433 159.516C119.608 159.652 119.727 159.711 119.822 159.758C120.044 159.867 120.234 159.941 120.421 160.007C120.515 160.039 120.606 160.068 120.703 160.096C120.752 160.11 120.802 160.124 120.86 160.139C120.889 160.146 120.92 160.154 120.961 160.162C120.981 160.167 121.004 160.172 121.04 160.178C121.057 160.181 121.08 160.185 121.112 160.19C121.164 160.194 121.146 160.205 121.408 160.212Z" fill="#1E1E1E"/>
<path d="M121.793 160.286C120.325 159.185 119.531 158.444 118.878 157.782C118.595 157.495 118.385 157.334 118.365 157.488C118.281 158.136 118.908 159.035 119.401 159.904C120.509 161.853 122.338 163.489 123.696 164.749C124.095 165.119 124.022 164.806 123.847 164.455C123.086 162.925 122.392 160.634 122.091 158.898C122.065 158.598 122.057 158.293 122.226 158.382C122.395 158.47 122.741 158.962 123.355 159.75" stroke="#1E1E1E" stroke-width="4" stroke-linecap="round" stroke-linejoin="round"/>
<path d="M138.092 161.569C137.897 161.569 137.702 161.569 137.564 161.692C137.426 161.814 137.351 162.058 137.426 162.404C137.502 162.75 137.729 163.19 138.261 163.797C138.793 164.405 139.622 165.166 140.307 165.757C140.992 166.348 141.508 166.746 141.765 166.376C142.644 165.113 142.082 163.357 142.341 162.974C142.508 162.905 142.745 163.092 142.985 163.332C143.225 163.572 143.461 163.861 143.704 164.158" stroke="#1E1E1E" stroke-width="2" stroke-linecap="round" stroke-linejoin="round"/>
<path d="M144.962 127.032C144.801 126.778 144.64 126.524 144.489 126.643C144.339 126.761 144.204 127.259 143.838 131.713C143.473 136.167 142.881 144.561 142.584 149.224C142.288 153.888 142.304 154.565 142.448 154.948C142.592 155.33 142.864 155.398 143.296 155.108" stroke="#1E1E1E" stroke-width="4" stroke-linecap="round" stroke-linejoin="round"/>
<path d="M156.264 127.646C156.239 127.62 156.215 127.594 156.181 127.713C156.075 128.087 156.044 128.635 156.009 134.781C155.975 140.658 155.975 152.132 155.945 158.203C155.916 164.275 155.874 164.596 155.835 163.996C155.796 163.396 155.762 161.864 155.727 160.286" stroke="#1E1E1E" stroke-width="2" stroke-linecap="round" stroke-linejoin="round"/>
<path d="M152.14 130.721C152.055 130.721 151.971 130.721 151.813 130.802C151.654 130.882 151.425 131.043 151.261 131.278C151.096 131.513 151.003 131.818 150.952 132.179C150.9 132.54 150.892 132.947 150.955 133.3C151.018 133.653 151.153 133.939 151.413 134.087C151.673 134.234 152.053 134.234 152.406 134.061C152.759 133.888 153.073 133.541 153.289 133.172C153.505 132.804 153.614 132.424 153.662 132.076C153.71 131.728 153.694 131.424 153.576 131.178C153.458 130.932 153.238 130.756 152.96 130.634C152.682 130.513 152.352 130.452 152.071 130.488C151.791 130.525 151.569 130.66 151.371 131.032" stroke="#1E1E1E" stroke-width="2" stroke-linecap="round" stroke-linejoin="round"/>
<path d="M151.085 145.951C151.001 145.951 150.84 146.205 150.717 146.387C150.711 146.315 150.82 145.91 150.876 145.515C150.932 145.12 150.932 144.748 150.908 144.364" stroke="#1E1E1E" stroke-width="4" stroke-linecap="round" stroke-linejoin="round"/>
<path d="M150.165 122.983C150.107 122.983 150.048 122.983 149.849 123.009C149.65 123.034 149.311 123.085 148.963 123.138" stroke="#1E1E1E" stroke-width="4" stroke-linecap="round" stroke-linejoin="round"/>
<path d="M148.322 123.342C146.276 123.803 144.296 124.209 143.138 124.369C143.041 124.383 143.302 124.087 143.576 123.954C143.85 123.82 144.172 123.762 146.566 123.673C153.416 123.417 157.621 123.359 156.452 123.184C154.448 122.885 151.002 121.678 147.326 120.888C145.644 120.527 144.357 120.47 143.234 120.32C143.028 120.292 143.652 120.077 144.106 119.986C146.716 119.836 151.668 120.03 154.486 120.339C155.544 120.468 155.848 120.543 156.24 120.542" stroke="#1E1E1E" stroke-width="4" stroke-linecap="round" stroke-linejoin="round"/>
<path d="M145.148 118.313C145.682 118.295 146.152 118.014 146.463 117.579C146.773 117.143 146.897 116.581 146.809 116.023C146.72 115.466 146.428 114.97 145.997 114.652C145.567 114.335 145.033 114.214 144.519 114.362C144.519 114.362 144.519 114.362 144.519 114.362C144.859 114.327 144.828 114.361 144.872 114.364C144.896 114.372 144.892 114.379 144.882 114.383C144.86 114.391 144.809 114.392 144.751 114.389C144.634 114.382 144.487 114.359 144.335 114.326C144.421 114.377 144.42 114.404 144.405 114.411C144.372 114.437 144.249 114.328 144.277 114.425C144.33 114.542 144.406 114.86 144.324 115.143C144.247 115.424 144.111 115.54 144.066 115.568C144.109 115.478 144.244 115.339 144.491 115.142C144.729 114.937 145.123 114.694 145.52 114.106C146.191 112.948 146.03 111.98 146.054 112.044C146.605 110.682 146.287 109.876 146.191 109.077C146.046 108.288 145.873 107.558 145.714 106.827C145.392 105.371 145.115 103.924 144.922 102.469C144.911 102.389 144.901 102.309 144.89 102.227C144.433 98.5648 144.18 94.8307 143.885 91.0944C143.881 91.0514 143.878 91.0089 143.875 90.967C143.818 90.0739 143.868 89.1063 144.101 88.2993C144.128 88.2199 144.159 88.145 144.193 88.1206C144.23 88.0785 144.246 88.2076 144.26 88.2635C144.33 88.3863 144.513 88.3194 144.807 88.2183C145.335 87.9748 145.529 87.4694 145.475 86.9263C145.421 86.382 145.1 85.8247 144.607 85.3969C144.115 84.9691 143.518 84.7301 142.971 84.7523C142.426 84.7757 141.953 85.0385 141.786 85.5961C141.786 85.5961 141.786 85.5961 141.786 85.5961C141.647 85.9998 141.39 86.4574 141.236 87.2144C141.182 87.4581 141.17 87.7855 141.196 87.9426C141.218 88.1174 141.25 88.2412 141.281 88.3609C141.579 89.3679 141.798 90.2067 141.88 91.127C141.884 91.1684 141.888 91.2105 141.891 91.2531C142.186 94.9798 142.437 98.7192 142.907 102.484C142.918 102.568 142.928 102.651 142.94 102.734C143.138 104.233 143.374 105.738 143.594 107.215C143.702 107.953 143.808 108.688 143.861 109.382C143.928 110.042 143.849 110.812 143.736 110.82C143.404 111.441 143.38 111.852 143.294 112.112C143.223 112.378 143.144 112.462 143.128 112.432C143.233 112.326 142.525 112.628 141.744 113.286C141.495 113.522 141.188 113.891 141.051 114.461C140.907 115.032 141.049 115.654 141.24 116.028C141.544 116.63 141.823 116.948 142.247 117.319C142.455 117.491 142.695 117.662 143.042 117.81C143.26 117.915 143.487 118.017 143.751 118.113C143.884 118.16 144.024 118.207 144.197 118.25C144.285 118.271 144.377 118.292 144.5 118.31C144.641 118.322 144.711 118.362 145.148 118.313Z" fill="#1E1E1E"/>
<path d="M155.807 87.7046C155.781 87.7411 155.474 89.2088 155.111 92.2349C155.047 95.8617 155.266 99.8209 155.645 102.553C155.796 103.601 155.865 103.964 156.344 104.212" stroke="#1E1E1E" stroke-width="2" stroke-linecap="round" stroke-linejoin="round"/>
<path d="M156.729 108.211C156.872 109.14 157.434 111.217 157.689 112.624C157.744 112.926 157.584 113.26 157.393 113.591C157.201 113.922 156.905 114.243 156.622 114.485C156.339 114.726 156.077 114.877 155.815 114.976C155.553 115.075 155.3 115.117 155.025 115.071C154.751 115.025 154.463 114.89 153.807 114.546" stroke="#1E1E1E" stroke-width="4" stroke-linecap="round" stroke-linejoin="round"/>
<path d="M149.727 102.98C149.754 102.45 149.569 101.931 149.214 101.538C148.858 101.144 148.36 100.908 147.831 100.881C147.301 100.854 146.782 101.039 146.389 101.394C145.995 101.75 145.759 102.247 145.732 102.777C145.732 102.777 145.732 102.777 145.732 102.777C145.73 102.825 145.727 102.874 145.725 102.924C145.705 103.331 145.761 103.74 145.853 104.148C146.094 105.229 146.577 106.313 146.535 107.376C146.483 108.718 146.432 110.055 146.385 111.405C146.382 111.541 146.378 111.61 146.394 111.805C146.408 111.881 146.394 111.995 146.519 112.275C146.548 112.333 146.667 112.569 146.936 112.725C147.218 112.899 147.601 112.885 147.798 112.806C148.006 112.732 148.126 112.623 148.181 112.572C148.226 112.53 148.26 112.492 148.288 112.457C148.489 112.194 148.497 112.123 148.556 112.009C148.612 111.888 148.642 111.814 148.684 111.708C148.829 111.34 148.946 110.99 149.06 110.641C149.285 109.949 149.491 109.257 149.692 108.568C150.093 107.196 150.473 105.791 150.859 104.468C150.86 104.463 150.864 104.449 150.866 104.444C150.907 104.295 150.945 104.15 150.981 104.02C150.999 103.957 151.017 103.894 151.03 103.854C151.036 103.837 151.043 103.819 151.034 103.841C151.027 103.855 151.026 103.87 150.969 103.955C150.932 104 150.904 104.073 150.697 104.213C150.598 104.28 150.343 104.39 150.075 104.357C149.81 104.337 149.567 104.163 149.505 104.097C149.329 103.919 149.319 103.848 149.291 103.796C149.266 103.739 149.264 103.727 149.257 103.705C149.246 103.669 149.246 103.663 149.245 103.659C149.244 103.655 149.247 103.674 149.25 103.695C149.255 103.741 149.26 103.799 149.264 103.864C149.271 103.991 149.277 104.131 149.28 104.273C149.281 104.286 149.281 104.299 149.281 104.312C149.317 106.522 149.282 108.807 149.302 111.07C149.305 111.523 149.31 111.977 149.317 112.431C149.32 112.696 149.43 112.949 149.62 113.133C149.81 113.318 150.066 113.42 150.331 113.416C150.596 113.412 150.849 113.303 151.034 113.112C151.219 112.922 151.32 112.666 151.316 112.401C151.316 112.401 151.316 112.401 151.316 112.401C151.31 111.953 151.305 111.505 151.302 111.056C151.282 108.802 151.317 106.569 151.281 104.261C151.28 104.246 151.28 104.232 151.28 104.218C151.275 104.062 151.27 103.907 151.26 103.74C151.254 103.653 151.248 103.572 151.237 103.467C151.231 103.416 151.224 103.36 151.209 103.284C151.202 103.245 151.194 103.203 151.172 103.13C151.159 103.089 151.153 103.066 151.119 102.987C151.083 102.918 151.065 102.831 150.875 102.64C150.809 102.569 150.555 102.388 150.282 102.368C150.005 102.334 149.74 102.447 149.633 102.519C149.413 102.668 149.372 102.757 149.325 102.816C149.247 102.933 149.229 102.981 149.207 103.029C149.168 103.116 149.15 103.172 149.133 103.222C149.1 103.323 149.077 103.403 149.055 103.482C149.012 103.637 148.975 103.777 148.937 103.914L148.944 103.89C148.537 105.287 148.17 106.647 147.772 108.009C147.574 108.687 147.371 109.367 147.158 110.023C147.052 110.349 146.939 110.683 146.826 110.97C146.794 111.05 146.771 111.104 146.742 111.168C146.727 111.21 146.662 111.3 146.746 111.184C146.795 111.152 146.752 111.089 147.137 110.919C147.314 110.846 147.678 110.832 147.942 110.996C148.194 111.143 148.292 111.35 148.314 111.392C148.409 111.612 148.378 111.607 148.385 111.612C148.383 111.6 148.382 111.543 148.384 111.465C148.431 110.142 148.482 108.789 148.534 107.454C148.576 106.393 149.144 105.353 149.48 104.309C149.607 103.914 149.7 103.519 149.72 103.122C149.722 103.073 149.725 103.026 149.727 102.98Z" fill="#1E1E1E"/>
<path d="M146.271 87.2175C146.135 87.2175 145.7 87.3014 145.355 87.3818C147.308 86.8262 150.235 85.9352 151.958 85.7425C152.568 85.7128 153.405 85.6965 154.781 86.0324" stroke="#1E1E1E" stroke-width="4" stroke-linecap="round" stroke-linejoin="round"/>
<path d="M147.075 84.3479C147.523 84.0585 147.794 83.5816 147.852 83.0511C147.91 82.5203 147.746 81.9743 147.4 81.5382C147.054 81.1022 146.56 80.8179 146.03 80.7531C145.501 80.6886 144.974 80.8438 144.59 81.2133C144.59 81.2133 144.59 81.2133 144.59 81.2133C144.364 81.4267 144.163 81.6286 143.972 81.8189C143.794 81.9994 143.561 82.2167 143.529 82.2656C143.537 82.2661 143.537 82.2631 143.655 82.209C143.865 82.1157 144.144 82.0065 144.611 82.047C145.048 82.0776 145.51 82.3587 145.688 82.549C146.096 82.9852 146.085 83.1545 146.144 83.2908C146.211 83.5274 146.2 83.5768 146.206 83.6323C146.208 83.7238 146.201 83.7271 146.198 83.729C146.19 83.7249 146.187 83.6726 146.187 83.6198C146.186 83.5098 146.196 83.3727 146.208 83.2499C146.684 80.3867 147.722 77.0172 148.356 73.8396C148.937 71.1681 149.712 68.4807 150.559 65.8442C150.565 65.8258 150.571 65.8074 150.577 65.7891L150.567 65.8186C151.741 62.6069 153.133 59.3485 154.995 56.6805C155.183 56.4216 155.377 56.1766 155.599 55.8832L155.313 56.2782C155.258 56.3365 155.211 56.3878 155.08 56.4893C155.012 56.5404 154.929 56.597 154.82 56.6545C154.68 56.7273 154.492 56.8048 154.247 56.8451C153.663 56.9971 152.754 56.569 152.53 56.2357C152.249 55.9031 152.213 55.7413 152.156 55.6026C152.025 55.1688 152.066 55.1602 152.051 55.0833C152.045 54.976 152.044 54.9716 152.04 54.9621C152.033 54.9535 152.021 54.9891 152.008 55.0258C151.983 55.1033 151.953 55.2063 151.923 55.3145C151.772 55.8307 151.912 56.3597 152.248 56.7774C152.584 57.1953 153.1 57.4691 153.672 57.5372C154.244 57.6053 154.81 57.4606 155.235 57.1336C155.66 56.8065 155.92 56.3252 155.895 55.788C155.895 55.788 155.895 55.788 155.895 55.788C155.889 55.6922 155.885 55.592 155.883 55.4655C155.881 55.4001 155.881 55.3338 155.881 55.2227C155.88 55.1621 155.882 55.1064 155.874 54.948C155.858 54.8458 155.898 54.8106 155.758 54.3527C155.699 54.2074 155.661 54.0403 155.376 53.7027C155.148 53.3646 154.232 52.9336 153.641 53.0868C153.393 53.1275 153.203 53.2061 153.06 53.2806C152.948 53.3394 152.862 53.3977 152.792 53.4508C152.655 53.5565 152.605 53.6115 152.544 53.6751C152.487 53.7583 152.292 53.9753 152.258 54.0702C152.151 54.3806 152.014 54.7354 151.889 55.0876C150.711 58.6206 149.883 61.8659 148.684 65.1436C148.682 65.1494 148.676 65.1672 148.674 65.1731C148.668 65.1917 148.662 65.2103 148.656 65.2288C147.798 67.9005 146.923 70.5448 146.107 73.2697C145.226 76.4004 143.966 79.107 142.79 82.5037C142.729 82.7185 142.677 82.922 142.631 83.1547C142.609 83.2725 142.587 83.3933 142.571 83.5614C142.564 83.6495 142.555 83.7399 142.564 83.9173C142.573 84.0164 142.568 84.1076 142.647 84.3859C142.713 84.544 142.71 84.7327 143.134 85.1847C143.318 85.3821 143.792 85.6692 144.238 85.7006C144.717 85.7421 145.005 85.6304 145.226 85.532C145.418 85.4429 145.489 85.3958 145.566 85.3509C146.306 84.8836 146.636 84.622 147.075 84.3479Z" fill="#1E1E1E"/>
<path d="M155.214 55.396C155.281 54.8656 155.078 54.3569 154.696 53.9818C154.315 53.6067 153.778 53.396 153.214 53.396C152.649 53.396 152.112 53.6067 151.731 53.9818C151.35 54.3569 151.146 54.8656 151.214 55.396C151.276 55.8855 151.334 56.4317 151.39 56.9501C151.441 57.4401 151.49 57.9275 151.536 58.4214C151.937 62.6721 152.113 66.9174 152.189 71.1866C152.189 71.2001 152.189 71.2136 152.189 71.227C152.252 74.0589 152.396 77.0391 153.164 79.8901C153.166 79.8983 153.175 79.922 153.177 79.9301C153.629 81.6184 153.798 83.4005 153.775 85.1791C153.773 85.2954 153.771 85.4134 153.768 85.5294L153.779 85.0785C153.792 84.8444 153.687 85.0448 153.453 85.2663C153.091 85.66 152.963 86.1928 153.058 86.7191C153.153 87.2457 153.47 87.7276 153.932 88.0538C154.393 88.3801 154.953 88.5179 155.481 88.4319C156.009 88.3455 156.469 88.0475 156.719 87.5749C156.719 87.5749 156.719 87.5749 156.719 87.5749C156.937 87.1419 157.304 86.6579 157.443 85.6233C157.445 85.5305 157.474 85.2632 157.454 85.1725C157.427 85.0458 157.4 84.9169 157.372 84.7899C156.942 82.8472 156.397 80.9277 155.614 79.077L155.628 79.117C154.574 76.637 154.253 73.9545 154.189 71.1845C154.189 71.1716 154.188 71.1586 154.188 71.1455C154.116 66.9308 154.375 62.6827 154.841 58.449C154.895 57.9559 154.952 57.4694 155.012 56.9803C155.076 56.4519 155.143 55.9541 155.214 55.396Z" fill="#1E1E1E"/>
<path d="M146.271 79.6274C146.328 79.6416 147.325 79.5762 147.858 79.6173C147.978 79.7096 147.793 79.9471 147.584 80.1369C147.374 80.3267 147.147 80.4618 146.809 80.6785" stroke="#1E1E1E" stroke-width="4" stroke-linecap="round" stroke-linejoin="round"/>
<path d="M153.879 53.936L153.934 54.0145" stroke="#1E1E1E" stroke-width="4" stroke-linecap="round" stroke-linejoin="round"/>
<path d="M154.318 54.5493C154.318 54.5656 154.318 54.5819 154.208 54.6625C154.098 54.743 153.879 54.8874 153.727 54.8395C153.374 54.7278 153.445 52.6705 153.601 48.7071C153.811 43.357 154.138 40.5323 154.01 41.0635C153.745 42.1649 154.146 43.4862 154.301 44.992C154.484 46.7842 153.755 48.2749 153.606 48.8186C153.537 49.0697 153.263 49.183 153.006 49.2316C152.749 49.2802 152.461 49.2383 152.245 49.0852C152.03 48.9321 151.895 48.6691 151.99 48.5161C152.416 48.3282 153.076 48.2922 153.684 48.2422C153.972 48.1921 154.218 48.092 154.293 47.6291" stroke="#1E1E1E" stroke-width="2" stroke-linecap="round" stroke-linejoin="round"/>
<path d="M159.954 142.467C159.904 142.399 159.854 142.332 159.676 142.128C159.199 141.583 160.801 143.109 164.632 146.741C168.29 150.208 170.523 152.011 170.943 152.52C171.128 152.768 171.255 152.996 171.203 153.17C171.15 153.343 170.914 153.455 170.159 153.725" stroke="#1E1E1E" stroke-width="4" stroke-linecap="round" stroke-linejoin="round"/>
<path d="M161.266 148.463C161.266 148.533 161.34 148.932 161.543 149.622C161.642 149.958 161.85 150.228 161.967 150.173C162.405 149.967 162.187 149.023 162.297 148.504C162.35 148.253 162.626 148.102 162.891 148.218C163.6 148.528 164.047 149.818 165.033 151.589C165.383 152.217 165.867 152.66 166.132 152.97C166.127 153.033 165.839 152.905 165.56 152.788C165.281 152.671 165.019 152.568 164.67 152.392" stroke="#1E1E1E" stroke-width="4" stroke-linecap="round" stroke-linejoin="round"/>
<path d="M159.112 151.672C158.986 151.747 158.859 151.821 159.005 151.873C160.339 152.02 161.787 152.329 169.061 153.914C170.556 154.269 170.776 154.404 171.081 154.543" stroke="#1E1E1E" stroke-width="4" stroke-linecap="round" stroke-linejoin="round"/>
<path d="M170.929 154.466C170.913 154.447 170.802 154.717 170.643 155.471C170.603 157.846 170.765 159.656 170.914 160.886C170.97 161.441 170.986 161.855 170.673 162.493" stroke="#1E1E1E" stroke-width="4" stroke-linecap="round" stroke-linejoin="round"/>
<path d="M162.621 171.565C163.239 171.753 165.222 172.59 168.946 173.274C169.529 173.381 169.241 173.504 168.916 173.56C167.601 173.786 164.317 174.763 159.526 176.148C158.966 176.31 159.318 176.32 159.665 176.291C160.351 176.21 162.847 175.988 166.297 175.748C167.599 175.678 167.989 175.713 168.568 176.158" stroke="#1E1E1E" stroke-width="4" stroke-linecap="round" stroke-linejoin="round"/>
<path d="M158.65 180.82C158.65 180.804 158.65 180.788 158.569 183.352C158.489 185.916 158.328 191.06 158.472 196.128" stroke="#1E1E1E" stroke-width="4" stroke-linecap="round" stroke-linejoin="round"/>
<path d="M160.443 184.002C160.46 183.951 160.637 183.578 160.987 182.959C161.147 182.675 161.354 182.501 161.962 182.333C162.57 182.165 163.593 182.02 164.251 181.967C164.91 181.914 165.173 181.956 165.376 182.155C165.715 182.711 165.912 185.092 166.124 189.493C166.276 191.88 166.522 194.581 167.031 196.869" stroke="#1E1E1E" stroke-width="4" stroke-linecap="round" stroke-linejoin="round"/>
<path d="M162.65 186.309C162.616 186.25 162.581 186.192 162.496 186.352C162.219 186.866 162.167 189.466 162.218 191.915C162.249 193.367 162.304 188.381 162.505 187.772C162.607 187.463 162.833 187.203 163.077 187.029C163.32 186.855 163.606 186.787 163.792 186.969C165.814 188.949 164.015 193.691 163.785 194.314C163.677 194.608 163.369 194.749 163.163 194.722C162.957 194.694 162.806 194.466 162.689 194.179C162.573 193.893 162.497 193.556 162.36 193.271C162.223 192.987 162.028 192.765 162.004 192.77C161.735 192.824 162.56 193.453 162.982 193.879C163.176 194.076 163.16 194.371 163.051 194.573C162.941 194.775 162.696 194.91 162.468 195.095C162.24 195.279 162.036 195.51 161.314 195.924" stroke="#1E1E1E" stroke-width="4" stroke-linecap="round" stroke-linejoin="round"/>
<path d="M160.188 196.438C160.121 196.487 160.054 196.536 160.214 196.651C160.72 197.014 161.56 197.23 162.335 197.382C162.713 197.433 163.061 197.433 163.401 197.446C163.74 197.459 164.061 197.484 164.903 197.617" stroke="#1E1E1E" stroke-width="4" stroke-linecap="round" stroke-linejoin="round"/>
<path d="M175.953 165.7C176.495 165.649 176.917 165.303 177.154 164.82C177.391 164.337 177.419 163.741 177.235 163.179C177.052 162.617 176.679 162.152 176.203 161.901C175.727 161.65 175.182 161.62 174.714 161.897C174.714 161.897 174.714 161.897 174.714 161.897C174.643 161.94 174.585 161.977 174.606 161.99C174.625 161.997 174.637 161.992 174.827 161.984C174.941 161.995 175.051 161.93 175.59 162.113C175.846 162.203 176.345 162.515 176.587 163.035C176.826 163.547 176.777 163.925 176.748 164.13C176.693 164.182 176.648 164.146 176.645 164.067C176.653 163.542 177.469 162.598 178.26 161.911C179.086 161.176 179.997 160.576 181.015 159.81C180.769 159.927 180.974 159.826 181.327 159.82L181.284 159.823C181.289 159.823 181.317 159.822 181.337 159.822C184.81 160.011 188.495 160.609 192.047 161.351C192.645 161.483 193.287 161.622 193.755 161.784C193.886 161.83 194.005 161.891 193.956 161.904C193.932 161.908 193.845 161.891 193.719 161.816C193.594 161.744 193.472 161.622 193.434 161.587C193.675 162.066 194.133 162.367 194.661 162.455C195.189 162.543 195.753 162.406 196.219 162.08C196.686 161.753 197.008 161.271 197.106 160.744C197.204 160.218 197.078 159.685 196.711 159.294C196.711 159.294 196.711 159.294 196.711 159.294C196.429 158.871 195.669 158.381 195.289 158.304C194.882 158.186 194.625 158.172 194.381 158.153C193.613 158.111 193.01 158.139 192.364 158.141C188.674 158.209 185.132 158.024 181.346 157.822C181.312 157.822 181.253 157.822 181.205 157.824C181.197 157.825 181.17 157.826 181.162 157.827C180.948 157.877 180.528 157.726 179.799 158.193C178.03 159.478 175.809 159.834 173.536 162.411C173.332 162.708 173.132 163.075 173.012 163.549C172.979 163.775 172.931 164.175 173.179 164.705C173.43 165.245 173.947 165.57 174.223 165.667C174.801 165.865 174.955 165.799 175.11 165.808C175.384 165.792 175.479 165.769 175.579 165.755C175.763 165.725 175.865 165.709 175.953 165.7Z" fill="#1E1E1E"/>
<path d="M195.432 162C195.7 162.137 198.702 165.172 201.075 167.556C201.477 167.96 202.048 168.368 202.429 168.709C202.809 169.05 203.012 169.278 202.935 169.464C202.858 169.65 202.493 169.787 201.837 169.929" stroke="#1E1E1E" stroke-width="4" stroke-linecap="round" stroke-linejoin="round"/>
<path d="M171.257 169.619C171.233 169.619 171.209 169.619 171.293 169.728C171.377 169.837 171.571 170.056 172.009 170.275C173.08 170.809 174.391 171.052 176.538 171.364C178.114 171.594 180.7 171.787 185.032 171.98C189.364 172.173 195.369 172.315 198.991 172.461C202.613 172.606 203.67 172.75 204.354 172.858C205.038 172.966 205.318 173.034 205.606 173.103" stroke="#1E1E1E" stroke-width="2" stroke-linecap="round" stroke-linejoin="round"/>
<path d="M184.898 163.312C184.88 163.312 184.862 163.312 185.022 163.375C185.182 163.438 185.52 163.563 186.485 163.693" stroke="#1E1E1E" stroke-width="4" stroke-linecap="round" stroke-linejoin="round"/>
<path d="M191.021 163.411C191.064 163.411 191.106 163.411 191.229 163.496C191.353 163.581 191.556 163.751 191.997 164.462" stroke="#1E1E1E" stroke-width="4" stroke-linecap="round" stroke-linejoin="round"/>
<path d="M184.488 168.666C184.419 168.685 185.018 168.611 186.469 168.487C187.286 168.447 188.267 168.454 189.102 168.551C189.937 168.648 190.597 168.834 191.509 169.132" stroke="#1E1E1E" stroke-width="4" stroke-linecap="round" stroke-linejoin="round"/>
<path d="M193.584 169.385L193.993 169.364" stroke="#1E1E1E" stroke-width="4" stroke-linecap="round" stroke-linejoin="round"/>
<path d="M197.225 169.287L198.018 169.209" stroke="#1E1E1E" stroke-width="4" stroke-linecap="round" stroke-linejoin="round"/>
<path d="M177.797 175.206C177.729 175.206 177.661 175.206 177.579 175.337C177.497 175.469 177.405 175.732 177.349 176.167C177.293 176.603 177.277 177.204 177.327 177.348C177.409 177.585 177.836 176.593 178.298 176.324C178.539 176.283 178.792 176.437 178.977 176.664C179.163 176.891 179.271 177.187 178.925 177.512" stroke="#1E1E1E" stroke-width="4" stroke-linecap="round" stroke-linejoin="round"/>
<path d="M185.306 177.159L185.129 177.335" stroke="#1E1E1E" stroke-width="4" stroke-linecap="round" stroke-linejoin="round"/>
<path d="M176.363 182.309C176.194 182.732 176.072 183.221 176.063 183.477C176.051 183.814 176.293 182.549 176.476 182.016C176.625 181.779 176.886 181.609 177.224 181.522C177.563 181.434 177.969 181.434 178.388 181.434" stroke="#1E1E1E" stroke-width="4" stroke-linecap="round" stroke-linejoin="round"/>
<path d="M185.355 183.565C185.355 183.574 185.355 183.583 185.203 183.554C185.051 183.526 184.747 183.458 184 183.127" stroke="#1E1E1E" stroke-width="4" stroke-linecap="round" stroke-linejoin="round"/>
<path d="M177.053 189.258C177.053 189.241 177.053 189.225 177.018 189.085C176.984 188.945 176.916 188.682 177.565 188.256" stroke="#1E1E1E" stroke-width="4" stroke-linecap="round" stroke-linejoin="round"/>
<path d="M184.819 188.644C184.837 188.644 184.855 188.644 184.703 188.706C184.551 188.769 184.229 188.895 183.937 188.934C183.644 188.973 183.39 188.922 183.129 188.721" stroke="#1E1E1E" stroke-width="4" stroke-linecap="round" stroke-linejoin="round"/>
<path d="M173.442 190.203C173.337 190.203 173.759 190.254 176.88 190.365C179.525 190.46 184.329 190.493 188.669 190.465C193.008 190.437 196.738 190.311 199.231 190.327C202.868 190.503 204.814 190.88 206.136 191.222C206.688 191.352 207 191.394 207.322 191.437" stroke="#1E1E1E" stroke-width="4" stroke-linecap="round" stroke-linejoin="round"/>
<path d="M173.155 193.335C173.036 193.393 172.918 193.451 173.051 193.478C173.566 193.58 174.553 193.448 177.747 193.388C180.364 193.339 185.007 193.377 188.76 193.516C195.237 193.924 198.415 194.203 199.115 194.207C199.443 194.212 199.714 194.221 199.994 194.231" stroke="#1E1E1E" stroke-width="4" stroke-linecap="round" stroke-linejoin="round"/>
<path d="M203.838 171.876C203.745 172.223 203.607 173.232 203.408 175.788C203.233 178.041 202.813 182.227 202.515 184.98C202.217 187.734 202.03 188.926 201.892 190.546C201.753 192.167 201.669 194.181 201.71 196.538" stroke="#1E1E1E" stroke-width="4" stroke-linecap="round" stroke-linejoin="round"/>
<path d="M208.963 160.109C208.963 160.049 208.963 159.988 208.891 159.817C208.82 159.647 208.677 159.367 208.582 159.469C208.167 159.914 208.393 163.818 208.503 168.602C208.539 170.14 208.867 169.857 209.1 169.395C209.332 168.934 209.543 168.298 209.745 167.573C209.946 166.847 210.132 166.051 210.323 165.231" stroke="#1E1E1E" stroke-width="4" stroke-linecap="round" stroke-linejoin="round"/>
<path d="M212.195 160.412C212.312 159.989 212.448 159.475 212.585 159.175C212.714 158.894 212.529 161.395 212.119 165.33C211.709 170.584 211.383 174.16 211.184 175.159C211.103 175.616 211.061 175.969 210.426 176.722" stroke="#1E1E1E" stroke-width="4" stroke-linecap="round" stroke-linejoin="round"/>
<path d="M61.4282 160.363C61.4119 160.345 61.8604 160.463 63.1828 160.725C65.2846 161.14 69.1109 161.174 73.1334 161.276C75.1128 161.326 75.9258 161.585 76.7425 161.832C77.2161 161.975 77.7965 162.198 78.0208 162.429C78.2451 162.66 78.0922 162.905 77.8907 163.095C77.6892 163.285 77.4437 163.413 77.1907 163.545" stroke="#1E1E1E" stroke-width="4" stroke-linecap="round" stroke-linejoin="round"/>
<path d="M62.4383 164.52C62.9583 164.403 63.3772 164.049 63.6146 163.571C63.8519 163.093 63.8861 162.523 63.7119 161.995C63.5376 161.466 63.1716 161.028 62.6965 160.785C62.2214 160.542 61.674 160.506 61.1864 160.721C61.1864 160.721 61.1864 160.721 61.1864 160.721C60.9139 160.822 60.8948 160.849 60.818 160.889C60.7529 160.925 60.7057 160.954 60.6582 160.984C60.566 161.042 60.4874 161.094 60.4092 161.146C60.2548 161.25 60.1097 161.349 59.9654 161.447C59.6772 161.643 59.3942 161.834 59.1088 162.022C58.6496 162.324 58.1884 162.616 57.7207 162.896C56.014 163.949 54.3187 164.651 52.2856 165.961C51.8244 166.269 51.3699 166.878 51.2006 167.306C51.0549 167.671 50.808 168.138 51.022 168.949C51.3018 169.805 52.0267 170.102 52.4441 170.206C55.9775 170.273 58.1071 169.609 60.9023 169.396C60.9164 169.394 60.9305 169.393 60.9446 169.391C63.0167 169.168 65.1172 169.277 67.2662 169.463C69.8054 169.684 72.3488 170.053 74.8315 170.575C76.4217 170.912 77.9886 171.329 79.5612 171.801C80.2259 172 80.8917 172.207 81.5614 172.42C82.0692 172.581 82.6098 172.488 83.0568 172.196C83.5038 171.904 83.8218 171.432 83.9395 170.888C84.0572 170.345 83.9634 169.783 83.6773 169.333C83.3911 168.882 82.9374 168.574 82.4084 168.51C82.4084 168.51 82.4084 168.51 82.4084 168.51C81.7093 168.426 81.0071 168.338 80.3011 168.251C78.6306 168.045 76.94 167.852 75.2503 167.711C72.6172 167.494 70.0099 167.357 67.3894 167.279C65.2181 167.217 62.9756 167.16 60.7374 167.402C60.7231 167.403 60.7089 167.405 60.6947 167.406C58.1232 167.649 54.8979 168.097 53.0527 167.981C53.0242 167.969 53.0286 167.955 53.0843 167.988C53.1367 168.016 53.2484 168.128 53.2951 168.275C53.3628 168.566 53.3057 168.493 53.3878 168.388C53.529 168.151 53.5524 168.168 53.7088 168.072C55.162 167.331 57.2983 166.664 59.1953 165.885C59.7412 165.665 60.2814 165.438 60.8171 165.206C61.1496 165.062 61.4799 164.917 61.8045 164.774C61.9661 164.703 62.1276 164.632 62.2801 164.568C62.3563 164.536 62.4303 164.505 62.4932 164.481C62.5246 164.47 62.5527 164.46 62.5679 164.457C62.5681 164.459 62.6299 164.447 62.4383 164.52Z" fill="#1E1E1E"/>
<path d="M51.3328 169.308C51.341 169.275 51.3491 169.243 51.4378 169.128C51.5266 169.014 51.6957 168.818 51.7999 168.865C51.9041 168.912 51.9382 169.208 52.0103 171.679C52.0823 174.15 52.1913 178.787 52.2181 181.566C52.245 184.344 52.1864 185.124 51.8774 187.302C51.5684 189.48 51.0107 193.032 50.7185 195.543C50.4263 198.054 50.4165 199.416 50.4205 200.257C50.4244 201.099 50.4423 201.378 50.6134 201.433" stroke="#1E1E1E" stroke-width="4" stroke-linecap="round" stroke-linejoin="round"/>
<path d="M52.9434 185.872C52.9434 185.846 52.9434 185.82 53.1173 185.714C53.6279 185.402 56.2043 185.213 59.5012 185.336C60.5996 185.377 60.4988 185.771 60.4552 187.38C60.4115 188.988 60.4196 191.9 60.3563 195.08C60.293 198.26 60.1581 201.619 60.226 205.511" stroke="#1E1E1E" stroke-width="4" stroke-linecap="round" stroke-linejoin="round"/>
<path d="M67.3746 192.002C67.3485 191.992 67.3225 191.983 67.3091 191.792C67.2957 191.601 67.2957 191.229 67.3299 191.219C67.364 191.21 67.4323 191.576 67.5027 191.952" stroke="#1E1E1E" stroke-width="4" stroke-linecap="round" stroke-linejoin="round"/>
<path d="M50.5871 213.919C50.1806 213.684 49.7741 213.449 49.3362 213.315C48.8984 213.181 48.4415 213.155 47.9707 213.129" stroke="#1E1E1E" stroke-width="4" stroke-linecap="round" stroke-linejoin="round"/>
<path d="M41 212.924C41 212.873 41.1772 212.551 41.6027 211.992C41.8218 211.705 42.1647 211.508 42.4874 211.327C43.1133 210.975 43.9872 210.743 45.2375 210.508C46.8604 210.201 48.8942 210.239 53.6349 210.696C57.311 211.051 63.5252 212.032 70.5464 212.594C77.5676 213.157 85.1969 213.369 89.7702 213.618C97.4145 214.034 98.5498 214.545 99.135 214.452C99.4134 214.408 99.626 214.241 99.8065 214.045C99.9871 213.849 100.122 213.595 100.052 213.434C99.9814 213.273 99.7018 213.212 99.3935 213.186C98.0055 213.066 95.5716 213.54 93.9385 213.49C92.838 213.457 90.8076 212.719 83.9741 211.488C80.5171 210.866 77.6071 209.851 75.3959 209.108C73.3439 208.419 71.562 208.433 70.9222 208.344C66.5588 207.739 78.2453 208.152 80.9802 208.578C83.0262 208.897 86.3867 209.556 89.9987 209.947C93.6107 210.339 97.3668 210.476 100.727 210.454C104.087 210.431 106.938 210.245 110.173 210.144C113.409 210.044 116.944 210.035 119.011 210.001C121.077 209.967 121.569 209.909 121.944 209.819C122.32 209.73 122.565 209.611 122.527 209.503C122.488 209.396 122.158 209.303 121.206 209.25C120.254 209.197 118.69 209.188 115.038 209.712C111.385 210.235 105.693 211.292 102.612 211.875C99.5316 212.458 99.2356 212.535 98.8881 212.65C98.5405 212.765 98.1502 212.916 98.0045 213.11C97.8587 213.303 97.9693 213.533 98.2718 213.72C100.073 214.828 103.753 214.565 108.067 214.405C113.163 214.216 116.234 213.334 117.361 213.019C119.488 212.423 121.156 211.888 121.787 211.697C123.102 211.299 124.451 209.917 125.343 208.849C125.712 208.407 125.942 207.822 126.292 207.254C126.464 206.975 126.724 206.78 127.032 206.603C129.031 205.455 133.864 204.376 136.153 203.683C137.21 203.363 139.325 203.315 142 203.073C146.357 202.678 149.318 201.502 151.597 201.371C152.078 201.343 152.349 201.3 152.426 201.159C152.502 201.019 152.375 200.782 152.153 200.646C150.738 199.786 147.624 200.827 146.162 200.986C145.981 201.005 146.079 200.592 146.237 200.393C146.949 199.497 148.733 199.48 151.98 199.085C154.425 198.787 158.517 198.544 161.318 198.387C165.512 198.152 167.24 198.291 167.816 198.45C168.11 198.531 168.384 198.684 168.342 198.668C166.886 198.135 164.818 197.166 163.257 196.66C162.925 196.552 162.645 196.55 162.734 196.604C164.189 197.495 167.99 197.289 172.996 197.275C175.684 197.267 178.669 196.988 181.873 196.895C188.409 196.706 192.166 196.836 192.791 196.761C194.119 196.602 195.646 195.849 196.996 195.544C198.582 195.186 199.825 195.018 204.565 194.893C206.469 194.842 207.609 194.234 211.057 193.586C214.531 192.934 218.836 193.512 219.974 193.635C220.299 193.671 220.665 193.645 220.682 193.607C220.826 193.296 219.63 193.412 219.265 193.391C219.28 193.37 219.703 193.328 220.064 193.344C220.426 193.36 220.714 193.434 221.114 193.645" stroke="#1E1E1E" stroke-width="4" stroke-linecap="round" stroke-linejoin="round"/>
</svg>
