<svg width="160" height="113" viewBox="0 0 160 113" fill="none" xmlns="http://www.w3.org/2000/svg">
<path d="M102 83.5L100.5 66.5L102.5 65L107.5 62.5C108.667 62.8333 111.3 63.5 112.5 63.5C113.7 63.5 114.667 64.8333 115 65.5L116.5 74.5C118 73.1667 121.1 70.5 121.5 70.5H129.5C130.7 70.5 133.333 71.8333 134.5 72.5L133.5 85C131.833 85.5 127.8 86.6 125 87C122.2 87.4 117.167 84.1667 115 82.5C113.833 83.6667 110.7 86.1 107.5 86.5C104.3 86.9 102.5 84.6667 102 83.5Z" fill="white"/>
<path d="M25.5 86.5L24 66L27 64C28.1667 63.6667 31.1 63 33.5 63C35.9 63 38.5 64 39.5 64.5L41 84C40.1667 85.1667 37.6 87.6 34 88C30.4 88.4 26.8333 87.1667 25.5 86.5Z" fill="white"/>
<path d="M39.8026 48.9144C39.5915 49.0623 39.4372 49.2826 39.3793 49.5363C39.3213 49.7898 39.3635 50.0544 39.4979 50.2737C39.6322 50.4931 39.8487 50.6509 40.1009 50.7145C40.3532 50.7781 40.6196 50.7408 40.8473 50.6199C40.8473 50.6199 40.8473 50.6199 40.8473 50.6199C42.0821 49.9569 43.1829 49.1761 44.2608 48.3693C45.2639 47.6133 46.226 46.8363 47.1819 46.0884C48.5606 45.0075 49.9312 43.9889 51.3593 43.1298C53.2534 41.9929 55.2624 40.9039 57.2555 39.6923C59.4185 38.3976 61.5925 36.8778 63.5505 35.7988C65.1014 34.9643 66.7423 34.1887 68.4198 33.0483C68.6072 32.9192 68.7942 32.7851 68.9801 32.6449C71.809 30.5356 74.7858 28.2924 77.5914 26.7514C77.3638 26.8548 77.3489 26.8 77.5132 26.8166C77.6729 26.8252 77.9479 26.8713 78.3093 26.9274C78.1726 26.893 78.3501 26.9349 78.5767 27.0955C78.8102 27.2505 79.1076 27.4836 79.4588 27.7435C80.8071 29.0396 82.7245 31.9689 84.569 34.2164C86.6425 36.6555 88.6677 38.5682 90.4318 40.7742C91.7422 42.4696 93.7323 43.9546 94.7178 44.944C95.831 46.1692 96.4299 47.9266 97.4155 50.1514C97.1852 49.7669 97.2753 48.9938 97.4824 48.7359C97.6769 48.4415 97.8054 48.3651 98.0075 48.2619C98.2882 48.1445 98.3175 48.1808 98.2171 48.1848C98.1168 48.1974 97.8967 48.211 97.5993 48.2807C95.8428 48.7282 94.7106 49.7522 93.9029 50.2068C94.2362 50.0088 94.6796 49.9781 94.912 50.0261C95.1571 50.0704 95.2684 50.1365 95.3397 50.1751C95.4732 50.2568 95.4673 50.2712 95.4682 50.2695C94.622 49.3866 93.7811 48.0762 92.7374 46.8296C89.6283 43.7771 87.1261 42.0328 84.6344 39.3161C83.8312 38.4679 82.9533 37.5704 82.5288 36.8695C81.9927 36.0156 81.8347 35.3777 81.0129 33.9803C80.6687 33.4807 80.2488 33.0639 79.8626 32.736C79.6706 32.5722 79.4861 32.4275 79.3424 32.3103C79.2012 32.1996 79.0946 32.086 79.1421 32.1443C78.7912 31.6997 78.3189 31.225 77.3654 31.1281C76.2867 31.1017 75.7569 31.4627 75.2748 31.6986C74.8039 31.9577 74.418 32.2169 74.0428 32.467C73.2995 32.9677 72.6157 33.4366 71.9135 33.8519C69.403 35.3288 66.87 36.8424 64.3838 38.4015C61.2579 40.4128 58.3263 41.8567 54.7783 43.9143C53.3484 44.9853 51.7291 45.6726 49.8771 46.5392C48.6526 47.1457 47.4535 47.7855 46.2691 48.4285C46.014 48.567 45.7584 48.7061 45.505 48.8436C44.6765 49.262 43.7031 50.0616 43.3072 50.3089C43.5323 50.2295 43.491 50.3092 43.3579 50.2471L43.5059 50.3228C42.9693 50.0065 42.4125 49.6232 41.7572 49.2683C41.7531 49.266 41.7407 49.2594 41.7366 49.2572C41.313 49.0333 40.8192 48.8693 40.4112 48.755C40.1581 48.6834 39.8861 48.7121 39.6541 48.8377C39.4221 48.9632 39.2492 49.1749 39.1735 49.4267C39.0977 49.6785 39.1249 49.9504 39.2491 50.1832C39.3733 50.416 39.5843 50.5901 39.8348 50.6701C39.8348 50.6701 39.8348 50.6701 39.8348 50.6701C40.2088 50.7906 40.4906 50.8953 40.7851 51.0626L40.7645 51.0514C41.2723 51.3468 41.8042 51.7351 42.4017 52.1166C42.4306 52.1338 42.5184 52.1799 42.5497 52.1923C42.9296 52.3417 43.4954 52.5572 44.2416 52.2274C45.3728 51.5652 45.7552 51.1804 46.5325 50.8107C46.7919 50.6803 47.0516 50.5494 47.3095 50.4197C48.506 49.8178 49.6973 49.2289 50.8977 48.6789C52.5552 47.9606 54.5487 47.1895 56.2535 45.983C59.0984 44.4682 62.7572 42.7172 65.8592 40.8261C68.362 39.3443 70.8815 37.9205 73.4376 36.495C74.2542 36.0371 75.0267 35.531 75.7466 35.0695C76.1047 34.8411 76.4544 34.6228 76.7547 34.4677C77.0398 34.303 77.3413 34.2679 77.1468 34.2888C76.6885 34.2318 76.6403 34.0861 76.5772 34.031C77.1821 34.7742 77.4871 34.895 77.7565 35.1604C78.0177 35.3926 78.1996 35.5942 78.3375 35.8043C78.5809 36.22 79.1134 37.5896 79.6771 38.5339C80.5018 39.8962 81.3556 40.7014 82.1765 41.6237C84.5633 44.3434 87.9329 47.0174 89.9852 49.0875C90.8669 50.1584 91.6189 51.4278 92.8259 52.7555C92.9999 52.9369 93.1845 53.1216 93.5369 53.3297C93.7175 53.4307 93.9467 53.5478 94.3164 53.6131C94.6728 53.6827 95.2489 53.6367 95.6922 53.3753C96.9843 52.6005 97.791 51.9999 98.444 51.8718C98.4001 51.8817 98.44 51.8732 98.5981 51.8593C98.7552 51.8356 99.0482 51.8432 99.5663 51.6167C99.9911 51.4083 100.32 51.17 100.645 50.6651C100.985 50.1993 101.102 49.1497 100.757 48.5428C100.016 46.8812 99.3032 44.4373 97.5465 42.429C95.7678 40.642 94.5293 39.8037 93.4331 38.3711C91.5484 35.9739 89.324 33.8053 87.617 31.7577C85.7398 29.5145 84.6798 27.3173 81.8197 24.5576C81.1993 24.1682 80.7072 23.4053 78.9107 22.9981C78.3407 22.9759 77.4881 22.4899 75.7962 23.1973C72.287 25.1203 69.5226 27.2675 66.5725 29.4507C66.4364 29.5533 66.2958 29.6542 66.151 29.7539C64.8589 30.6404 63.2593 31.4392 61.6635 32.3336C59.2489 33.74 57.3539 35.2016 55.2631 36.5898C53.4193 37.8379 51.4847 39.0437 49.5632 40.3985C48.0255 41.4872 46.6427 42.7152 45.3385 43.9509C44.4338 44.8072 43.5632 45.668 42.6848 46.4918C41.7527 47.3617 40.7984 48.2123 39.8026 48.9144Z" fill="#1E1E1E"/>
<path d="M49.6773 48.9861C49.7509 49.2372 49.9175 49.4528 50.1453 49.5841C50.3731 49.7155 50.6427 49.7519 50.8956 49.6853C51.1485 49.6187 51.3652 49.4542 51.4987 49.2277C51.6323 49.0012 51.6711 48.7316 51.6114 48.4767C51.6114 48.4767 51.6114 48.4767 51.6114 48.4767C51.6044 48.4476 51.5981 48.4156 51.6046 48.4415C51.6065 48.4507 51.6096 48.4616 51.6149 48.5061C51.6171 48.5312 51.6216 48.5571 51.6195 48.6383C51.6165 48.6825 51.6181 48.7308 51.5862 48.8563C51.5723 48.9074 51.5398 49.0126 51.4665 49.128C51.3842 49.2612 51.2117 49.4481 50.9481 49.5379C50.6772 49.6269 50.4892 49.5896 50.3637 49.5586C50.2572 49.5306 50.17 49.4856 50.1326 49.4643C50.0392 49.4102 50.0046 49.3782 49.9725 49.3515C49.918 49.3034 49.9001 49.2816 49.8833 49.2632C49.8547 49.2304 49.8479 49.2202 49.8412 49.2117C50.2108 49.7735 50.2828 51.0434 50.3526 52.2389C50.3578 52.3265 50.344 52.3959 50.3435 52.3702C50.3378 52.361 50.399 52.1402 50.638 52.0077C50.2684 52.1922 49.4706 52.2487 48.648 52.2723C48.2042 52.2942 47.7537 52.2884 47.1297 52.422C46.8851 52.479 46.5512 52.6236 46.2935 52.9188C46.0335 53.2141 45.9383 53.549 45.9065 53.7823C45.8529 54.2551 45.9297 54.5058 45.9813 54.74C46.0995 55.1915 46.2402 55.5146 46.3748 55.8346C46.6367 56.4435 46.94 57.075 47.0095 57.4007C47.0763 57.6833 47.2634 57.9704 47.4476 58.1339C47.6328 58.303 47.7985 58.3842 47.927 58.4393C48.1856 58.5439 48.3428 58.5628 48.4783 58.584C48.7395 58.6183 48.9144 58.6183 49.0279 58.6274C49.9517 58.671 50.6486 58.5411 51.2883 58.5047C51.4653 58.4931 51.6389 58.5005 51.7413 58.5209C51.847 58.531 51.8474 58.6035 51.6459 58.437C52.4028 58.8046 51.5177 61.9458 51.552 64.3717C51.5113 67.1888 51.7943 69.8798 51.732 72.4C51.7081 73.2709 51.6694 74.1386 51.606 74.9915C51.6121 74.6942 51.7838 74.3139 51.9579 74.1326C52.1313 73.941 52.2579 73.8803 52.3271 73.8431C52.4655 73.779 52.447 73.7985 52.4068 73.7999C51.3834 73.9624 50.4726 73.7126 48.7085 73.5685C48.1774 73.5289 47.2766 73.7506 46.7365 74.33C46.1969 74.891 46.0472 75.4421 45.9523 75.8524C45.7901 76.6821 45.8505 77.2686 45.9055 77.8376C45.9691 78.4011 46.0685 78.9187 46.1801 79.4202C46.2362 79.671 46.2961 79.9168 46.3563 80.1549C46.3852 80.2693 46.4166 80.3908 46.4442 80.4991C46.4579 80.553 46.4707 80.6037 46.4811 80.6475C46.486 80.6682 46.4894 80.6836 46.4903 80.6887C46.4907 80.6772 46.4867 80.7294 46.4629 80.489C46.4896 80.8 46.5385 81.2508 46.9282 81.7853C47.3217 82.3327 48.007 82.6044 48.3871 82.6521C49.169 82.7488 49.4782 82.6131 49.7938 82.5486C50.3856 82.3897 50.7889 82.224 51.1911 82.0784C51.969 81.786 52.6872 81.5526 53.1458 81.5239C55.4253 81.3281 57.6588 81.4069 60.2416 81.2631C63.0271 81.0666 65.9694 81.3001 69.0016 81.4396C71.2266 81.5362 73.3596 81.5305 75.4332 81.6433C75.5214 81.6481 75.6093 81.6529 75.6968 81.6578C78.7093 81.8091 81.6622 82.1406 84.9285 82.1518C86.9034 82.1344 88.8223 81.8961 90.5414 81.7872C91.4741 81.7267 92.8782 82.0158 94.4328 82.0977C94.8914 82.1184 95.3335 82.1196 95.8737 82.0537C96.3199 82.0009 96.8536 81.8543 97.2833 81.6465C97.432 81.5812 97.8501 81.3585 98.1378 81.0361C98.4307 80.7179 98.5794 80.408 98.6744 80.172C98.8554 79.697 98.892 79.3891 98.9338 79.0959C99.0727 77.7238 99.0306 76.712 98.9408 75.4805C98.8234 74.8703 99.0182 74.2156 98.0738 72.9256C97.891 72.6995 97.5138 72.3911 97.1946 72.2496C96.8743 72.0995 96.6302 72.0454 96.4327 72.0049C96.0403 71.9312 95.7708 71.9179 95.5024 71.9017C93.9416 71.8056 92.0088 71.9068 90.9582 71.9286C91.1266 71.9351 91.4973 72.0689 91.7023 72.2933C91.9105 72.5117 91.9438 72.6652 91.9573 72.7062C91.9708 72.7891 91.9368 72.6201 91.9404 72.4401C91.9394 72.0581 91.9914 71.543 92.0443 71.0155C92.1451 69.9463 92.296 68.7863 92.132 67.4167C91.7842 64.8383 91.1068 62.4841 90.5867 60.1639C90.509 59.8244 90.4404 59.4853 90.3887 59.1622C90.363 59.001 90.3417 58.8427 90.3282 58.7038C90.3111 58.5841 90.3225 58.3818 90.3037 58.5224C90.2907 58.5808 90.2634 58.6982 90.1557 58.8553C90.0536 59.0104 89.8553 59.1626 89.7104 59.218C89.4117 59.325 89.3982 59.2624 89.4509 59.2764C89.5737 59.2834 89.8925 59.378 90.1955 59.4982C90.5083 59.6199 90.8418 59.7697 91.2038 59.9302C91.3866 60.0109 91.5744 60.0943 91.7947 60.1822C91.9032 60.225 92.022 60.2708 92.1757 60.3195C92.3524 60.3619 92.4464 60.4405 92.9794 60.4408C94.0172 60.3976 94.7194 59.5482 94.8665 58.8192C95.2116 56.5059 94.3596 55.2138 93.9515 53.8234C93.7644 53.1329 93.0084 52.4981 92.5702 52.3366C90.9086 51.6362 89.6145 51.8451 88.8559 51.4929C88.5823 51.3872 88.2725 51.2106 88.1803 51.1314C88.162 51.1039 88.2063 51.2424 88.1782 51.1504L88.1809 51.3119C88.1836 51.217 88.1852 51.1201 88.1858 51.0256C88.1622 48.9822 87.9515 47.0852 87.357 45.0798C87.3507 45.0559 87.3247 44.9872 87.3156 44.9642C87.237 44.7965 87.154 44.6056 86.9474 44.3563C86.7606 44.105 86.2747 43.8179 85.8997 43.8091C85.1763 43.7937 84.9335 43.9898 84.6263 44.1052C84.3882 44.214 84.1987 44.4097 84.1014 44.654C84.004 44.8982 84.0065 45.1702 84.1086 45.411C84.2107 45.6518 84.4045 45.8426 84.6478 45.9424C84.891 46.0422 85.1635 46.042 85.4071 45.9465C85.4071 45.9465 85.4071 45.9465 85.4071 45.9465C85.6032 45.8578 85.8805 45.8263 85.7084 45.8449C85.6076 45.8558 85.3755 45.7176 85.3595 45.6794C85.3268 45.6412 85.3641 45.6988 85.3936 45.7823L85.3522 45.6667C85.7531 47.3109 85.8796 49.2228 85.8058 50.9568C85.8014 51.0352 85.7962 51.1142 85.7902 51.1892C85.7893 51.2218 85.7893 51.3183 85.7928 51.3507C85.8019 51.8367 86.0974 52.5414 86.5101 52.9051C87.006 53.3628 87.4102 53.5626 87.8602 53.779C89.4175 54.4448 90.7819 54.3477 91.4107 54.7385C91.5804 54.8501 91.3667 54.7033 91.3736 54.665C91.7922 56.0265 92.2559 57.5479 92.0473 58.1529C92.0819 58.0106 92.1259 57.9116 92.2557 57.7766C92.3782 57.6443 92.642 57.5195 92.85 57.515C93.1869 57.5188 93.1 57.5414 93.0898 57.5249C93.058 57.5126 92.9941 57.4863 92.9288 57.4569C92.7918 57.3957 92.6285 57.3164 92.4599 57.2337C92.1205 57.0673 91.7558 56.8846 91.3536 56.7093C90.944 56.5372 90.5297 56.3535 89.8872 56.2438C89.5599 56.205 89.142 56.1279 88.4861 56.3859C87.78 56.6377 87.2864 57.5216 87.2441 57.9825C87.1676 58.4962 87.2017 58.6723 87.2088 58.9285C87.2227 59.1648 87.2448 59.3811 87.2706 59.5936C87.3226 60.0159 87.3901 60.4185 87.4665 60.817C87.9258 63.2406 88.5044 65.5807 88.7336 67.8183C88.8081 68.5791 88.6913 69.5648 88.5543 70.6164C88.4881 71.1534 88.4073 71.6978 88.3855 72.387C88.3833 72.7407 88.3665 73.1171 88.5257 73.7114C88.6146 74.0095 88.7634 74.4142 89.1602 74.8224C89.5525 75.2385 90.1835 75.4789 90.6213 75.5086C92.632 75.5533 93.7705 75.4754 95.2722 75.5958C95.4586 75.609 95.6422 75.6322 95.6959 75.6467C95.7203 75.6514 95.6985 75.6573 95.5828 75.6052C95.4696 75.5606 95.2732 75.3979 95.2364 75.346C95.1819 75.2878 95.1238 75.1807 95.1179 75.1632C95.108 75.14 95.12 75.1754 95.1308 75.2352C95.1545 75.3588 95.1779 75.5658 95.1926 75.7835C95.2497 76.6882 95.2475 77.832 95.1498 78.5907C95.134 78.717 95.0952 78.8294 95.1211 78.7483C95.1374 78.7084 95.1837 78.5877 95.3321 78.4246C95.4761 78.2592 95.7072 78.1447 95.6641 78.1668C95.5679 78.2069 95.5342 78.2152 95.4034 78.2312C95.2155 78.2521 94.9213 78.2547 94.6482 78.2364C93.4608 78.1784 92.1581 77.826 90.3382 77.8734C88.373 77.9802 86.6201 78.182 84.9007 78.1832C82.0859 78.1596 78.9806 77.8212 75.921 77.6641C75.8313 77.6591 75.7411 77.6541 75.6505 77.6492C73.4264 77.5299 71.2509 77.5414 69.1769 77.4602C66.2149 77.3435 63.1486 77.1083 59.9394 77.3668C57.7863 77.5177 55.2617 77.4818 52.8111 77.7329C51.5651 77.8674 50.6678 78.2555 49.8531 78.5647C49.4582 78.7197 49.0662 78.8737 48.8345 78.9389C48.7423 78.9794 48.6168 78.9414 48.9785 78.9772C49.1491 78.9933 49.6249 79.1689 49.8911 79.5433C50.1517 79.9058 50.1522 80.1452 50.1633 80.2373C50.1365 79.9529 50.1174 79.9348 50.1059 79.8703C50.0913 79.8078 50.084 79.7804 50.0736 79.7402C50.0535 79.6634 50.0376 79.6062 50.0212 79.5466C49.9886 79.4292 49.957 79.3166 49.9282 79.2124C49.8687 78.9969 49.8133 78.7882 49.7622 78.5814C49.6607 78.1701 49.5766 77.7671 49.5265 77.399C49.4737 77.0422 49.4729 76.6742 49.4921 76.584C49.492 76.5391 49.5111 76.6285 49.3013 76.8527C49.0865 77.09 48.6779 77.1684 48.6124 77.1475C49.5266 77.1727 51.3063 77.5453 52.9624 77.2283C53.1943 77.1848 53.4478 77.1418 53.8359 76.9584C54.0289 76.8612 54.2741 76.7242 54.5397 76.4294C54.8063 76.1457 55.0366 75.6321 55.0496 75.1964C55.0917 74.2692 55.105 73.3523 55.1022 72.4392C55.0777 69.5877 54.7027 66.9284 54.6518 64.3745C54.6276 63.2551 54.7107 62.1626 54.8108 60.9418C54.8523 60.3257 54.9167 59.6726 54.8198 58.8529C54.7462 58.0445 54.2787 57.0102 53.6215 56.4267C52.4122 55.4753 51.7021 55.758 51.0309 55.7639C50.2872 55.8481 49.6074 55.9762 49.1386 55.9683C48.9589 55.9653 48.8387 55.9647 48.8082 55.963C48.798 55.9655 48.809 55.9578 48.9314 56.0068C48.9924 56.034 49.0923 56.0788 49.2233 56.1982C49.3532 56.3125 49.4994 56.535 49.5482 56.7461C49.2673 55.839 48.9402 55.3444 48.6813 54.7863C48.553 54.5231 48.4361 54.2594 48.3841 54.093C48.355 54.0202 48.3662 53.9487 48.3511 54.1029C48.3399 54.1779 48.2979 54.3567 48.1444 54.5303C47.9922 54.7039 47.8039 54.7749 47.7185 54.7925C47.9425 54.7246 48.371 54.6829 48.7947 54.6467C49.6306 54.5534 50.5693 54.5773 51.7071 53.9912C52.2325 53.7081 52.4563 53.1785 52.5174 52.862C52.586 52.5258 52.5705 52.2733 52.5482 52.0441C52.3643 50.8501 52.4595 49.5406 51.4693 48.0318C51.4526 48.0095 51.4363 47.9869 51.397 47.9417C51.3745 47.9168 51.3511 47.8891 51.2905 47.8357C51.2553 47.8062 51.2175 47.7719 51.1206 47.7157C51.0818 47.6935 50.9921 47.6475 50.8839 47.619C50.7564 47.5875 50.5665 47.5501 50.2934 47.6397C50.0279 47.7302 49.8539 47.9185 49.7704 48.0534C49.6962 48.1704 49.6628 48.278 49.6485 48.3308C49.6155 48.4603 49.6167 48.5126 49.6136 48.5609C49.6111 48.6505 49.6163 48.6843 49.6194 48.7177C49.6264 48.7785 49.6324 48.8054 49.6374 48.8307C49.6569 48.9208 49.6678 48.9519 49.6773 48.9861Z" fill="#1E1E1E"/>
<path d="M54.3528 52.704C54.3054 52.742 54.009 52.8104 53.4862 52.7867C52.9641 52.7631 52.5377 52.2961 52.3014 52.2144C51.0046 51.7659 57.0695 51.5434 61.0668 50.9997C63.1401 50.7177 65.3344 50.8004 68.1023 51.0715C70.8703 51.3425 74.153 51.8957 76.4861 52.2499C81.7706 53.052 83.0386 53.3268 85.6437 53.8077C86.6531 53.8981 87.994 53.9252 88.8208 53.9934C89.6475 54.0616 89.9195 54.1701 90.123 54.8242" stroke="#1E1E1E" stroke-linecap="round" stroke-linejoin="round"/>
<path d="M53.5411 58.283C53.3501 58.283 53.1591 58.283 53.1267 58.2209C53.0944 58.1588 53.2265 58.0347 55.5133 57.9403C57.8001 57.846 62.2376 57.7852 66.6349 57.8533C71.0322 57.9214 75.2548 58.1203 78.1256 58.2823C84.5163 58.7 86.293 58.7093 87.5408 58.6805C88.4241 58.6707 89.8152 58.6707 91.123 58.8242" stroke="#1E1E1E" stroke-width="2" stroke-linecap="round" stroke-linejoin="round"/>
<path d="M75.21 40.0127C75.21 39.9637 75.21 39.9146 75.0702 39.8737C74.9304 39.8328 74.6508 39.8015 74.2773 39.8457C73.4353 39.9452 72.7386 40.2326 72.288 40.4538C72.0643 40.5637 71.8763 40.7219 71.6902 40.9182C71.5041 41.1145 71.3322 41.3577 71.2324 41.6815C71.1326 42.0053 71.1102 42.4024 71.1293 42.7654C71.1483 43.1284 71.2097 43.4452 71.3115 43.7623C71.4134 44.0795 71.5539 44.3873 71.716 44.6552C71.8781 44.9232 72.0575 45.1418 72.2972 45.328C72.5369 45.5143 72.8315 45.6615 73.209 45.7407C74.0257 45.9121 74.8605 45.7867 75.5575 45.6588C76.2241 45.5365 76.7781 45.175 77.2379 44.8221C77.4575 44.6536 77.611 44.4559 77.7495 44.2099C77.8881 43.9639 77.9972 43.6627 78.0609 43.2889C78.1246 42.9152 78.1396 42.4779 78.1047 42.1154C78.0698 41.753 77.9845 41.4786 77.8434 41.2312C77.7024 40.9839 77.508 40.7719 77.2987 40.6059C76.897 40.2871 76.413 40.1352 75.9004 40.0203C75.621 39.979 75.3025 39.9723 75.0338 40.0414C74.7651 40.1104 74.5558 40.2554 74.2903 40.4589" stroke="#1E1E1E" stroke-width="2" stroke-linecap="round" stroke-linejoin="round"/>
<path d="M58.1662 59.4634C58.1662 59.3869 58.1662 59.3103 58.2928 59.2011C58.4195 59.0919 58.6728 58.9522 58.8614 59.0161C59.05 59.08 59.1662 59.3516 59.2582 59.8359C59.4798 61.0025 59.5343 63.7211 59.6921 67.2875C59.8788 71.5059 60.0974 72.7678 59.9533 73.2762C59.885 73.517 59.5559 73.6526 59.2769 73.763C58.998 73.8734 58.71 73.9365 58.4038 73.969C57.0987 74.1076 55.6323 73.7414 54.3035 73.656C53.9691 73.6215 53.6256 73.5603 53.3315 73.4417C53.0374 73.3231 52.8032 73.1491 53.2454 72.9697" stroke="#1E1E1E" stroke-width="2" stroke-linecap="round" stroke-linejoin="round"/>
<path d="M60.2496 74.8242C60.1583 74.8181 60.067 74.812 60.1657 74.7427C60.2645 74.6733 60.556 74.5409 61.1147 74.4612C62.4682 74.2683 65.2817 74.1754 70.9019 73.9278C74.5669 73.7664 79.9054 73.8295 83.3238 73.8788C90.1422 74.2283 91.8526 74.4027 92.8742 74.4281C93.5546 74.4367 94.5638 74.4367 95.123 74.4367" stroke="#1E1E1E" stroke-linecap="round" stroke-linejoin="round"/>
<path d="M65.9635 57.8242C65.9452 57.8242 65.9269 57.8242 65.8339 57.9571C65.7409 58.0899 65.5738 58.3556 65.4643 58.7652C64.7507 61.4335 65.2923 65.0979 65.8508 68.9747C65.9792 69.9213 66.0329 70.5186 66.0635 71.0484C66.0941 71.5783 66.0998 72.0227 66.123 71.7324" stroke="#1E1E1E" stroke-width="2" stroke-linecap="round" stroke-linejoin="round"/>
<path d="M69.1308 59.1206C69.0975 59.0239 69.0643 58.9272 69.0349 59.0792C68.9286 59.6306 69.0603 61.2816 69.4954 64.257C70.3806 68.2236 71.0205 71.1462 71.1247 72.4045C71.1601 73.0294 71.1601 73.6265 72 74" stroke="#1E1E1E" stroke-width="2" stroke-linecap="round" stroke-linejoin="round"/>
<path d="M77.3948 58.8685C77.3336 58.8235 77.2724 58.7786 77.2215 58.9191C77.0615 59.3605 77.1142 62.7925 77.2533 68.15C77.3701 70.4391 77.5806 71.8559 77.7278 72.7269C77.875 73.5979 77.9526 73.8803 78.123 73.8153" stroke="#1E1E1E" stroke-width="2" stroke-linecap="round" stroke-linejoin="round"/>
<path d="M81.123 58.8242C81.123 58.8242 81.123 58.8242 81.123 58.9472C81.123 59.0701 81.123 59.316 81.123 60.1263C81.123 60.9366 81.123 62.3039 81.123 64.6178C81.123 66.9316 81.123 70.1505 81.123 73.8242" stroke="#1E1E1E" stroke-width="2" stroke-linecap="round" stroke-linejoin="round"/>
<path d="M85.2925 60.0476C85.2925 60.0042 85.2925 59.9609 85.2287 60.0613C85.0166 60.3951 84.9435 62.6034 85.0456 66.05C85.1998 68.558 85.3911 70.1707 85.5891 71.248C85.6885 71.7478 85.7856 72.1521 86 73" stroke="#1E1E1E" stroke-width="2" stroke-linecap="round" stroke-linejoin="round"/>
<path d="M33.1666 63.9335C33.4299 63.971 33.6908 63.8856 33.891 63.7099C34.0913 63.534 34.2146 63.2797 34.2337 63.0054C34.2528 62.7311 34.1659 62.4622 33.992 62.2602C33.818 62.0584 33.5714 61.9377 33.3055 61.9384C33.3055 61.9384 33.3055 61.9384 33.3055 61.9384C32.7841 61.9393 32.2605 61.9405 31.7299 61.9507C31.2165 61.9617 30.697 61.9766 30.1482 62.0374C29.6585 62.0909 29.2506 62.2381 28.878 62.3935C28.0871 62.7264 27.4751 63.2441 26.9429 63.7592C26.825 63.8731 26.7023 64.0088 26.6024 64.2143C26.503 64.4117 26.4401 64.7349 26.5499 65.0251C26.6991 65.3987 26.9326 65.5238 27.0981 65.6238C27.272 65.7186 27.4288 65.7724 27.5804 65.817C29.7743 66.3697 31.8731 66.3212 33.9882 66.3203C35.5836 66.2963 37.1729 66.2285 38.7732 66.0673C39.2265 66.0251 39.6615 65.807 39.9644 65.6217C40.0983 65.5414 40.2315 65.4499 40.3669 65.3149C40.4925 65.1779 40.6739 64.9966 40.6966 64.6125C40.6934 64.1419 40.3941 63.9158 40.239 63.798C40.0626 63.6735 39.9063 63.6034 39.7536 63.5402C37.9036 62.7493 35.8404 62.4428 33.8921 62.3078C33.8756 62.3066 33.8264 62.3091 33.8098 62.3095C33.0259 62.3324 32.2453 62.3626 31.4298 62.448C31.2873 62.4634 31.1422 62.4812 30.9945 62.503C30.9856 62.5043 30.9596 62.5111 30.9508 62.5128C30.465 62.6011 29.9692 62.8393 29.6116 63.0382C29.378 63.1648 29.2166 63.387 29.1569 63.6464C29.0973 63.906 29.1453 64.1831 29.2895 64.4153C29.4336 64.6474 29.6606 64.8134 29.9197 64.8751C30.1787 64.9367 30.4494 64.8906 30.6665 64.7374C30.6665 64.7374 30.6665 64.7374 30.6665 64.7374C30.9547 64.5342 31.1425 64.4103 31.4026 64.3272L31.3589 64.337C31.4737 64.3067 31.5946 64.2782 31.7167 64.2515C32.4223 64.0994 33.174 63.9931 33.925 63.9029L33.8427 63.9046C35.746 63.8666 37.5787 64.0081 39.3301 64.6486C39.4317 64.6833 39.5253 64.7257 39.5737 64.756C39.6368 64.7895 39.5576 64.7828 39.5494 64.5948C39.5658 64.4592 39.5937 64.4922 39.5531 64.5291C39.5184 64.5693 39.4533 64.6232 39.3797 64.6711C39.095 64.858 38.8881 64.962 38.6423 64.9975C37.1129 65.2029 35.5356 65.2974 33.9754 65.3203C31.9257 65.33 29.7784 65.2711 27.9454 64.672C27.851 64.6378 27.765 64.5971 27.7151 64.5626C27.6607 64.5331 27.6748 64.4882 27.7356 64.6144C27.7705 64.6951 27.7468 64.7833 27.7469 64.7858C27.7461 64.7941 27.772 64.7617 27.8169 64.7282C28.3271 64.3036 28.8609 63.9542 29.3959 63.7959C29.7072 63.6999 30.0082 63.6396 30.2486 63.6458C30.6939 63.6467 31.1727 63.688 31.6542 63.7396C32.1532 63.7938 32.6596 63.8613 33.1666 63.9335Z" fill="#1E1E1E"/>
<path d="M27.123 71.6343C27.5149 71.7741 29.6794 72.7953 31.8988 73.5223C33.5113 74.0505 34.9399 73.7489 35.804 73.6341C37.7186 72.9133 39.5201 71.8264 40.3132 71.1386C40.6686 70.8236 40.9286 70.5778 41.123 71.2619" stroke="#1E1E1E" stroke-linecap="round" stroke-linejoin="round"/>
<path d="M28.1238 77.8242C28.1072 77.8242 28.3493 78.0486 29.0005 78.4827C32.5931 79.277 38.2356 79.709 40.5285 79.7549C41.422 79.778 41.7673 79.8008 42.123 79.8242" stroke="#1E1E1E" stroke-width="2" stroke-linecap="round" stroke-linejoin="round"/>
<path d="M107.021 63.1359C106.805 63.2907 106.671 63.5305 106.642 63.7949C106.613 64.0595 106.692 64.3284 106.862 64.5411C107.031 64.7538 107.276 64.8914 107.54 64.9223C107.804 64.953 108.068 64.8758 108.267 64.7002C108.267 64.7002 108.267 64.7002 108.267 64.7002C108.313 64.6644 108.477 64.5121 108.55 64.4039C108.633 64.2914 108.68 64.201 108.721 64.1205C108.796 63.9648 108.862 63.8061 108.912 63.5855C108.948 63.3717 109.027 63.0444 108.785 62.5835C108.513 62.1381 108.187 62.0424 107.975 61.9724C107.751 61.9101 107.568 61.8992 107.392 61.9016C107.311 61.9033 107.232 61.9091 107.154 61.9186C105.229 62.2584 103.982 63.2434 102.647 64.0244C102.209 64.29 101.902 64.6566 101.687 65.0663C101.472 65.4981 101.347 65.9888 101.539 66.5717C101.786 67.2184 102.31 67.4421 102.654 67.5965C106.366 68.7579 109.89 68.3782 113.459 68.0789C113.459 68.0789 113.459 68.0788 113.459 68.0788C114.039 68.0245 114.563 67.6883 114.916 67.4002C115.23 67.1598 115.56 66.7649 115.627 66.2622C115.69 65.7581 115.55 65.3586 115.393 64.9992C115.074 64.2968 114.524 63.794 114.042 63.3729C113.674 63.0596 113.28 62.8484 112.885 62.6716C112.876 62.6676 112.848 62.6587 112.839 62.6554C111.288 62.1899 109.888 62.1221 108.428 61.9957C108.337 61.989 108.246 61.9826 108.154 61.9764C108.145 61.9757 108.115 61.978 108.105 61.9779C107.852 61.9781 107.593 61.9781 107.258 62.0422C106.938 62.0841 106.415 62.357 106.179 62.6249C105.985 62.8067 105.89 63.0643 105.905 63.3306C105.919 63.5969 106.044 63.8518 106.248 64.0374C106.453 64.223 106.719 64.3218 106.985 64.3103C107.252 64.2986 107.499 64.1794 107.661 63.9683C107.661 63.9683 107.661 63.9683 107.661 63.9683C107.719 63.8936 107.605 63.9378 107.723 63.8773C107.823 63.8331 108.013 63.7943 108.209 63.7672L108.16 63.7687C108.248 63.7619 108.334 63.7555 108.422 63.7495C109.79 63.6645 111.264 63.614 112.461 63.8694L112.415 63.8531C112.744 63.9663 113.055 64.111 113.297 64.2895C113.785 64.6555 114.2 65.0191 114.424 65.4628C114.548 65.7008 114.619 65.9642 114.6 66.1261C114.587 66.2826 114.485 66.4474 114.287 66.6073C113.95 66.8876 113.674 67.0496 113.347 67.0852C113.347 67.0852 113.347 67.0852 113.346 67.0852C109.942 67.4028 106.174 67.5665 103.176 66.4291C102.911 66.3081 102.781 66.1575 102.802 66.139C102.786 66.0891 102.813 65.8801 102.91 65.7376C103.029 65.5415 103.204 65.3755 103.37 65.2967C104.722 64.5922 106.148 63.8049 107.323 63.7426C107.342 63.743 107.361 63.7445 107.378 63.7469C107.413 63.7513 107.443 63.7641 107.422 63.7637C107.409 63.7559 107.286 63.7642 107.119 63.5062C106.982 63.2373 107.042 63.1408 107.03 63.1332C107.028 63.1214 107.009 63.1622 106.985 63.196C106.972 63.2146 106.963 63.2207 106.976 63.1972C106.982 63.1788 107.064 63.1031 107.021 63.1359Z" fill="#1E1E1E"/>
<path d="M102.18 70.8874C101.977 70.7722 102.305 70.8034 103.383 71.0742C104.877 71.5219 107.266 71.8714 110.492 71.819C112.203 71.6926 114.064 71.3635 116.123 71.386" stroke="#1E1E1E" stroke-linecap="round" stroke-linejoin="round"/>
<path d="M102.123 77.8242C102.123 77.8648 102.377 78.2451 102.973 78.9157C103.289 79.271 103.741 79.479 104.292 79.6669C107.003 80.0988 111.039 79.5948 113.947 78.7239C114.411 78.6086 114.715 78.6289 115.123 78.7464" stroke="#1E1E1E" stroke-width="2" stroke-linecap="round" stroke-linejoin="round"/>
<path d="M128.968 72.2888C129.222 72.3672 129.494 72.3304 129.723 72.195C129.952 72.0595 130.119 71.8349 130.188 71.5722C130.256 71.3095 130.219 71.032 130.085 70.8023C129.951 70.5726 129.731 70.4079 129.471 70.353C129.471 70.353 129.471 70.353 129.471 70.353C128.633 70.2167 128.111 70.2144 127.449 70.1692C125.625 70.0703 123.813 70.0344 121.993 70.0666C121.216 70.0488 120.399 70.4283 119.907 70.6964C119.19 71.0578 118.654 71.5146 118.128 71.9835C117.855 72.2139 117.494 72.69 117.521 73.2251C117.554 73.8539 117.864 74.2802 118.243 74.6059C120.996 76.6256 124.22 76.2171 127.104 76.3232C127.116 76.3233 127.127 76.3234 127.138 76.3236C128.076 76.3452 129.027 76.1846 129.853 76.138C131.428 76.0527 132.788 75.2935 133.946 74.4272C134.339 74.1211 134.518 73.7212 134.64 73.3845C134.77 73.0213 134.818 72.5713 134.691 72.1407C134.55 71.6628 134.257 71.3134 133.959 71.045C133.941 71.0281 133.879 70.9878 133.858 70.9745C132.653 70.2304 131.379 69.6412 130.017 69.197C129.707 69.097 129.39 69.006 129.066 68.9272C129.048 68.9226 128.991 68.9173 128.972 68.9146C128.612 68.8654 128.257 68.8445 127.939 68.8242C127.673 68.8071 127.419 68.9106 127.231 69.0996C127.044 69.2888 126.939 69.5503 126.939 69.8242C126.939 70.0982 127.044 70.3596 127.231 70.5488C127.419 70.7379 127.673 70.8414 127.939 70.8242C128.259 70.8033 128.542 70.7854 128.819 70.789L128.724 70.7764C129.002 70.809 129.283 70.8549 129.565 70.9113C130.8 71.1626 132.038 71.5939 133.171 72.1758L133.07 72.1052C133.256 72.2436 133.388 72.4028 133.44 72.5347C133.49 72.6579 133.499 72.8136 133.449 72.9987C133.384 73.2363 133.29 73.4129 133.202 73.4898C132.203 74.338 131.021 75.0207 129.797 75.1087C128.835 75.1883 128.01 75.3432 127.149 75.3236C127.138 75.3235 127.126 75.3234 127.115 75.3232C124.242 75.2629 121.035 75.407 118.994 73.721C118.823 73.5755 118.712 73.3244 118.725 73.2153C118.732 73.135 118.762 73.0736 118.942 72.9216C119.434 72.5164 119.965 72.1294 120.466 71.915C121.095 71.6248 121.477 71.4861 121.977 71.5151C123.747 71.5915 125.52 71.755 127.272 71.9973C127.851 72.0797 128.587 72.1876 128.968 72.2888Z" fill="#1E1E1E"/>
<path d="M118.732 80.9039C118.715 80.8913 118.433 80.8391 118.131 80.8243C118.075 80.8215 118.32 80.9638 119.036 81.1002C120.93 81.4611 124.011 81.6653 127.275 81.8204C131.204 81.8448 132.288 81.7463 132.876 81.6677C133.167 81.63 133.441 81.5969 134.123 81.3862" stroke="#1E1E1E" stroke-width="2" stroke-linecap="round" stroke-linejoin="round"/>
</svg>
