<svg width="160" height="113" viewBox="0 0 160 113" fill="none" xmlns="http://www.w3.org/2000/svg">
<path d="M44 48C43.9702 47.4999 43.7333 47.0202 43.3587 46.6665C42.9832 46.3129 42.5006 46.1142 42 46.1142C41.4994 46.1142 41.0168 46.3129 40.6413 46.6665C40.2667 47.0202 40.0298 47.4999 40 48C39.9833 48.2826 39.9667 48.5662 39.95 48.8496C39.937 49.0712 39.924 49.2905 39.911 49.5134C39.8005 51.3902 39.6901 53.2687 39.5796 55.1469C39.4031 58.1472 39.2265 61.1489 39.05 64.1499C39.0333 64.4334 39.0167 64.7165 39 65C38.9525 65.7956 39.227 66.5587 39.7904 67.1213C40.3523 67.6839 41.1569 68 42 68C42.8431 68 43.6477 67.6839 44.2096 67.1213C44.773 66.5587 45.0475 65.7956 45 65C44.9833 64.7165 44.9667 64.4334 44.95 64.1499C44.7735 61.1489 44.5969 58.1472 44.4204 55.1469C44.3099 53.2687 44.1995 51.3902 44.089 49.5134C44.076 49.2905 44.063 49.0712 44.05 48.8496C44.0333 48.5662 44.0167 48.2826 44 48Z" fill="#1E1E1E"/>
<path d="M50.7748 44C51.3053 44 51.814 43.7893 52.189 43.4142C52.5641 43.0391 52.7748 42.5304 52.7748 42C52.7748 41.4696 52.5641 40.9609 52.189 40.5858C51.814 40.2107 51.3053 40 50.7748 40C50.7898 39.9958 50.2917 40.0014 49.927 40.1841C49.5588 40.3575 49.3817 40.5462 49.2704 40.6636C49.061 40.9022 49.023 40.999 48.9744 41.0801C48.8931 41.2325 48.8722 41.2928 48.8471 41.353C48.6849 41.8109 48.7148 41.8485 48.6863 41.9835C48.6711 42.0885 48.6615 42.1783 48.6538 42.2557C48.6384 42.4135 48.6283 42.5564 48.6197 42.6879C48.6024 42.9607 48.591 43.209 48.5803 43.4625C48.5001 45.5646 48.4659 47.6057 48.422 49.6658C48.42 49.7654 48.418 49.8662 48.416 49.9682C48.308 55.1656 48.1548 60.3827 48.0307 65.6047C48.0016 67.7637 47.8931 69.9989 48.3021 72.3756C48.3065 72.4026 48.3108 72.4294 48.3152 72.4562C48.3163 72.4628 48.3197 72.4826 48.3209 72.4892C48.3518 72.6581 48.3828 72.8295 48.4372 73.0569C48.4665 73.1741 48.4964 73.2991 48.5701 73.5016C48.6096 73.6049 48.6555 73.7284 48.7692 73.9251C48.9007 74.1082 49.0365 74.4738 49.7918 74.8338C50.2908 75.058 50.8963 75.018 51.2151 74.9114C51.551 74.8073 51.7243 74.6885 51.855 74.6005C52.1058 74.42 52.1994 74.3095 52.2871 74.2183C52.4481 74.0409 52.5203 73.9393 52.5825 73.8605C52.9069 73.4407 53.0512 72.9094 52.9838 72.3833C52.9163 71.8571 52.6427 71.3793 52.2229 71.055C51.8032 70.7306 51.2718 70.5863 50.7457 70.6538C50.2196 70.7212 49.7418 70.9949 49.4175 71.4146C49.4175 71.4146 49.4175 71.4146 49.4175 71.4146C49.3607 71.4892 49.3151 71.5425 49.3448 71.5085C49.3665 71.4885 49.3909 71.447 49.5623 71.3227C49.6533 71.2623 49.7837 71.1681 50.0731 71.0779C50.3456 70.9856 50.8997 70.9467 51.3537 71.1513C52.0378 71.4802 52.1252 71.7806 52.2176 71.898C52.2928 72.0289 52.3082 72.0806 52.3211 72.1123C52.3417 72.1704 52.3318 72.1469 52.3246 72.1144C52.3071 72.0429 52.2813 71.9125 52.2572 71.7782L52.2629 71.8112C52.2586 71.7852 52.2544 71.7595 52.2503 71.734C51.9184 69.8837 51.9958 67.8195 52.0297 65.6973C52.1532 60.4945 52.3066 55.2757 52.4152 50.0483C52.4172 49.9465 52.4192 49.8459 52.4212 49.7465C52.4646 47.6994 52.5003 45.6297 52.5768 43.6294C52.5867 43.3936 52.5975 43.1645 52.6115 42.9442C52.6182 42.8396 52.6264 42.7304 52.6345 42.648C52.6383 42.6086 52.643 42.5703 52.6446 42.5598C52.635 42.572 52.6833 42.4875 52.5626 42.8346C52.5529 42.8563 52.548 42.8788 52.4864 42.9949C52.4476 43.0581 52.4204 43.1369 52.2248 43.3602C52.1205 43.47 51.9512 43.6518 51.5925 43.8209C51.2371 43.9991 50.7496 44.004 50.7748 44Z" fill="#1E1E1E"/>
<path d="M59.0003 51.0002C58.9583 50.7568 58.8465 50.5233 58.6634 50.3511C58.4805 50.1789 58.2444 50.0821 58.0005 50.0821C57.7567 50.082 57.5206 50.1787 57.3376 50.3508C57.1544 50.5229 57.0425 50.7563 57.0003 50.9998C56.9545 51.2672 56.9103 51.5333 56.8677 51.8001C56.2887 55.4205 56.0006 59.0437 56.001 62.662C56.001 62.7466 56.001 62.8339 56.001 62.9158C56.001 63.9091 56.001 64.8976 56.001 65.8885C56.001 65.9921 56.001 66.096 56.001 66.1996C56.001 66.4663 56.001 66.7329 56.001 66.9996C56.001 67.53 56.2117 68.0387 56.5868 68.4138C56.9618 68.7889 57.4706 68.9996 58.001 68.9996C58.5314 68.9996 59.0401 68.7889 59.4152 68.4138C59.7903 68.0387 60.001 67.53 60.001 66.9996C60.001 66.7329 60.001 66.4663 60.001 66.1996C60.001 66.096 60.001 65.9921 60.001 65.8885C60.001 64.8976 60.001 63.9091 60.001 62.9158C60.001 62.8338 60.001 62.7465 60.001 62.6618C60.0006 59.0422 59.7104 55.4207 59.1327 51.8005C59.0901 51.5337 59.046 51.2676 59.0003 51.0002Z" fill="#1E1E1E"/>
<path d="M80.1574 55.5825C80.1894 55.3528 80.1973 55.1162 80.1402 54.8966C80.083 54.677 79.9655 54.4923 79.7956 54.3706C79.6257 54.2488 79.413 54.1968 79.1867 54.2133C78.9604 54.2298 78.7389 54.3134 78.5317 54.4175C78.5317 54.4175 78.5317 54.4175 78.5317 54.4175C78.4195 54.4958 78.3146 54.5776 78.2099 54.6793C76.4432 56.2676 78.2101 59.3853 78.0444 59.0798C78.0276 59.0143 78.0009 58.9046 78 58.7238C78 59.0342 78 59.3431 78 59.6528C78 59.6801 78 59.7074 78 59.7347C78 59.8231 78 59.9116 78 60C78 60.5304 78.2107 61.0391 78.5858 61.4142C78.9609 61.7893 79.4696 62 80 62C80.5304 62 81.0391 61.7893 81.4142 61.4142C81.7893 61.0391 82 60.5304 82 60C82 60 82 60 82 60C82 59.9116 82 59.8231 82 59.7347C82 59.7074 82 59.6801 82 59.6528C82 59.3431 82 59.0342 82 58.7238C81.9991 58.4365 81.9537 58.218 81.9088 58.0473C80.8466 55.6449 80.6047 56.489 80.1945 55.7708C80.177 55.7143 80.1632 55.6529 80.1574 55.5825Z" fill="#1E1E1E"/>
<path d="M70 55C70 54.4696 69.7893 53.9609 69.4142 53.5858C69.0391 53.2107 68.5304 53 68 53C67.4696 53 66.9609 53.2107 66.5858 53.5858C66.2107 53.9609 66 54.4696 66 55C66 55.0061 66 55.0123 66 55.0184C66 55.1596 65.9975 55.3072 65.9927 55.4489C65.9029 58.1508 65.0146 60.8492 65.0002 63.5511C65.0001 63.5709 65 63.5968 65 63.611C65 63.6128 65 63.6146 65 63.6164C65 63.7443 65.3333 63.8722 66 64C66.5228 64.0982 66.9671 64.1925 67.2781 64.2619C67.5951 64.3314 67.7944 64.3704 68 64.3704C68.2056 64.3704 68.4049 64.3314 68.7219 64.2619C69.0329 64.1925 69.4772 64.0982 70 64C70.6667 63.8722 71 63.7443 71 63.6164C71 63.6146 71 63.6128 71 63.611C71 63.5968 70.9999 63.5709 70.9998 63.5511C70.9854 60.8492 70.0971 58.1508 70.0073 55.4489C70.0025 55.3072 70 55.1596 70 55.0184C70 55.0123 70 55.0061 70 55Z" fill="#1E1E1E"/>
<path d="M113 45C113.53 45 114.039 44.7893 114.414 44.4142C114.789 44.0391 115 43.5304 115 43C115 42.4696 114.789 41.9609 114.414 41.5858C114.039 41.2107 113.53 41 113 41C112.163 41.0502 112.024 41.2731 111.861 41.351C111.719 41.4481 111.649 41.514 111.592 41.5669C111.484 41.6711 111.434 41.7327 111.39 41.7854C111.308 41.8878 111.265 41.9514 111.226 42.0097C111.152 42.1231 111.107 42.2037 111.064 42.2818C110.98 42.4346 110.919 42.5623 110.861 42.6875C110.544 43.5086 110.64 43.6103 110.594 43.8439C110.576 44.0473 110.563 44.2268 110.55 44.4079C110.506 45.0581 110.469 45.6872 110.431 46.3218C110.195 50.2842 109.991 54.2394 109.835 58.2109C109.832 58.2863 109.829 58.3617 109.826 58.4369C109.678 62.2087 109.606 65.9883 109.464 69.6999C109.403 71.2063 109.32 72.6951 109.183 74.1668C109.133 74.6995 109.076 75.2311 109.014 75.7675C108.952 76.2944 109.102 76.8241 109.431 77.2402C109.76 77.6564 110.241 77.9248 110.768 77.9864C111.294 78.0481 111.824 77.8979 112.24 77.569C112.656 77.2401 112.925 76.7593 112.986 76.2325C112.986 76.2325 112.986 76.2325 112.986 76.2325C113.052 75.6718 113.113 75.1039 113.165 74.5368C113.311 72.9663 113.398 71.4105 113.461 69.8623C113.606 66.0656 113.676 62.3284 113.823 58.5901C113.826 58.5156 113.829 58.4411 113.831 58.3664C113.986 54.436 114.19 50.4931 114.423 46.5618C114.461 45.9312 114.499 45.2947 114.541 44.6853C114.552 44.5191 114.564 44.3536 114.577 44.2134C114.57 44.1028 114.676 43.8512 114.499 44.3522C114.527 44.2899 114.556 44.2325 114.571 44.2046C114.578 44.1919 114.584 44.1841 114.566 44.2112C114.556 44.2264 114.543 44.2477 114.493 44.3103C114.465 44.3432 114.433 44.3851 114.342 44.4716C114.295 44.5157 114.235 44.573 114.104 44.663C113.951 44.7341 113.824 44.95 113 45Z" fill="#1E1E1E"/>
<path d="M119 54C119.53 54 120.039 53.7893 120.414 53.4142C120.789 53.0391 121 52.5304 121 52C121 51.4696 120.789 50.9609 120.414 50.5858C120.039 50.2107 119.53 50 119 50C119.004 50.0006 118.802 49.9951 118.576 50.0449C118.348 50.0928 118.142 50.1838 118.005 50.2625C117.731 50.4237 117.638 50.5307 117.562 50.6028C117.426 50.7442 117.392 50.8002 117.355 50.8489C117.29 50.9396 117.27 50.9758 117.248 51.0106C117.209 51.0756 117.191 51.1094 117.173 51.1428C117.111 51.2444 116.999 51.526 116.974 51.629C116.939 51.7546 116.922 51.8384 116.909 51.9074C116.884 52.0475 116.872 52.1423 116.862 52.2323C116.842 52.411 116.832 52.5547 116.822 52.6985C116.773 53.5316 116.766 54.2661 116.756 55.0287C116.73 58.5806 116.77 62.0949 116.769 65.5902C116.769 65.6237 116.769 65.6568 116.769 65.6895C116.768 66.1342 116.766 66.5774 116.754 66.9861C116.749 67.1871 116.739 67.3838 116.725 67.5313C116.715 67.6744 116.676 67.7847 116.72 67.6544C116.744 67.5758 116.87 67.3776 116.954 67.3053C117.037 67.2287 117.012 67.2598 116.921 67.3162C116.474 67.6025 116.16 68.0544 116.046 68.5726C115.933 69.0908 116.03 69.6328 116.316 70.0793C116.603 70.5259 117.054 70.8405 117.573 70.9538C118.091 71.0672 118.633 70.97 119.079 70.6838C119.079 70.6838 119.079 70.6838 119.079 70.6838C119.231 70.5832 119.447 70.4542 119.738 70.1771C120.031 69.9052 120.317 69.4609 120.445 69.1118C120.802 68.0385 120.711 67.6312 120.753 67.1056C120.767 66.6096 120.767 66.1537 120.769 65.6967C120.769 65.6633 120.769 65.6295 120.769 65.5954C120.77 62.0669 120.73 58.542 120.756 55.0698C120.764 54.3438 120.775 53.6019 120.814 52.9549C120.821 52.8505 120.829 52.7497 120.837 52.6801C120.84 52.6477 120.845 52.6195 120.842 52.6369C120.84 52.6468 120.837 52.6679 120.818 52.7344C120.811 52.7784 120.721 53.0015 120.689 53.0492C120.691 53.047 120.692 53.0459 120.674 53.0762C120.663 53.0938 120.653 53.1129 120.6 53.1872C120.569 53.2278 120.541 53.2757 120.412 53.41C120.339 53.4786 120.25 53.5821 119.98 53.7408C119.846 53.8182 119.642 53.9083 119.416 53.9557C119.193 54.0049 118.994 53.9994 119 54Z" fill="#1E1E1E"/>
<path d="M34 51C34 56 34 56.5443 34 61.0013C34 62.5843 34 62.7893 34 63.0006" stroke="#1E1E1E" stroke-width="4" stroke-linecap="round" stroke-linejoin="round"/>
<path d="M92 54C92 59 92 59.5443 92 64.0013C92 65.5843 92 65.7893 92 66.0006" stroke="#1E1E1E" stroke-width="4" stroke-linecap="round" stroke-linejoin="round"/>
<path d="M125.751 57.6713C126.165 58.0026 126.694 58.1557 127.221 58.0971C127.748 58.0385 128.231 57.7728 128.562 57.3586C128.893 56.9443 129.046 56.4154 128.988 55.8883C128.929 55.3611 128.663 54.8788 128.249 54.5475C128.202 54.5154 128.128 54.4298 127.814 54.2551C127.599 54.1465 126.986 53.8361 126.133 54.1088C125.321 54.4104 125.093 54.8743 124.955 55.0821C124.855 55.2554 124.704 55.7507 124.691 55.9505C124.69 55.9684 124.689 55.9862 124.688 56.0041C124.528 58.693 124.61 61.3049 124.141 63.3612C124.141 63.3622 124.141 63.3632 124.141 63.3641L124.181 63.2225C124.177 63.2339 124.171 63.2477 124.188 63.2035C124.207 63.167 124.184 63.1785 124.321 62.9413C124.372 62.8708 124.385 62.7993 124.66 62.5286C124.746 62.4524 124.815 62.3876 125.003 62.2741C125.215 62.154 125.494 62.0212 125.948 62.001C126.428 61.9652 127.015 62.2251 127.233 62.4166C127.494 62.6164 127.658 62.8606 127.715 62.9549C127.859 63.1982 127.894 63.3358 127.922 63.4211C127.95 63.5173 127.96 63.5702 127.969 63.6162C127.986 63.7128 127.989 63.7505 127.993 63.79C128.007 64.0151 127.997 63.9509 128 63.9564C128 63.945 128.002 63.9164 128.004 63.8814C128.037 63.352 127.858 62.8312 127.507 62.4337C127.156 62.0362 126.661 61.7945 126.131 61.7617C125.602 61.729 125.081 61.9079 124.684 62.2591C124.286 62.6103 124.045 63.105 124.012 63.6344C124.01 63.6702 124.007 63.7126 124.004 63.772C124.004 63.8485 123.99 63.8555 124.01 64.1512C124.014 64.1999 124.018 64.2455 124.037 64.3516C124.047 64.4019 124.058 64.459 124.087 64.5596C124.116 64.6489 124.153 64.7912 124.3 65.038C124.357 65.1338 124.523 65.3804 124.786 65.5813C125.005 65.774 125.595 66.0349 126.077 65.999C126.533 65.9787 126.814 65.8453 127.028 65.7239C127.218 65.6091 127.289 65.5433 127.376 65.4655C127.658 65.1886 127.676 65.1094 127.731 65.0317C127.886 64.7635 127.877 64.7423 127.908 64.6732C127.952 64.562 127.968 64.5094 127.987 64.4527C127.996 64.4247 128.02 64.3398 128.027 64.3111C128.027 64.3096 128.028 64.308 128.028 64.3065C128.68 61.3119 128.512 58.7105 128.679 56.2611C128.68 56.2456 128.681 56.2302 128.682 56.2148L128.418 57.0833C128.319 57.2254 128.142 57.6248 127.404 57.9015C127.049 58.0247 126.661 58.0149 126.421 57.9614C126.175 57.9089 126.036 57.8383 125.943 57.7909C125.717 57.6634 125.72 57.6415 125.751 57.6713Z" fill="#1E1E1E"/>
<path d="M102.433 62.0697C102.001 61.7622 101.464 61.639 100.941 61.7272C100.418 61.8153 99.9513 62.1077 99.6438 62.5399C99.3363 62.9721 99.2131 63.5088 99.3013 64.0318C99.3895 64.5549 99.6818 65.0215 100.114 65.329C100.161 65.3571 100.238 65.4372 100.56 65.5929C100.779 65.6886 101.406 65.9636 102.242 65.644C103.033 65.2979 103.234 64.8233 103.359 64.6097C103.45 64.4309 103.572 63.928 103.574 63.7277C103.574 63.7106 103.574 63.6934 103.574 63.6762C103.582 61.0945 103.365 58.6043 103.699 56.6358C103.699 56.6349 103.7 56.6339 103.7 56.633L103.668 56.7766C103.67 56.7666 103.675 56.754 103.66 56.8005C103.643 56.8387 103.665 56.8267 103.541 57.0719C103.494 57.1453 103.485 57.2176 103.225 57.5035C103.144 57.5844 103.079 57.6531 102.897 57.777C102.692 57.9089 102.421 58.0571 101.969 58.1028C101.492 58.1655 100.891 57.939 100.663 57.76C100.39 57.5752 100.213 57.3406 100.151 57.2496C99.9934 57.0147 99.9506 56.8792 99.9181 56.7955C99.8846 56.701 99.8715 56.6486 99.86 56.6031C99.8371 56.5075 99.8322 56.4698 99.826 56.4303C99.799 56.2048 99.8128 56.2669 99.8098 56.26C99.8099 56.2698 99.8099 56.2969 99.8097 56.3305C99.8067 56.8609 100.015 57.3708 100.388 57.7479C100.761 58.1251 101.268 58.3386 101.799 58.3415C102.329 58.3445 102.839 58.1366 103.216 57.7636C103.593 57.3906 103.807 56.8831 103.81 56.3527C103.81 56.3183 103.81 56.2774 103.81 56.2195C103.806 56.1446 103.819 56.1384 103.783 55.8458C103.775 55.7976 103.769 55.7525 103.744 55.6479C103.732 55.5983 103.718 55.542 103.683 55.4432C103.649 55.3559 103.604 55.2159 103.444 54.9779C103.381 54.8855 103.202 54.6486 102.928 54.4628C102.698 54.2828 102.095 54.0554 101.616 54.1184C101.161 54.1643 100.889 54.3132 100.682 54.4464C100.499 54.5717 100.432 54.6414 100.349 54.7239C100.083 55.0161 100.07 55.096 100.019 55.1765C99.8797 55.4523 99.8903 55.4722 99.8629 55.5422C99.8264 55.6542 99.8135 55.7062 99.7984 55.7623C99.7909 55.7909 99.7717 55.8769 99.7664 55.906C99.7661 55.9075 99.7658 55.909 99.7655 55.9105C99.3013 58.826 99.6031 61.301 99.5746 63.644C99.5745 63.6588 99.5744 63.6735 99.5742 63.6882L99.7889 62.8063C99.8809 62.6573 100.037 62.2471 100.759 61.9288C101.107 61.7855 101.496 61.7734 101.739 61.8134C101.989 61.8522 102.133 61.9152 102.228 61.9576C102.464 62.0731 102.464 62.0964 102.433 62.0697Z" fill="#1E1E1E"/>
<path d="M65.0943 20.5605C65.2193 20.6483 65.3443 20.7663 65.4448 20.7663C65.2996 20.4605 65.7891 20.3509 65.9694 20.2911C67.0574 19.9898 69.3252 19.4102 71.8618 18.6087C73.2473 18.0541 74.2264 17.6364 74.8921 17.2025C75.9572 16.5082 76.7821 15.9352 77.8406 15.4653C81.853 13.684 82.8588 13.0154 83.4696 13.0001C83.5955 12.9969 83.7304 13.0712 83.9481 13.2837C84.4851 13.8077 85.2195 14.9215 85.9319 15.521C86.5829 16.0688 88.1988 17.2385 90.5418 19.348C91.3153 20.0445 92.0558 21.6235 93.0132 22.2268C93.279 22.3943 93.5727 22.5449 93.7437 22.7918C93.8273 22.9125 93.8732 23.0494 93.9124 24.6528C93.9517 26.2562 93.9835 29.2358 93.9948 31.6687C94.0062 34.1016 93.9973 35.9323 93.9834 36.9932C93.9694 38.0541 93.9572 38.3374 93.9276 38.5581C93.8769 38.9353 93.7904 39.3395 93.56 39.7909C93.3146 40.2717 93.1519 40.7305 92.883 40.8463C92.3006 41.097 91.5045 41.1011 90.0711 41.8639C89.3554 42.2447 88.2528 42.6703 86.9412 43.6C85.9826 44.2795 84.1024 45.4834 81.9215 46.8031C80.1688 47.8637 79.1846 48.7055 78.5271 48.9174C78.362 48.9706 78.1982 49.0232 78.043 48.9892C77.7329 48.9212 77.1591 48.5604 76.4737 48.0234C76.0143 47.6635 74.4674 46.7281 72.2086 45.1078C71.2 44.3844 70.4979 43.7905 69.5631 43.0705C68.6282 42.3505 67.477 41.5526 66.8528 41.0598C65.7243 40.1691 65.0199 39.7238 64.6526 39.2878C64.4515 39.049 64.1738 38.602 64.0407 38.0067C63.9813 37.7411 63.9816 37.53 64.0772 36.9634C64.3248 35.4964 64.5702 34.1136 64.6716 31.3302C64.7558 29.019 64.8705 24.9897 64.9424 22.8812C65.0142 20.7728 65.0452 20.526 65.0943 20.5605Z" fill="white"/>
<path d="M78.6454 68.9412L78.6539 68.9346C78.8177 68.7937 78.9268 68.72 79.055 68.6297C79.3262 68.436 79.5941 68.2565 79.9731 68.1458C81.1268 68.0599 81.5273 67.9304 81.7561 68.0455C82.2334 68.2856 82.675 68.6383 84.2435 69.912C84.8119 70.3735 85.8322 70.8183 87.3292 71.8242C90.1005 73.6864 90.4442 74.301 91.9082 75.3413C93.2789 76.3153 94.0415 76.6412 94.3448 77.1125C94.4211 77.2311 94.4773 77.3591 94.5137 77.5151C94.5902 77.8431 94.6769 78.5544 94.585 79.7506C94.4699 81.2484 94.3371 83.042 94.5199 85.103C94.6196 86.2269 94.8339 87.4912 94.8931 88.4354C94.9897 89.9739 95.0724 90.8073 94.8994 91.113C94.6095 91.6252 94.5006 92.2545 94.0922 92.6199C93.8934 92.7978 92.8851 93.087 89.1549 95.6468C87.6816 96.6578 86.1441 97.411 84.8589 98.4133C83.4518 99.5107 82.5095 100.643 81.8752 100.848C81.5633 100.948 80.5458 101.112 79.6781 100.888C79.5157 100.846 79.3486 100.791 79.0249 100.623C78.2231 100.207 76.6568 99.1321 74.6543 97.8807C73.7701 97.3281 73.0945 97.0067 72.3796 96.5152C70.872 95.4785 69.146 94.4467 67.8629 93.4807C66.911 92.7641 66.1758 91.8638 65.4769 91.1942C64.9731 90.7116 64.3609 90.3656 64.0529 89.8974C63.9814 89.7887 63.9814 89.603 64.0592 88.5988C64.137 87.5946 64.2881 85.8253 64.444 83.504C64.5998 81.1826 64.7558 78.3937 64.8616 76.9324C64.9675 75.4712 65.008 75.3114 65.2589 75.2098C65.9041 74.9485 66.9387 74.4677 68.9189 73.621C70.2625 73.0464 72.2861 72.2723 73.5206 71.6707C75.2623 70.8222 76.0263 70.3453 76.6523 70.0717C77.8641 69.5421 78.4941 69.0575 78.6454 68.9412Z" fill="white"/>
<path d="M71.1377 24.0047C70.6166 23.8515 70.0954 24.0142 69.6947 24.3729C69.2939 24.7325 69.0454 25.2736 69.0047 25.8623C68.9641 26.451 69.136 27.0211 69.4836 27.4324C69.8312 27.8428 70.3251 28.0755 70.8623 27.9953C70.6807 27.9612 70.8074 27.9575 70.8288 27.9487C70.8717 27.9415 70.9243 27.9375 70.9786 27.935C71.088 27.9303 71.2056 27.9318 71.3249 27.9375C71.6852 27.9551 72.0566 28.0092 72.4162 28.0939C74.2075 28.5329 75.0535 28.2991 76.2435 28.4168C77.3645 28.4858 78.5938 28.6664 79.8051 28.7796C79.857 28.7847 79.9089 28.7897 79.9613 28.7948C80.9616 28.892 81.9564 29.0141 82.9475 29.1688C83.4435 29.2464 83.936 29.3317 84.4188 29.4308C84.6596 29.4805 84.8968 29.5335 85.1162 29.5928C85.2229 29.6222 85.3305 29.654 85.4118 29.6864C85.4716 29.7085 85.6212 29.7872 85.3767 29.723C85.4634 29.8012 85.5551 29.8956 85.6817 30.0223C85.8248 30.1516 85.9214 30.3027 86.3838 30.5711C86.4073 30.588 86.4931 30.6086 86.5179 30.6235C86.5514 30.6386 86.5855 30.6534 86.6203 30.6676C86.913 30.788 87.2545 30.8715 87.6134 30.8889C88.0383 30.9094 88.4121 30.8414 88.6993 30.7741C89.2411 30.7089 89.6488 30.3465 89.8651 29.8533C90.081 29.3591 90.0821 28.7593 89.8738 28.2011C89.6654 27.6428 89.2717 27.1903 88.7848 26.9585C88.2983 26.7275 87.7528 26.7209 87.3007 27.0266C87.297 27.068 87.3654 27.0784 87.4788 27.1096C87.5681 27.1369 87.639 27.1812 87.674 27.2225C87.6782 27.2274 87.682 27.2323 87.6853 27.237L87.8194 27.2894C87.8916 27.3806 87.6369 27.2821 87.4135 27.1909C87.1754 27.094 86.8921 26.9795 86.5845 26.8898C86.112 26.735 86.0115 26.7783 85.8272 26.7635C85.664 26.7613 85.5189 26.7664 85.3829 26.7728C85.1072 26.7856 84.8519 26.8035 84.5961 26.8193C84.0868 26.8515 83.5932 26.8777 83.0966 26.8901C82.1067 26.9158 81.1257 26.8892 80.1458 26.8027C80.0971 26.7984 80.049 26.7939 80.0008 26.7892C78.8654 26.6826 77.7788 26.4255 76.5722 26.14C76.0128 26.0102 75.4546 25.8754 74.923 25.7239C74.4216 25.5816 73.7964 25.3705 73.733 25.2253C73.2967 24.9451 72.8479 24.6895 72.3701 24.455C72.2105 24.3771 72.0491 24.3019 71.8756 24.2286C71.7887 24.192 71.6994 24.156 71.6005 24.1202C71.4805 24.0835 71.4616 24.0512 71.1377 24.0047Z" fill="#1E1E1E"/>
<path d="M72.0058 38.121C72.5362 38.3385 73.0449 38.1511 73.42 37.7567C73.7951 37.3606 74.0058 36.7623 74.0058 36.121C74.0058 35.4797 73.7951 34.8813 73.42 34.4853C73.0449 34.0908 72.5362 33.9035 72.0058 34.121C72.0364 34.1213 72.0736 34.1221 72.126 34.1256C72.1635 34.1302 72.2749 34.1287 72.5111 34.1887C72.5438 34.1975 72.5695 34.2046 72.6187 34.2205C72.6972 34.2464 72.7921 34.2814 72.9134 34.3434C73.1361 34.4667 73.5786 34.7064 73.8634 35.4002C74.0032 35.7365 74.034 36.2261 73.9474 36.5643C73.8659 36.9139 73.7224 37.1484 73.605 37.3085C73.4849 37.4692 73.3816 37.5653 73.2976 37.6379C73.255 37.6741 73.2232 37.6987 73.1908 37.7228C72.9435 37.8994 72.8387 37.9277 72.8001 37.9479C72.5937 38.0313 72.6013 38.0173 72.5609 38.03C72.5029 38.0437 72.49 38.0434 72.4745 38.0445C72.4489 38.0451 72.4446 38.0405 72.4413 38.036C72.4367 38.0265 72.4462 38.0145 72.4571 38.0026C72.4801 37.9785 72.5143 37.9535 72.5505 37.9289C72.6234 37.8797 72.7067 37.8318 72.7927 37.7856C72.812 37.7658 72.8369 37.7461 72.8658 37.727C73.8099 37.2415 75.3028 37.126 76.5641 37.1228C76.6627 37.1233 76.7625 37.1248 76.8606 37.1272C78.207 37.1579 79.5231 37.2191 80.8195 37.3865L80.7964 37.3852C82.4737 37.6397 84.631 38.0373 85.7287 38.5107L85.6673 38.4925C85.6769 38.4999 85.6873 38.5076 85.6997 38.5161C85.8545 38.6174 86.1384 38.7692 86.3637 38.8961C86.8332 39.1641 87.379 39.1368 87.8569 38.8917C88.335 38.6459 88.7103 38.1898 88.8961 37.6363C89.0818 37.0828 89.0576 36.4926 88.8246 36.0082C88.5913 35.5244 88.1725 35.1734 87.6363 35.1039C87.3835 35.0718 87.1949 35.0535 86.8739 34.9919C86.8429 34.9859 86.8099 34.9795 86.7759 34.9731C86.7632 34.9715 86.7273 34.9562 86.7146 34.955C84.278 34.8828 82.8494 35.1004 80.9561 35.0835C80.9514 35.0835 80.9376 35.082 80.933 35.0821C79.5705 35.1166 78.2244 35.1581 76.9098 35.1278C76.8146 35.1255 76.7182 35.1217 76.6237 35.1166C75.3131 35.0624 74.2394 34.6884 72.6141 34.3044C72.544 34.2926 72.4711 34.2818 72.3942 34.2729C72.2784 34.2497 72.1611 34.2262 72.0337 34.2047C71.9692 34.1941 71.9034 34.1838 71.8268 34.1761C71.788 34.1724 71.7473 34.1691 71.6929 34.1692C71.6649 34.1695 71.6361 34.1699 71.5857 34.1762C71.5574 34.1802 71.5326 34.1828 71.4622 34.2C71.4161 34.2143 71.4178 34.2021 71.2052 34.2881C71.1656 34.3088 71.0586 34.3381 70.8104 34.5154C70.7778 34.5396 70.746 34.5643 70.7033 34.6006C70.619 34.6734 70.5155 34.7696 70.3953 34.9305C70.2777 35.0909 70.1341 35.3256 70.0526 35.6753C69.9659 36.0136 69.9968 36.5035 70.1366 36.8398C70.4216 37.5339 70.8643 37.7739 71.0874 37.8974C71.2089 37.9595 71.304 37.9946 71.3829 38.0205C71.4322 38.0365 71.4581 38.0436 71.4909 38.0524C71.7282 38.1128 71.842 38.1116 71.8806 38.1162C71.9345 38.1197 71.9733 38.1206 72.0058 38.121Z" fill="#1E1E1E"/>
<path d="M72.4258 83.429C72.9041 83.6937 73.4463 83.6354 73.9086 83.3586C74.3711 83.0809 74.7202 82.5914 74.8747 82.0139C75.0292 81.4364 74.9712 80.838 74.7091 80.3664C74.4468 79.8958 74.0061 79.5744 73.4596 79.5649C73.2116 79.5578 73.0171 79.5602 72.7927 79.5498C72.7842 79.5627 72.7792 79.571 72.857 79.6197C72.899 79.6482 72.9538 79.6717 73.1142 79.7971C73.1946 79.8664 73.3153 79.9529 73.4884 80.2128C73.6614 80.4406 73.8751 81.1055 73.6897 81.6403C73.4888 82.2339 73.2083 82.399 73.0736 82.5095C72.9266 82.6121 72.8411 82.6451 72.7761 82.6712C72.6513 82.717 72.6049 82.7179 72.5719 82.7197C72.512 82.7192 72.5211 82.7011 72.5379 82.6864C72.5771 82.655 72.6694 82.6244 72.7668 82.5989C74.7187 82.2148 76.8626 82.1434 78.941 82.1115C78.9646 82.1112 78.9884 82.111 79.0121 82.1107C80.3334 82.0989 81.6535 82.1227 82.8936 82.299C84.0598 82.469 85.2179 82.7817 86.1091 83.2983L86.0576 83.2815C86.1754 83.3599 86.3024 83.4517 86.4927 83.5689C86.5209 83.5861 86.5507 83.6038 86.583 83.6223C86.7185 83.7131 87.2035 83.8722 87.4703 83.9064C87.7546 83.9533 87.9496 83.9693 88.1305 83.987C88.6675 84.0692 89.1622 83.8383 89.5113 83.4291C89.8603 83.0191 90.0343 82.4496 89.9957 81.8607C89.9572 81.2718 89.7106 80.7298 89.3111 80.3688C88.9117 80.0086 88.3911 79.844 87.8695 79.9955C87.7923 80.0296 87.7294 80.0553 87.7567 80.0835C87.7655 80.1015 87.9984 80.1949 87.8946 80.1897C87.8738 80.1879 87.8507 80.185 87.8259 80.1813C87.6532 80.155 87.419 80.0991 87.1674 80.051C87.1567 80.0494 87.1267 80.0355 87.1159 80.0342C85.6349 79.8242 84.3055 79.8728 82.9982 79.9262C81.6111 79.9953 80.3002 80.1 78.9927 80.1108C78.9693 80.1111 78.9461 80.1113 78.9228 80.1114C76.8829 80.1337 74.9144 79.8096 72.7507 79.4017C72.5849 79.3777 72.4125 79.3554 72.19 79.3509C72.0761 79.35 71.954 79.3502 71.7659 79.3803C71.6692 79.3977 71.559 79.4172 71.3742 79.4892C71.2789 79.5287 71.164 79.5771 70.9906 79.6991C70.8298 79.8292 70.5245 80.0189 70.314 80.6444C70.1197 81.2078 70.3417 81.9038 70.5311 82.1561C70.7205 82.4405 70.8638 82.5474 70.9674 82.6344C71.1752 82.7952 71.283 82.8459 71.3787 82.8989C71.5686 82.9976 71.6808 83.0435 71.7903 83.0902C71.9987 83.2024 72.239 83.3229 72.4258 83.429Z" fill="#1E1E1E"/>
<path d="M71.0019 91C71.4801 90.8997 71.9387 90.6726 72.2768 90.3083C72.6149 89.9443 72.8049 89.4795 72.8049 89C72.8049 88.5205 72.6149 88.0557 72.2768 87.6917C71.9387 87.3274 71.4801 87.1003 71.0019 87C71.001 86.9999 71.0004 86.9998 71.0001 86.9996C71.0001 86.9996 71 86.9996 71 86.9996C71 86.9996 71 86.9996 71 86.9996C71 86.9996 71 86.9996 71 86.9996C71 86.9996 71 86.9996 71 86.9996C71 86.9996 71 86.9996 71 86.9996C71 86.9996 71 86.9996 71 86.9996C71 86.9996 71 86.9996 71 86.9996C71 86.9996 71 86.9996 71 86.9996C71 86.9996 71 86.9996 71 86.9996C71 86.9996 71 86.9996 71 86.9996C71 95.4457 71 89.6668 71 91.0004C71 91.0004 71 91.0004 71 91.0004C71 91.0004 71 91.0004 71 91.0004C71 91.0004 71 91.0004 71 91.0004C71 91.0004 71 91.0004 71 91.0004C71 91.0004 71 91.0004 71 91.0004C71 91.0004 71.0001 91.0004 71.0003 91.0005C71.0009 91.0005 71.0006 91.0005 71.0008 91.0005C71.001 91.0006 71.0012 91.0007 71.0015 91.0007C71.0026 91.001 71.0042 91.0012 71.005 91.0015C71.0071 91.0019 71.0102 91.0024 71.012 91.0029C71.0168 91.0039 71.0213 91.0049 71.026 91.0058C71.0355 91.0078 71.0456 91.0097 71.0541 91.0117C71.0735 91.0155 71.0914 91.0194 71.1104 91.0232C71.1475 91.0309 71.1856 91.0386 71.2229 91.0462C71.2985 91.0614 71.3737 91.0765 71.448 91.0913C71.5966 91.121 71.7492 91.15 71.8981 91.1783C72.3836 91.2699 72.8719 91.3539 73.3582 91.4302C75.779 91.8101 78.2029 92 80.6248 92C80.6353 92 80.6459 92 80.6564 92C82.3641 91.9984 84.0732 91.8721 85.7803 91.6211C86.4377 91.5245 87.0939 91.4096 87.7504 91.2761C87.8671 91.2525 87.9834 91.2282 88.0999 91.2034C88.4 91.1394 88.6996 91.0716 89 91C89.4709 90.8864 89.9225 90.6562 90.2554 90.2935C90.5884 89.9313 90.7754 89.4727 90.7754 89C90.7754 88.5273 90.5884 88.0687 90.2554 87.7065C89.9225 87.3438 89.4709 87.1136 89 87C88.6996 86.9284 88.4 86.8606 88.0999 86.7966C87.9834 86.7718 87.8671 86.7475 87.7504 86.7239C87.0939 86.5904 86.4377 86.4755 85.7803 86.3789C84.0732 86.1279 82.3641 86.0016 80.6564 86C80.6459 86 80.6353 86 80.6248 86C78.2029 86 75.779 86.1899 73.3582 86.5698C72.8719 86.6461 72.3836 86.7301 71.8981 86.8217C71.7492 86.85 71.5966 86.879 71.448 86.9087C71.3737 86.9235 71.2985 86.9386 71.2229 86.9538C71.1856 86.9614 71.1475 86.9691 71.1104 86.9768C71.0914 86.9806 71.0735 86.9845 71.0541 86.9883C71.0456 86.9903 71.0355 86.9922 71.026 86.9942C71.0213 86.9951 71.0168 86.9961 71.012 86.9971C71.0102 86.9976 71.0071 86.9981 71.005 86.9985C71.0042 86.9988 71.0026 86.999 71.0015 86.9993C71.0012 86.9993 71.001 86.9994 71.0008 86.9995C71.0006 86.9995 71.0009 86.9995 71.0003 86.9995C71.0001 86.9996 71 86.9996 71 86.9996C71 86.9996 71 86.9996 71 86.9996C71 86.9996 71 86.9996 71 86.9996C71 86.9996 71 86.9996 71 86.9996C71 86.9996 71 86.9996 71 86.9996C71 86.9996 71 86.9996 71 86.9996C71 88.3332 71 82.5543 71 91.0004C71 91.0004 71 91.0004 71 91.0004C71 91.0004 71 91.0004 71 91.0004C71 91.0004 71 91.0004 71 91.0004C71 91.0004 71 91.0004 71 91.0004C71 91.0004 71 91.0004 71 91.0004C71 91.0004 71 91.0004 71 91.0004C71 91.0004 71 91.0004 71 91.0004C71 91.0004 71 91.0004 71 91.0004C71 91.0004 71 91.0004 71 91.0004C71 91.0004 71.0001 91.0004 71.0001 91.0004C71.0004 91.0002 71.001 91.0001 71.0019 91Z" fill="#1E1E1E"/>
</svg>
