<svg width="160" height="113" viewBox="0 0 160 113" fill="none" xmlns="http://www.w3.org/2000/svg">
<path d="M44 48C43.9702 47.4999 43.7333 47.0202 43.3587 46.6665C42.9832 46.3129 42.5006 46.1142 42 46.1142C41.4994 46.1142 41.0168 46.3129 40.6413 46.6665C40.2667 47.0202 40.0298 47.4999 40 48C39.9833 48.2826 39.9667 48.5662 39.95 48.8496C39.937 49.0712 39.924 49.2905 39.911 49.5134C39.8005 51.3902 39.6901 53.2687 39.5796 55.1469C39.4031 58.1472 39.2265 61.1489 39.05 64.1499C39.0333 64.4334 39.0167 64.7165 39 65C38.9525 65.7956 39.227 66.5587 39.7904 67.1213C40.3523 67.6839 41.1569 68 42 68C42.8431 68 43.6477 67.6839 44.2096 67.1213C44.773 66.5587 45.0475 65.7956 45 65C44.9833 64.7165 44.9667 64.4334 44.95 64.1499C44.7735 61.1489 44.5969 58.1472 44.4204 55.1469C44.3099 53.2687 44.1995 51.3902 44.089 49.5134C44.076 49.2905 44.063 49.0712 44.05 48.8496C44.0333 48.5662 44.0167 48.2826 44 48Z" fill="white"/>
<path d="M48.7748 44C49.3053 44.1334 49.814 43.937 50.189 43.55C50.5641 43.1621 50.7748 42.5984 50.7748 42C50.7748 41.4016 50.5641 40.8379 50.189 40.45C49.814 40.063 49.3053 39.8666 48.7748 40V40C48.7898 39.9971 48.292 40.004 47.9286 40.1876C47.5617 40.3618 47.386 40.551 47.2761 40.6688C47.0694 40.9082 47.034 41.0057 46.988 41.0874C46.9117 41.2413 46.8958 41.3028 46.8756 41.3644C46.7298 41.8209 46.7743 41.8592 46.7607 41.9944C46.7603 42.0996 46.7652 42.1897 46.7718 42.2673C46.7851 42.4256 46.8029 42.5689 46.8216 42.7008C46.8587 42.9744 46.899 43.2234 46.9371 43.4774C47.2829 45.6669 47.4622 47.7912 47.4168 49.934C47.4165 49.952 47.4161 49.9701 47.4157 49.9883C47.3066 55.1936 47.0072 60.4055 46.5919 65.6177C46.4436 67.771 46.1906 69.9706 46.4297 72.3549C46.432 72.3821 46.4343 72.4093 46.4366 72.4364C46.4371 72.4426 46.4413 72.4611 46.4419 72.4674C46.4607 72.6374 46.4794 72.8097 46.5209 73.0366C46.5437 73.1535 46.5672 73.2779 46.6334 73.4782C46.669 73.5803 46.711 73.7021 46.8192 73.8957C46.9449 74.076 47.0744 74.4344 47.8108 74.789C48.2974 75.0099 48.8898 74.9732 49.203 74.8706C49.5328 74.7706 49.7042 74.6556 49.834 74.5705C50.0833 74.3961 50.1792 74.2895 50.2691 74.2017C50.4349 74.0311 50.5139 73.9342 50.5825 73.8605C50.9425 73.4683 51.0906 72.9398 51.02 72.4113C50.9491 71.8825 50.6608 71.3934 50.2229 71.055C49.7851 70.7166 49.239 70.561 48.7095 70.6257C48.1802 70.6907 47.7062 70.9674 47.4175 71.4146C47.4175 71.4146 47.4175 71.4146 47.4175 71.4146C47.3672 71.4943 47.3282 71.5524 47.3628 71.525C47.3867 71.5085 47.4134 71.4709 47.5832 71.3527C47.6734 71.2952 47.8019 71.2049 48.0852 71.1187C48.3521 71.0304 48.8932 70.9947 49.3348 71.196C49.9999 71.5195 50.081 71.8128 50.1675 71.9275C50.2373 72.0552 50.2487 72.1052 50.2578 72.1357C50.2709 72.1916 50.2546 72.1675 50.2409 72.1347C50.2105 72.0627 50.1725 71.9332 50.1362 71.8001L50.1415 71.831C50.1352 71.8053 50.1289 71.7799 50.1227 71.7547C49.6208 69.912 49.5538 67.8122 49.4685 65.6843C49.3007 60.4716 49.3079 55.2477 49.4154 50.0283C49.4157 50.0102 49.4161 49.9921 49.4164 49.9741C49.4614 47.8424 49.712 45.6908 50.2199 43.6145C50.2787 43.3792 50.3411 43.1508 50.4096 42.9313C50.4436 42.8271 50.4797 42.7182 50.5165 42.6364C50.5347 42.5973 50.5539 42.5592 50.5702 42.549C50.5755 42.5612 50.6383 42.4775 50.5341 42.8232C50.5294 42.8463 50.5294 42.8701 50.4728 42.9875C50.4366 43.0514 50.412 43.1308 50.2191 43.355C50.1161 43.4652 49.9484 43.6474 49.5909 43.8173C49.2368 43.9965 48.7496 44.0028 48.7748 44Z" fill="white"/>
<path d="M59.0003 51.0002C58.9583 50.7568 58.8465 50.5233 58.6634 50.3511C58.4805 50.1789 58.2444 50.0821 58.0005 50.0821C57.7567 50.082 57.5206 50.1787 57.3376 50.3508C57.1544 50.5229 57.0425 50.7563 57.0003 50.9998C57.0003 50.9998 57.0003 50.9998 57.0003 50.9998C56.9545 51.2672 56.9103 51.5333 56.8677 51.8001C56.2887 55.4205 56.0006 59.0437 56.001 62.662C56.001 62.7466 56.001 62.8339 56.001 62.9158C56.001 63.9091 56.001 64.8976 56.001 65.8885C56.001 65.9921 56.001 66.096 56.001 66.1996C56.001 66.4663 56.001 66.7329 56.001 66.9996C56.001 67.53 56.2117 68.0387 56.5868 68.4138C56.9618 68.7889 57.4706 68.9996 58.001 68.9996C58.5314 68.9996 59.0401 68.7889 59.4152 68.4138C59.7903 68.0387 60.001 67.53 60.001 66.9996C60.001 66.7329 60.001 66.4663 60.001 66.1996C60.001 66.096 60.001 65.9921 60.001 65.8885C60.001 64.8976 60.001 63.9091 60.001 62.9158C60.001 62.8338 60.001 62.7465 60.001 62.6618C60.0006 59.0422 59.7104 55.4207 59.1327 51.8005C59.0901 51.5337 59.046 51.2676 59.0003 51.0002Z" fill="white"/>
<path d="M80.2572 55.4088C80.2795 55.1728 80.2578 54.9271 80.1595 54.7091C80.0614 54.4912 79.8971 54.3199 79.6906 54.2274C79.484 54.1349 79.2469 54.1264 79.0189 54.1983C78.7909 54.2701 78.5931 54.4174 78.4319 54.5912C78.4319 54.5912 78.4319 54.5912 78.4319 54.5912C78.3206 54.728 78.2178 54.8684 78.1216 55.0201C76.6489 57.1033 77.8622 60.4026 78.0037 61.0292C78.0029 61.0223 78.0001 61 78 60.9581C78 61.4547 78 61.949 78 62.4445C78 62.493 78 62.5415 78 62.5901C78 62.7267 78 62.8634 78 63C78 63.5304 78.2107 64.0391 78.5858 64.4142C78.9609 64.7893 79.4696 65 80 65C80.5304 65 81.0391 64.7893 81.4142 64.4142C81.7893 64.0391 82 63.5304 82 63C82 63 82 63 82 63C82 62.8634 82 62.7267 82 62.5901C82 62.5415 82 62.493 82 62.4445C82 61.949 82 61.4547 82 60.9581C82 60.7993 81.9878 60.6518 81.9721 60.5274C81.6318 58.8424 81.188 58.4217 80.8871 57.6944C80.5785 57.0362 80.3294 56.4822 80.2677 55.7444C80.2595 55.6355 80.2551 55.5254 80.2572 55.4088Z" fill="white"/>
<path d="M70 55C70 54.4696 69.7893 53.9609 69.4142 53.5858C69.0391 53.2107 68.5304 53 68 53C67.4696 53 66.9609 53.2107 66.5858 53.5858C66.2107 53.9609 66 54.4696 66 55C66 55.0061 66 55.0123 66 55.0184C66 55.1596 65.9975 55.3072 65.9927 55.4489C65.9029 58.1508 65.0146 60.8492 65.0002 63.5511C65.0001 63.5709 65 63.5968 65 63.611C65 63.6128 65 63.6146 65 63.6164C65 63.7443 65.3333 63.8722 66 64C66.5228 64.0982 66.9671 64.1925 67.2781 64.2619C67.5951 64.3314 67.7944 64.3704 68 64.3704C68.2056 64.3704 68.4049 64.3314 68.7219 64.2619C69.0329 64.1925 69.4772 64.0982 70 64C70 64 70 64 70 64C70.6667 63.8722 71 63.7443 71 63.6164C71 63.6146 71 63.6128 71 63.611C71 63.5968 70.9999 63.5709 70.9998 63.5511C70.9854 60.8492 70.0971 58.1508 70.0073 55.4489C70.0025 55.3072 70 55.1596 70 55.0184C70 55.0123 70 55.0061 70 55Z" fill="white"/>
<path d="M113 45C113.498 44.9359 113.975 44.716 114.327 44.3474C114.679 43.9792 114.876 43.4979 114.876 43C114.876 42.5021 114.679 42.0208 114.327 41.6526C113.975 41.284 113.498 41.0641 113 41C113 41 113 41 113 41C112.163 41.0494 112.023 41.2716 111.86 41.349C111.717 41.4455 111.647 41.5109 111.589 41.5633C111.479 41.6665 111.428 41.7273 111.383 41.7792C111.297 41.8799 111.252 41.9421 111.21 41.9989C111.13 42.1094 111.078 42.1874 111.029 42.2631C110.934 42.4108 110.861 42.5341 110.791 42.6553C110.444 43.4948 110.522 43.5967 110.455 43.831C110.415 44.0347 110.383 44.2135 110.35 44.3939C110.233 45.0414 110.129 45.6666 110.028 46.2976C109.403 50.2403 109 54.1906 108.835 58.172C108.832 58.2476 108.829 58.3232 108.827 58.3986C108.678 62.1803 108.744 65.9682 108.879 69.6761C108.93 71.181 108.982 72.6684 109.003 74.1501C109.011 74.6865 109.014 75.2237 109.014 75.7675C109.013 76.2718 109.174 76.7745 109.5 77.1693C109.825 77.564 110.283 77.818 110.78 77.8762C111.278 77.9345 111.782 77.7931 112.19 77.4841C112.598 77.1752 112.871 76.7234 112.986 76.2325C112.986 76.2325 112.986 76.2325 112.986 76.2325C113.115 75.6792 113.235 75.1169 113.345 74.5535C113.649 72.993 113.87 71.4357 114.046 69.8861C114.467 66.0856 114.675 62.3567 114.822 58.6283C114.825 58.5541 114.828 58.4798 114.831 58.4053C114.978 54.4848 114.982 50.5371 114.826 46.586C114.801 45.9518 114.771 45.3114 114.741 44.6992C114.733 44.5324 114.725 44.3661 114.717 44.2264C114.688 44.1165 114.776 43.865 114.569 44.3845C114.585 44.3181 114.602 44.2563 114.605 44.2233C114.606 44.2082 114.606 44.1978 114.583 44.222C114.569 44.2358 114.554 44.2555 114.5 44.3165C114.471 44.3486 114.437 44.3896 114.346 44.4752C114.298 44.5188 114.237 44.5756 114.105 44.6651C113.952 44.7355 113.824 44.9509 113 45Z" fill="white"/>
<path d="M119 54C119.53 54.0777 120.039 53.8753 120.414 53.4933C120.789 53.1107 121 52.57 121 52C121 51.43 120.789 50.8893 120.414 50.5067C120.039 50.1247 119.53 49.9223 119 50C119.004 50.0008 118.802 49.9955 118.576 50.0454C118.349 50.0935 118.142 50.1847 118.006 50.2635C117.732 50.4249 117.639 50.5321 117.564 50.6043C117.428 50.7461 117.395 50.8025 117.358 50.8515C117.295 50.9428 117.276 50.9797 117.256 51.0152C117.219 51.0814 117.204 51.1164 117.188 51.1512C117.131 51.2544 117.024 51.5346 117.004 51.6376C116.973 51.7628 116.961 51.8465 116.953 51.9155C116.936 52.0554 116.934 52.1502 116.932 52.2402C116.93 52.4189 116.937 52.5626 116.944 52.7063C116.996 53.539 117.081 54.2719 117.156 55.0328C117.526 58.5783 117.767 62.086 117.769 65.5915C117.769 65.6252 117.769 65.6585 117.769 65.6913C117.768 66.1388 117.719 66.5866 117.61 67.0117C117.556 67.221 117.487 67.4291 117.399 67.5959C117.314 67.7576 117.19 67.9001 117.116 67.8095C117.066 67.7556 117.098 67.574 117.112 67.4686C117.125 67.3606 117.056 67.3271 116.921 67.3162C116.313 67.3513 115.981 67.7763 115.882 68.3168C115.784 68.8592 115.948 69.5047 116.316 70.0793C116.685 70.654 117.203 71.072 117.737 71.2096C118.269 71.3453 118.794 71.2212 119.079 70.6838C119.079 70.6838 119.079 70.6838 119.079 70.6838C119.188 70.5159 119.359 70.3223 119.58 70.0138C119.802 69.7088 119.994 69.2811 120.048 68.9567C120.176 67.9681 119.954 67.5889 119.897 67.08C119.815 66.6004 119.768 66.1491 119.769 65.6949C119.769 65.6617 119.769 65.6281 119.769 65.5941C119.774 62.0758 119.934 58.5443 120.357 55.0657C120.449 54.338 120.552 53.5944 120.692 52.9471C120.716 52.8426 120.741 52.7418 120.767 52.6722C120.779 52.6398 120.793 52.6116 120.799 52.6288C120.801 52.6387 120.803 52.6596 120.789 52.7258C120.786 52.7698 120.701 52.9915 120.674 53.0409C120.678 53.0399 120.682 53.0401 120.666 53.0716C120.656 53.0899 120.648 53.1097 120.596 53.1847C120.566 53.2256 120.539 53.2738 120.41 53.4085C120.338 53.4772 120.249 53.5809 119.98 53.7399C119.845 53.8174 119.641 53.9076 119.416 53.9552C119.193 54.0046 118.994 53.9992 119 54Z" fill="white"/>
<path d="M34 51C34 56 34 56.5443 34 61.0013C34 62.5843 34 62.7893 34 63.0006" stroke="white" stroke-width="4" stroke-linecap="round" stroke-linejoin="round"/>
<path d="M92 54C92 59 92 59.5443 92 64.0013C92 65.5843 92 65.7893 92 66.0006" stroke="white" stroke-width="4" stroke-linecap="round" stroke-linejoin="round"/>
<path d="M125.751 57.6713C126.165 58.0026 126.694 58.1557 127.221 58.0971C127.748 58.0385 128.231 57.7728 128.562 57.3586C128.893 56.9443 129.046 56.4154 128.988 55.8883C128.929 55.3611 128.663 54.8788 128.249 54.5475C128.249 54.5475 128.249 54.5475 128.249 54.5475C128.202 54.5154 128.128 54.4298 127.814 54.2551C127.599 54.1465 126.986 53.8361 126.133 54.1088C125.321 54.4104 125.093 54.8743 124.955 55.0821C124.855 55.2554 124.704 55.7507 124.691 55.9505C124.69 55.9684 124.689 55.9862 124.688 56.0041C124.528 58.693 124.61 61.3049 124.141 63.3612C124.141 63.3622 124.141 63.3632 124.141 63.3641L124.181 63.2225C124.177 63.2339 124.171 63.2477 124.188 63.2035C124.207 63.167 124.184 63.1785 124.321 62.9413C124.372 62.8708 124.385 62.7993 124.66 62.5286C124.746 62.4524 124.815 62.3876 125.003 62.2741C125.215 62.154 125.494 62.0212 125.948 62.001C126.428 61.9652 127.015 62.2251 127.233 62.4166C127.494 62.6164 127.658 62.8606 127.715 62.9549C127.859 63.1982 127.894 63.3358 127.922 63.4211C127.95 63.5173 127.96 63.5702 127.969 63.6162C127.986 63.7128 127.989 63.7505 127.993 63.79C128.007 64.0151 127.997 63.9509 128 63.9564C128 63.945 128.002 63.9164 128.004 63.8814C128.037 63.352 127.858 62.8312 127.507 62.4337C127.156 62.0362 126.661 61.7945 126.131 61.7617C125.602 61.729 125.081 61.9079 124.684 62.2591C124.286 62.6103 124.045 63.105 124.012 63.6344C124.012 63.6344 124.012 63.6344 124.012 63.6344C124.01 63.6702 124.007 63.7126 124.004 63.772C124.004 63.8485 123.99 63.8555 124.01 64.1512C124.014 64.1999 124.018 64.2455 124.037 64.3516C124.047 64.4019 124.058 64.459 124.087 64.5596C124.116 64.6489 124.153 64.7912 124.3 65.038C124.357 65.1338 124.523 65.3804 124.786 65.5813C125.005 65.774 125.595 66.0349 126.077 65.999C126.533 65.9787 126.814 65.8453 127.028 65.7239C127.218 65.6091 127.289 65.5433 127.376 65.4655C127.658 65.1886 127.676 65.1094 127.731 65.0317C127.886 64.7635 127.877 64.7423 127.908 64.6732C127.952 64.562 127.968 64.5094 127.987 64.4527C127.996 64.4247 128.02 64.3398 128.027 64.3111C128.027 64.3096 128.028 64.308 128.028 64.3065C128.68 61.3119 128.512 58.7105 128.679 56.2611C128.68 56.2456 128.681 56.2302 128.682 56.2148L128.418 57.0833C128.319 57.2254 128.142 57.6248 127.404 57.9015C127.049 58.0247 126.661 58.0149 126.421 57.9614C126.175 57.9089 126.036 57.8383 125.943 57.7909C125.717 57.6634 125.72 57.6415 125.751 57.6713Z" fill="white"/>
<path d="M102.433 62.0697C102.001 61.7622 101.464 61.639 100.941 61.7272C100.418 61.8153 99.9513 62.1077 99.6438 62.5399C99.3363 62.9721 99.2131 63.5088 99.3013 64.0318C99.3895 64.5549 99.6818 65.0215 100.114 65.329C100.114 65.329 100.114 65.329 100.114 65.329C100.161 65.3571 100.238 65.4372 100.56 65.5929C100.779 65.6886 101.406 65.9636 102.242 65.644C103.033 65.2979 103.234 64.8233 103.359 64.6097C103.45 64.4309 103.572 63.928 103.574 63.7277C103.574 63.7106 103.574 63.6934 103.574 63.6762C103.582 61.0945 103.365 58.6043 103.699 56.6358C103.699 56.6349 103.7 56.6339 103.7 56.633L103.668 56.7766C103.67 56.7666 103.675 56.754 103.66 56.8005C103.643 56.8387 103.665 56.8267 103.541 57.0719C103.494 57.1453 103.485 57.2176 103.225 57.5035C103.144 57.5844 103.079 57.6531 102.897 57.777C102.692 57.9089 102.421 58.0571 101.969 58.1028C101.492 58.1655 100.891 57.939 100.663 57.76C100.39 57.5752 100.213 57.3406 100.151 57.2496C99.9934 57.0147 99.9506 56.8792 99.9181 56.7955C99.8846 56.701 99.8715 56.6486 99.86 56.6031C99.8371 56.5075 99.8322 56.4698 99.826 56.4303C99.799 56.2048 99.8128 56.2669 99.8098 56.26C99.8099 56.2698 99.8099 56.2969 99.8097 56.3305C99.8067 56.8609 100.015 57.3708 100.388 57.7479C100.761 58.1251 101.268 58.3386 101.799 58.3415C102.329 58.3445 102.839 58.1366 103.216 57.7636C103.593 57.3906 103.807 56.8831 103.81 56.3527C103.81 56.3527 103.81 56.3527 103.81 56.3527C103.81 56.3183 103.81 56.2774 103.81 56.2195C103.806 56.1446 103.819 56.1384 103.783 55.8458C103.775 55.7976 103.769 55.7525 103.744 55.6479C103.732 55.5983 103.718 55.542 103.683 55.4432C103.649 55.3559 103.604 55.2159 103.444 54.9779C103.381 54.8855 103.202 54.6486 102.928 54.4628C102.698 54.2828 102.095 54.0554 101.616 54.1184C101.161 54.1643 100.889 54.3132 100.682 54.4464C100.499 54.5717 100.432 54.6414 100.349 54.7239C100.083 55.0161 100.07 55.096 100.019 55.1765C99.8797 55.4523 99.8903 55.4722 99.8629 55.5422C99.8264 55.6542 99.8135 55.7062 99.7984 55.7623C99.7909 55.7909 99.7717 55.8769 99.7664 55.906C99.7661 55.9075 99.7658 55.909 99.7655 55.9105C99.3013 58.826 99.6031 61.301 99.5746 63.644C99.5745 63.6588 99.5744 63.6735 99.5742 63.6882L99.7889 62.8063C99.8809 62.6573 100.037 62.2471 100.759 61.9288C101.107 61.7855 101.496 61.7734 101.739 61.8134C101.989 61.8522 102.133 61.9152 102.228 61.9576C102.464 62.0731 102.464 62.0964 102.433 62.0697Z" fill="white"/>
<path d="M65.4448 22.7663C65.9639 22.7437 66.4617 22.5303 66.8288 22.1573C67.1958 21.7845 67.4021 21.2852 67.4021 20.7663C67.4021 20.2473 67.1958 19.7481 66.8288 19.3753C66.4617 19.0023 65.9639 18.7889 65.4448 18.7663C65.9518 18.7779 66.1468 18.9062 66.2625 18.9546C66.3747 19.0117 66.4078 19.0373 66.422 19.0445C66.4429 19.0573 66.3845 19.006 66.2538 18.9092C66.14 18.8297 65.9894 18.7387 65.7809 18.6622C65.57 18.5826 65.2317 18.5133 64.8921 18.5488C64.5569 18.58 64.2471 18.6996 64.0143 18.846C63.7939 18.9867 63.6899 19.0914 63.5829 19.2059C63.2379 19.6177 63.2407 19.7407 63.1829 19.8575C63.1073 20.0624 63.0993 20.1267 63.082 20.1978C63.056 20.3199 63.0492 20.3725 63.0404 20.4288C63.0253 20.5323 63.0178 20.5976 63.0101 20.6637C62.9954 20.7925 62.9847 20.9017 62.9744 21.0085C62.9542 21.2199 62.937 21.4214 62.9204 21.622C62.8873 22.0236 62.8574 22.4129 62.8279 22.8092C62.7655 23.6474 62.7066 24.483 62.6488 25.3166C62.5111 27.2964 62.3824 29.279 62.2472 31.2419C62.1228 33.0823 61.9018 34.6922 61.5166 36.5312C61.4779 36.7381 61.4357 36.9516 61.4037 37.2831C61.3647 37.587 61.3883 38.2133 61.4788 38.5796C61.6715 39.4425 61.9649 40.1807 62.6167 41.003C63.335 41.8191 63.7219 42.0314 64.1084 42.3567C64.486 42.6539 64.8249 42.9227 65.1616 43.2023C66.1839 44.0232 67.0415 44.633 67.8545 45.2889C68.6612 45.9361 69.555 46.7052 70.5419 47.4314C71.9026 48.4544 73.688 49.6386 74.6663 50.3305C74.9522 50.5584 75.2482 50.7841 75.5985 51.0207C75.7754 51.1394 75.9636 51.2605 76.2037 51.3942C76.4701 51.527 76.6556 51.6791 77.411 51.871C78.7377 52.106 79.2786 51.7397 79.4333 51.7299C80.3571 51.4053 80.6546 51.1503 81.0184 50.9358C81.3564 50.7196 81.6338 50.5309 81.9061 50.3499C82.445 49.99 82.9484 49.6651 83.4665 49.3562C85.1671 48.3337 86.8067 47.3355 88.5449 46.1398C88.5872 46.1102 88.6333 46.0778 88.676 46.0475C89.4734 45.4799 90.1011 45.1956 91.4785 44.5087C91.7984 44.3375 92.087 44.2104 92.3808 44.1123C92.7106 43.9838 92.8831 44.0367 94.0643 43.5898C94.9876 43.167 95.3176 42.6658 95.5376 42.385C95.7504 42.0856 95.8485 41.8902 95.9315 41.7321C96.0882 41.4222 96.1592 41.2567 96.2156 41.1465C96.5792 40.4543 96.8055 39.5729 96.8763 38.9544C96.944 38.3814 96.931 38.138 96.9404 37.844C96.9452 37.563 96.9473 37.298 96.9493 37.0322C96.9598 35.2206 96.9437 33.4424 96.9196 31.6551C96.8849 29.3003 96.8408 26.9683 96.757 24.5831C96.7447 24.2573 96.7316 23.934 96.7114 23.583C96.7007 23.4038 96.6898 23.225 96.6669 22.9902C96.6542 22.8687 96.6424 22.7413 96.6028 22.5177C96.5805 22.4016 96.5549 22.2577 96.4756 22.0141C96.4141 21.7934 96.1798 21.3377 96.0616 21.1868C95.2435 20.1099 94.6142 19.9583 94.5089 19.8531C94.6617 19.9955 94.2871 19.6625 93.9726 19.2157C93.6006 18.7486 93.3184 18.1958 92.3782 17.3083C90.8495 15.9636 89.0511 14.5787 87.6262 13.5074C87.5136 13.4314 87.2212 13.1259 86.9319 12.7832C86.6159 12.4227 86.3573 12.0561 85.7413 11.4462C85.6163 11.3299 85.4811 11.1981 85.2046 11.0028C84.9497 10.8361 84.3767 10.4321 83.4055 10.4463C82.3899 10.5185 82.092 10.7431 81.7588 10.8642C81.4485 11.0005 81.2013 11.1235 80.9602 11.243C80.4817 11.4819 80.0324 11.7119 79.5816 11.9382C78.6819 12.391 77.7766 12.8338 76.865 13.2677C75.5747 13.87 74.5281 14.6469 73.6298 15.2662C73.0924 15.6532 72.0239 16.1216 71.0391 16.5531L71.1947 16.4975C70.7553 16.6514 70.3139 16.8018 69.8707 16.9494C68.4135 17.4362 66.9621 17.8752 65.4306 18.3452C65.4109 18.3499 65.3532 18.3689 65.3338 18.3746C65.2482 18.4082 65.1044 18.4431 64.809 18.6147C64.5344 18.7585 63.9751 19.2667 63.8177 19.8998C63.6584 20.5107 63.7633 20.8728 63.8158 21.0996C63.8794 21.3304 63.9433 21.4663 63.9992 21.5828C64.2391 22.0462 64.6459 22.4066 65.1415 22.5794C65.6369 22.7523 66.1786 22.7243 66.6496 22.5005C67.1205 22.2768 67.4844 21.8745 67.6633 21.3812C67.8423 20.8878 67.8198 20.3448 67.6121 19.8661C67.6121 19.8661 67.6121 19.8661 67.6121 19.8661C67.6273 19.8967 67.6552 19.945 67.6947 20.0842C67.7237 20.2203 67.8157 20.4846 67.6823 21.0039C67.5497 21.5446 67.062 21.9804 66.8686 22.0772C66.6548 22.2006 66.601 22.2039 66.605 22.2076L66.5081 22.237C67.9943 21.8883 69.5711 21.5201 71.1114 21.1091C71.5836 20.9837 72.0561 20.8542 72.5289 20.7198C72.5602 20.7089 72.6542 20.6774 72.6846 20.6642C73.7614 20.2511 74.7996 19.9412 76.1543 19.1388C77.169 18.5134 78.0097 17.9807 78.8162 17.6629C79.7804 17.2644 80.7479 16.8501 81.701 16.4275C82.1752 16.2178 82.6556 16.0003 83.1034 15.8026C83.3238 15.7057 83.5456 15.61 83.7075 15.5491C83.8465 15.4795 84.0339 15.5021 83.5337 15.5539C83.1776 15.5671 82.8279 15.4751 82.6296 15.391C82.4242 15.3055 82.3234 15.2357 82.2594 15.1935C82.138 15.108 82.1434 15.1048 82.155 15.1211C82.244 15.2177 82.5819 15.657 82.8992 16.0665C83.2418 16.495 83.5897 16.9625 84.2376 17.5345C85.9433 18.9399 87.2728 20.0444 88.7054 21.3877C88.6964 21.3691 89.0929 21.9095 89.4705 22.4651C89.9031 23.0375 90.2929 23.7607 91.5175 24.6005C91.7192 24.7285 91.8192 24.7914 91.8041 24.7858C91.7939 24.778 91.6333 24.6863 91.4258 24.3968C91.353 24.3096 91.1543 23.925 91.1165 23.7784C91.0617 23.6092 91.0526 23.5427 91.0441 23.5036C91.0313 23.4329 91.0361 23.4623 91.0376 23.4964C91.0424 23.5736 91.0481 23.7077 91.0521 23.8425C91.0601 24.1159 91.0645 24.418 91.0679 24.7225C91.0873 27.0106 91.0792 29.361 91.0701 31.6823C91.0612 33.4453 91.0493 35.2178 91.0175 36.9542C91.0125 37.2112 91.0072 37.4678 91.0003 37.7091C90.9951 37.9378 90.9779 38.2167 90.9789 38.1619C90.9411 38.3977 90.9378 38.3607 90.9044 38.4353C90.7671 38.7032 90.6653 38.9256 90.6279 38.9937C90.6133 39.0239 90.6084 39.015 90.6972 38.8881C90.7935 38.7774 90.9747 38.4403 91.7016 38.1028C91.9535 38.03 91.1261 38.2275 90.511 38.4276C89.8555 38.6406 89.228 38.9193 88.6636 39.219C87.9039 39.5924 86.3491 40.3136 85.2063 41.1525C85.1749 41.1748 85.1398 41.1995 85.1068 41.2225C83.6516 42.2252 81.9884 43.2587 80.3766 44.2499C79.7504 44.6324 79.138 45.0402 78.5732 45.4296C78.2925 45.6226 78.0209 45.812 77.7979 45.9598C77.6 46.103 77.33 46.2158 77.6209 46.1048C77.5447 46.1317 77.5554 46.1212 77.7092 46.0894C77.8571 46.0619 78.2008 46.0044 78.6751 46.1075C79.1303 46.2289 79.0354 46.2388 79.0316 46.2259C79.0009 46.2112 78.9269 46.1685 78.8463 46.1169C78.6817 46.0118 78.4817 45.8691 78.2811 45.7163C76.4291 44.4459 75.3046 43.7874 73.8752 42.7843C73.0477 42.2178 72.229 41.5634 71.2716 40.852C70.3036 40.1338 69.3004 39.4722 68.544 38.9173C68.1396 38.6112 67.7265 38.3143 67.3491 38.0453C66.989 37.798 66.5919 37.4693 66.6886 37.5725C66.7332 37.6568 66.6207 37.5013 66.6026 37.4337C66.6121 37.4585 66.6199 37.7308 66.6104 37.6857C66.6062 37.6676 66.6186 37.5354 66.6378 37.3956C66.9315 35.5153 67.1002 33.3572 67.0961 31.4185C67.1026 29.4202 67.0902 27.4377 67.0759 25.4536C67.0698 24.6195 67.0627 23.7828 67.0568 22.9533C67.0543 22.562 67.0518 22.1779 67.0514 21.7954C67.0513 21.6054 67.0516 21.4155 67.0533 21.2395C67.0541 21.1522 67.0555 21.0643 67.0568 20.9982C67.0572 20.9669 67.0584 20.9369 67.0557 20.9426C67.0535 20.9489 67.0533 20.9553 67.0373 21.029C67.0253 21.075 67.0229 21.1162 66.9558 21.2984C66.9025 21.4038 66.9102 21.5154 66.5732 21.9181C66.4684 22.0302 66.3663 22.1333 66.1486 22.2723C65.9185 22.4169 65.6116 22.5356 65.2793 22.5665C64.9427 22.6017 64.6076 22.5329 64.3995 22.4543C64.1937 22.3788 64.0458 22.2894 63.9347 22.2117C63.9163 22.1938 63.9646 22.2293 64.0975 22.3216C64.1676 22.3685 64.2581 22.4322 64.4313 22.5208C64.6079 22.6001 64.8688 22.7543 65.4448 22.7663Z" fill="#1E1E1E"/>
<path d="M79.8598 70.6399C80.1244 70.2462 80.3201 69.793 80.3544 69.3156C80.3889 68.8385 80.2623 68.3804 79.9863 68.021C79.7104 67.6616 79.3005 67.4211 78.8306 67.3313C78.3606 67.2413 77.8722 67.3133 77.4236 67.4673C77.4236 67.4673 77.4236 67.4673 77.4236 67.4673C77.5165 67.362 77.3957 67.4106 77.3416 67.4059C77.2739 67.4117 77.1965 67.4224 77.1185 67.433C76.9616 67.4549 76.7947 67.4811 76.6283 67.5074C76.2932 67.5612 75.9514 67.6201 75.6092 67.6848C74.3345 68.0684 73.6844 68.3347 72.8394 68.6913C72.6276 68.7829 72.417 68.8776 72.2075 68.9756C72.1431 69.0055 72.0752 69.0371 72.0052 69.0699C70.7449 69.6538 69.2698 70.2135 67.7403 70.8649C66.5194 71.3839 65.1868 71.9919 64.1359 72.4371C63.8561 72.5003 62.8323 73.1746 62.5244 73.8004C62.1853 74.3901 62.1508 74.6749 62.0909 74.8933C62.001 75.3049 61.9883 75.4999 61.9647 75.7025C61.925 76.0924 61.9048 76.3984 61.8819 76.7166C61.7315 78.9626 61.6218 81.1324 61.4836 83.3052C61.378 84.9895 61.2524 86.6513 61.1235 88.3713C61.1072 88.5971 61.0911 88.819 61.0766 89.0802C61.0698 89.2139 61.062 89.3481 61.0606 89.5613C61.0613 89.6734 61.0586 89.7959 61.0832 90.0461C61.0974 90.1731 61.1168 90.3382 61.1837 90.5896C61.2469 90.836 61.3981 91.2148 61.5984 91.5118C62.7416 93.0073 63.31 93.0968 63.4519 93.308C64.0434 93.8602 64.904 94.8992 66.1144 95.8032C67.7884 97.0302 69.3491 97.9241 70.7544 98.8789C71.7411 99.5405 72.5219 99.9033 73.1453 100.295C74.6255 101.185 75.8122 102.041 77.7343 103.11C77.8825 103.186 78.0456 103.266 78.2595 103.355C78.4633 103.442 78.7761 103.545 78.979 103.594C80.447 103.891 81.1618 103.882 82.7261 103.487C83.925 103.024 84.1062 102.693 84.4678 102.424C84.7803 102.153 85.022 101.922 85.2554 101.705C85.7161 101.272 86.1255 100.899 86.5394 100.568C87.5445 99.7501 89.0771 98.9625 90.6678 97.8513C91.4381 97.3088 92.2025 96.7862 92.972 96.292C93.3528 96.0476 93.7358 95.8101 94.1097 95.5913C94.298 95.4813 94.4814 95.3774 94.6675 95.2764C94.7608 95.2257 94.8518 95.1774 94.962 95.1195C95.017 95.0904 95.0775 95.0591 95.1675 95.0102C95.2153 94.984 95.2704 94.954 95.3562 94.9023C95.4485 94.8426 95.5605 94.7882 95.8257 94.5574C96.5388 93.8987 96.7777 93.2607 96.9324 92.9102C97.0779 92.5453 97.1494 92.367 97.1417 92.382C97.5278 91.633 97.4961 91.3321 97.5413 91.0645C97.5662 90.8098 97.5673 90.6275 97.567 90.464C97.5645 90.1404 97.548 89.8879 97.5319 89.641C97.4986 89.1548 97.4604 88.7169 97.4266 88.2763C97.3117 86.9237 97.1002 85.8702 96.9992 84.8831C96.8282 83.3008 96.8685 81.7015 96.9826 79.9348C97.0208 79.0384 97.0874 78.2725 96.8193 76.9777C96.736 76.6131 96.5529 76.1702 96.3294 75.8354C95.8446 75.1262 95.4316 74.8898 95.1518 74.6816C94.8639 74.4847 94.6395 74.3503 94.425 74.2172C94.0007 73.9565 93.6244 73.7191 93.245 73.4601C92.0497 72.6253 90.2192 71.0001 88.5575 69.9963C87.5224 69.305 86.0212 68.5548 85.5875 68.2569C85.2095 67.9623 84.8308 67.6664 84.4381 67.3653C83.9663 67.0187 83.5355 66.6288 82.686 66.1966C81.6156 65.7599 81.3621 65.978 81.1329 65.9579C80.9184 65.9806 80.7765 66.0026 80.6326 66.0219C80.3509 66.0608 80.0921 66.0927 79.8222 66.119C79.7354 66.1236 79.4876 66.1722 79.4036 66.1948C78.7814 66.3723 78.1831 66.7649 77.8863 66.9936L77.898 66.9854C77.7872 67.0654 77.5214 67.262 77.3496 67.4185C76.959 67.7693 76.7157 68.2582 76.6783 68.7838C76.6408 69.3094 76.8115 69.8275 77.1538 70.2252C77.496 70.623 77.9828 70.8692 78.508 70.9106C79.0333 70.9522 79.5531 70.7846 79.9583 70.4508C79.9583 70.4508 79.9583 70.4508 79.9583 70.4508C80.0401 70.3864 80.0467 70.3856 80.212 70.2741C80.2143 70.2724 80.2214 70.2676 80.2237 70.2659C80.4881 70.0865 80.4923 70.1087 80.5427 70.0969L80.1241 70.1727C80.4527 70.1548 80.7891 70.1274 81.1025 70.0971C81.2552 70.0826 81.4115 70.0668 81.4947 70.0627C81.5328 70.0602 81.5552 70.0639 81.485 70.0646C81.4227 70.0603 81.1973 70.0724 80.8261 69.8943C80.9772 69.9716 81.4077 70.3141 81.8158 70.6551C82.1697 70.9498 82.5354 71.2594 82.8995 71.5671C84.4328 72.6832 85.1482 72.9532 86.1009 73.6521C87.7029 74.7233 88.677 75.7558 90.5715 77.2225C91.0159 77.55 91.4798 77.8652 91.9061 78.1477C92.1156 78.287 92.3184 78.4219 92.4418 78.5147C92.5708 78.599 92.5684 78.6741 92.3602 78.3897C92.296 78.3004 92.2259 78.1319 92.2081 78.0525C92.2413 78.2259 92.2533 78.973 92.1874 79.5664C92.0123 81.3586 91.8858 83.3429 92.0406 85.3229C92.1355 86.563 92.3177 87.7164 92.3596 88.5944C92.3817 89.0524 92.4078 89.5084 92.4241 89.9187C92.4321 90.1214 92.4367 90.3174 92.4329 90.4424C92.4315 90.5017 92.4258 90.5471 92.4272 90.5143C92.4468 90.4689 92.3791 90.3959 92.6572 89.8439C92.3665 90.3594 92.2456 90.7248 92.1672 90.888C92.0984 91.0626 92.0768 90.9554 92.3586 90.6824C92.5794 90.4911 92.6406 90.4691 92.6806 90.441C92.7157 90.4196 92.7181 90.4186 92.7116 90.4216C92.697 90.4285 92.6463 90.4537 92.5959 90.4785C92.4896 90.5308 92.3662 90.592 92.2468 90.6528C92.004 90.7762 91.7654 90.9031 91.5316 91.0317C91.066 91.2878 90.6181 91.5504 90.1829 91.8141C89.3053 92.3468 88.4726 92.8869 87.642 93.4423C86.4274 94.2685 84.873 94.9851 83.1784 96.2585C82.5759 96.7187 82.0239 97.2052 81.536 97.6438C81.2939 97.861 81.0637 98.0685 80.8863 98.2151C80.7997 98.287 80.7242 98.3434 80.702 98.3565C80.6902 98.3709 80.6888 98.3289 81.0243 98.2082C81.2114 98.1532 81.0386 98.1986 80.9766 98.2002C80.8916 98.2093 80.7966 98.2148 80.7107 98.215C80.5387 98.2171 80.3922 98.191 80.3772 98.1814C80.352 98.1723 80.441 98.2001 80.4281 98.1954C80.4247 98.1929 80.3769 98.1699 80.3156 98.1366C79.2422 97.5151 77.6133 96.3786 76.1634 95.466C75.2914 94.9109 74.4776 94.4934 74.0049 94.1514C72.4229 93.0481 70.8484 92.0984 69.6113 91.1582C69.0492 90.7375 68.4886 90.065 67.5018 89.0804C67.1084 88.7031 66.77 88.4521 66.5669 88.2854C66.3609 88.1307 66.3146 88.0207 66.5073 88.2829C66.6775 88.5344 66.8075 88.8625 66.8565 89.056C66.9093 89.2551 66.9205 89.3659 66.929 89.4388C66.9426 89.5799 66.9383 89.5933 66.9395 89.5965C66.9398 89.5922 66.9433 89.5076 66.949 89.424C66.9605 89.2483 66.9775 89.0373 66.9949 88.8263C67.1373 87.1521 67.2838 85.4179 67.4044 83.7027C67.5616 81.4966 67.6883 79.279 67.8413 77.1483C67.8636 76.8528 67.8866 76.5539 67.9106 76.3324C67.9195 76.2345 67.9425 76.1202 67.9194 76.2358C67.8945 76.3049 67.9021 76.4408 67.6416 76.8988C67.5113 77.1216 67.2558 77.4314 66.9744 77.6413C66.6936 77.8546 66.4693 77.9459 66.3819 77.9825C67.7831 77.3949 68.8661 76.8971 70.0974 76.3771C71.4675 75.794 72.9471 75.2424 74.5488 74.5041C74.6433 74.4598 74.7383 74.4139 74.8338 74.3659C75.062 74.2506 75.2883 74.1291 75.5118 74.0017C76.3326 73.539 77.2862 72.8571 77.6954 72.4586C78.038 72.2239 78.3734 71.9716 78.7066 71.6938C78.8724 71.5552 79.0394 71.4093 79.2088 71.2527C79.2934 71.1744 79.3806 71.0923 79.472 71.0039C79.5788 70.9031 79.618 70.8559 79.8598 70.6399Z" fill="#1E1E1E"/>
<path d="M71.1377 24.0047C70.6166 23.8515 70.0954 24.0142 69.6947 24.3729C69.2939 24.7325 69.0454 25.2736 69.0047 25.8623C68.9641 26.451 69.136 27.0211 69.4836 27.4324C69.8312 27.8428 70.3251 28.0755 70.8623 27.9953C70.8623 27.9953 70.8623 27.9953 70.8623 27.9953C70.6807 27.9612 70.8074 27.9575 70.8288 27.9487C70.8717 27.9415 70.9243 27.9375 70.9786 27.935C71.088 27.9303 71.2056 27.9318 71.3249 27.9375C71.6852 27.9551 72.0566 28.0092 72.4162 28.0939C74.2075 28.5329 75.0535 28.2991 76.2435 28.4168C77.3645 28.4858 78.5938 28.6664 79.8051 28.7796C79.857 28.7847 79.9089 28.7897 79.9613 28.7948C80.9616 28.892 81.9564 29.0141 82.9475 29.1688C83.4435 29.2464 83.936 29.3317 84.4188 29.4308C84.6596 29.4805 84.8968 29.5335 85.1162 29.5928C85.2229 29.6222 85.3305 29.654 85.4118 29.6864C85.4716 29.7085 85.6212 29.7872 85.3767 29.723C85.4634 29.8012 85.5551 29.8956 85.6817 30.0223C85.8248 30.1516 85.9214 30.3027 86.3838 30.5711C86.4073 30.588 86.4931 30.6086 86.5179 30.6235C86.5514 30.6386 86.5855 30.6534 86.6203 30.6676C86.913 30.788 87.2545 30.8715 87.6134 30.8889C88.0383 30.9094 88.4121 30.8414 88.6993 30.7741C89.2411 30.7089 89.6488 30.3465 89.8651 29.8533C90.081 29.3591 90.0821 28.7593 89.8738 28.2011C89.6654 27.6428 89.2717 27.1903 88.7848 26.9585C88.2983 26.7275 87.7528 26.7209 87.3007 27.0266C87.3007 27.0266 87.3007 27.0266 87.3007 27.0266C87.297 27.068 87.3654 27.0784 87.4788 27.1096C87.5681 27.1369 87.639 27.1812 87.674 27.2225C87.6782 27.2274 87.682 27.2323 87.6853 27.237L87.8194 27.2894C87.8916 27.3806 87.6369 27.2821 87.4135 27.1909C87.1754 27.094 86.8921 26.9795 86.5845 26.8898C86.112 26.735 86.0115 26.7783 85.8272 26.7635C85.664 26.7613 85.5189 26.7664 85.3829 26.7728C85.1072 26.7856 84.8519 26.8035 84.5961 26.8193C84.0868 26.8515 83.5932 26.8777 83.0966 26.8901C82.1067 26.9158 81.1257 26.8892 80.1458 26.8027C80.0971 26.7984 80.049 26.7939 80.0008 26.7892C78.8654 26.6826 77.7788 26.4255 76.5722 26.14C76.0128 26.0102 75.4546 25.8754 74.923 25.7239C74.4216 25.5816 73.7964 25.3705 73.733 25.2253C73.2967 24.9451 72.8479 24.6895 72.3701 24.455C72.2105 24.3771 72.0491 24.3019 71.8756 24.2286C71.7887 24.192 71.6994 24.156 71.6005 24.1202C71.4805 24.0835 71.4616 24.0512 71.1377 24.0047Z" fill="#1E1E1E"/>
<path d="M72.0058 38.121C72.5362 38.3385 73.0449 38.1511 73.42 37.7567C73.7951 37.3606 74.0058 36.7623 74.0058 36.121C74.0058 35.4797 73.7951 34.8813 73.42 34.4853C73.0449 34.0908 72.5362 33.9035 72.0058 34.121C72.0364 34.1213 72.0736 34.1221 72.126 34.1256C72.1635 34.1302 72.2749 34.1287 72.5111 34.1887C72.5438 34.1975 72.5695 34.2046 72.6187 34.2205C72.6972 34.2464 72.7921 34.2814 72.9134 34.3434C73.1361 34.4667 73.5786 34.7064 73.8634 35.4002C74.0032 35.7365 74.034 36.2261 73.9474 36.5643C73.8659 36.9139 73.7224 37.1484 73.605 37.3085C73.4849 37.4692 73.3816 37.5653 73.2976 37.6379C73.255 37.6741 73.2232 37.6987 73.1908 37.7228C72.9435 37.8994 72.8387 37.9277 72.8001 37.9479C72.5937 38.0313 72.6013 38.0173 72.5609 38.03C72.5029 38.0437 72.49 38.0434 72.4745 38.0445C72.4489 38.0451 72.4446 38.0405 72.4413 38.036C72.4367 38.0265 72.4462 38.0145 72.4571 38.0026C72.4801 37.9785 72.5143 37.9535 72.5505 37.9289C72.6234 37.8797 72.7067 37.8318 72.7927 37.7856C72.812 37.7658 72.8369 37.7461 72.8658 37.727C73.8099 37.2415 75.3028 37.126 76.5641 37.1228C76.6627 37.1233 76.7625 37.1248 76.8606 37.1272C78.207 37.1579 79.5231 37.2191 80.8195 37.3865L80.7964 37.3852C82.4737 37.6397 84.631 38.0373 85.7287 38.5107L85.6673 38.4925C85.6769 38.4999 85.6873 38.5076 85.6997 38.5161C85.8545 38.6174 86.1384 38.7692 86.3637 38.8961C86.8332 39.1641 87.379 39.1368 87.8569 38.8917C88.335 38.6459 88.7103 38.1898 88.8961 37.6363C89.0818 37.0828 89.0576 36.4926 88.8246 36.0082C88.5913 35.5244 88.1725 35.1734 87.6363 35.1039C87.3835 35.0718 87.1949 35.0535 86.8739 34.9919C86.8429 34.9859 86.8099 34.9795 86.7759 34.9731C86.7632 34.9715 86.7273 34.9562 86.7146 34.955C84.278 34.8828 82.8494 35.1004 80.9561 35.0835C80.9514 35.0835 80.9376 35.082 80.933 35.0821C79.5705 35.1166 78.2244 35.1581 76.9098 35.1278C76.8146 35.1255 76.7182 35.1217 76.6237 35.1166C75.3131 35.0624 74.2394 34.6884 72.6141 34.3044C72.544 34.2926 72.4711 34.2818 72.3942 34.2729C72.2784 34.2497 72.1611 34.2262 72.0337 34.2047C71.9692 34.1941 71.9034 34.1838 71.8268 34.1761C71.788 34.1724 71.7473 34.1691 71.6929 34.1692C71.6649 34.1695 71.6361 34.1699 71.5857 34.1762C71.5574 34.1802 71.5326 34.1828 71.4622 34.2C71.4161 34.2143 71.4178 34.2021 71.2052 34.2881C71.1656 34.3088 71.0586 34.3381 70.8104 34.5154C70.7778 34.5396 70.746 34.5643 70.7033 34.6006C70.619 34.6734 70.5155 34.7696 70.3953 34.9305C70.2777 35.0909 70.1341 35.3256 70.0526 35.6753C69.9659 36.0136 69.9968 36.5035 70.1366 36.8398C70.4216 37.5339 70.8643 37.7739 71.0874 37.8974C71.2089 37.9595 71.304 37.9946 71.3829 38.0205C71.4322 38.0365 71.4581 38.0436 71.4909 38.0524C71.7282 38.1128 71.842 38.1116 71.8806 38.1162C71.9345 38.1197 71.9733 38.1206 72.0058 38.121Z" fill="#1E1E1E"/>
<path d="M72.4258 83.429C72.9041 83.6938 73.4463 83.6354 73.9086 83.3586C74.3711 83.0809 74.7202 82.5914 74.8747 82.0139C75.0292 81.4364 74.9712 80.838 74.7091 80.3664C74.4468 79.8958 74.0061 79.5744 73.4596 79.5649C73.2116 79.5578 73.0171 79.5602 72.7927 79.5498C72.7842 79.5627 72.7792 79.571 72.857 79.6197C72.899 79.6482 72.9538 79.6717 73.1142 79.7971C73.1946 79.8664 73.3153 79.9529 73.4884 80.2128C73.6614 80.4406 73.8751 81.1055 73.6897 81.6403C73.4888 82.2339 73.2083 82.399 73.0736 82.5095C72.9266 82.6121 72.8411 82.6451 72.7761 82.6712C72.6513 82.717 72.6049 82.7179 72.5719 82.7197C72.512 82.7192 72.5211 82.7011 72.5379 82.6864C72.5771 82.655 72.6694 82.6244 72.7668 82.5989C74.7187 82.2148 76.8626 82.1434 78.941 82.1115C78.9646 82.1112 78.9884 82.111 79.0121 82.1107C80.3334 82.0989 81.6535 82.1227 82.8936 82.299C84.0598 82.469 85.2179 82.7817 86.1091 83.2983L86.0576 83.2815C86.1754 83.3599 86.3024 83.4517 86.4927 83.5689C86.5209 83.5861 86.5507 83.6038 86.583 83.6223C86.7185 83.7131 87.2035 83.8722 87.4703 83.9064C87.7546 83.9533 87.9496 83.9693 88.1305 83.987C88.6675 84.0692 89.1622 83.8383 89.5113 83.4291C89.8603 83.0191 90.0343 82.4496 89.9957 81.8607C89.9572 81.2718 89.7106 80.7298 89.3111 80.3688C88.9117 80.0086 88.3911 79.844 87.8695 79.9955C87.8695 79.9955 87.8695 79.9955 87.8695 79.9955C87.7923 80.0296 87.7294 80.0553 87.7567 80.0835C87.7655 80.1015 87.9984 80.1949 87.8946 80.1897C87.8738 80.1879 87.8507 80.185 87.8259 80.1813C87.6532 80.155 87.419 80.0991 87.1674 80.051C87.1567 80.0494 87.1267 80.0355 87.1159 80.0342C85.6349 79.8242 84.3055 79.8728 82.9982 79.9262C81.6111 79.9953 80.3002 80.1 78.9927 80.1108C78.9693 80.1111 78.9461 80.1113 78.9228 80.1114C76.8829 80.1337 74.9144 79.8096 72.7507 79.4017C72.5849 79.3777 72.4125 79.3554 72.19 79.3509C72.0761 79.35 71.954 79.3502 71.7659 79.3803C71.6692 79.3977 71.559 79.4172 71.3742 79.4892C71.2789 79.5287 71.164 79.5771 70.9906 79.6991C70.8298 79.8292 70.5245 80.0189 70.314 80.6444C70.1197 81.2078 70.3417 81.9038 70.5311 82.1561C70.7205 82.4405 70.8638 82.5474 70.9674 82.6344C71.1752 82.7952 71.283 82.8459 71.3787 82.8989C71.5686 82.9976 71.6808 83.0435 71.7903 83.0902C71.9987 83.2024 72.239 83.3229 72.4258 83.429Z" fill="#1E1E1E"/>
<path d="M71.0019 91C71.4801 90.8997 71.9387 90.6726 72.2768 90.3083C72.6149 89.9443 72.8049 89.4795 72.8049 89C72.8049 88.5205 72.6149 88.0557 72.2768 87.6917C71.9387 87.3274 71.4801 87.1003 71.0019 87C71.001 86.9999 71.0004 86.9998 71.0001 86.9996C71.0001 86.9996 71 86.9996 71 86.9996C71 86.9996 71 86.9996 71 86.9996C71 86.9996 71 86.9996 71 86.9996C71 86.9996 71 86.9996 71 86.9996C71 86.9996 71 86.9996 71 86.9996C71 86.9996 71 86.9996 71 86.9996C71 86.9996 71 86.9996 71 86.9996C71 86.9996 71 86.9996 71 86.9996C71 86.9996 71 86.9996 71 86.9996C71 86.9996 71 86.9996 71 86.9996C71 95.4457 71 89.6668 71 91.0004C71 91.0004 71 91.0004 71 91.0004C71 91.0004 71 91.0004 71 91.0004C71 91.0004 71 91.0004 71 91.0004C71 91.0004 71 91.0004 71 91.0004C71 91.0004 71 91.0004 71 91.0004C71 91.0004 71.0001 91.0004 71.0003 91.0005C71.0009 91.0005 71.0006 91.0005 71.0008 91.0005C71.001 91.0006 71.0012 91.0007 71.0015 91.0007C71.0026 91.001 71.0042 91.0012 71.005 91.0015C71.0071 91.0019 71.0102 91.0024 71.012 91.0029C71.0168 91.0039 71.0213 91.0049 71.026 91.0058C71.0355 91.0078 71.0456 91.0097 71.0541 91.0117C71.0735 91.0155 71.0914 91.0194 71.1104 91.0232C71.1475 91.0309 71.1856 91.0386 71.2229 91.0462C71.2985 91.0614 71.3737 91.0765 71.448 91.0913C71.5966 91.121 71.7492 91.15 71.8981 91.1783C72.3836 91.2699 72.8719 91.3539 73.3582 91.4302C75.779 91.8101 78.2029 92 80.6248 92C80.6353 92 80.6459 92 80.6564 92C82.3641 91.9984 84.0732 91.8721 85.7803 91.6211C86.4377 91.5245 87.0939 91.4096 87.7504 91.2761C87.8671 91.2525 87.9834 91.2282 88.0999 91.2034C88.4 91.1394 88.6996 91.0716 89 91C89.4709 90.8864 89.9225 90.6562 90.2554 90.2935C90.5884 89.9313 90.7754 89.4727 90.7754 89C90.7754 88.5273 90.5884 88.0687 90.2554 87.7065C89.9225 87.3438 89.4709 87.1136 89 87C89 87 89 87 89 87C88.6996 86.9284 88.4 86.8606 88.0999 86.7966C87.9834 86.7718 87.8671 86.7475 87.7504 86.7239C87.0939 86.5904 86.4377 86.4755 85.7803 86.3789C84.0732 86.1279 82.3641 86.0016 80.6564 86C80.6459 86 80.6353 86 80.6248 86C78.2029 86 75.779 86.1899 73.3582 86.5698C72.8719 86.6461 72.3836 86.7301 71.8981 86.8217C71.7492 86.85 71.5966 86.879 71.448 86.9087C71.3737 86.9235 71.2985 86.9386 71.2229 86.9538C71.1856 86.9614 71.1475 86.9691 71.1104 86.9768C71.0914 86.9806 71.0735 86.9845 71.0541 86.9883C71.0456 86.9903 71.0355 86.9922 71.026 86.9942C71.0213 86.9951 71.0168 86.9961 71.012 86.9971C71.0102 86.9976 71.0071 86.9981 71.005 86.9985C71.0042 86.9988 71.0026 86.999 71.0015 86.9993C71.0012 86.9993 71.001 86.9994 71.0008 86.9995C71.0006 86.9995 71.0009 86.9995 71.0003 86.9995C71.0001 86.9996 71 86.9996 71 86.9996C71 86.9996 71 86.9996 71 86.9996C71 86.9996 71 86.9996 71 86.9996C71 86.9996 71 86.9996 71 86.9996C71 86.9996 71 86.9996 71 86.9996C71 86.9996 71 86.9996 71 86.9996C71 88.3332 71 82.5543 71 91.0004C71 91.0004 71 91.0004 71 91.0004C71 91.0004 71 91.0004 71 91.0004C71 91.0004 71 91.0004 71 91.0004C71 91.0004 71 91.0004 71 91.0004C71 91.0004 71 91.0004 71 91.0004C71 91.0004 71 91.0004 71 91.0004C71 91.0004 71 91.0004 71 91.0004C71 91.0004 71 91.0004 71 91.0004C71 91.0004 71 91.0004 71 91.0004C71 91.0004 71.0001 91.0004 71.0001 91.0004C71.0004 91.0002 71.001 91.0001 71.0019 91Z" fill="#1E1E1E"/>
</svg>
