<svg width="160" height="113" viewBox="0 0 160 113" fill="none" xmlns="http://www.w3.org/2000/svg">
<path d="M82.5 28.5L73.5 48.5L97 50C99.1667 45.3333 103.6 35.5 104 33.5C104.4 31.5 103.167 30.6667 102.5 30.5C98.3333 28.8333 89.4 25.3 87 24.5C84.6 23.7 83 26.8333 82.5 28.5Z" fill="white"/>
<path d="M48.5004 33C46.9004 30.6 48.1671 26.6667 49.0004 25L56 17.5L60 18C62.6667 19.5 68.1 22.9 68.5 24.5C68.9 26.1 68.3333 31.1667 68 33.5L66 42.5C64.6667 42.1667 61.1 41.4 57.5 41C53 40.5 50.5004 36 48.5004 33Z" fill="white"/>
<path d="M90.5102 67.605C90.416 67.605 90.1851 67.4578 89.7902 67.2528C89.5987 67.1534 89.3406 67.2315 89.1949 67.3783C88.8679 67.7079 88.9536 68.6785 89.0045 69.8183C89.0272 70.3267 89.1572 70.6866 89.3047 71.0085C89.4521 71.3305 89.6421 71.6021 89.898 71.8529C90.1539 72.1037 90.4701 72.3255 90.8465 72.502C91.617 72.8632 92.5641 72.9595 93.4057 72.9991C93.7728 73.0164 94.0193 73.0024 94.2685 72.9602C94.7712 72.8751 95.4172 72.5485 96.146 72.116C96.4857 71.9143 96.7091 71.6815 96.9103 71.4487C97.3032 70.9941 97.5433 70.4379 97.7433 69.8254C97.9637 69.1507 97.9696 68.2209 97.9454 67.2622C97.9349 66.8458 97.8422 66.5751 97.7499 66.3176C97.6576 66.0601 97.5467 65.8249 97.355 65.6339C97.1634 65.4429 96.8943 65.3033 96.6334 65.2075C96.1431 65.0274 95.4334 64.9993 94.6128 65.0076C94.2336 65.0115 93.9336 65.0944 93.6289 65.2073C93.3242 65.3201 93.0248 65.4807 92.4191 65.88C91.8135 66.2793 90.9107 66.9123 89.8378 67.5819" stroke="#1E1E1E" stroke-width="4" stroke-linecap="round" stroke-linejoin="round"/>
<path d="M104.049 64.1528C104.58 64.1919 105.089 63.9854 105.464 63.6068C105.839 63.228 106.049 62.7031 106.049 62.1528C106.049 61.6024 105.839 61.0776 105.464 60.6987C105.089 60.3202 104.58 60.1136 104.049 60.1528C102.708 60.2553 101.391 60.3443 100.062 60.4192C99.1749 60.4692 98.292 60.5134 97.405 60.552C95.6641 60.646 93.8198 60.4926 91.7569 60.7938C89.9048 61.1041 88.2231 61.6306 86.5993 61.9584C85.8562 62.1128 85.5212 62.5253 85.2801 62.7798C85.0414 63.0531 84.8792 63.2855 84.7352 63.4588C84.1885 64.1024 83.9362 64.8252 83.7298 65.4159C82.9561 67.584 82.8495 70.0005 83.0255 72.1417C83.0304 72.2209 83.0354 72.3015 83.0401 72.3795C83.086 73.1607 83.2461 73.9354 83.4691 74.6504C83.8502 75.8434 84.4896 76.8015 85.2719 77.6751C85.616 78.0482 86.0134 78.2803 86.352 78.451C88.2779 79.1972 89.6994 79.3101 91.3221 79.6877C93.5025 80.1488 95.7981 80.7292 98.1667 80.9112C101.126 81.1322 103.841 81.3595 107.116 81.1083C107.633 81.0229 108.171 80.9604 108.732 80.8952C109.015 80.862 109.302 80.829 109.613 80.7825C109.769 80.7587 109.929 80.7324 110.113 80.6918C110.304 80.6439 110.481 80.6204 110.841 80.4393C111.743 79.8684 111.798 79.3704 111.99 79.0722C113.5 75.3657 113.275 72.1451 113.554 68.8188C113.641 67.7533 113.385 66.2911 112.974 65.3766C112.602 64.4598 112.059 63.9217 111.714 63.5088C111.018 62.6725 109.852 62.1155 109.378 61.8789C109.28 61.8265 108.981 61.7377 108.873 61.7157C108.456 61.6333 108.05 61.5728 107.648 61.5243C106.787 61.4216 105.946 61.3722 105.1 61.3571C105.091 61.3569 105.065 61.3583 105.056 61.3584C104.766 61.3457 104.051 61.4325 103.63 61.6018C103.192 61.7606 102.891 61.9177 102.603 62.0674C102.132 62.312 101.793 62.7447 101.653 63.2577C101.513 63.7708 101.585 64.3244 101.852 64.7945C102.12 65.2646 102.558 65.61 103.071 65.7524C103.583 65.8947 104.128 65.8246 104.58 65.5449C104.58 65.5449 104.58 65.5449 104.58 65.5449C104.77 65.4239 104.953 65.3213 105.027 65.2836C105.118 65.2497 104.953 65.2586 105.211 65.2324L105.167 65.2337C105.889 65.1928 106.62 65.1842 107.322 65.2181C107.649 65.2341 107.969 65.2598 108.273 65.298L107.768 65.1348C108.639 65.5018 108.852 65.5934 109.156 65.8722C109.557 66.2691 109.796 66.5517 109.852 66.6651C110.241 67.4698 110.331 67.913 110.351 68.7398C110.321 71.9304 110.475 75.4753 109.555 77.9177C109.461 78.1952 109.248 78.3468 109.572 78.1113C109.682 78.0623 109.585 78.1115 109.502 78.1304C109.411 78.1553 109.296 78.1805 109.174 78.2041C108.929 78.2517 108.658 78.295 108.381 78.3388C107.827 78.4264 107.247 78.5163 106.656 78.6374C104.194 78.9105 101.117 78.8365 98.327 78.6821C96.148 78.5724 94.0055 78.0818 91.7338 77.6376C90.1919 77.3249 88.3595 77.0549 87.2554 76.6338C87.016 76.5173 86.851 76.4058 86.7545 76.3016C86.1536 75.6494 85.6277 74.8392 85.3834 74.058C85.1927 73.4522 85.073 72.8609 85.0365 72.2585C85.0316 72.1789 85.0266 72.0978 85.0218 72.019C84.857 69.9193 84.9949 67.9782 85.7156 66.1297C85.9213 65.5885 86.1198 65.1586 86.3812 64.8905C86.6054 64.6405 86.7775 64.4211 86.9174 64.28C87.0521 64.128 87.1568 64.1336 86.9764 64.1903C88.7824 63.9204 90.4721 63.5205 92.0776 63.3894C93.6508 63.2799 95.4619 63.5728 97.3673 63.6934C98.2587 63.7533 99.1467 63.814 100.04 63.8753C101.373 63.9674 102.728 64.0597 104.049 64.1528Z" fill="#1E1E1E"/>
<path d="M104.955 65.0908C105.486 65.1192 105.994 64.9116 106.369 64.534C106.744 64.1562 106.955 63.6357 106.955 63.0908C106.955 62.5459 106.744 62.0255 106.369 61.6477C105.994 61.2701 105.486 61.0624 104.955 61.0908C104.937 61.0915 105.231 61.0848 105.52 61.1782C105.81 61.2683 106.021 61.4093 106.144 61.5067C106.388 61.7082 106.435 61.7985 106.485 61.8622C106.568 61.9812 106.57 62.0005 106.578 62.0168C106.698 62.2618 106.678 62.2693 106.688 62.2966C106.69 62.3123 106.686 62.3031 106.68 62.2895C106.669 62.2576 106.653 62.2003 106.639 62.1433C106.609 62.0215 106.579 61.8761 106.551 61.7315C106.494 61.4368 106.44 61.1235 106.389 60.8105C106.288 60.185 106.195 59.5374 106.106 58.8983C105.929 57.6101 105.767 56.3108 105.613 55.0133C105.563 54.5875 105.514 54.1677 105.466 53.7408C105.422 53.3563 105.378 52.9772 105.328 52.5817C105.259 52.1644 105.285 51.8662 105.032 51.1023C104.889 50.7631 104.729 50.3147 104.142 49.8564C103.573 49.4662 103.219 49.4742 102.97 49.4288C102.715 49.3988 102.511 49.3915 102.314 49.3847C101.923 49.3732 101.563 49.3729 101.201 49.3705C100.482 49.367 99.7696 49.3611 99.0565 49.3475C96.0266 49.1615 92.6343 48.8413 89.4239 48.7394C85.6726 48.5947 81.9311 48.4845 78.1892 48.3534C75.4166 48.2577 72.6403 48.17 69.87 48.0892C67.7493 48.0667 65.6904 47.8339 63.3877 48.145C61.1571 48.4792 59.1996 48.6363 56.6766 49.3526C56.3208 49.5019 55.9963 49.7062 55.7204 49.9224C55.4401 50.1399 55.1744 50.4169 54.9682 50.7249C53.683 53.4696 54.0378 55.4106 53.7109 57.6402C53.4646 60.4038 52.9311 63.203 52.8704 66.1587C52.8262 68.9695 52.8771 71.7366 52.9264 74.5148C52.9466 77.1551 53.3954 79.8347 53.868 82.3347C54.5055 85.513 54.8152 88.4738 55.9963 91.9179C56.3699 92.6731 56.7623 92.8632 56.9934 93.0826C59.2192 94.7519 61.5021 94.8933 63.5799 95.3161C66.8431 95.8711 70.0302 96.285 73.1795 96.8937C75.5181 97.3489 77.8032 97.366 80.0151 97.4469C84.0122 97.5584 87.9805 97.6082 91.9737 97.6231C93.3198 97.5924 94.3181 97.729 96.1407 97.4371C98.6362 96.7205 100.053 95.5451 101.706 94.5846C101.757 94.5286 102.225 94.4416 103.038 94.0677C104.106 93.4503 104.198 92.8142 104.353 92.6006C104.386 92.5353 104.459 92.3347 104.478 92.2641C104.923 90.6505 105.279 89.0689 105.607 87.4642C105.897 85.9882 106.185 84.6001 106.33 82.9101C106.331 82.9016 106.332 82.8759 106.332 82.8673C106.395 81.5678 106.385 80.142 106.093 78.6942C105.99 78.1738 105.678 77.7206 105.232 77.4329C104.785 77.1452 104.24 77.0469 103.717 77.1594C103.195 77.2718 102.738 77.5855 102.449 78.0313C102.161 78.477 102.063 79.0184 102.183 79.5352C102.183 79.5352 102.183 79.5352 102.183 79.5352C102.413 80.5082 102.473 81.5743 102.452 82.7425L102.454 82.6996C102.393 83.907 102.156 85.3917 101.924 86.7729C101.657 88.3106 101.354 89.8662 100.992 91.3439L101.117 91.0075C101.054 91.1429 101.019 91.2075 101.034 91.1855C101.05 91.1705 101.141 91.0157 101.421 90.8722C101.284 90.9823 100.67 91.0761 99.8149 91.5971C98.2393 92.6224 96.5504 93.8068 95.3642 94.1489C94.6866 94.2994 93.1293 94.3072 91.937 94.3449C87.9915 94.4322 84.0122 94.4786 80.0715 94.4581C77.8613 94.4305 75.7035 94.4489 73.684 94.0944C70.4393 93.5381 67.1669 93.1772 64.017 92.7001C61.9654 92.3732 59.8066 92.0499 58.5985 91.1138C58.3462 90.9305 58.203 90.729 58.3062 90.8997C57.3724 88.34 56.8437 84.9428 56.2045 81.8908C55.6905 79.3556 55.2566 76.96 55.2036 74.4569C55.1212 71.6998 55.0409 68.9194 55.057 66.1932C55.0805 63.4857 55.5767 60.7013 55.8149 57.8306C56.0348 55.7518 56.0629 53.1075 56.6853 51.8771C56.768 51.7529 56.8647 51.6484 56.9937 51.5459C57.1599 51.4145 57.3171 51.3178 57.4802 51.2479C59.1632 50.7797 61.5712 50.4559 63.6621 50.1543C65.5426 49.8733 67.7236 50.0737 69.8138 50.0974C72.5796 50.172 75.3526 50.2567 78.1201 50.3522C81.8538 50.483 85.5904 50.6528 89.3032 50.9148C92.5336 51.123 95.5473 51.5575 98.9291 51.9637C99.6522 52.0205 100.381 52.0719 101.096 52.1223C101.453 52.1479 101.812 52.1729 102.138 52.2053C102.297 52.2213 102.455 52.2409 102.555 52.262C102.657 52.2713 102.671 52.3462 102.394 52.1726C102.181 52.0018 102.235 51.9941 102.25 52.0905C102.241 52.0476 102.29 52.5205 102.302 52.8558C102.321 53.2204 102.334 53.5926 102.347 53.9699C102.361 54.4015 102.375 54.8264 102.39 55.2578C102.435 56.5728 102.481 57.8919 102.537 59.2183C102.565 59.8773 102.596 60.5476 102.636 61.2202C102.657 61.558 102.679 61.8997 102.711 62.2557C102.726 62.4322 102.744 62.6151 102.77 62.8166C102.783 62.914 102.798 63.0181 102.823 63.1531C102.834 63.2116 102.852 63.2962 102.874 63.3813C102.908 63.493 102.914 63.5799 103.068 63.891C103.108 63.9662 103.143 64.0435 103.265 64.2165C103.335 64.3071 103.403 64.4234 103.673 64.6456C103.809 64.7533 104.034 64.9031 104.341 64.998C104.645 65.0964 104.956 65.0902 104.955 65.0908Z" fill="#1E1E1E"/>
<path d="M59.9551 54.0284C59.9551 53.9194 59.9551 54.211 59.9551 54.9741C59.9551 55.8617 59.9551 56.6779 59.9551 57.3278C59.9551 57.6481 59.9551 57.9491 59.9551 59.0063" stroke="#1E1E1E" stroke-linecap="round" stroke-linejoin="round"/>
<path d="M59.9551 65.0063C59.9551 65.1514 59.9551 65.5931 59.9551 66.7084C59.9551 67.4568 59.9551 68.5753 59.9551 69.3625C59.9551 70.1497 59.9551 70.5716 59.9551 71.0063" stroke="#1E1E1E" stroke-linecap="round" stroke-linejoin="round"/>
<path d="M59.9551 79.0063C59.9551 79.028 59.9551 79.214 59.9551 79.7093C59.9551 80.0298 59.9551 80.4908 59.9551 80.9C59.9551 81.3091 59.9551 81.6525 59.9551 82.0063" stroke="#1E1E1E" stroke-linecap="round" stroke-linejoin="round"/>
<path d="M89.1791 33.111C89.0351 33.1447 88.8912 33.1785 88.7329 33.3353C88.5747 33.4922 88.4065 33.7711 88.2697 34.0779C88.1329 34.3847 88.0327 34.7109 87.985 35.0994C87.9374 35.488 87.9455 35.9289 88.0168 36.3079C88.0881 36.6869 88.2223 36.9905 88.4055 37.2932C88.5887 37.5959 88.8167 37.8883 89.0765 38.1335C89.3363 38.3786 89.6209 38.5676 89.9277 38.7054C90.2344 38.8433 90.5546 38.9242 90.8797 38.9705C91.2048 39.0167 91.525 39.0257 91.8201 38.9527C92.1153 38.8797 92.3757 38.7245 92.602 38.5141C93.528 37.6531 93.7146 36.6091 93.8835 36.0024C93.9627 35.7179 93.9861 35.4701 93.9025 35.1964C93.8189 34.9227 93.6168 34.628 93.3525 34.3379C93.0883 34.0477 92.768 33.771 92.4559 33.5509C92.1438 33.3307 91.8494 33.1755 91.4495 33.0876C91.0497 32.9998 90.5532 32.9841 89.5319 33.036" stroke="#1E1E1E" stroke-width="4" stroke-linecap="round" stroke-linejoin="round"/>
<path d="M54.3641 21.6213C54.8954 21.6642 55.4005 21.4502 55.7689 21.0641C56.1373 20.6775 56.3388 20.1438 56.3291 19.5869C56.3195 19.03 56.0996 18.5036 55.718 18.1301C55.3364 17.757 54.8242 17.5607 54.2947 17.6219C54.2947 17.6219 54.2947 17.6219 54.2947 17.6219C53.4821 17.7163 53.0281 17.8016 52.1305 18.1873C51.5354 18.4626 51.1436 18.8871 50.9147 19.1822C50.643 19.5281 50.4653 19.8592 50.322 20.171C50.0524 20.7684 49.9048 21.3085 49.777 21.8187C49.2892 24.349 49.5489 26.1918 49.9191 28.3762C50.3067 30.4502 51.9059 31.8034 52.8596 32.8396C54.252 34.3453 55.9345 35.1774 57.5864 35.9061C57.6353 35.9271 57.684 35.9477 57.7326 35.968C59.6204 36.7751 61.7609 37.0455 63.6823 37.0268C64.4586 37.035 65.1257 36.7844 65.6642 36.5481C66.2811 36.2741 66.797 35.9175 67.2633 35.5673C67.8773 35.0985 68.2862 34.5388 68.631 34.0217C69.6396 32.4071 69.7178 30.8227 70.0079 29.4055C70.1621 28.5348 70.1265 27.7009 70.0841 26.9514C69.9787 25.4862 69.5233 24.2591 69.1852 23.1204C68.945 22.302 68.4611 21.4612 67.925 20.8403C66.6365 19.3563 65.0218 18.6979 64.0243 17.9482C62.1122 16.6879 60.4104 16.1838 58.6954 15.491C58.1233 15.2756 57.4463 15.2562 56.9325 15.3555C56.8364 15.3708 56.5783 15.4702 56.4899 15.5108C55.4406 16.0135 54.6076 16.561 53.7732 17.085C53.3798 17.3348 52.9949 17.5808 52.6152 17.8174C52.6128 17.8189 52.6058 17.8241 52.6033 17.8257C52.3783 17.9691 52.0222 18.1999 51.6907 18.5131C51.3696 18.816 51.1592 19.0672 50.9606 19.2972C50.6137 19.6993 50.4653 20.2284 50.5328 20.7562C50.6005 21.2842 50.8813 21.7697 51.3107 22.1038C51.74 22.438 52.2796 22.5909 52.808 22.5269C53.3363 22.4627 53.8127 22.1889 54.1173 21.7538C54.1173 21.7538 54.1173 21.7538 54.1173 21.7538C54.2552 21.5535 54.385 21.3772 54.4507 21.2948C54.5046 21.2206 54.5954 21.1338 54.8159 20.9628L54.804 20.9712C55.1788 20.6841 55.5432 20.3992 55.9019 20.1217C56.6512 19.5432 57.4001 18.9708 58.0644 18.5806L57.6219 18.736C57.6865 18.7139 57.6225 18.7086 57.6115 18.6873C59.3232 19.1949 61.1736 19.7097 62.3565 20.3906C63.8715 21.3059 65.169 21.802 65.9225 22.6029C66.3216 23.0233 66.5724 23.4088 66.7637 23.924C67.1885 25.0912 67.6101 26.1701 67.7162 27.1416C67.7881 27.8422 67.8298 28.4756 67.7499 29.0465C67.5387 30.4982 67.3974 31.9559 66.8286 32.8618C66.5568 33.3004 66.2734 33.6716 65.9813 33.9027C65.5832 34.2176 65.1941 34.4871 64.8143 34.6634C64.3771 34.8684 64.0024 34.9866 63.6961 34.9858C61.8304 35.0249 60.12 34.8029 58.5018 34.1218C58.4607 34.1047 58.4195 34.0872 58.3781 34.0694C56.8673 33.4145 55.3937 32.5667 54.4806 31.4478C53.3493 30.1359 52.454 29.1449 52.3751 27.9682C52.2159 26.274 52.3364 24.0888 52.8468 22.808C53.0136 22.4078 53.1932 22.0434 53.372 21.7934C53.4637 21.6643 53.5555 21.5702 53.6128 21.5388C53.7139 21.4551 53.7058 21.53 53.579 21.6099C53.6177 21.6271 54.1757 21.5683 54.3641 21.6213Z" fill="#1E1E1E"/>
<path d="M57.4564 23.1039C57.4551 22.9738 57.4055 22.8476 57.3149 22.7529C57.2244 22.6583 57.101 22.603 56.9711 22.5992C56.8412 22.5953 56.7147 22.6433 56.6188 22.7324C56.5229 22.8215 56.4659 22.9446 56.4569 23.0744C56.4569 23.0744 56.4569 23.0744 56.4569 23.0744C56.431 23.631 56.419 24.137 56.4074 24.6686C56.3751 26.486 56.3646 28.2921 56.496 30.1408C56.5439 30.5847 56.8144 30.8335 56.968 30.9641C57.135 31.1007 57.2741 31.1784 57.3726 31.2423C57.7291 31.4634 58.0971 31.5668 58.4133 31.6388C59.4448 31.8537 60.3798 31.8474 61.3215 31.832C61.7689 31.8288 62.3437 31.6845 62.7596 31.408C63.1524 31.1574 63.4845 30.8069 63.6901 30.3325C63.8798 29.8966 63.9384 29.3009 63.6691 28.7624C63.3673 28.1983 62.9899 27.9813 62.6931 27.7812C60.9853 26.8505 59.4672 26.6501 58.0039 26.1999C58.0118 26.2033 58.0125 26.197 58.1003 26.2393C58.1311 26.2586 58.2285 26.2928 58.3748 26.4617C58.4643 26.5621 58.5998 26.8085 58.5922 27.0766C58.5923 27.3443 58.4647 27.563 58.3906 27.653C58.2568 27.8151 58.1783 27.8458 58.146 27.8685C58.1056 27.8918 58.0883 27.8988 58.0773 27.9038C58.0547 27.9135 58.0583 27.9115 58.0658 27.9096C58.1025 27.8986 58.2023 27.8755 58.2966 27.857C58.4913 27.8185 58.7092 27.7821 58.9293 27.7446C59.387 27.6596 59.7818 27.624 60.4106 27.4212C60.8609 27.2607 61.2666 26.9897 61.5789 26.7094C62.1784 26.1824 62.4972 25.483 62.7048 24.9412C62.7057 24.9387 62.7066 24.9363 62.7076 24.9339C62.8486 24.566 62.8937 24.2199 62.9197 23.9379C62.9476 23.6369 62.9601 23.1861 62.7608 22.7343C62.5321 22.2291 62.1834 21.9344 61.843 21.7195C61.4504 21.4802 61.0661 21.3594 60.6777 21.286C60.1982 21.1955 59.7705 21.2268 59.4021 21.2552C59.2637 21.2666 59.1275 21.2797 58.9918 21.2941C58.4602 21.3506 57.9361 21.4237 57.4119 21.5063C57.2894 21.5259 57.1719 21.5815 57.0852 21.6732C56.9986 21.7649 56.9499 21.8837 56.9499 22.0063C56.9499 22.129 56.9986 22.2478 57.0852 22.3394C57.1719 22.4312 57.2894 22.4868 57.4119 22.5063C57.9356 22.5893 58.4591 22.6613 58.9755 22.7291C59.1071 22.7465 59.238 22.7637 59.3669 22.7812C59.724 22.8293 60.0296 22.8769 60.2562 22.9679C60.4707 23.0472 60.675 23.1578 60.8008 23.2655C60.9169 23.3594 60.9785 23.4722 60.9659 23.4806C60.9588 23.4843 60.9711 23.5418 60.9456 23.7253C60.9176 23.9477 60.883 24.1086 60.8408 24.2161C60.8406 24.2168 60.8403 24.2175 60.84 24.2182C60.6587 24.6951 60.4816 25.0154 60.2509 25.2197C60.0677 25.3842 59.906 25.4863 59.728 25.5531C59.5067 25.6321 59.0083 25.7226 58.586 25.7999C58.3651 25.8406 58.1414 25.8806 57.8972 25.9326C57.7719 25.9602 57.6513 25.9853 57.4767 26.0399C57.4253 26.0566 57.3832 26.0703 57.3049 26.1035C57.2697 26.119 57.226 26.1383 57.1609 26.176C57.1075 26.2108 57.0003 26.2614 56.8523 26.4423C56.769 26.5436 56.635 26.7766 56.6351 27.0571C56.6272 27.338 56.7688 27.5985 56.868 27.7104C57.0278 27.8967 57.1575 27.9511 57.2081 27.9802C57.3511 28.0497 57.3943 28.057 57.4649 28.0789C59.0083 28.502 60.6561 28.7919 61.7318 29.3499C61.9395 29.4634 62.0757 29.6074 62.0549 29.581C62.0464 29.5497 62.0735 29.5709 62.0458 29.6529C62.0174 29.7415 61.9256 29.8648 61.8096 29.9457C61.6361 30.0651 61.503 30.112 61.2446 30.1346C60.375 30.191 59.4787 30.221 58.7221 30.101C58.479 30.0603 58.2872 30.0071 58.1509 29.9339C58.0282 29.8661 57.9413 29.8171 57.9065 29.7928C57.8616 29.7649 57.945 29.8042 57.9667 29.986C57.7412 28.2457 57.6298 26.4425 57.5286 24.65C57.5009 24.1331 57.4732 23.5949 57.4564 23.1039Z" fill="#1E1E1E"/>
<path d="M50.16 22.0063C50.0237 22.219 49.0402 25.0546 48.1654 27.474C47.7675 28.5743 48.0316 30.118 48.1679 31.7793C48.2254 32.4796 48.6073 33.4942 49.1473 34.6634C50 36.5099 53.0135 38.9014 54.5385 40.1748C55.5127 40.9883 57.1136 41.3059 58.6312 41.6735C60.6574 42.1644 63.7098 42.0361 65.1853 41.7752C66.2261 41.5912 66.5844 39.7836 67.1285 38.6919C67.728 37.1128 68.3071 35.366 68.5102 34.9048C68.616 34.6646 68.7275 34.412 68.9551 33.8264" stroke="#1E1E1E" stroke-width="4" stroke-linecap="round" stroke-linejoin="round"/>
</svg>
