<svg width="160" height="113" viewBox="0 0 160 113" fill="none" xmlns="http://www.w3.org/2000/svg">
<path d="M29 91.0002L25.5 32.0002L29 28C33.5 25.8334 45.5 21.5002 57.5 21.5002C69.5 21.5002 75.8333 28.5002 77.5 32.0002C81.8333 28.5002 91.5 20.9002 95.5 18.5002C100.5 15.5002 109.5 14.5002 117.5 15.0002C123.9 15.4002 129.833 19.5002 132 21.5002L135.5 85.0002C134.833 84.3336 130.3 82.8002 117.5 82.0002C104.7 81.2002 85.5 91.3336 77.5 96.5002C77 95.8336 74.9 93.8002 70.5 91.0002C65 87.5002 59 88.5002 52 87.5002C46.4 86.7002 34.3333 89.5002 29 91.0002Z" fill="white"/>
<path d="M80.9934 31.4182C81.32 31.0101 81.483 30.4907 81.438 29.9672C81.3931 29.4438 81.1453 28.9602 80.7476 28.6216C80.3498 28.283 79.8329 28.1156 79.309 28.1548C78.785 28.1939 78.2984 28.4377 77.9476 28.8253C77.9476 28.8253 77.9476 28.8253 77.9476 28.8253C77.8889 28.8907 77.8408 28.9395 77.8563 28.9187C77.8704 28.9052 77.8834 28.8779 78.0299 28.7696C78.1114 28.7166 78.2151 28.6276 78.5357 28.5216C78.6998 28.4721 78.9412 28.4155 79.2778 28.4442C79.6107 28.4677 80.0193 28.6254 80.2831 28.8337C80.9441 29.4108 80.8813 29.6497 80.9588 29.7994C81.0011 29.9458 81.008 30.0151 81.0154 30.0691C81.0268 30.1714 81.0247 30.2012 81.0256 30.2259C81.0257 30.2695 81.0286 30.2677 81.0252 30.2965C81.0053 30.3995 80.9875 30.3946 81.1163 30.2566C81.9557 29.3341 83.294 28.3828 84.613 27.4237C85.7079 26.6336 86.8305 25.8259 87.9405 24.9888C88.3939 24.6478 88.6199 24.5276 89.1266 24.285C89.6096 24.0577 90.164 23.8219 90.7223 23.5859C93.4114 22.4612 96.1814 21.3536 98.9064 20.3138C100.468 19.7261 101.955 19.1763 103.368 18.8705C104.672 18.5711 106.037 18.4548 107.549 18.3604C109.983 18.2188 112.514 18.1398 114.986 18.0921C115.94 18.0787 117.035 18.0574 117.502 18.1467C119.076 18.5596 122.236 19.8204 124.678 20.7998C125.613 21.1774 126.528 21.5768 127.395 22.0021C127.826 22.2132 128.251 22.4343 128.638 22.6545C128.83 22.7638 129.018 22.8761 129.175 22.9775C129.254 23.0285 129.327 23.0774 129.376 23.1135C129.408 23.1324 129.505 23.2281 129.286 23.0384C128.81 22.6053 128.588 22.0677 128.528 21.8652C128.461 21.6449 128.473 21.6469 128.491 21.7767C128.467 21.6236 128.483 21.7633 128.485 21.9079C128.49 22.0551 128.495 22.2259 128.499 22.3945C128.507 22.7337 128.513 23.0866 128.519 23.4339C128.532 24.1364 128.543 24.8395 128.554 25.5513C128.646 31.4014 128.711 37.246 128.67 43.0587C128.632 49.0537 128.409 55.071 128.434 61.2515C128.457 65.7436 128.683 70.2524 129.018 74.6759C129.265 77.7296 129.503 81.5571 130.017 84.0004C130.02 83.7838 129.962 83.6145 130.137 82.8489C130.173 82.7052 130.277 82.3602 130.457 82.0195C130.65 81.6676 130.872 81.2859 131.455 80.7934C132.623 79.8006 134.188 79.8182 134.799 79.9832C135.395 80.1156 135.735 80.312 135.902 80.4029C136.096 80.5133 136.222 80.6051 136.3 80.6626C136.473 80.7939 136.54 80.8587 136.602 80.9158C136.801 81.1085 136.776 81.097 136.779 81.0962C136.76 81.074 136.671 80.9617 136.571 80.8368C136.468 80.7079 136.346 80.5553 136.174 80.3603C135.981 80.1559 135.841 79.9499 135.235 79.4867C134.683 79.1 134.47 79.0324 134.252 78.9271C134.047 78.8362 133.887 78.7749 133.745 78.7225C133.458 78.6175 133.229 78.5446 133.006 78.4754C132.565 78.3398 132.174 78.2316 131.787 78.1263C131.018 77.9181 130.287 77.7306 129.562 77.5411C127.325 76.9819 125.697 77.2459 124.408 77.2931C124.321 77.2987 124.234 77.3045 124.148 77.3106C122.848 77.4027 121.556 77.6325 120.293 78.0041C119.549 78.2234 118.802 78.4948 118.08 78.8208C118.048 78.8227 117.96 78.8602 117.929 78.8635C116.202 79.7442 115.307 80.5944 114.147 81.5962L114.196 81.5757C114.093 81.6739 113.991 81.7708 113.917 81.8551C113.882 81.8968 113.847 81.9362 113.865 81.9603C113.88 81.9719 113.887 81.9792 114.023 81.9731C114.12 81.9819 114.127 81.9246 114.679 82.0241C114.835 82.0671 115.059 82.1056 115.435 82.3765C115.817 82.615 116.242 83.3637 116.231 83.8598C116.248 84.375 116.128 84.6034 116.072 84.7521C115.999 84.9149 115.95 84.9858 115.901 85.0573C116.005 84.5979 116.033 84.1105 115.909 83.6547C115.784 83.199 115.52 82.8147 115.149 82.5694C114.779 82.3241 114.322 82.2315 113.853 82.2951C113.385 82.3586 112.948 82.5754 112.565 82.8504C112.565 82.8504 112.565 82.8504 112.565 82.8504C112.512 82.9307 112.458 83.0089 112.381 83.1811C112.321 83.338 112.198 83.5762 112.216 84.1012C112.206 84.6068 112.636 85.3647 113.025 85.6087C113.409 85.8854 113.642 85.927 113.807 85.972C114.397 86.0789 114.443 86.0172 114.578 86.0211C114.79 86.0042 114.871 85.9931 114.961 85.9846C115.127 85.9681 115.238 85.9592 115.349 85.95C115.564 85.9328 115.748 85.9185 115.931 85.9021C115.939 85.8951 115.972 85.8888 115.98 85.8817C117.392 85.8003 119.047 85.4932 119.961 85.4717L119.81 85.5144C120.415 85.4963 121.02 85.479 121.629 85.4556C122.659 85.4168 123.687 85.3633 124.713 85.2907C124.78 85.2859 124.849 85.2813 124.918 85.2769C125.549 85.2368 126.167 85.2002 126.638 85.1975C127.128 85.1969 127.311 85.2205 127.55 85.28C128.287 85.4709 129.017 85.6567 129.704 85.8408C130.046 85.9326 130.38 86.025 130.661 86.1106C130.8 86.1527 130.927 86.1944 130.996 86.2196C131.028 86.231 131.048 86.2399 131.014 86.225C130.968 86.1965 130.927 86.212 130.527 85.9338C130.149 85.6404 130.202 85.6439 130.199 85.6513C130.215 85.6693 130.273 85.7372 130.347 85.83C130.425 85.9262 130.512 86.0381 130.676 86.2338C130.771 86.3417 130.838 86.4379 131.14 86.7284C131.23 86.8113 131.321 86.898 131.524 87.0513C131.614 87.1184 131.757 87.2217 131.966 87.3405C132.146 87.4391 132.507 87.6447 133.118 87.7802C133.746 87.9492 135.33 87.9652 136.512 86.9608C137.102 86.4619 137.328 86.0741 137.526 85.7144C137.71 85.3664 137.817 85.0098 137.855 84.8597C138.039 84.0596 137.981 83.8578 137.982 83.6011C137.336 79.8235 137.201 77.3219 136.904 74.0546C136.536 69.7202 136.272 65.4459 136.185 61.1481C136.071 55.2253 136.178 49.1392 136.075 43.0277C135.979 37.1042 135.752 31.2133 135.477 25.3345C135.443 24.6203 135.41 23.9151 135.374 23.2005C135.356 22.8462 135.338 22.4865 135.317 22.1194C135.307 21.9352 135.296 21.7476 135.282 21.5435C135.264 21.3356 135.265 21.1212 135.181 20.6186C135.158 20.52 135.134 20.292 134.999 19.8497C134.87 19.4263 134.541 18.674 133.893 18.0829C133.476 17.7145 133.355 17.6573 133.166 17.525C132.993 17.411 132.841 17.3173 132.69 17.2276C132.394 17.0523 132.111 16.8979 131.836 16.7537C131.285 16.4658 130.744 16.2093 130.21 15.9705C129.139 15.4917 128.077 15.0743 127.01 14.6875C124.193 13.7316 122.166 12.7698 118.263 11.9735C116.73 11.8313 115.81 11.9562 114.752 11.9999C112.179 12.1574 109.663 12.3436 107.063 12.6121C105.474 12.7832 103.728 13.0046 102.013 13.4848C100.137 13.9932 98.4785 14.7176 96.9011 15.3986C94.1322 16.6155 91.442 17.855 88.7161 19.17C87.6454 19.7106 86.2406 20.3073 85.0443 21.3519C84.0243 22.2131 82.9862 23.0525 81.9218 23.9168C80.6336 24.9892 79.2636 26.0032 77.9453 27.608C77.6661 27.9575 77.283 28.4957 77.0958 29.2181C77.0308 29.4724 76.994 29.7024 76.9794 29.9794C76.9734 30.1209 76.9704 30.2678 76.9937 30.4866C77.0072 30.5988 77.0234 30.7261 77.0819 30.9284C77.1762 31.1339 77.1353 31.4302 77.8428 32.0443C78.1246 32.2666 78.5551 32.4327 78.9106 32.4581C79.2698 32.4889 79.5341 32.4286 79.72 32.3723C80.0836 32.2529 80.2274 32.1399 80.3457 32.0611C80.5661 31.9003 80.6453 31.8099 80.723 31.7318C80.8655 31.581 80.9342 31.4908 80.9934 31.4182Z" fill="#1E1E1E"/>
<path d="M27.1322 29.2747C27.0402 29.2747 26.9482 29.2747 27.0344 29.1089C27.1206 28.943 27.3878 28.6114 27.7643 28.3034C28.5665 27.6472 29.8291 27.1069 31.9757 26.257C35.462 24.8767 38.962 23.8269 41.6096 22.8674C44.4178 21.8496 46.6851 21.4648 48.1511 21.2251C49.7153 20.9694 52.0585 20.9544 55.4184 21.0665C59.4651 21.2016 62.8588 22.0222 64.9255 22.6067C67.6534 23.3783 69.6478 24.6633 71.6802 26.3122C72.455 27.0807 73.5963 28.3055 74.2992 29.1167C75.0022 29.9279 75.2322 30.2884 76 31" stroke="#1E1E1E" stroke-width="4" stroke-linecap="round" stroke-linejoin="round"/>
<path d="M25.9386 32C26.4573 31.9766 26.9548 31.7631 27.3216 31.3903C27.6883 31.0175 27.8944 30.5186 27.8944 30C27.8944 29.4814 27.6883 28.9825 27.3216 28.6097C26.9548 28.2369 26.4573 28.0234 25.9386 28C25.9386 28 25.9386 28 25.9386 28C25.7171 27.996 25.5615 28.0124 25.4628 28.0185C25.1665 28.0639 24.2268 28.0562 23.4237 29.1079C23.1616 29.4645 23.0361 29.9157 23.0015 30.1217C22.9594 30.3522 22.9517 30.4935 22.9433 30.6181C22.9296 30.8605 22.9305 31.0357 22.931 31.2052C22.9334 31.5409 22.9432 31.8362 22.9541 32.136C22.9761 32.7264 23.0038 33.2994 23.0325 33.8768C23.0551 34.3334 23.079 34.7925 23.1034 35.2503C23.3138 39.1614 23.5589 43.0622 23.8391 46.9682C24.2685 52.5553 24.6047 57.9616 24.6593 63.4719C24.7414 70.9012 24.6272 78.4244 24.5304 85.9206C24.5174 86.8825 24.504 87.8203 24.49 88.7767C24.4829 89.2557 24.4756 89.7249 24.4682 90.2037C24.4645 90.4436 24.4608 90.6767 24.4574 90.9236C24.4557 91.0431 24.4541 91.1686 24.4532 91.3029C24.4528 91.3752 24.4523 91.4394 24.4535 91.5392C24.4542 91.5899 24.4548 91.6455 24.4594 91.7461C24.4626 91.8057 24.465 91.8694 24.4798 92.0101C24.4909 92.1007 24.4947 92.1674 24.5413 92.4C24.5688 92.5221 24.5849 92.6169 24.6779 92.8909C24.7254 93.023 24.7658 93.1319 24.8656 93.3354C24.9714 93.5484 25.118 93.7894 25.3023 94.0197C25.6158 94.3974 26.032 94.8414 26.8963 95.1957C27.7392 95.531 28.5967 95.5 29.1758 95.3579C30.1821 95.0845 30.4238 94.8008 30.6419 94.6593C31.0178 94.3579 31.0547 94.2871 31.1368 94.2061C31.2586 94.0728 31.2708 94.0541 31.2901 94.0325C31.3176 94.0006 31.3028 94.0193 31.2919 94.0321C31.2656 94.0632 31.2299 94.101 31.2025 94.1276C31.1465 94.1822 31.1142 94.2066 31.1047 94.2156C31.846 93.7287 32.8057 93.4196 34.3195 93.0488C37.2343 92.3071 39.9645 91.8896 42.9585 91.721C46.728 91.5106 50.6686 91.3891 54.5485 91.2528C54.575 91.2519 54.6013 91.251 54.6273 91.2501C55.9067 91.2111 57.5738 91.1271 58.1264 91.1728C60.2683 91.5708 64.4088 92.8281 67.6912 93.6548C68.9263 93.9643 69.9556 94.2648 70.8306 94.7407C70.9949 94.8309 71.1704 94.9378 71.3735 95.0697L71.1996 94.9074C72.2886 95.7272 73.0493 96.4756 74.8074 97.4817C74.833 97.504 74.927 97.5464 74.9543 97.5667C75.5781 97.8334 76.1406 97.9025 76.5081 97.9386C77.002 97.9818 77.5118 97.8814 77.9374 97.611C78.363 97.3409 78.6681 96.9289 78.7887 96.4539C78.9092 95.9789 78.8374 95.4712 78.5921 95.0309C78.3469 94.5903 77.9467 94.2589 77.4919 94.0614C77.4919 94.0614 77.4919 94.0614 77.4919 94.0614C77.1539 93.9168 77.0029 93.8036 76.9818 93.724L77.1287 93.809C76.7587 93.3344 75.8322 92.0888 75.0827 91.0955C75.0451 91.066 74.9487 90.9593 74.9088 90.9332C74.7371 90.7446 74.5357 90.5328 74.3123 90.3182C72.9651 89.0197 71.369 88.1567 69.9471 87.4885C66.485 85.9245 63.9444 84.5058 59.1022 83.3439C56.9155 83.0976 55.8257 83.2339 54.3578 83.2546C54.3309 83.2555 54.3038 83.2565 54.2765 83.2574C50.3485 83.3965 46.4622 83.536 42.4331 83.8082C39.1025 84.0248 35.5551 84.6301 32.351 85.5295C30.8121 85.946 28.6814 86.5577 26.8027 87.8774C26.5443 88.0554 26.2723 88.2658 25.9965 88.5246C25.8582 88.6542 25.7176 88.7989 25.5908 88.9426C25.5297 89.0116 25.4665 89.0874 25.4453 89.1135C25.4403 89.1207 25.4289 89.1305 25.525 89.025C25.5937 88.9584 25.6187 88.9003 25.9792 88.6109C26.1897 88.4752 26.4232 88.197 27.4208 87.9257C27.9949 87.7847 28.8479 87.7536 29.6863 88.0872C30.546 88.4396 30.9592 88.8809 31.2693 89.2545C31.4516 89.4822 31.5962 89.7202 31.7001 89.9295C31.7982 90.1293 31.8376 90.2357 31.8837 90.3641C31.974 90.6299 31.9888 90.7193 32.0146 90.8336C32.0579 91.0498 32.0602 91.1045 32.0694 91.1787C32.0811 91.2913 32.0816 91.326 32.0832 91.3536C32.0848 91.3973 32.0838 91.3914 32.0833 91.3825C32.082 91.3596 32.0807 91.3124 32.0796 91.2604C32.0774 91.1588 32.0757 91.0391 32.0741 90.9256C32.0709 90.6886 32.0679 90.4538 32.0648 90.2134C32.0587 89.7323 32.052 89.2582 32.0448 88.7755C32.0304 87.8112 32.0139 86.8675 31.9957 85.9006C31.8455 78.3557 31.6303 70.8099 31.1251 63.2044C30.7591 57.5657 30.038 51.8771 29.2141 46.3867C28.6574 42.5383 28.111 38.6778 27.5779 34.8239C27.5158 34.3732 27.4539 33.9217 27.3931 33.4744C27.3168 32.9098 27.241 32.3484 27.173 31.8039C27.1392 31.5308 27.1072 31.2609 27.0843 31.0259C27.0729 30.9125 27.065 30.7987 27.0605 30.7581C27.0571 30.7412 27.0586 30.7384 27.0408 30.8287C27.03 30.8961 26.948 31.206 26.7691 31.4466C26.5372 31.7738 26.2206 31.9347 26.0693 31.9831C25.9134 32.0352 25.8382 32.0277 25.9018 32.0174C25.9738 32.0055 25.9885 32.0024 25.9386 32Z" fill="#1E1E1E"/>
<path d="M65.3279 59.7756C64.9898 60.1881 64.8818 60.7257 64.9938 61.2478C65.1061 61.7702 65.4352 62.2382 65.9027 62.545C66.3702 62.8517 66.9305 62.9674 67.4544 62.8626C67.978 62.7575 68.4282 62.4445 68.6721 61.9701C68.6721 61.9701 68.6721 61.9701 68.6721 61.9701C69.2452 60.965 70.18 59.534 70.9514 58.3289C73.5921 54.2388 76.3316 50.2703 79.2253 46.3863C79.2275 46.3834 79.2296 46.3805 79.2318 46.3776C83.2039 41.1384 87.1928 35.5897 91.6229 31.138C91.612 31.1269 91.8336 31.0525 92.2605 31.1185C92.7098 31.1816 93.2783 31.3914 93.7002 31.6449C94.0556 31.8616 94.2554 32.0683 94.4298 32.3972C94.6142 32.7464 94.7332 33.2133 94.796 33.7209C94.8691 34.3008 94.8563 34.8531 94.731 35.3301C93.0115 39.3746 88.0947 42.9755 84.7384 47.183C80.3875 52.3104 76.6771 58.0157 72.5862 62.9373C72.5825 62.9416 72.5722 62.9549 72.5686 62.9592C72.525 63.0115 72.4808 63.0641 72.4361 63.1169C71.998 63.6368 71.5319 64.1606 71.0451 64.7576C70.7825 65.0737 70.414 65.5847 70.1779 66.0859C69.9365 66.5853 69.7861 67.0327 69.6536 67.453C69.4938 67.9591 69.5558 68.5056 69.8153 68.9693C70.075 69.433 70.5127 69.7766 71.0304 69.9238C71.5482 70.071 72.1012 70.0091 72.5659 69.7513C73.0306 69.4935 73.3708 69.0614 73.5012 68.547C73.5012 68.547 73.5012 68.547 73.5012 68.547C73.5805 68.2264 73.6667 67.9387 73.7481 67.7387C73.8303 67.5379 73.9002 67.4097 74.1106 67.1188C74.4872 66.5992 74.9294 66.0414 75.3709 65.4573C75.4163 65.3973 75.4618 65.3368 75.5074 65.2758L75.4899 65.2977C79.5912 59.773 82.8815 54.1293 86.9433 48.9692C90.0271 44.6434 94.5316 41.8335 97.0106 35.8843C97.2102 35.026 97.1874 34.1819 97.0729 33.4061C96.9709 32.7334 96.8013 32.0198 96.4146 31.3161C96.0664 30.6569 95.4355 30.0582 94.8233 29.7223C94.0962 29.319 93.3966 29.0626 92.5325 28.9457C91.9491 28.8858 91.0181 28.8091 90.2031 29.5058C85.3696 34.5192 81.6746 39.867 77.628 45.1827C77.6258 45.1857 77.6236 45.1886 77.6215 45.1915C74.7315 49.0695 71.6816 52.7995 68.432 56.3984C67.4162 57.5355 66.5212 58.4366 65.3279 59.7756Z" fill="#1E1E1E"/>
<path d="M77 31.0911C77 31.0091 77 30.9271 77 31.111C77 31.2949 77 31.7473 77 33.1722C77 34.5971 77 36.9809 77 39" stroke="#1E1E1E" stroke-width="4" stroke-linecap="round" stroke-linejoin="round"/>
<path d="M32.4505 37.077C31.9267 37.1742 31.4939 37.5114 31.2376 37.9794C30.9813 38.4478 30.9242 39.0148 31.077 39.5495C31.2297 40.0842 31.5778 40.5354 32.0428 40.7977C32.5077 41.0596 33.0533 41.1172 33.5495 40.923C33.5495 40.923 33.5495 40.923 33.5495 40.923C33.7305 40.8647 33.7281 40.8571 33.7818 40.8351C33.825 40.8158 33.8616 40.7985 33.8992 40.7808C33.9714 40.7465 34.0395 40.7133 34.1078 40.6799C34.2426 40.6139 34.3736 40.549 34.5053 40.4838C34.7684 40.3536 35.028 40.2247 35.2885 40.0961C36.195 39.6485 37.0973 39.2096 38.0093 38.7753C40.1008 37.7889 42.8274 37.3157 45.4141 36.862C47.9892 36.4392 50.6617 36.2299 53.3215 36.0722C53.4467 36.065 53.5705 36.0584 53.694 36.0524C56.7015 35.8995 59.6874 36.2366 62.5845 37.0368C62.5901 37.0383 62.6077 37.0398 62.6134 37.0412C63.4755 37.2526 64.3552 37.4447 65.1703 37.6472C65.282 37.6756 65.3928 37.7045 65.4953 37.7337C65.6899 37.788 65.8663 37.8539 65.86 37.8887C65.8513 37.93 65.6679 37.8572 65.7235 37.9364C66.0815 38.3357 66.6022 38.5047 67.1348 38.4499C67.6678 38.3947 68.1755 38.1125 68.5397 37.6732C68.9039 37.2339 69.0871 36.6827 69.0426 36.1487C68.9977 35.6152 68.7352 35.1348 68.2765 34.857C68.2765 34.857 68.2765 34.857 68.2765 34.857C67.982 34.6402 67.3959 34.3293 66.9445 34.2452C66.4978 34.1509 66.2176 34.1559 65.9577 34.15C65.8249 34.1488 65.6965 34.1494 65.5721 34.1506C64.6848 34.1625 63.8611 34.1742 63.0269 34.1416L63.0558 34.146C59.8983 33.9297 56.724 33.8948 53.5975 34.0548C53.4688 34.061 53.3397 34.0676 53.2093 34.0747C50.5291 34.2253 47.8515 34.3261 45.1172 34.5656C42.4263 34.8478 39.7821 34.9351 36.8465 35.7906C35.8798 36.0881 34.9163 36.3782 33.9481 36.6627C33.6701 36.7444 33.3928 36.8251 33.1156 36.9046C32.9772 36.9443 32.8398 36.9833 32.705 37.0207C32.6371 37.0396 32.5702 37.0579 32.5081 37.074C32.4763 37.0823 32.4465 37.0897 32.4218 37.0951C32.4108 37.0965 32.3347 37.116 32.4505 37.077Z" fill="#1E1E1E"/>
<path d="M59.9533 65.3741C60.3271 64.9976 60.5318 64.491 60.5168 63.9606C60.5021 63.4305 60.2689 62.9201 59.8741 62.5467C59.4792 62.1734 58.9565 61.9692 58.4265 61.9842C57.8961 61.9989 57.4017 62.2316 57.0467 62.6259C57.0467 62.6259 57.0467 62.6259 57.0467 62.6259C56.9106 62.7807 56.8912 62.7823 56.9234 62.7782C56.9574 62.7838 56.7038 62.8495 56.3248 62.9203C56.2047 62.9443 56.0765 62.9709 55.946 63.0004C55.6511 63.0766 55.2458 63.1013 54.998 63.0724C54.851 63.053 54.8795 63.0651 54.8361 63.0459C54.6466 62.9482 54.2434 61.9415 53.9299 60.9407C53.8234 60.6358 53.7679 60.32 53.7544 59.9174C53.7484 59.5813 53.754 59.5194 53.8988 59.2059C56.1338 54.9842 60.4166 51.6907 64.1272 47.6819C64.5843 47.1702 64.9917 46.8455 65.6399 46.512C67.6971 45.3755 70.2633 45.2583 72.9314 45.08L72.837 45.0797C73.2218 45.0875 73.5652 45.1171 73.8452 45.1925C73.942 45.2182 74.0364 45.2497 74.1373 45.2903C74.5115 45.4394 75.008 45.7437 75.5478 46.0002C75.7815 46.1116 76.0531 46.125 76.3012 46.0406C76.5493 45.956 76.7535 45.7806 76.8706 45.5497C76.9877 45.3188 77.0085 45.0504 76.9301 44.8003C76.8516 44.5503 76.6803 44.3391 76.4522 44.2164C76.4522 44.2164 76.4522 44.2164 76.4522 44.2164C76.0149 43.9863 75.5975 43.6847 74.9746 43.3873C74.811 43.3114 74.6344 43.2409 74.4547 43.1829C73.9169 43.0096 73.4054 42.954 72.9389 42.9203C72.92 42.9199 72.8634 42.9188 72.8445 42.92C70.2256 42.9821 67.2669 42.9054 64.5124 44.2269C63.7188 44.5714 62.8141 45.195 62.189 45.855C58.5858 49.4496 53.9686 52.4833 50.8915 57.5541C50.5069 58.1756 50.2285 59.1861 50.2456 59.9254C50.2317 60.5661 50.3003 61.2988 50.5032 61.9926C50.8347 62.9869 50.8924 64.1493 52.1474 65.6425C52.7365 66.2902 53.6381 66.7099 54.3947 66.8284C55.2329 66.9667 55.9424 66.9433 56.7239 66.8054C56.8132 66.7899 56.9051 66.7755 57.0054 66.7605C57.3028 66.7074 57.7434 66.6901 58.4185 66.4343C59.094 66.1722 59.6167 65.7205 59.9533 65.3741Z" fill="#1E1E1E"/>
<path d="M90.8019 43.0888C90.2662 43.0619 89.78 43.3134 89.4446 43.7309C89.1093 44.1489 88.9533 44.7087 89.0098 45.2771C89.0664 45.8454 89.3297 46.3635 89.7408 46.7073C90.1519 47.0504 90.6782 47.2012 91.1981 47.0692C91.1981 47.0692 91.1981 47.0692 91.1981 47.0692C91.9384 46.8697 92.9543 46.7083 93.7323 46.639C93.7633 46.6363 93.7954 46.6339 93.8247 46.6316C94.0386 46.5828 94.4008 46.6345 94.7784 46.7747C96.899 47.564 98.696 49.8295 100.445 51.9195C100.566 52.0654 100.683 52.2117 100.799 52.3599C102.531 54.5552 103.818 57.0409 104.973 59.6697C106.457 63.7247 107.049 68.5627 107.311 73.0828C107.537 77.3303 106.808 81.4883 106.572 86.086C106.569 86.1635 106.601 86.3854 106.616 86.4616C106.928 88.0865 107.441 89.7247 108.079 91.2344C108.144 91.3923 108.21 91.5477 108.274 91.699L108.261 91.6715C108.528 92.362 108.886 93.2043 109.228 93.927C109.452 94.4084 109.872 94.7627 110.38 94.9202C110.888 95.0776 111.446 95.0239 111.927 94.7722C112.408 94.5205 112.77 94.0933 112.931 93.586C113.091 93.0788 113.04 92.5316 112.772 92.073C112.772 92.073 112.772 92.073 112.772 92.073C112.384 91.4115 112.075 90.8414 111.71 90.1022C111.707 90.0968 111.7 90.0801 111.697 90.0747C111.622 89.9326 111.549 89.794 111.477 89.6569C110.8 88.3722 110.28 87.0845 109.898 85.6982L109.942 86.0737C109.826 81.9457 110.312 77.3869 109.857 72.9043C109.32 68.1146 108.682 63.5265 106.866 58.8066C105.649 56.1658 104.235 53.4823 102.375 51.1292C102.251 50.9702 102.126 50.8127 101.999 50.6546C100.244 48.5695 98.8897 46.0677 96.1033 44.2246C95.5493 43.8826 94.9053 43.5572 94.067 43.4267C94.021 43.4186 93.9731 43.4109 93.9282 43.4036C92.8198 43.2403 91.9416 43.1442 90.8019 43.0888Z" fill="#1E1E1E"/>
<path d="M85.0523 47.3966C84.8368 47.4221 85.2855 47.2821 86.4299 47.0565C87.0078 46.9425 87.6072 46.9967 88.1924 47.2585C90.755 49.5181 93.618 52.6781 94.9787 54.6847C95.2474 55.2693 95.5287 56.0265 96 57" stroke="#1E1E1E" stroke-width="4" stroke-linecap="round" stroke-linejoin="round"/>
<path d="M35.0384 54C35.5688 54.1892 36.0775 53.9988 36.4526 53.6069C36.8277 53.2136 37.0384 52.6269 37.0384 52C37.0384 51.3731 36.8277 50.7864 36.4526 50.3931C36.0775 50.0012 35.5688 49.8108 35.0384 50C35.0343 50.0024 35.0587 50.0023 35.1533 50.01C35.2668 50.0411 35.3679 49.9567 35.9969 50.2729C36.3027 50.4169 36.857 50.9997 36.9456 51.5947C37.0466 52.1691 36.9259 52.4571 36.873 52.6333C36.7405 52.9783 36.6648 53.0431 36.6121 53.1229C36.4206 53.3586 36.4145 53.3248 36.3817 53.3511C36.0625 53.4958 36.1774 53.2889 36.2776 53.1898C36.3173 53.1483 36.3653 53.1064 36.4179 53.0653C37.4933 52.3232 38.8193 51.9382 40.1984 51.824C40.2828 51.8166 40.3743 51.8095 40.4595 51.8035C43.3567 51.6023 46.2647 51.5597 49.2066 51.6314C49.4982 51.6424 49.8015 51.655 50.0815 51.6767C50.3523 51.693 50.649 51.7507 50.485 51.7826C50.4723 51.807 50.3536 51.7827 50.3744 51.8176C50.397 51.8799 50.566 52.0632 50.7161 52.2549C51.065 52.6644 51.5841 52.8368 52.1176 52.7839C52.6516 52.7304 53.1635 52.4472 53.5335 52.0053C53.9034 51.5635 54.0923 51.0097 54.051 50.4747C54.0094 49.9402 53.7484 49.4595 53.2839 49.188C53.2839 49.188 53.2839 49.188 53.2839 49.188C52.9854 49.0072 52.7004 48.8224 52.2179 48.5914C51.9745 48.4737 51.5709 48.3307 51.2595 48.2918C50.4997 48.1914 50.1796 48.3204 49.8479 48.3705C49.5226 48.4355 49.219 48.5028 48.915 48.5684C46.0766 49.2079 43.2095 49.6078 40.3198 49.8084C40.2347 49.8144 40.1431 49.8201 40.0583 49.8245C38.6202 49.8995 37.1206 49.855 35.4835 49.9243C35.371 49.9323 35.2546 49.9432 35.1328 49.959C34.7724 50.0279 34.4186 50.0092 33.7298 50.4842C33.6639 50.5415 33.6251 50.5385 33.4068 50.8104C33.3475 50.8992 33.2657 50.9736 33.1294 51.3292C33.0746 51.5106 32.9528 51.8044 33.0548 52.3843C33.1444 52.9849 33.7028 53.5723 34.0135 53.719C34.6525 54.0407 34.7651 53.9573 34.8897 53.9893C34.9956 53.9977 35.0312 53.9976 35.0384 54Z" fill="#1E1E1E"/>
<path d="M75.4208 84C74.8333 83.5962 73.312 82.4043 71.1387 81.2216C68.5625 79.8196 66.422 75.7594 62.7134 70.6774C58.7617 65.2622 58.1154 61.665 57.1261 59.2739C56.9201 58.7761 56.9974 58.1692 57.1384 57.3825C57.2794 56.5957 57.576 55.6181 57.8473 54.9149C58.1185 54.2117 58.3552 53.8125 58.7068 53.5112C59.0584 53.2098 59.5177 53.0184 60.0068 53.0012C60.4958 52.9841 61.0007 53.147 61.4833 53.402C61.9659 53.657 62.4109 53.9992 62.76 54.4117C64.1501 56.0545 64.9487 58.1327 66.1271 60.1777C67.3124 62.2346 68.5309 64.1018 69.9477 65.5833C71.721 66.5776 73.2989 67.2599 74.1822 67.6754C74.6633 67.8221 75.211 67.8383 76 68.7068" stroke="#1E1E1E" stroke-width="4" stroke-linecap="round" stroke-linejoin="round"/>
<path d="M78.0267 68.8856C77.999 68.8856 77.9713 68.8856 78.0628 69.1524C78.1542 69.4192 78.3656 69.9527 78.7224 70.3151C79.0792 70.6776 79.5749 70.8527 80.0921 70.9429C80.6092 71.0332 81.1326 71.0332 81.5659 70.8193C81.9991 70.6055 82.3263 70.1779 82.5414 69.6846C82.97 68.7018 83.0109 65.3585 82.9981 60.9999C82.9933 59.3637 82.6958 58.9059 82.4043 58.5425C82.1127 58.1792 81.7604 57.9266 81.3688 57.709C80.9771 57.4913 80.5569 57.3162 80.406 57" stroke="#1E1E1E" stroke-width="4" stroke-linecap="round" stroke-linejoin="round"/>
<path d="M36.1176 63.6104C36.5676 63.3296 36.8876 62.8815 37.0072 62.3647C37.1268 61.8479 37.0362 61.3048 36.7554 60.8548C36.4746 60.4048 36.0265 60.0848 35.5097 59.9652C34.993 59.8456 34.4498 59.9361 33.9998 60.217C33.9998 60.217 33.9998 60.217 33.9998 60.217C33.9842 60.228 33.9459 60.2457 33.8073 60.3491C33.7336 60.4114 33.6376 60.4635 33.4193 60.735C33.315 60.882 33.1403 61.0931 33.0353 61.5908C32.9087 62.0868 33.1258 62.8554 33.4006 63.1712C33.9326 63.7974 34.1489 63.7633 34.2942 63.8491C34.4368 63.9038 34.5163 63.9224 34.5827 63.9388C34.7099 63.9681 34.7745 63.9758 34.8329 63.9838C34.9342 63.9968 35.2269 63.9977 35.3282 63.9854C35.4073 63.9758 35.4877 63.9657 35.5679 63.9555C37.6954 63.6844 39.9711 63.2436 41.7173 63.0109L41.6728 63.0139C41.7089 63.0119 41.7441 63.01 41.7788 63.0084C42.0251 62.9969 42.2485 62.9973 42.4973 63.0092C42.6086 63.0145 42.7231 63.022 42.8406 63.0314C43.3693 63.0736 43.8932 62.9041 44.297 62.5602C44.7008 62.2162 44.9514 61.7259 44.9936 61.1971C45.0359 60.6684 44.8664 60.1445 44.5224 59.7407C44.1784 59.337 43.6882 59.0864 43.1594 59.0441C43.0051 59.0318 42.848 59.0213 42.6874 59.0137C42.3324 58.9962 41.9507 58.9954 41.5932 59.0127C41.5433 59.0151 41.4942 59.0176 41.4458 59.0204C41.4369 59.0209 41.4103 59.0227 41.4014 59.0234C38.9745 59.3386 37.1118 59.7291 35.0612 59.9877C34.9884 59.997 34.916 60.006 34.8455 60.0146L35.3408 60.0162C35.3694 60.0203 35.4047 60.0235 35.5028 60.046C35.5546 60.0589 35.6197 60.0735 35.7486 60.1229C35.8803 60.2032 36.0821 60.1624 36.605 60.777C36.8752 61.0868 37.0902 61.8477 36.9652 62.3363C36.8616 62.8266 36.6909 63.0313 36.591 63.1723C36.3819 63.432 36.2976 63.4745 36.2356 63.5277C36.1208 63.6131 36.108 63.6151 36.1176 63.6104Z" fill="#1E1E1E"/>
<path d="M58.483 68.9408C59.0125 68.8721 59.4569 68.5512 59.7289 68.0913C60.0009 67.631 60.0764 67.062 59.9408 66.517C59.8052 65.972 59.4717 65.5047 59.0158 65.2256C58.5599 64.9469 58.0169 64.8717 57.517 65.0592C57.517 65.0592 57.517 65.0592 57.517 65.0592C56.7562 65.3142 56.0631 65.7005 55.4745 66.1499C52.0757 68.9868 51.4464 72.6907 50.0294 75.4667C49.2901 76.8248 49.1519 78.295 49.0297 79.5343C48.9813 80.2326 48.9044 80.9151 49.3257 81.8447C49.3464 81.8851 49.3681 81.9245 49.3915 81.9641C49.8331 82.755 50.8131 83.0585 51.4696 83.0025C52.3355 82.9437 52.9509 82.633 53.5326 82.2981C56.0206 80.7685 57.8551 78.6957 59.7293 76.8117L59.6504 76.8986C60.4558 76.216 61.3552 75.6347 62.3068 75.1456C62.3906 75.1009 62.469 75.0598 62.5449 75.021C63.0086 74.7828 63.4272 74.6158 63.9207 74.4373C64.4215 74.2508 64.7793 73.8357 64.9369 73.3249C65.0943 72.8137 65.0349 72.2414 64.7755 71.7412C64.516 71.2409 64.0825 70.8626 63.574 70.6967C63.0657 70.5313 62.5203 70.5846 62.0793 70.8864C62.0793 70.8864 62.0793 70.8864 62.0793 70.8864C61.5694 71.2259 61.0113 71.626 60.5401 72.0198C60.4653 72.0816 60.3936 72.1418 60.3245 72.2001C59.3461 73.0079 58.4198 73.8921 57.59 74.869C57.5749 74.8871 57.5247 74.9367 57.5111 74.9559C55.9929 77.1003 54.426 79.2037 52.4384 80.5426C52.0663 80.7933 51.6272 80.9765 51.3631 80.9917C51.1292 80.9993 51.1251 80.9587 51.1115 80.9434C51.1101 80.9411 51.1086 80.9384 51.107 80.9351C51.0169 80.7853 50.9708 80.2291 51.0394 79.762C51.1859 78.5117 51.3907 77.4102 51.9394 76.5756C53.6716 73.5019 55.1352 70.2747 57.4388 69.2028C57.798 69.0412 58.1468 68.9576 58.483 68.9408Z" fill="#1E1E1E"/>
<path d="M37.0023 74C37.5327 74 38.0415 73.7893 38.4165 73.4142C38.7916 73.0391 39.0023 72.5304 39.0023 72C39.0023 71.4696 38.7916 70.9609 38.4165 70.5858C38.0415 70.2107 37.5327 70 37.0023 70C37.2802 70.0024 37.8263 70.0494 38.3588 70.5314C38.9172 71.0316 39.0329 71.7856 38.9959 72.1255C38.9484 72.62 38.8472 72.7485 38.8027 72.8629C38.7214 73.028 38.6695 73.0959 38.6429 73.1358C38.5773 73.2278 38.5589 73.2462 38.5376 73.2722C38.4986 73.3176 38.4866 73.3293 38.4755 73.3411C38.4556 73.3617 38.4534 73.3633 38.453 73.3637C38.4538 73.363 38.4681 73.3497 38.4842 73.3356C38.5174 73.3064 38.5625 73.2682 38.6089 73.2302C38.6936 73.1607 38.7872 73.0871 38.8839 73.0133L38.3576 73.302C40.1182 72.7522 42.6975 72.3983 44.9853 72.0411C45.0731 72.0278 45.1636 72.0141 45.2506 72.001L45.1854 72.0098C45.2935 71.9982 45.3109 71.9979 45.4135 72.0029C45.4929 72.0075 45.6131 72.0203 45.7479 72.0375C46.2741 72.1044 46.8053 71.9595 47.2246 71.6347C47.644 71.3099 47.9172 70.8318 47.984 70.3056C48.0509 69.7794 47.906 69.2482 47.5812 68.8288C47.2564 68.4095 46.7783 68.1363 46.2521 68.0694C46.2521 68.0694 46.2521 68.0694 46.2521 68.0694C46.0767 68.0474 45.8876 68.0246 45.655 68.0102C45.3697 67.9902 44.997 68.0017 44.7189 68.037C44.7059 68.0386 44.6667 68.0438 44.6537 68.0458C44.5665 68.0589 44.4757 68.0726 44.3873 68.086C41.9724 68.4834 39.7793 68.6869 36.9821 69.5459C36.8643 69.589 36.5555 69.7584 36.4558 69.8345C36.3299 69.9308 36.2039 70.0295 36.0718 70.1377C35.9985 70.1979 35.923 70.2612 35.8394 70.3348C35.7971 70.3722 35.753 70.4116 35.6977 70.4641C35.6687 70.4918 35.6388 70.5204 35.5918 70.5691C35.5673 70.5949 35.5423 70.6204 35.4903 70.6811C35.4627 70.7146 35.4386 70.7399 35.3668 70.8406C35.3377 70.884 35.2825 70.957 35.1995 71.1258C35.1539 71.2425 35.0517 71.3735 35.0041 71.87C34.967 72.2115 35.0831 72.9666 35.6423 73.4675C36.1755 73.9502 36.7229 73.9976 37.0023 74Z" fill="#1E1E1E"/>
<path d="M79 70H78" stroke="#1E1E1E" stroke-width="4" stroke-linecap="round" stroke-linejoin="round"/>
<path d="M75 84C75.208 84.4662 78.0413 87.4381 79.9727 90.2018C81.0586 93.3046 81.9455 96.0916 82.4258 97.026C82.664 97.5121 82.8914 98.0222 84 97.9993" stroke="#1E1E1E" stroke-width="4" stroke-linecap="round" stroke-linejoin="round"/>
</svg>
