<svg width="160" height="113" viewBox="0 0 160 113" fill="none" xmlns="http://www.w3.org/2000/svg">
<circle cx="78" cy="12" r="3.5" fill="white" stroke="white"/>
<path d="M78.4705 13.2995C78.5268 13.46 78.5436 13.7361 78.5747 14.1734C78.65 14.1762 78.7266 14.1739 78.8039 14.1671C79.0702 14.1437 79.3358 14.0664 79.5779 13.9156C79.82 13.7648 80.0307 13.5429 80.2072 13.2945C80.3837 13.0461 80.5198 12.7781 80.6069 12.52C80.694 12.2619 80.728 12.0218 80.7285 11.8028C80.729 11.5837 80.695 11.393 80.5925 11.2018C80.3757 10.7978 79.9274 10.4542 79.4891 10.1588C79.2847 10.021 79.0495 9.9949 78.8349 10.0008C78.6203 10.0066 78.4162 10.0674 78.2398 10.1942C78.0633 10.3209 77.9207 10.5116 77.827 10.7176C77.7332 10.9235 77.6927 11.1389 77.6751 11.3601C77.6711 11.41 77.6683 11.4599 77.6677 11.5092C77.9567 11.4181 78.2032 11.4103 78.3713 11.4879C78.546 11.5686 78.6337 11.7363 78.6074 11.8972C78.5811 12.0582 78.4451 12.2078 78.2685 12.2267C78.092 12.2456 77.8814 12.1371 77.7727 11.9693C77.6885 11.8394 77.6656 11.678 77.6677 11.5092C77.6683 11.4599 77.6711 11.41 77.6751 11.3601C77.6927 11.1389 77.7332 10.9235 77.827 10.7176C77.9207 10.5116 78.0633 10.3209 78.2398 10.1942C78.4162 10.0674 78.6203 10.0066 78.8349 10.0008C79.0495 9.9949 79.2847 10.021 79.4891 10.1588C79.9274 10.4542 80.3757 10.7978 80.5925 11.2018C80.695 11.393 80.729 11.5837 80.7285 11.8028C80.728 12.0218 80.694 12.2619 80.6069 12.52C80.5198 12.7781 80.3837 13.0461 80.2072 13.2945C80.0307 13.5429 79.82 13.7648 79.5779 13.9156C79.3358 14.0664 79.0702 14.1437 78.8039 14.1671C78.7266 14.1739 78.65 14.1762 78.5747 14.1734C78.3905 14.1665 78.2146 14.1288 78.0581 14.0504C77.8376 13.9399 77.661 13.7541 77.6394 13.5561C77.6178 13.3582 77.7474 13.1543 77.928 13.0896C78.1087 13.0249 78.3917 13.0747 78.4705 13.2995Z" fill="white"/>
<path d="M82 29C81.9608 29 81.8385 28.7007 81.6427 28.0023C81.3969 27.1259 80.7222 24.2651 79.6341 20.1681C78.4166 15.5836 78.6544 13.824 78.4705 13.2995C78.3917 13.0747 78.1087 13.0249 77.928 13.0896C77.7474 13.1543 77.6178 13.3582 77.6394 13.5561C77.661 13.7541 77.8376 13.9399 78.0581 14.0504C78.2786 14.1609 78.5377 14.1905 78.8039 14.1671C79.0702 14.1437 79.3358 14.0664 79.5779 13.9156C79.82 13.7648 80.0307 13.5429 80.2072 13.2945C80.3837 13.0461 80.5198 12.7781 80.6069 12.52C80.694 12.2619 80.728 12.0218 80.7285 11.8028C80.729 11.5837 80.695 11.393 80.5925 11.2018C80.3757 10.7978 79.9274 10.4542 79.4891 10.1588C79.2847 10.021 79.0495 9.9949 78.8349 10.0008C78.6203 10.0066 78.4162 10.0674 78.2398 10.1942C78.0633 10.3209 77.9207 10.5116 77.827 10.7176C77.7332 10.9235 77.6927 11.1389 77.6751 11.3601C77.6574 11.5812 77.664 11.8016 77.7727 11.9693C77.8814 12.1371 78.092 12.2456 78.2685 12.2267C78.4451 12.2078 78.5811 12.0582 78.6074 11.8972C78.6337 11.7363 78.546 11.5686 78.3713 11.4879C78.1967 11.4073 77.9376 11.4188 77.6341 11.5201C77.3306 11.6214 76.9904 11.8121 76.7164 12.0066C76.4424 12.201 76.2448 12.3934 76.1228 12.5937C76.0007 12.7939 75.9602 12.9961 76.0446 13.1875C76.129 13.3788 76.3397 13.5531 76.5567 13.7327" stroke="white" stroke-width="4" stroke-linecap="round" stroke-linejoin="round"/>
<path d="M87.8825 24.6293C87.8736 24.5883 87.8669 24.5441 87.8615 24.4996C87.8544 24.4895 87.8475 24.4793 87.8407 24.469C87.7851 24.3851 87.7361 24.2961 87.6937 24.2046C87.6094 24.0231 87.5509 23.8318 87.5174 23.6512C87.4669 23.3796 87.4726 23.1396 87.543 22.9125C87.6134 22.6854 87.7444 22.4775 87.9331 22.3256C88.1217 22.1738 88.3575 22.0594 88.5792 22.0343C88.9896 21.9878 89.4033 21.9753 89.8369 22.0828C90.0676 22.14 90.3124 22.2329 90.4443 22.3961C90.4538 22.4079 90.4627 22.42 90.4711 22.4324C90.5975 22.5172 90.7077 22.6167 90.793 22.7347C90.9406 22.9388 91.0119 23.1907 90.9984 23.4394C90.9849 23.6881 90.8895 23.9264 90.734 24.1849C90.5786 24.4434 90.3694 24.7139 90.1197 24.8935C90.0668 24.9316 90.0125 24.9655 89.957 24.9954C89.8847 25.1136 89.8032 25.2278 89.7106 25.3351C89.5345 25.5393 89.3667 25.6255 89.1839 25.6564C89.0012 25.6873 88.8092 25.6637 88.6333 25.5848C88.4574 25.5059 88.3022 25.3757 88.1696 25.2097C88.037 25.0436 87.9301 24.8475 87.8825 24.6293Z" fill="white"/>
<path d="M71.3846 36.8208C70.9941 37.1925 70.856 37.7215 70.9447 38.2507C71.034 38.7802 71.3527 39.2737 71.8208 39.6154C72.2889 39.9571 72.8561 40.1102 73.3877 40.0339C73.9187 39.9571 74.3805 39.6644 74.6154 39.1792C74.6154 39.1792 74.6154 39.1792 74.6154 39.1792C74.8188 38.711 75.1789 38.116 75.5152 37.6011C75.8036 37.1623 76.1128 36.7353 76.441 36.3254C77.9475 34.4868 79.8276 32.7641 81.626 31.0172C81.6339 31.0095 81.6419 31.0018 81.6499 30.9941C83.4768 29.2336 85.3284 27.5318 87.2917 25.9531C87.4986 25.7843 87.7025 25.6142 87.9006 25.4493C87.9997 25.367 88.0977 25.2856 88.19 25.2113C88.2693 25.1455 88.4114 25.0424 88.362 25.0805C88.2567 25.1404 88.1444 25.2042 87.9043 25.2323C87.686 25.2599 87.4003 25.1871 87.2365 25.081C86.904 24.8583 86.8803 24.72 86.8296 24.6436C86.7569 24.4899 86.7597 24.4585 86.7491 24.4243C86.7368 24.3693 86.7385 24.3706 86.7379 24.373C86.7382 24.383 86.7409 24.4245 86.7439 24.4704C86.7513 24.5666 86.7568 24.6841 86.7931 24.8665C86.8786 25.2819 87.0677 25.6332 87.2859 25.9154C87.4895 26.1778 87.772 26.4484 88.1642 26.6309C88.5341 26.8029 88.9604 26.8677 89.3777 26.802C89.8829 26.7415 90.3843 26.3731 90.6042 26.1059C91.1944 25.4421 91.4546 24.69 91.6385 24.0667C91.7182 23.7905 91.7958 23.4842 91.8336 23.1231C91.8512 22.8136 91.9353 22.2494 91.444 21.5881C90.8944 20.9666 90.4791 20.9237 90.1526 20.8094C89.5424 20.6379 88.9183 20.6398 88.4258 20.68C87.8141 20.7525 87.4301 20.9665 87.0592 21.2399C86.6289 21.5722 86.336 22.025 86.1813 22.4906C86.0094 22.9946 86.0177 23.5249 86.0818 23.9181C86.1601 24.3964 86.3056 24.8398 86.588 25.2993C86.8708 25.7528 87.2848 26.1618 87.8138 26.4321C88.3364 26.701 88.9156 26.7919 89.4219 26.7672C89.9559 26.7468 90.5696 26.5736 91.0769 26.2237C91.6232 25.8411 91.9214 25.4473 92.1843 25.0571C92.3958 24.7305 92.6789 24.2293 92.7352 23.5338C92.7842 22.8916 92.6196 22.2428 92.2393 21.6887C91.82 21.0915 91.3184 20.7956 90.9231 20.5957C90.6616 20.467 90.4082 20.372 90.1531 20.2964C89.9963 20.2501 89.8389 20.2116 89.676 20.1803C89.3281 20.1186 88.8354 20.0424 88.1771 20.2198C87.9212 20.2819 87.5077 20.4884 87.2835 20.6763C87.0455 20.8657 86.9117 21.0194 86.8005 21.1478C86.5864 21.4028 86.4629 21.5861 86.3405 21.7648C86.0362 22.2009 85.9523 22.7436 86.0843 23.2597C86.2166 23.776 86.558 24.2259 87.0293 24.5081C87.5007 24.7902 88.0585 24.8786 88.576 24.7512C89.0933 24.6237 89.532 24.2934 89.7726 23.8192C89.7726 23.8192 89.7726 23.8192 89.7726 23.8192C89.8255 23.7063 89.8833 23.6017 89.8792 23.59C89.8739 23.5854 89.853 23.6121 89.7469 23.6934C89.6533 23.7729 89.3932 23.8991 89.3003 23.9135C89.0675 23.9618 89.0286 23.9083 89.1162 23.9112C89.1564 23.9104 89.2006 23.9124 89.243 23.9162C89.3122 23.9223 89.3771 23.9339 89.4207 23.942C89.5005 23.9558 89.4569 23.9511 89.3467 23.7807C89.2595 23.631 89.2401 23.4891 89.2615 23.345C89.2903 23.1852 89.3455 23.1852 89.2837 23.3127C89.2213 23.459 89.1267 23.5742 89.1626 23.5633C89.1957 23.5575 89.2328 23.5731 89.1846 23.5942C89.1319 23.6124 89.1364 23.619 89.1522 23.6432C89.1583 23.6631 89.1296 23.6677 89.0935 23.6387C89.051 23.605 88.9841 23.4852 88.9529 23.3843C88.9248 23.2897 88.9264 23.3071 88.9047 23.3344C88.8902 23.345 88.8645 23.378 88.8069 23.4114C88.8089 23.3881 88.8674 23.3744 88.7326 23.3887C89.0762 23.3314 89.3106 23.3207 89.5213 23.3561C89.6373 23.3565 89.6904 23.4663 89.4446 23.2041C89.2351 22.893 89.3328 22.8064 89.3183 22.9274C89.3171 23.0611 89.2911 23.242 89.2465 23.4455C89.1399 23.9497 88.996 24.3347 88.8171 24.5644C88.7673 24.6167 88.9052 24.5089 88.9902 24.5108C89.0369 24.5083 89.075 24.5209 89.1024 24.5386C89.1272 24.5566 89.0994 24.5545 89.0533 24.5039C89.0001 24.4465 88.9791 24.4032 88.972 24.392C88.9719 24.4053 88.9612 24.3501 88.9531 24.2742C88.9484 24.2339 88.9443 24.1893 88.9345 24.1133C88.9288 24.0728 88.9247 24.0309 88.9031 23.9342C88.8874 23.8785 88.8848 23.8263 88.8025 23.6531C88.7469 23.5672 88.7174 23.4194 88.3756 23.1909C88.2072 23.082 87.9159 23.0078 87.6923 23.036C87.4464 23.0648 87.33 23.1303 87.2193 23.1934C86.9516 23.3707 86.8973 23.4389 86.7778 23.5386C86.6722 23.6315 86.5744 23.72 86.4773 23.8076C86.2842 23.9821 86.0964 24.1517 85.9074 24.3179C83.9629 26.0044 82.1031 27.7792 80.2605 29.5555C80.2528 29.5629 80.2452 29.5703 80.2375 29.5778C78.4862 31.2798 76.5156 32.68 74.4282 34.2398C73.9586 34.6 73.497 34.9698 73.0405 35.3495C72.4849 35.8182 71.9794 36.2326 71.3846 36.8208Z" fill="white"/>
<path d="M63.489 29.4941C63.3605 29.4448 63.2564 29.369 63.1863 29.2746C63.1828 29.2751 63.1792 29.2756 63.1756 29.2761C62.9661 29.3044 62.7653 29.2511 62.5795 29.1429C62.3938 29.0347 62.2282 28.8764 62.1302 28.6915C62.0321 28.5067 62.0026 28.3016 62.0002 28.09C61.9977 27.8784 62.0215 27.6668 62.0971 27.4795C62.1728 27.2922 62.2964 27.1339 62.4588 27.0581C62.6211 26.9822 62.8192 26.9759 63.1967 27.0676C64.1262 27.2936 64.9493 27.4807 65.2814 27.7964C65.4452 27.9522 65.5518 28.1589 65.5625 28.3829C65.5725 28.5929 65.5004 28.8118 65.3894 28.9848C65.3819 28.9964 65.3743 29.0078 65.3665 29.019C65.2427 29.1969 65.0828 29.3148 64.8725 29.4004C64.6621 29.4859 64.4092 29.5376 64.1611 29.5577C63.913 29.5777 63.6771 29.5664 63.489 29.4941Z" fill="white"/>
<path d="M78.7463 73C78.7349 73 78.7177 72.7351 78.73 71.1304C78.7403 69.7904 78.8127 67.3839 78.8402 64.2211C78.8678 61.0584 78.8621 57.2125 78.9034 53.3237C78.9448 49.4349 79.0332 45.6197 78.9869 43.6333C78.9406 41.6469 78.7568 41.6049 78.5737 41.513C77.7103 41.0799 76.2254 39.9984 74.737 38.9924C73.9917 38.4887 72.837 37.166 71.391 35.5704C69.7172 33.7233 68.0827 32.5856 66.0827 29.7901C65.6542 29.1911 65.4301 29.0059 65.238 28.8681C64.8996 28.6253 64.5383 28.4889 64.1846 28.3212C64.0045 28.2358 63.8139 28.1697 63.6341 28.2154C63.4542 28.2612 63.2886 28.426 63.1885 28.6045C63.0884 28.7831 63.059 28.9704 63.1118 29.1316C63.1647 29.2927 63.3008 29.4219 63.489 29.4941C63.6771 29.5664 63.913 29.5777 64.1611 29.5577C64.4092 29.5376 64.6621 29.4859 64.8725 29.4004C65.0828 29.3148 65.2427 29.1969 65.3665 29.019C65.4903 28.8412 65.5732 28.607 65.5625 28.3829C65.5518 28.1589 65.4452 27.9522 65.2814 27.7964C64.9493 27.4807 64.1262 27.2936 63.1967 27.0676C62.8192 26.9759 62.6211 26.9822 62.4588 27.0581C62.2964 27.1339 62.1728 27.2922 62.0971 27.4795C62.0215 27.6668 61.9977 27.8784 62.0002 28.09C62.0026 28.3016 62.0321 28.5067 62.1302 28.6915C62.2282 28.8764 62.3938 29.0347 62.5795 29.1429C62.7653 29.2511 62.9661 29.3044 63.1756 29.2761C63.3851 29.2478 63.5972 29.1364 63.7241 28.9877C63.851 28.839 63.8862 28.6565 63.851 28.4866C63.8158 28.3166 63.7091 28.1648 63.4205 28.2727" stroke="white" stroke-width="4" stroke-linecap="round" stroke-linejoin="round"/>
<path d="M90.2953 35.9825C90.2735 35.9182 90.2578 35.856 90.249 35.7968C90.1899 35.7072 90.1412 35.6112 90.104 35.5116C89.9989 35.2305 89.9851 34.9295 90.0118 34.6492C90.0385 34.3689 90.1039 34.117 90.2277 33.8865C90.3516 33.6559 90.5287 33.453 90.7615 33.3071C90.9944 33.1612 91.2745 33.075 91.6034 33.0345C91.9324 32.994 92.2995 32.9933 92.5899 33.0112C93.0892 33.0419 93.6956 33.0957 94.3114 33.3812C94.5958 33.5131 94.7993 33.6788 94.9043 33.8697C95.0092 34.0606 95.0155 34.2702 94.9818 34.5049C94.948 34.7395 94.8764 34.9915 94.7559 35.2403C94.6353 35.4891 94.4856 35.7405 94.2475 35.967C93.7697 36.4213 93.3416 36.7706 92.9744 36.9344C92.9595 36.9411 92.9448 36.9474 92.9301 36.9534C92.7406 37.0312 92.5434 37.0853 92.2766 37.1063C92.0097 37.1272 91.6832 37.1154 91.3989 37.0337C91.1146 36.952 90.8798 36.8048 90.6918 36.6137C90.5039 36.4225 90.367 36.1942 90.2953 35.9825Z" fill="white"/>
<path d="M94.645 45C94.4736 44.7108 94.2492 42.5647 93.9379 40.2007C93.8027 39.1735 93.1896 37.4681 92.8361 36.5787C92.4827 35.6892 92.2805 35.6892 92.0715 35.6334C91.6337 35.5166 91.2218 35.2969 90.8015 35.2488C90.5975 35.2254 90.4064 35.3223 90.3119 35.4519C90.2173 35.5814 90.2236 35.7708 90.2953 35.9825C90.367 36.1942 90.5039 36.4225 90.6918 36.6137C90.8798 36.8048 91.1146 36.952 91.3989 37.0337C91.6832 37.1154 92.0097 37.1272 92.2766 37.1063C92.5434 37.0853 92.7406 37.0312 92.9301 36.9534C93.307 36.7988 93.7504 36.4397 94.2475 35.967C94.4856 35.7405 94.6353 35.4891 94.7559 35.2403C94.8764 34.9915 94.948 34.7395 94.9818 34.5049C95.0155 34.2702 95.0092 34.0606 94.9043 33.8697C94.7993 33.6788 94.5958 33.5131 94.3114 33.3812C93.6956 33.0957 93.0892 33.0419 92.5899 33.0112C92.2995 32.9933 91.9324 32.994 91.6034 33.0345C91.2745 33.075 90.9944 33.1612 90.7615 33.3071C90.5287 33.453 90.3516 33.6559 90.2277 33.8865C90.1039 34.117 90.0385 34.3689 90.0118 34.6492C89.9851 34.9295 89.9989 35.2305 90.104 35.5116C90.2091 35.7926 90.405 36.0446 90.6692 36.2048C90.9334 36.365 91.26 36.4259 91.6078 36.3778C91.9556 36.3297 92.3148 36.1707 92.5752 36.0212C92.8356 35.8717 92.9864 35.7364 93.1488 35.5526C93.3112 35.3687 93.4807 35.1404 93.5486 34.9155C93.6165 34.6905 93.5776 34.4757 93.4068 34.3279C93.236 34.18 92.9346 34.1056 92.5344 34.0707C92.1342 34.0358 91.6444 34.0425 91.2909 34.095C90.9375 34.1476 90.7353 34.2456 90.2681 34.7925" stroke="white" stroke-width="4" stroke-linecap="round" stroke-linejoin="round"/>
<path d="M59.4024 40.5703C59.4172 40.5858 59.4315 40.6022 59.4449 40.6193C59.462 40.6244 59.4791 40.6298 59.4963 40.6355C59.6436 40.6836 59.7939 40.7489 59.9196 40.833C59.9931 40.8821 60.0582 40.9377 60.1093 41C60.248 41.1689 60.2833 41.381 60.268 41.586C60.2527 41.7911 60.1886 41.9833 60.0712 42.1784C59.9831 42.3247 59.8678 42.4694 59.7269 42.5969C59.5544 42.985 59.3632 43.3306 59.0994 43.6168C58.9618 43.7662 58.8115 43.8921 58.6094 43.9551C58.4074 44.0181 58.1609 44.0181 57.9546 43.9344C57.7483 43.8508 57.5463 43.7007 57.4972 43.4425C57.4547 43.2185 57.4225 42.9782 57.4074 42.7319C57.4058 42.7305 57.4043 42.729 57.4027 42.7275C57.2313 42.5676 57.1108 42.3439 57.0506 42.1015C56.9904 41.859 56.9904 41.6056 57.0171 41.3798C57.0439 41.154 57.0958 40.9618 57.2197 40.7761C57.3436 40.5904 57.5336 40.4164 57.7231 40.3295C57.9127 40.2425 58.0961 40.2425 58.2971 40.2544C58.4981 40.2664 58.7103 40.2896 58.9057 40.3328C59.1011 40.3759 59.2746 40.4372 59.4024 40.5703Z" fill="white"/>
<path d="M68 36.1473C68.5304 36.3793 69.0391 36.1935 69.4142 35.7978C69.7893 35.4003 70 34.796 70 34.1473C70 33.4987 69.7893 32.8944 69.4142 32.4969C69.0391 32.1012 68.5304 31.9154 68 32.1473C68 32.1473 68 32.1473 68 32.1473C68.2597 32.153 68.3336 32.18 68.4019 32.1928C68.4596 32.2064 68.4933 32.217 68.5161 32.2246C68.5618 32.2402 68.575 32.2477 68.5847 32.2535C68.6006 32.2642 68.5911 32.2666 68.5798 32.268C68.5548 32.2702 68.5138 32.2667 68.4731 32.2639C68.3903 32.2577 68.3007 32.2514 68.215 32.2486C68.0419 32.2424 67.8756 32.2468 67.7168 32.2589C66.9265 32.2068 66.6846 32.4424 66.485 32.5458C66.2972 32.6694 66.1915 32.7743 66.0953 32.8725C65.9122 33.0659 65.791 33.2333 65.6756 33.3922C65.0187 34.3462 64.4478 35.1196 63.6973 35.7872C63.6298 35.8479 63.5641 35.9065 63.4959 35.967C61.8527 37.3695 60.0667 39.2947 58.7774 40.4091C58.7728 40.4121 58.768 40.4154 58.7593 40.4214C58.7571 40.4229 58.7546 40.4247 58.7515 40.4269C58.7496 40.4283 58.7397 40.4351 58.7189 40.451C58.7066 40.4609 58.695 40.4684 58.6501 40.5087C58.6246 40.5349 58.5985 40.5476 58.5035 40.6736C58.4628 40.7534 58.3525 40.814 58.3044 41.2384C58.2832 41.4452 58.3733 41.8264 58.6221 42.0575C58.8651 42.2907 59.1059 42.3373 59.2424 42.3556C59.5213 42.379 59.592 42.336 59.6604 42.3228C59.7222 42.305 59.7531 42.292 59.778 42.2819C59.8265 42.2615 59.8431 42.2522 59.8485 42.2497C59.8648 42.2415 59.8751 42.2359 59.8834 42.2313C59.8998 42.2223 59.9083 42.2172 59.9154 42.213C59.9288 42.205 59.935 42.2011 59.9405 42.1976C59.9676 42.1803 59.9649 42.1817 59.9724 42.1767C59.981 42.1709 59.9882 42.1659 59.9935 42.1621C60.0053 42.1539 60.0143 42.1473 60.0226 42.1412C60.0397 42.1286 60.0545 42.1172 60.069 42.1057C60.0976 42.083 60.1241 42.0606 60.1503 42.0371C60.2025 41.99 60.253 41.9392 60.3042 41.8792C60.4046 41.7596 60.5148 41.6037 60.5899 41.3666C60.7751 40.5198 60.4752 40.1802 60.1846 39.8195C59.8116 39.4293 59.3821 39.3221 59.1423 39.2618C58.8597 39.1953 58.6071 39.165 58.3631 39.1448C58.1483 39.1249 57.6815 39.1072 57.2532 39.3055C56.7784 39.5325 56.5249 39.785 56.2667 40.1405C56.0158 40.492 55.8969 40.9489 55.8608 41.2428C55.8136 41.5891 55.8037 41.9671 55.8984 42.3877C55.9978 42.8104 56.1927 43.239 56.5762 43.6133C56.9707 43.9949 57.4519 44.1632 57.81 44.2405C58.227 44.3299 58.6434 44.3483 59.0881 44.2761C59.5313 44.2022 59.9617 44.0308 60.3398 43.7701C60.6938 43.5249 60.9823 43.2213 61.2107 42.8642C61.4095 42.5591 61.5844 42.123 61.6219 41.6873C61.6673 41.2737 61.5981 40.6379 61.1806 40.1205C60.692 39.5537 60.2978 39.4325 59.9378 39.2855C59.5929 39.1593 59.2221 39.0934 58.9184 39.0651C58.6498 39.043 58.2752 39.0086 57.7701 39.1583C57.2651 39.306 56.8124 39.6699 56.5547 40.0106C56.2106 40.458 56.0615 40.8868 55.9608 41.2668C55.7362 42.1659 55.7567 42.9693 55.8612 43.7532C56.0028 44.6989 56.8281 45.333 57.3126 45.518C57.9608 45.7803 58.5133 45.7909 59.1304 45.6273C59.7233 45.4638 60.1859 45.0681 60.4166 44.8306C60.9392 44.3023 61.2429 43.7401 61.4742 43.2879C61.4843 43.2687 61.5057 43.207 61.5146 43.1872C61.5387 43.13 61.5616 43.0733 61.5835 43.0162C61.704 42.6913 61.8111 42.3834 61.8694 41.8936C61.9305 41.6127 61.8363 40.73 61.4955 40.2585C61.1844 39.7808 60.928 39.5907 60.7255 39.4185C60.323 39.0708 59.7913 38.9339 59.2646 39.0149C58.7377 39.0962 58.2558 39.3928 57.928 39.8354C57.6002 40.278 57.4569 40.8254 57.5328 41.3531C57.6089 41.8806 57.8948 42.3493 58.3448 42.6329C58.3448 42.6329 58.3448 42.6329 58.3448 42.6329C58.377 42.6361 58.3471 42.6378 58.1983 42.4059C58.1277 42.2923 58.0434 42.0909 58.0164 41.9137C57.9871 41.7354 58.0034 41.6252 58.009 41.6118C58.0312 41.5795 58.0244 41.7194 58.0025 41.8298C57.9987 41.8502 57.9946 41.8706 57.9906 41.8899L58.031 41.7891C57.9258 42.1091 57.8344 42.3085 57.7823 42.4031C57.7437 42.461 57.883 42.329 58.0884 42.2829C58.2807 42.2487 58.3627 42.2536 58.5967 42.3508C58.6411 42.3781 58.7297 42.4232 58.8537 42.5551C58.9771 42.681 59.1075 42.9276 59.1332 43.1317C59.0121 42.7038 58.9666 42.247 59.0022 41.9348C59.009 41.8284 59.033 41.7759 58.9872 41.8203C58.9617 41.845 58.8302 41.9513 58.7008 41.9781C58.5784 42.0022 58.6131 41.9664 58.7431 41.9676C58.8904 41.9654 58.9699 41.9698 59.0548 41.9854C59.1474 41.9906 59.2121 42.0759 59.0381 41.8795C58.8895 41.6845 58.9018 41.4878 58.9141 41.4848C58.9225 41.4691 58.9507 41.439 58.9316 41.4925C58.9066 41.5555 58.8589 41.623 58.8154 41.6661C58.7629 41.7177 58.6927 41.7607 58.6135 41.7862C58.5279 41.8141 58.3954 41.8249 58.283 41.8122C58.1725 41.7995 58.1864 41.7912 58.2292 41.8417C58.2572 41.8832 58.2205 41.8623 58.2028 41.8153C58.1811 41.765 58.1642 41.6506 58.1734 41.5168C58.1848 41.386 58.1808 41.4165 58.1726 41.4118C58.1691 41.3931 58.257 41.3215 58.1931 41.3535C58.1211 41.3829 58.0591 41.3584 58.2311 41.3641C58.3957 41.3686 58.5516 41.3824 58.6691 41.4037C58.7898 41.4227 58.7329 41.4376 58.6202 41.3211C58.5794 41.2739 58.5598 41.242 58.5347 41.1739C58.5158 41.1068 58.4673 40.988 58.5371 40.7408C58.581 40.6053 58.6337 40.5411 58.6662 40.5025C58.6832 40.4831 58.6968 40.4703 58.7098 40.459C58.7164 40.4534 58.7228 40.4482 58.7308 40.4421C58.7349 40.439 58.7393 40.4357 58.7458 40.431C58.749 40.4287 58.7525 40.4261 58.7587 40.4218C58.7616 40.4198 58.7656 40.417 58.7719 40.4128C58.7778 40.4089 58.774 40.4111 58.7995 40.3947C58.8047 40.3914 58.8108 40.3876 58.8241 40.3796C58.8311 40.3755 58.8395 40.3705 58.8558 40.3615C58.8642 40.3569 58.8745 40.3513 58.8907 40.3431C58.8961 40.3407 58.9127 40.3313 58.9612 40.3109C58.9861 40.3008 59.017 40.2878 59.0788 40.27C59.1472 40.2568 59.2179 40.2138 59.4967 40.2372C59.6332 40.2555 59.8741 40.3022 60.1171 40.5353C60.3659 40.7664 60.4559 41.1476 60.4348 41.3544C60.3866 41.7788 60.2764 41.8395 60.2357 41.9193C60.1407 42.0452 60.1146 42.0579 60.0891 42.0841C60.0443 42.1243 60.0327 42.1318 60.0204 42.1417C59.9997 42.1575 59.9901 42.1641 59.9883 42.1655C59.9853 42.1676 59.9829 42.1693 59.9808 42.1707C59.9727 42.1764 59.9686 42.1791 59.965 42.1815C61.9665 40.3532 63.0968 38.9413 64.8245 37.4622C64.8954 37.3992 64.9635 37.3382 65.0336 37.2753C65.7919 36.5998 66.6607 35.9505 67.5295 35.5821C67.6648 35.5292 67.8034 35.4855 67.8909 35.4928C67.932 35.4972 67.965 35.515 67.926 35.5673C67.8739 35.6016 67.797 35.775 67.17 35.7464C67.2013 35.7883 67.2231 35.8319 67.2354 35.8758C67.2419 35.8979 67.2449 35.9196 67.253 35.9435C67.2579 35.9558 67.2621 35.968 67.2826 35.9861C67.294 35.9954 67.307 36.0057 67.3457 36.0239C67.3672 36.0336 67.3914 36.0446 67.4489 36.0634C67.4773 36.0726 67.5172 36.0848 67.5803 36.0996C67.6547 36.1137 67.7347 36.1416 68 36.1473Z" fill="white"/>
<path d="M94.1769 45.6876C94.2113 45.6395 94.2518 45.595 94.2966 45.5557C94.3171 45.4622 94.3406 45.3691 94.3675 45.2767C94.4704 44.9228 94.6124 44.5987 94.7725 44.3783C94.816 44.3184 94.8605 44.2664 94.9059 44.2218C95.0275 44.1023 95.1558 44.0356 95.2905 44.0111C95.4755 43.9775 95.6668 44.0221 95.8544 44.1177C96.0421 44.2133 96.2208 44.3557 96.4145 44.5815C96.6083 44.8072 96.811 45.1073 96.9153 45.3793C97.0196 45.6513 97.0253 45.888 96.945 46.1061C96.9189 46.177 96.8843 46.2452 96.8431 46.3102C96.8407 46.5217 96.7875 46.7486 96.6773 46.9992C96.5589 47.2685 96.3803 47.5567 96.1588 47.7935C95.9373 48.0303 95.6808 48.2104 95.4233 48.2748C95.1658 48.3392 94.915 48.2895 94.7041 48.1365C94.4931 47.9835 94.2847 47.7444 94.2411 47.4241C94.1983 47.1102 94.1777 46.7773 94.189 46.4389C94.1389 46.3712 94.1013 46.2995 94.0791 46.2257C94.0433 46.1067 94.0471 45.9847 94.0839 45.8709C94.1048 45.8065 94.1362 45.7447 94.1769 45.6876Z" fill="white"/>
<path d="M81.0012 55C81.5316 55.2756 82.0403 55.0944 82.4154 54.6948C82.7905 54.2932 83.0012 53.6709 83.0012 53C83.0012 52.3291 82.7905 51.7068 82.4154 51.3052C82.0403 50.9056 81.5316 50.7244 81.0012 51C81.1406 51.0062 81.3303 50.9906 81.7328 51.1391C81.9312 51.2183 82.2013 51.3562 82.4672 51.641C82.734 51.9185 82.9447 52.3649 82.9851 52.7597C83.0538 53.5774 82.767 53.9279 82.6527 54.1244C82.5596 54.256 82.5685 54.2379 82.5307 54.2849C82.417 54.4178 82.346 54.4767 82.2911 54.5239C82.1866 54.6105 82.1267 54.6467 82.1067 54.6598C82.0682 54.6836 82.0453 54.6958 82.0277 54.7048C81.9919 54.7229 81.9907 54.7202 81.9802 54.7232C81.9652 54.7256 81.9649 54.7199 81.9647 54.7143C81.965 54.7027 81.9742 54.6867 81.9843 54.6704C82.0037 54.6381 82.0302 54.6028 82.0555 54.5685C82.1069 54.4995 82.1646 54.4288 82.2182 54.3614C82.3308 54.224 82.4426 54.0924 82.5584 53.9639C82.7901 53.7071 83.0275 53.4685 83.2731 53.2473C83.7753 52.7964 84.305 52.4209 84.8787 52.1139C84.8868 52.1096 84.8948 52.1053 84.9029 52.101C87.0322 50.9516 89.0246 49.6858 91.0377 48.5257C92.4625 47.6976 93.7544 47.1642 95.4719 46.5143C95.603 46.4406 95.8873 46.3306 96.0702 45.8356C96.2208 45.3391 96.022 45.0028 95.956 44.8897C95.7824 44.6313 95.711 44.6112 95.6466 44.5548C95.5296 44.4706 95.4701 44.4445 95.4113 44.4156C95.2991 44.3635 95.2154 44.3364 95.1263 44.3121C94.9493 44.2678 94.7708 44.2347 94.4968 44.2661C93.8968 44.3599 93.5396 44.6399 93.2458 45.0232C92.9537 45.4102 92.8048 46.0166 92.9713 46.5588C93.1736 47.1873 93.5408 47.4828 93.8777 47.709C94.2854 47.9638 94.6596 48.0642 95.004 48.1314C95.3377 48.1924 95.721 48.228 96.1653 48.1448C96.5878 48.068 97.0028 47.8556 97.2979 47.618C97.6119 47.3648 97.9145 47.0477 98.1166 46.5375C98.3432 45.9798 98.2577 45.3217 98.1017 44.9243C97.9001 44.4014 97.6774 44.0831 97.4012 43.7347C97.1861 43.4718 96.8771 43.1607 96.4555 42.938C96.1325 42.7662 95.6399 42.5901 95.0502 42.6891C94.3618 42.8034 93.8982 43.2633 93.6671 43.5752C93.3044 44.0754 93.1626 44.4678 93.0211 44.8851C92.727 45.8117 92.6792 46.7349 92.7683 47.6249C92.8631 48.4219 93.3474 49.0232 93.8102 49.3691C94.3242 49.7797 95.1636 49.952 95.8007 49.7833C96.5658 49.5863 96.9723 49.2223 97.3233 48.8826C97.694 48.5022 97.957 48.1138 98.1769 47.6584C98.3498 47.2917 98.5172 46.8115 98.5164 46.2223C98.5331 45.6733 98.2749 44.9981 98.0185 44.6403C97.37 43.7037 96.7003 43.2715 96.1418 42.8429C95.6662 42.498 95.0151 42.3055 94.5581 42.2613C94.0891 42.2055 93.4162 42.2562 92.8038 42.6193C92.6656 42.7004 92.5394 42.791 92.4261 42.8861C92.0309 43.2206 91.7945 43.587 91.6285 43.9276C91.4028 44.4058 91.2874 44.8768 91.2824 45.4292C91.2294 46.043 91.6765 47.037 92.0383 47.3832C92.374 47.7951 92.8707 48.0297 93.4027 48.0507C93.9348 48.0714 94.4616 47.8741 94.8641 47.5048C95.2667 47.1355 95.5085 46.6276 95.5335 46.0957C95.5584 45.5639 95.3673 45.0488 94.9858 44.679C94.9858 44.679 94.9858 44.679 94.9858 44.679C95.0017 44.7072 95.0668 44.7907 95.1271 44.9455C95.1894 45.0978 95.2069 45.2899 95.1984 45.3408C95.1843 45.4359 95.1653 45.4483 95.1269 45.5095C95.0987 45.5457 95.0516 45.6266 94.9093 45.7408C94.8686 45.7728 94.8199 45.8061 94.7637 45.8372C94.5158 45.9758 94.2857 45.9636 94.2383 45.9459C94.3074 45.9429 94.1802 45.9036 94.1446 45.8551C94.6647 46.1506 95.1024 46.4674 95.2202 46.5984C95.2319 46.6153 95.148 46.3895 95.1693 46.3041C95.1813 46.2236 95.2083 46.2439 95.1776 46.3401C95.1403 46.4649 95.0563 46.6194 94.9943 46.7044C94.9403 46.7936 94.8598 46.8129 95.0459 46.7662C95.1937 46.7268 95.4899 46.7958 95.5979 46.9039C95.5915 46.912 95.6949 47.0101 95.7138 47.2233C95.6103 46.6844 95.606 46.1318 95.7139 45.6683C95.7598 45.4544 95.8579 45.2211 95.878 45.1814C95.8977 45.1443 95.7849 45.2939 95.5308 45.3332C95.3276 45.3606 95.2319 45.2927 95.2533 45.2974C95.2688 45.2955 95.3262 45.3215 95.4279 45.4282C95.5581 45.5604 95.6978 45.7699 95.7289 45.8343C95.7537 45.896 95.7258 45.7646 95.7733 45.6747C95.8095 45.6101 95.796 45.6685 95.7452 45.7144C95.6928 45.7627 95.6957 45.7629 95.6757 45.7752C95.6469 45.7892 95.5402 45.8012 95.3996 45.7826C95.2506 45.7658 95.1331 45.7245 95.1119 45.7157C95.0823 45.7132 95.1152 45.6848 95.1868 45.8926C95.2403 46.0716 95.1783 46.2702 95.108 46.3521C95.0365 46.4276 95.0165 46.4698 94.7964 46.5092C94.6543 46.5235 94.6102 46.5066 94.5616 46.495C94.5366 46.4873 94.5163 46.4815 94.4644 46.4572C94.4357 46.4423 94.4059 46.4319 94.3155 46.367C94.2646 46.3207 94.2062 46.3113 94.0415 46.067C93.9796 45.9604 93.7842 45.6332 93.9321 45.1446C94.1122 44.6578 94.3897 44.5525 94.5129 44.4827C93.1538 45.0498 91.3967 45.8443 89.9796 46.7293C87.9477 47.9674 85.976 49.25 83.9638 50.3352C83.9563 50.3392 83.9488 50.3432 83.9413 50.3471C83.3701 50.6475 82.7647 50.869 82.116 51.0147C81.7981 51.0855 81.4716 51.1371 81.1354 51.1694C80.9672 51.1856 80.7995 51.1955 80.6257 51.2025C80.5412 51.2048 80.452 51.2079 80.3627 51.2097C80.3181 51.2107 80.2715 51.2123 80.2218 51.2152C80.1958 51.2173 80.1685 51.22 80.1363 51.2255C80.1156 51.2307 80.102 51.232 80.0671 51.2453C80.0467 51.2538 80.0408 51.2537 79.9938 51.2783C79.9715 51.2902 79.9447 51.3048 79.9031 51.3307C79.8813 51.345 79.8177 51.3837 79.7117 51.4716C79.6559 51.5195 79.5843 51.5791 79.4701 51.7125C79.4322 51.7597 79.441 51.7415 79.3478 51.8735C79.2331 52.0704 78.9462 52.4214 79.0149 53.2394C79.0553 53.6343 79.2661 54.0808 79.533 54.3585C79.799 54.6434 80.0693 54.7814 80.2678 54.8607C80.6707 55.0093 80.861 54.9938 81.0012 55Z" fill="white"/>
<path d="M68.9885 50.5023C69.071 50.5972 69.1394 50.6963 69.1919 50.7989C69.4625 50.9825 69.6967 51.1838 69.844 51.4301C69.9794 51.6564 70.0209 51.9212 69.9645 52.162C69.9081 52.4029 69.7583 52.6133 69.5261 52.8296C69.5249 52.8308 69.5237 52.8319 69.5225 52.833C69.2908 53.0482 68.9874 53.2622 68.7404 53.4042C68.4922 53.547 68.3067 53.6149 68.0253 53.6419C67.7438 53.6688 67.3774 53.6552 67.0553 53.5531C66.7333 53.451 66.4637 53.266 66.2891 53.066C66.1145 52.8659 66.0374 52.6571 66.0106 52.4417C65.9839 52.2262 66.0069 52.0107 66.0867 51.7822C66.1248 51.6733 66.1748 51.5631 66.2352 51.4531C66.2631 51.1962 66.3332 50.9372 66.4404 50.7036C66.5568 50.4499 66.7124 50.2327 66.907 50.1144C67.1017 49.9962 67.3287 49.9775 67.5846 50.0224C67.6499 50.0338 67.7171 50.0483 67.7854 50.0661C68.0225 49.9987 68.2447 50.0174 68.4513 50.1027C68.658 50.1881 68.8435 50.3358 68.9885 50.5023Z" fill="white"/>
<path d="M78.7512 63.9845C79.2509 64.2623 79.779 64.1392 80.2002 63.7949C80.6216 63.449 80.9049 62.8831 80.9845 62.2488C81.064 61.6145 80.9292 60.9963 80.6062 60.557C80.2831 60.1193 79.8017 59.8697 79.2488 60.0155C79.2488 60.0155 79.2488 60.0155 79.2488 60.0155C79.2231 60.022 79.553 60.109 79.6208 60.166C79.7175 60.2245 79.7362 60.2577 79.7412 60.2784C79.5059 60.3725 79.051 60.1894 78.6526 59.946C77.7834 59.4169 77.0262 58.6083 76.1218 57.7868C76.0672 57.7382 76.0092 57.6881 75.9516 57.6401C74.7751 56.5731 73.5431 55.1293 72.3595 53.8105C71.5402 52.8573 70.4115 52.0839 69.4279 51.5246C69.2824 51.4395 69.1322 51.3565 68.9483 51.274C68.855 51.2327 68.7559 51.1913 68.6185 51.1503C68.5483 51.13 68.4707 51.1092 68.3551 51.0932C68.2346 51.0852 68.0995 51.0417 67.7482 51.1489C67.57 51.2077 67.3438 51.3483 67.1941 51.5489C67.0415 51.7482 66.9789 51.9629 66.9585 52.1232C66.9237 52.447 66.9886 52.6223 67.0433 52.7728C67.1642 53.0617 67.3176 53.2494 67.5598 53.4255C68.2838 53.8637 68.7546 53.685 69.1507 53.5439C69.5926 53.3555 69.8924 53.0216 70.0727 52.7277C70.2667 52.4124 70.3659 52.0951 70.4226 51.8057C70.4796 51.5161 70.506 51.1406 70.411 50.75C70.3079 50.3251 70.0984 49.9879 69.8791 49.7269C69.6327 49.4382 69.3336 49.1795 68.9095 48.9936C68.4792 48.7978 67.8967 48.7624 67.4504 48.8926C66.9031 49.0506 66.5849 49.2851 66.2899 49.5043C65.9827 49.7411 65.7029 50.0128 65.4548 50.3227C65.2281 50.6089 65.0161 50.9315 64.8567 51.3527C64.7193 51.7108 64.6444 52.1746 64.6934 52.6051C64.729 53.0567 64.963 53.6088 65.2692 53.9559C65.6719 54.4239 66.1211 54.6965 66.6353 54.8782C67.1923 55.0608 67.654 55.0944 68.1617 55.0663C68.5577 55.0609 69.1887 54.8434 69.4704 54.6734C69.8683 54.4559 70.1864 54.2487 70.5543 53.9332C70.8465 53.6732 71.2825 53.2404 71.4704 52.5148C71.6378 51.8491 71.5205 51.1718 71.2032 50.6169C70.443 49.4409 69.6966 49.2205 69.2534 48.8745C68.8276 48.6051 68.3615 48.4222 67.8828 48.3218C67.4598 48.2287 66.6899 48.1888 65.9903 48.6051C65.254 49.0644 65.0096 49.5523 64.7955 49.9487C64.5691 50.4066 64.434 50.8687 64.3747 51.3699C64.3461 51.636 64.3308 51.9312 64.3927 52.3144C64.439 52.5819 64.5243 52.9057 64.7428 53.2668C65.2667 54.1176 66.105 54.3966 66.5645 54.4929C67.1698 54.6121 67.5339 54.5838 67.806 54.5956C68.3374 54.6074 68.8367 54.3787 69.1951 53.9847C69.5536 53.5905 69.7415 53.0589 69.7179 52.5113C69.6943 51.9637 69.4612 51.4502 69.0702 51.0883C68.6791 50.7267 68.162 50.5418 67.6335 50.5994C67.3713 50.6324 67.1952 50.6363 67.2714 50.6608C67.2998 50.6743 67.3741 50.6933 67.5101 50.7725C67.6423 50.8478 67.8422 51.0161 67.965 51.2291C68.073 51.4152 68.0922 51.5391 68.0995 51.6041C68.1065 51.6976 68.0887 51.6956 68.0832 51.6684C68.0701 51.6071 68.0769 51.514 68.0853 51.4585C68.0839 51.3978 68.124 51.435 67.8238 51.6237C67.5258 51.7908 67.2546 51.7336 67.2864 51.723C67.3808 51.7231 67.4713 51.7396 67.5468 51.7663C68.1404 52.0499 68.5767 52.3627 68.4848 52.2432C68.4286 52.1224 68.4078 51.9803 68.4586 51.8093C68.524 51.6163 68.5981 51.6207 68.498 51.726C68.3875 51.8509 68.1738 52.0252 68.0105 52.1351C67.857 52.2251 68.0001 52.1846 67.8889 52.2174C67.7469 52.2474 67.5433 52.2395 67.4754 52.228C67.4071 52.2235 67.3126 52.168 67.3091 52.176C67.3073 52.1768 67.3445 52.287 67.3278 52.2783C67.3197 52.2651 67.3053 52.2744 67.3167 52.2117C67.3325 52.1348 67.3944 51.9989 67.4858 51.8652C67.5878 51.7144 67.7154 51.5692 67.8579 51.442C67.9901 51.3187 68.1371 51.2376 68.1194 51.2399C68.1087 51.2418 68.0049 51.2303 67.993 51.2119C67.9856 51.1993 68.0485 51.2281 68.0978 51.2777C68.1475 51.3254 68.156 51.3493 68.1541 51.3233C68.1544 51.3038 68.1691 51.319 68.1589 51.4044C68.1489 51.4912 68.1297 51.5447 68.1263 51.5581C68.1175 51.5808 68.1489 51.528 68.2489 51.4881C68.3277 51.4833 68.4023 51.3606 68.8249 51.5995C68.9589 51.6999 69.0257 51.7808 69.0965 51.9473C69.1269 52.0368 69.1761 52.1456 69.1493 52.4036C69.1331 52.5311 69.0816 52.7136 68.9491 52.8865C68.8192 53.0607 68.6217 53.1822 68.4748 53.2303C68.1903 53.3151 68.128 53.2753 68.0765 53.2757C68.031 53.2687 68.0215 53.2639 68.0191 53.2628C68.017 53.2604 68.0492 53.2696 68.0849 53.2837C68.1594 53.3126 68.2582 53.36 68.3578 53.4135C69.3583 53.9408 70.1408 54.4494 70.8299 55.1994C72.0817 56.5218 73.187 57.8293 74.6718 59.1771C74.711 59.2097 74.7518 59.2449 74.7913 59.2801C75.4771 59.8962 75.9954 60.8236 76.5782 61.8641C76.8771 62.3683 77.1508 62.9201 77.794 63.5466C77.8711 63.6101 77.9629 63.6833 78.137 63.7737C78.2818 63.8633 78.6938 63.9692 78.7512 63.9845Z" fill="white"/>
<path d="M74.03 71.3979C74.5608 71.4335 75.0676 71.2223 75.4391 70.8402C75.8106 70.4577 76.0164 69.9303 76.0112 69.3793C76.0061 68.8282 75.7904 68.3048 75.4118 67.9294C75.0332 67.5542 74.5226 67.3526 73.9926 67.3981C73.9926 67.3981 73.9926 67.3981 73.9926 67.3981C73.0216 67.4786 72.1032 67.5944 71.1666 67.7365C70.5351 67.8335 69.9038 67.9443 69.2691 68.0765C68.5995 68.1936 67.7976 68.5232 67.2871 68.8625C66.4443 69.4088 66.1317 69.9004 65.7551 70.3411C65.3261 70.854 64.9952 71.4877 64.8044 72.0674C64.4862 73.0782 64.6331 73.7431 64.7028 74.3573C64.7991 75.1488 65.29 75.6254 65.5089 75.8449C66.0573 76.3863 66.7142 76.81 67.3289 77.1123C69.6229 78.1496 71.7655 78.4996 73.7683 79.109C74.9441 79.4734 76.0568 79.6726 77.2304 79.8188C78.262 79.9419 79.312 79.9907 80.3369 79.9988C82.1526 80.0116 83.9468 79.9132 85.7309 79.7746C88.5522 79.5655 91.1831 78.4507 93.5375 77.2353C93.7118 77.1441 93.8936 77.0432 94.0998 76.8936C94.2982 76.7578 94.5655 76.4837 94.6843 76.3233C94.9592 75.998 95.1599 75.4605 95.2135 75.1195C95.3641 74.3507 95.3414 73.5713 95.2374 72.872C95.186 72.547 95.108 72.2326 94.9516 71.8801C93.9848 70.133 92.7676 69.7782 91.8343 69.1853C91.4477 68.9669 91.053 68.7248 90.5937 68.4709C89.1149 67.7717 88.0965 67.8422 87.3045 67.6161C87.1078 67.5691 86.9286 67.5171 86.7678 67.4589C86.7603 67.4564 86.737 67.4518 86.7295 67.4495C86.3213 67.33 85.9393 67.235 85.5424 67.1483C85.2186 67.0699 84.6783 67.0147 84.3616 67.0001C83.831 66.9631 83.323 67.1714 82.9493 67.5512C82.5755 67.9313 82.3666 68.4567 82.3685 69.0069C82.3704 69.5571 82.5829 70.0811 82.9593 70.4586C83.3356 70.8358 83.845 71.0406 84.3753 71.0001C84.3753 71.0001 84.3753 71.0001 84.3753 71.0001C84.6493 70.9796 84.6993 70.9593 84.9584 70.9773C85.2693 70.9995 85.5923 71.0343 85.8818 71.077L85.8435 71.0676C86.1557 71.1305 86.4561 71.1713 86.7414 71.1999C87.8606 71.2988 88.8575 71.2922 89.17 71.4116C89.5602 71.5704 89.9982 71.7745 90.4592 71.9732C91.4133 72.3465 92.3463 72.9008 92.4423 73.0899C92.4776 73.1378 92.5264 73.2527 92.5558 73.3636C92.672 73.8446 92.7148 74.2845 92.6703 74.7044C92.6514 74.8327 92.6867 74.7569 92.6676 74.8081C92.5993 74.9051 92.644 74.8625 92.5881 74.9181C92.5413 74.9615 92.451 75.0257 92.3465 75.0897C90.1777 76.4071 87.9344 77.4626 85.5401 77.7092C83.8087 77.8929 82.0698 78.0112 80.3533 77.9988C79.3802 77.9908 78.4275 77.9379 77.4787 77.8081C76.4547 77.6651 75.3783 77.4353 74.4464 77.1051C72.3098 76.3849 70.1317 75.8338 68.5103 74.9345C68.0517 74.6627 67.6988 74.3773 67.4065 74.0339C67.3364 73.953 67.297 73.8905 67.3084 73.8946C67.3185 73.8935 67.3735 73.9944 67.3852 74.0765C67.35 73.5997 67.4073 73.1245 67.4695 73.0875C67.6193 72.7637 67.7795 72.5464 67.9971 72.3399C68.3427 71.9855 68.7484 71.6433 68.8421 71.6424C69.2236 71.4641 69.4084 71.438 69.762 71.4134C70.3285 71.3685 70.9035 71.3438 71.4815 71.3347C72.3321 71.3222 73.2093 71.3398 74.03 71.3979Z" fill="#1E1E1E"/>
<path d="M66.5576 75C67.076 74.9762 67.5732 74.7626 67.9398 74.3897C68.3064 74.0171 68.5124 73.5183 68.5124 73C68.5124 72.4817 68.3064 71.9829 67.9398 71.6103C67.5732 71.2374 67.076 71.0238 66.5576 71C65.8374 71.021 65.5328 71.2854 65.3686 71.3912C65.2605 71.4715 65.1914 71.5368 65.1366 71.5914C65.019 71.713 65.006 71.7368 64.966 71.7864C64.8944 71.8815 64.8825 71.9035 64.8549 71.9461C64.8154 72.0091 64.7956 72.0456 64.7794 72.0753C64.7485 72.1325 64.7326 72.1657 64.7182 72.1955C64.6909 72.2527 64.6739 72.2916 64.659 72.326C64.6293 72.3952 64.6087 72.4471 64.5892 72.4972C64.5511 72.5957 64.5213 72.6792 64.4933 72.7605C64.438 72.9211 64.3921 73.0681 64.3491 73.2121C64.1903 73.8694 64.216 74.0882 64.1856 74.3704C64.1665 74.6347 64.1515 74.8812 64.1366 75.1245C64.1071 75.6124 64.0793 76.091 64.0508 76.5743C64.031 76.9083 64.0112 77.2426 63.9912 77.5781C63.7604 81.4796 63.5559 85.3807 63.3952 89.2953C63.269 91.5118 63.4768 94.3193 63.8978 96.369C63.9065 96.4291 63.9118 96.4865 63.939 96.6689C63.9745 96.8357 63.9977 97.2637 64.3633 97.9302C65.3217 99.48 66.2334 99.837 66.8482 100.292C67.501 100.714 68.0913 101.069 68.6868 101.434C69.4656 101.902 70.2743 102.465 71.4625 103.013C74.2981 104.108 76.1455 103.884 78.0983 103.97C81.4538 103.905 83.8801 102.933 85.8541 102.729C85.8672 102.727 85.8801 102.726 85.8928 102.724C88.4102 102.371 90.1666 101.882 92.6734 100.391C94.0253 99.4171 94.3068 98.3443 94.4818 98.0748C94.8694 97.2771 95.2847 96.4148 95.4857 95.1184C95.4925 95.0796 95.5047 94.9624 95.5089 94.9232C95.5682 93.1282 95.5294 91.9049 95.5299 90.4012C95.5114 86.4487 95.4259 82.4681 95.2221 78.4935C95.1593 77.2661 95.0854 76.039 94.9984 74.8114C94.9616 74.2988 94.7448 73.8078 94.372 73.4465C93.9993 73.0852 93.5046 72.8832 92.9921 72.8849C92.4795 72.8866 91.9862 73.0919 91.6159 73.4556C91.2454 73.8194 91.0319 74.3118 90.9985 74.8246C90.9985 74.8246 90.9985 74.8246 90.9985 74.8246C90.9195 76.0352 90.8378 77.2459 90.7554 78.4576C90.4886 82.3842 90.2131 86.3081 89.9777 90.2527C89.8899 91.6553 89.8239 93.3331 89.7394 94.4354L89.7626 94.2402C89.7326 94.3863 89.5443 94.8732 89.2677 95.3668C89.1188 95.6488 89.025 95.822 89.0138 95.8278C88.9983 95.8424 89.1184 95.6485 89.3504 95.4898C88.5443 95.9508 86.546 96.6438 85.2501 96.7589C85.2275 96.7613 85.2049 96.7638 85.1823 96.7663C82.1738 97.1676 79.8061 98.0213 78.1152 98.0296C76.3943 98.0525 74.4322 97.956 73.8013 97.6816C73.2506 97.4581 72.4592 96.9826 71.5984 96.4933C70.9908 96.148 70.3784 95.8063 69.8485 95.4917C69.5878 95.337 69.3467 95.1839 69.2142 95.0884C69.0693 94.984 69.1283 95.0133 69.2 95.1518C69.4492 95.616 69.4292 95.8113 69.4258 95.7505C69.4153 95.7042 69.3878 95.5318 69.3541 95.3639C68.8237 93.1228 68.6455 91.5368 68.6115 89.356C68.5486 85.4715 68.4822 81.5571 68.3942 77.6604C68.3868 77.3218 68.3789 76.9842 68.3705 76.6475C68.3586 76.161 68.3453 75.6768 68.3327 75.1992C68.3265 74.963 68.3204 74.7223 68.3167 74.5057C68.3072 74.3045 68.3336 74.0393 68.2898 74.2252C68.31 74.1239 68.3311 74.0261 68.35 73.9452C68.3592 73.9052 68.3684 73.8684 68.3727 73.8477C68.3746 73.838 68.3759 73.8312 68.3702 73.8415C68.367 73.8472 68.3628 73.8562 68.3487 73.8849C68.341 73.9004 68.3321 73.9191 68.3086 73.9626C68.2961 73.9853 68.2804 74.0146 68.2449 74.0713C68.2197 74.11 68.2093 74.1298 68.1405 74.221C68.1019 74.269 68.0896 74.2918 67.9737 74.4116C67.9197 74.4655 67.8513 74.5302 67.7438 74.6099C67.5806 74.7151 67.277 74.979 66.5576 75Z" fill="#1E1E1E"/>
</svg>
