<svg width="160" height="113" viewBox="0 0 160 113" fill="none" xmlns="http://www.w3.org/2000/svg">
<path d="M61.5 69L72 63L76.5 64L85 70.5L97.5 63L106 70.5L108.5 71.5L111 86.5L97.5 96.5L85.5 88L73.5 95L60.5 81.5L61.5 69Z" fill="white"/>
<path d="M73.5 61.5V44L75 42L85 35L90.5 38.5L95.5 45.5L96 63.5L86 70.5L73.5 61.5Z" fill="white" stroke="black"/>
<path d="M46.2355 30.4271C46.0521 30.7122 45.0554 31.5494 43.5167 32.9081C42.2835 33.997 41.5292 35.0585 41.0359 35.8133C39.4878 38.1821 38.5877 42.082 38.0745 44.2538C37.798 45.4244 38.3454 48.3361 38.8248 50.3204C38.9687 50.9159 39.5947 51.4905 40.2238 52.1032C40.5213 52.393 40.8528 52.5604 41.1697 52.692C41.7786 52.9449 42.4325 53.0007 43.0475 53C43.3524 52.9997 43.6342 52.8608 43.9366 52.6162C44.6216 52.0621 45.0738 51.2083 45.4383 50.443C46.0701 49.1169 46.3802 47.4422 46.7057 46.0435C47.3294 43.3636 49.2606 39.8307 49.9888 38.7138C50.3239 38.2 50.8184 37.8364 51.346 37.5071C52.6791 36.6748 54.5581 36.1675 55.8853 35.8953C56.4746 35.7745 57.4111 35.7118 58.5495 35.6107C59.4091 35.5343 60.1037 34.9729 60.8282 34.4782C61.9387 33.5463 63.0274 32.1114 63.8209 30.7601C63.9248 30.4862 63.9618 30.2213 64 30" stroke="#1E1E1E" stroke-width="4" stroke-linecap="round" stroke-linejoin="round"/>
<path d="M60.9312 18.4799C60.6196 18.1357 60.2644 17.8208 59.8511 17.6295C59.4378 17.4381 59.0006 17.3858 58.5947 17.4951C58.1888 17.6044 57.837 17.8692 57.5757 18.2423C57.3145 18.6153 57.1654 19.066 57.0688 19.5201C57.0688 19.5201 57.0688 19.5201 57.0688 19.5201C57.1368 19.926 57.1572 20.0389 57.1814 20.2061C57.2041 20.3588 57.2226 20.489 57.2427 20.6159C57.4509 21.9722 57.834 23.006 58.4028 23.9522C58.4087 23.9622 58.4147 23.9722 58.4207 23.9821C58.9437 24.7906 59.253 25.9561 60.0407 27.9366C60.0414 27.9427 60.0486 27.9601 60.0494 27.9663C60.1982 28.2668 60.3364 28.5262 60.4562 28.7525C60.5792 28.9322 60.6945 29.2165 60.8183 29.5851C60.8796 29.7642 60.9415 29.9488 61.0047 30.1377C61.1565 30.5958 61.4186 31.027 61.8023 31.3318C62.1857 31.6367 62.653 31.7905 63.1214 31.7582C63.5897 31.7258 64.0315 31.5092 64.3693 31.1546C64.7076 30.8 64.9079 30.3368 64.9953 29.8623C64.9953 29.8623 64.9953 29.8623 64.9953 29.8623C65.0311 29.6545 65.0644 29.4475 65.0931 29.2321C65.1495 28.8136 65.1967 28.3066 65.1436 27.7143C65.1131 27.2619 65.0588 26.853 65.0091 26.4875L65.0178 26.5171C64.9339 25.2545 64.8331 22.9702 63.555 20.8773C63.5401 20.8528 63.5251 20.8283 63.5098 20.8038C62.9239 19.8657 62.1112 19.0377 61.2515 18.4578C61.1778 18.4103 61.1057 18.3671 61.0424 18.3418C60.9824 18.3324 60.9156 18.2598 60.9312 18.4799Z" fill="#1E1E1E"/>
<path d="M30.8168 18.1638C30.5449 17.7459 30.1461 17.4087 29.6663 17.2455C29.1868 17.0822 28.6709 17.1039 28.2224 17.3103C27.7738 17.5167 27.4218 17.8945 27.234 18.3649C27.0458 18.8355 27.0426 19.3578 27.1832 19.8362C27.1832 19.8362 27.1832 19.8362 27.1832 19.8362C27.3851 20.585 27.587 21.4018 27.7491 22.1765C27.7179 22.1872 27.738 22.4278 27.7354 22.6649C27.7369 23.6713 27.6887 24.9424 27.6784 26.1603C27.6462 28.1032 27.5442 30.0983 27.299 31.8431C27.2889 31.9113 27.2781 31.9802 27.2665 32.05C27.1371 32.8379 26.9045 33.6914 26.6235 34.6566C26.3116 35.8948 26.3453 36.4144 26.2831 37.1135C26.2422 37.77 26.2166 38.392 26.1917 39.0115C26.1158 40.8426 26.2776 42.6522 26.5008 44.295C26.5846 44.8699 26.6662 45.0876 26.7422 45.3609C26.8196 45.6198 26.8943 45.8441 26.9704 46.066C27.1221 46.5063 27.2737 46.9148 27.427 47.3195C27.7337 48.1274 28.0438 48.9074 28.3564 49.6873C28.9942 51.3006 29.8426 52.7368 30.4237 53.8985C31.8964 56.4341 33.0345 57.6819 34.3347 59.4562C35.4654 60.9641 36.8024 62.0341 37.897 62.9653C39.1282 63.9811 40.3021 64.9332 42.1173 65.7709C43.1499 66.1743 43.5251 66.1522 44.0693 66.2431C44.5751 66.3077 45.0471 66.3472 45.5148 66.3785C46.4469 66.4395 47.3516 66.4643 48.2543 66.4718C49.2077 66.5305 50.386 66.0748 50.6874 65.9218C51.1107 65.7531 51.5582 65.4816 51.9163 65.1535C52.3629 64.7533 52.6804 64.2559 52.8691 63.8221C53.547 62.2518 53.3343 60.7848 53.2878 60.0193C53.277 59.8142 53.2577 59.5586 53.1708 59.2223C53.0909 58.8901 52.8916 58.4888 52.776 58.3149C51.7046 56.7719 50.8131 56.4443 50.1183 55.8595C49.0533 55.0645 48.0964 54.6057 47.4134 54.1437C47.3637 54.1106 47.3158 54.078 47.2706 54.0464C47.103 53.9319 46.9568 53.8078 46.8011 53.6402C46.722 53.5549 46.6428 53.4608 46.5351 53.3242C46.4798 53.2545 46.4194 53.1754 46.3255 53.0604C46.2208 52.9425 46.1336 52.7979 45.7656 52.5076C45.7169 52.4678 45.5589 52.3706 45.5047 52.3387C44.9458 52.0516 44.5367 52.013 44.2412 51.9778C43.9237 51.9468 43.6679 51.9494 43.4744 51.9501C42.953 51.9538 42.4473 52.1523 42.0683 52.515C41.6893 52.8776 41.468 53.3725 41.4532 53.8934C41.4383 54.4142 41.631 54.9209 41.9888 55.3045C42.3465 55.6882 42.8401 55.9152 43.3605 55.9485C43.3605 55.9485 43.3605 55.9485 43.3605 55.9485C43.5551 55.9604 43.6879 55.9738 43.7561 55.9894C43.8262 55.9993 43.7874 56.0327 43.5551 55.922L43.2943 55.7531C43.069 55.5735 43.096 55.5691 43.1033 55.5922C43.1207 55.6191 43.1656 55.6851 43.2173 55.7608C43.3224 55.9147 43.4596 56.1088 43.6111 56.2996C43.9154 56.6856 44.2866 57.0676 44.6905 57.3928C44.7667 57.4547 44.8424 57.5144 44.9168 57.5718C45.9076 58.3228 46.79 58.8345 47.3455 59.3267C48.0934 59.9502 48.8863 60.6283 48.834 60.7076C48.8257 60.7077 48.7145 60.4939 48.6836 60.3607C48.6469 60.223 48.6471 60.1725 48.6432 60.1719C48.6848 61.2369 48.6012 61.695 48.498 61.8313C48.5104 61.7866 48.5817 61.6504 48.7071 61.5334C48.7654 61.4723 48.8634 61.4101 48.9128 61.3867C48.2861 61.6258 48.4823 61.5192 48.414 61.5254C47.5849 61.4762 46.757 61.4115 45.9628 61.3208C45.5668 61.2753 45.1774 61.2227 44.8254 61.1604C44.6505 61.1293 44.4855 61.0955 44.3539 61.062C44.2364 61.036 44.0905 60.9722 44.256 61.0336C43.4749 60.6378 42.3769 59.7818 41.4431 58.9216C40.334 57.9127 39.4049 57.0642 38.8032 56.1823C37.6645 54.5577 36.1819 52.5197 35.5859 51.4179C34.8651 49.9004 34.2214 48.7448 33.79 47.571C33.499 46.7998 33.2111 46.0329 32.9407 45.2816C32.8063 44.9073 32.6761 44.5363 32.5624 44.1876C32.5058 44.0141 32.454 43.8475 32.414 43.7048C32.3761 43.582 32.3439 43.3929 32.3727 43.5598C32.1876 42.0328 32.091 40.6392 32.1581 39.2723C32.1872 38.6686 32.2168 38.069 32.2554 37.5068C32.2748 37.2264 32.2969 36.9545 32.3231 36.7203C32.3448 36.4988 32.395 36.2555 32.3792 36.3308C32.6673 35.3488 32.9849 34.2438 33.1863 33.0277C33.2043 32.9191 33.2212 32.8094 33.2369 32.6986C33.5554 30.29 33.484 28.073 33.2156 25.8347C33.0509 24.5952 32.9014 23.4082 32.5796 21.9743C32.4869 21.595 32.4033 21.218 32.171 20.6377C31.7629 19.7802 31.3279 18.988 30.8168 18.1638Z" fill="#1E1E1E"/>
<path d="M31.4367 51.1935C31.4067 51.1324 31.3767 51.0713 31.2804 51.0321C31.1841 50.993 31.0224 50.9777 30.8887 51.056C30.7551 51.1342 30.6544 51.3064 30.56 51.5292C30.3559 52.0103 30.2073 52.71 30.0729 53.5996C29.7816 55.5275 30.4223 57.2979 30.9485 58.8572C31.5757 60.7162 32.3673 62.0716 32.6505 62.5544C33.5018 64.0055 36.1728 66.3745 37.3203 67.5861C37.6669 67.9521 38.14 68.1655 38.7 68.4228C39.4819 68.7821 41.2218 69.1739 43.3913 69.6455C44.8947 69.9723 46.1119 70.0266 47.1342 69.9902C47.5551 69.9751 47.7625 69.7967 47.9443 69.6183C48.3107 69.2587 48.5333 68.7375 48.7286 68.2182C49.0798 67.2844 49.0038 66.5127 48.9656 65.9821C48.9475 65.7311 48.8508 65.5265 48.7359 65.3108C48.47 64.8772 48.1837 64.5122 47.9029 64.2768C47.7528 64.1816 47.5872 64.1358 47.2465 64.0886" stroke="#1E1E1E" stroke-width="4" stroke-linecap="round" stroke-linejoin="round"/>
<path d="M105.628 16.001C105.628 15.9866 105.762 16.1305 105.964 16.4868C106.071 16.6753 106.033 16.9457 105.972 17.2009C105.713 18.296 104.781 19.1431 103.414 20.937C102.444 22.2112 101.936 23.5411 101.631 24.4171C101.25 25.5109 101.036 26.4581 101 30.1851C100.993 30.9988 101.101 31.2342 101.182 31.454C101.339 31.8771 101.541 32.3138 101.747 32.7741C101.945 33.2171 102.323 33.5158 102.74 33.8566C103.884 34.7898 104.846 35.1494 106.185 36.1396C107.643 37.2173 109.058 39.0277 110.639 40.6083C111.261 41.23 111.749 41.5914 112.036 41.927C113.349 43.4594 114.111 46.6743 114.398 47.6042C114.762 48.7828 114.406 49.9449 114.334 53.5966C114.319 54.3771 114.498 54.5599 114.684 54.7266C115.079 55.0817 115.698 55.3355 116.365 55.6116C117.026 55.8852 117.71 55.9789 118.337 55.9993C118.65 56.0095 118.95 55.9009 119.252 55.742C120.976 54.8357 122.093 52.8584 122.486 52.1533C122.876 51.454 122.938 50.6208 122.989 49.8284C123.082 48.3781 122.577 47.2248 122.067 45.7841C121.651 44.6092 121.408 42.9525 121.124 41.3649C120.029 38.5012 118.525 35.4008 118.188 35.0428C117.998 34.8884 117.772 34.7893 117.072 34.7091" stroke="#1E1E1E" stroke-width="4" stroke-linecap="round" stroke-linejoin="round"/>
<path d="M115.852 56.4331C115.896 56.9521 116.132 57.4409 116.522 57.7912C116.911 58.1415 117.421 58.3248 117.941 58.3006C118.46 58.2764 118.951 58.0467 119.306 57.6617C119.662 57.2767 119.852 56.7682 119.847 56.2474C119.851 56.2148 119.857 56.1458 119.866 56.1011C119.871 56.0656 119.903 55.9976 119.856 56.1715C119.821 56.276 119.77 56.4079 119.664 56.5836C119.61 56.6712 119.541 56.7699 119.445 56.8766C119.301 57.0384 119.072 57.2377 118.759 57.3763C117.17 57.9251 116.571 56.963 116.486 56.9436C116.163 56.585 116.193 56.5488 116.133 56.4546C116.069 56.3279 116.056 56.2849 116.04 56.246C116.014 56.1752 116.009 56.1546 116.001 56.1326C115.99 56.0949 115.987 56.0848 115.985 56.0762C115.98 56.0615 115.979 56.064 115.978 56.0643C115.976 56.0654 115.972 56.0727 115.967 56.0214C115.956 56.0199 115.96 55.9438 115.953 55.9472C115.948 55.9461 115.729 56.3188 115.468 56.6679C115.441 56.7056 115.413 56.7436 115.385 56.7825C114.975 57.3049 114.556 57.5666 113.425 58.2216C112.908 58.4613 112.023 59.5742 111.91 60.2393C111.672 61.1656 111.694 61.6301 111.699 62.2622C111.722 62.6437 111.728 63.3114 112.184 64.1285C112.533 64.7338 112.952 65.0824 113.222 65.3035C113.497 65.5258 113.871 65.7776 114.285 65.9632C114.752 66.1758 115.227 66.2932 115.637 66.3544C116.154 66.4344 116.745 66.4391 117.3 66.3464C121.362 65.3628 123.52 63.5409 126.149 61.5957C127.73 60.1006 128.025 59.2915 128.738 58.2735C129.364 57.3006 129.952 56.3572 130.548 55.434C131.247 54.4437 131.98 52.6956 132.264 51.6297C132.908 49.4745 133.461 47.4303 133.802 44.9706C134.196 42.0451 133.64 39.5636 133.561 37.3498C133.257 34.3081 132.655 32.1122 132.121 29.6346C132.084 29.4713 132.048 29.3146 132.01 29.1516C131.3 26.0862 130.093 23.3345 129.101 20.8247C128.886 20.2693 128.674 19.7197 128.439 19.1276C128.278 18.7349 128.145 18.3628 127.833 17.7519C127.609 17.3084 127.215 16.7619 126.645 16.3819C126.088 16.0013 125.184 15.6621 124.15 15.9907C123.401 16.2416 123.015 16.702 122.808 16.9802C122.595 17.2769 122.492 17.5034 122.403 17.7098C122.231 18.1787 122.201 18.7012 122.36 19.1833C122.519 19.6653 122.848 20.0647 123.284 20.2987C123.721 20.5326 124.235 20.5857 124.725 20.4511C125.214 20.3168 125.633 20.0031 125.928 19.6001C125.928 19.6001 125.928 19.6001 125.928 19.6001C125.979 19.5462 126.029 19.5182 126.002 19.5851C125.981 19.6361 125.824 19.8878 125.361 20.0543C124.73 20.2608 124.264 20.0609 124.036 19.9247C123.832 19.8123 123.707 19.6484 123.667 19.6169C123.666 19.7194 123.74 20.1002 123.797 20.4552C123.892 21.0244 123.999 21.6416 124.117 22.2488C124.732 25.274 125.602 27.9216 126.163 30.487C126.199 30.6483 126.234 30.8032 126.27 30.9641C126.789 33.2972 127.419 35.898 127.615 37.7646C127.765 40.2831 128.241 42.5093 127.99 44.3168C127.792 46.0553 127.32 48.1323 126.801 50.0447C126.49 51.1831 126.36 51.5701 125.808 52.496C125.219 53.4822 124.655 54.468 124.101 55.4076C123.824 55.8756 123.55 56.3339 123.285 56.7439C123.153 56.9477 123.024 57.1388 122.91 57.2938C122.806 57.4422 122.678 57.5757 122.743 57.5231C120.802 59.2111 118.123 61.1018 116.442 61.5631C116.392 61.58 116.361 61.5922 116.27 61.5901C116.188 61.5863 116.176 61.5845 116.188 61.598C116.191 61.606 116.186 61.617 116.108 61.5662C116.024 61.5135 116.104 61.5524 116.225 61.7674C116.299 61.8975 116.339 62.0559 116.339 62.0854C116.341 62.122 116.328 62.0743 116.319 61.9987C116.284 61.7716 116.316 61.3613 116.291 61.4504C116.281 61.4719 116.227 61.6199 116.108 61.7676C115.99 61.9165 115.88 61.9786 115.895 61.9622C116.628 61.4749 118.107 60.4982 118.915 59.1606C118.944 59.1152 118.972 59.0695 119.001 59.0226C119.275 58.5558 119.613 58.1045 119.91 57.1678C120.025 56.7821 120.085 56.2967 120.06 55.8877C120.05 55.687 120.028 55.5454 120.002 55.399C119.988 55.3255 119.973 55.2548 119.952 55.1669C119.941 55.122 119.929 55.0754 119.907 55.002C119.895 54.9615 119.884 54.9241 119.852 54.8352C119.833 54.7874 119.816 54.7355 119.748 54.6009C119.685 54.502 119.713 54.4622 119.387 54.1C119.301 54.0792 118.699 53.1152 117.108 53.6651C116.794 53.8039 116.565 54.0036 116.42 54.1658C116.324 54.2729 116.255 54.3721 116.201 54.4601C116.094 54.6367 116.043 54.7697 116.007 54.8756C115.789 55.678 115.839 55.9287 115.852 56.4331Z" fill="#1E1E1E"/>
<path d="M75.9163 45.0321C76.4601 45.0088 76.8981 44.6832 77.1573 44.2116C77.4163 43.7391 77.4711 43.1443 77.3138 42.573C77.1566 42.0017 76.8051 41.5188 76.3408 41.2454C75.8768 40.9729 75.3338 40.9173 74.8548 41.1755C74.8548 41.1755 74.8548 41.1755 74.8548 41.1755C74.854 41.1841 74.632 41.2107 74.263 41.4489C73.8847 41.6845 73.5704 42.1623 73.4818 42.4532C73.3006 43.0478 73.3781 43.2005 73.3793 43.3485C73.4137 43.6084 73.448 43.679 73.4745 43.7628C73.6765 44.261 73.8351 44.4637 74.1013 44.8136C75.5643 46.3618 76.7456 46.4652 77.5456 47.0978C77.7566 47.2537 77.9624 47.4134 78.1632 47.5781C79.0867 48.2885 79.5759 49.0651 80.8037 50.0869C80.8207 50.0991 80.8378 50.1112 80.8551 50.1232C82.2489 51.0734 83.8084 51.4865 84.8265 52.0815C85.1739 52.3006 85.5952 52.3958 85.939 52.3998C86.3539 52.405 86.6982 52.3123 87.0294 52.1587C88.5268 51.3705 89.3655 50.4039 90.3839 49.5154C91.5744 48.4283 92.6403 47.2394 93.7111 46.2082C93.915 46.0095 94.1509 45.8191 94.4414 45.4761C94.6514 45.2274 94.857 44.8642 94.9475 44.5076C95.0336 44.1957 95.0701 43.7833 94.9569 43.3812C93.9582 41.1381 92.872 40.4611 92.1103 38.9701C91.8911 38.5921 91.6128 38.1614 91.2381 37.7898C89.7487 36.5352 88.6602 36.3736 87.7749 35.5504C87.1167 34.9797 86.2431 34.5349 85.9143 34.2462C85.7407 34.0882 85.4429 33.9391 85.1559 33.9149C84.8686 33.8866 84.6416 33.9492 84.4811 34.0112C84.1608 34.143 84.009 34.2814 83.8688 34.4007C83.2567 34.9668 82.9599 35.4932 82.6565 35.8057C82.1597 36.301 80.6112 36.8171 79.3488 37.4428C77.2484 38.521 75.5488 39.8843 73.8268 41.1642C73.2418 41.5854 72.6181 42.253 72.2877 42.6408C71.8881 43.0526 71.7865 43.6191 71.7871 43.9381C71.7836 44.275 71.8295 44.5116 71.8701 44.7257C71.9565 45.1478 72.0515 45.4806 72.1323 45.8116C72.2961 46.4656 72.4126 47.0754 72.461 47.6944C72.5766 49.1524 72.3708 50.7619 72.2501 52.4436C71.9909 55.2716 72.2114 58.4666 72.1434 60.8769C72.1384 60.9228 72.1251 60.9934 72.1031 61.1569C72.0843 61.314 72.048 61.6098 72.1341 61.9792C72.3112 62.6429 72.5939 62.9166 72.7696 63.1461C73.9782 64.4591 75.1584 64.7563 76.0688 65.2853C76.9954 65.8197 78.1447 67.7389 80.0426 69.1315C81.3459 70.0463 83.0126 71.0758 84.5265 71.5108C84.9835 71.7283 85.8161 71.6263 86.1905 71.3424C86.5873 71.0783 86.7316 70.8382 86.8477 70.6588C87.0595 70.2976 87.1192 70.0659 87.1824 69.8469C87.5364 68.0802 87.5329 67.038 87.6833 65.679C87.9695 62.6334 88.2542 59.5803 88.5577 56.5481C88.5739 56.3864 88.5899 56.2286 88.6059 56.0699C88.7331 54.6257 88.9422 53.3829 88.9449 51.6C88.9436 51.5463 88.9235 51.3885 88.915 51.3355C88.896 51.2467 88.893 51.1681 88.7927 50.9027C88.7016 50.7552 88.7646 50.5819 88.1269 50.0315C87.7992 49.7304 86.8865 49.5108 86.3549 49.7197C85.8214 49.8973 85.6471 50.1039 85.5062 50.2332C85.2672 50.4866 85.2251 50.5938 85.1673 50.6886C85.1195 50.7755 85.0923 50.8361 85.0703 50.8864C85.0281 50.9848 85.0068 51.0474 84.9884 51.1022C84.921 51.3109 84.8988 51.4208 84.8716 51.5517C84.7957 51.9346 84.786 52.2636 84.7749 52.4632C84.7474 52.9931 84.9412 53.508 85.3055 53.8945C85.6698 54.281 86.1763 54.5075 86.7122 54.524C87.248 54.5406 87.7675 54.3458 88.155 53.9826C88.5425 53.6193 88.7676 53.1173 88.773 52.5868C88.773 52.5868 88.773 52.5868 88.773 52.5868C88.774 52.3799 88.7788 52.3004 88.7786 52.2828C88.7771 52.2778 88.7851 52.2525 88.76 52.3294C88.7522 52.3516 88.7426 52.3811 88.714 52.4479C88.6988 52.4822 88.6791 52.5268 88.6395 52.599C88.5902 52.6784 88.5572 52.7709 88.3302 53.012C88.1956 53.1349 88.0281 53.3361 87.5028 53.5112C86.9794 53.7173 86.0758 53.4997 85.7553 53.2041C85.4272 52.9488 85.3283 52.7665 85.2447 52.6354C85.179 52.524 85.1384 52.4293 85.1171 52.3757C85.0294 52.1425 85.0337 52.0976 85.0211 52.0436L84.9912 51.7791C85.0447 52.8232 84.9055 54.3891 84.8305 55.7636C84.8207 55.9226 84.811 56.081 84.801 56.2434C84.6146 59.3078 84.4432 62.3653 84.2639 65.4183C84.1845 66.6582 84.1226 68.2281 83.9913 69.0236C83.9857 69.0672 83.9607 69.0962 84.0343 68.9686C84.0805 68.9048 84.1395 68.7756 84.422 68.5855C84.6835 68.3776 85.3665 68.2933 85.6972 68.459C84.1589 68.0516 83.105 67.3895 81.7936 66.5525C80.5275 65.7774 79.7577 64.1386 77.4098 62.6608C76.3319 62.1385 75.2676 61.69 74.9391 61.2936C74.8283 61.1833 74.8231 61.0936 74.8907 61.3186C74.9302 61.6756 74.9017 61.4739 74.9498 61.1243C74.9583 57.8861 74.666 55.4301 74.8531 52.6059C74.9256 50.9956 75.1266 49.3061 74.9508 47.4675C74.8733 46.6793 74.7043 45.9053 74.5111 45.1956C74.4168 44.8438 74.3154 44.4995 74.256 44.2314C74.2262 44.1017 74.213 43.9862 74.2132 43.9721C74.2164 43.9402 74.2013 44.1407 74.0499 44.2941C74.5541 43.6981 74.8161 43.413 75.2686 43.0584C76.9669 41.7395 78.6433 40.3867 80.3665 39.4749C81.513 38.8243 82.7512 38.6795 84.2904 37.299C84.7742 36.7503 85.0771 36.2543 85.3312 36.0315C85.3594 36.001 85.3895 35.9987 85.2798 36.0461C85.2241 36.0669 85.1109 36.1047 84.9364 36.0879C84.7623 36.0743 84.5715 35.976 84.4826 35.8927C85.3476 36.5675 85.8912 36.7693 86.3968 37.2062C87.5405 38.2026 89.1968 38.7512 89.7467 39.2841C89.9442 39.4748 90.1125 39.7181 90.2977 40.03C91.0973 41.5051 92.6481 43.1 92.9729 43.9312C92.9675 43.9119 92.979 43.9091 92.9621 43.9784C92.9416 44.0514 92.9275 44.0846 92.8554 44.1769C92.7562 44.3017 92.5285 44.5091 92.2957 44.733C91.1318 45.8709 90.1225 47.0114 89.0151 48.0296C88.054 48.8999 87.0434 49.9094 86.1689 50.3455C86.1019 50.3794 86.0072 50.3971 85.9808 50.3947C85.9003 50.3917 85.8935 50.3828 85.8791 50.376C84.3569 49.5287 83.0205 49.1981 81.9954 48.4801C81.9873 48.4745 81.9793 48.4688 81.9713 48.4631C81.389 48.0151 80.5748 46.8123 79.7966 45.9334C79.6132 45.7164 79.4286 45.5006 79.2427 45.2849C78.2865 44.2367 77.1129 43.3201 77.1706 42.8366C77.2075 42.825 77.1824 42.6355 77.2629 42.7232C77.2755 42.7559 77.2973 42.7755 77.3264 42.9826C77.3254 43.1046 77.4019 43.2302 77.2292 43.7997C77.145 44.0782 76.8386 44.5447 76.4715 44.7731C76.1135 45.0039 75.9044 45.027 75.9163 45.0321Z" fill="#1E1E1E"/>
<path d="M95.8128 44C95.7599 44 95.8309 44.294 95.957 46.6555C96.0672 48.7205 95.9396 52.5554 95.864 55.6078C95.735 60.8181 95.6216 63.2303 95.6148 63.5915C95.6114 63.7682 95.4116 63.9016 95.2192 64.0287C94.4105 64.5631 92.3513 65.8746 90.2662 67.3802C89.4498 67.9697 88.753 68.6404 88.0135 69.1356C87.3018 69.5428 86.6431 69.8105 86.0872 69.9526C85.8334 70.0119 85.6371 70.0454 85 69.8665" stroke="#1E1E1E" stroke-width="4" stroke-linecap="round" stroke-linejoin="round"/>
<path d="M72.342 61.0649C71.7642 60.9372 71.314 61.2362 71.0452 61.7128C70.7768 62.1913 70.7199 62.8406 70.8788 63.4854C71.0378 64.1302 71.39 64.6786 71.85 64.9776C72.3095 65.2747 72.8471 65.3302 73.2994 64.9486C73.2994 64.9486 73.2994 64.9486 73.2994 64.9486C73.3317 64.9401 73.3703 64.9295 73.4228 64.9125C73.468 64.8951 73.5496 64.8806 73.7803 64.7594C73.838 64.7277 73.9059 64.6877 73.9891 64.6282C74.0956 64.5409 74.4475 64.3278 74.6955 63.7081C74.8161 63.401 74.866 62.9696 74.7799 62.5874C74.7364 62.3869 74.6779 62.2462 74.6252 62.1359C74.5696 62.0208 74.5077 61.9206 74.4454 61.8345C74.19 61.4912 73.9671 61.3602 73.8145 61.2688C73.4654 61.0879 73.4912 61.1268 73.3984 61.0914C73.3299 61.0712 73.2787 61.0596 73.2359 61.0507C72.9949 61.0074 72.9911 61.0203 72.9341 61.016C72.861 61.0156 72.8281 61.0196 72.8007 61.0231C72.7461 61.0305 72.7129 61.039 72.6828 61.0475C72.6223 61.0644 72.5779 61.0818 72.5339 61.0991C72.4475 61.1338 72.3723 61.1687 72.2996 61.2032C72.1539 61.2724 72.0192 61.3406 71.8864 61.4072C70.7756 61.819 70.5732 62.2624 70.115 62.6085C69.6335 63.0301 69.1577 63.3914 68.6427 63.6904C68.6265 63.6999 68.6101 63.7094 68.5938 63.7189C66.3129 65.0401 64.0903 66.464 61.8568 67.6884C61.4564 67.9159 61.0458 68.1001 60.5451 68.5547C60.4393 68.6558 60.3241 68.7711 60.1991 68.9594C60.0825 69.1417 59.914 69.4509 59.9496 69.8979C60.1126 70.8176 60.6008 70.9715 60.871 71.1552C61.5574 71.5044 62.061 71.6019 62.3782 71.7823C64.2166 72.8208 65.9479 75.1181 68.191 76.7011C69.5791 77.6958 70.3093 78.951 72.1012 80.6054C72.8999 81.1704 73.614 81.2076 73.886 81.3217C74.4071 81.4735 74.8558 81.4423 75.2307 81.3771C75.9859 81.2338 76.488 80.9133 76.8186 80.7648C78.7909 79.6816 79.7466 78.3228 80.8767 77.7214C81.3344 77.4547 81.8221 77.2161 82.3477 76.9799C82.9051 76.7058 83.3396 76.6293 84.2969 75.9828C84.3485 75.9455 84.4805 75.8132 84.5248 75.7676C84.9273 75.3532 85.3171 74.9399 85.685 74.5763C85.9846 74.2801 86.2725 74.0198 86.5096 73.857C86.5231 73.8472 86.5602 73.8137 86.5733 73.8033C86.7885 73.6174 86.7297 73.6805 86.7533 73.6699C86.7668 73.6687 86.8169 73.6458 86.8923 73.6165C87.3785 73.403 87.741 72.9899 87.9083 72.4848C88.0756 71.9796 88.0324 71.4208 87.7899 70.9343C87.5474 70.4478 87.1271 70.077 86.623 69.9064C86.1189 69.736 85.5709 69.7769 85.1077 70.0366C85.1077 70.0366 85.1077 70.0366 85.1077 70.0366C84.9179 70.1397 84.7099 70.2614 84.4812 70.4299C84.2606 70.587 83.9874 70.8551 83.9835 70.8672L84.0471 70.8135C83.5694 71.2308 83.2174 71.6362 82.8944 72.0172C82.5023 72.4842 82.1575 72.9239 81.81 73.3503L82.0379 73.135C82.0685 73.1362 81.8107 73.305 81.5785 73.4333C81.3351 73.5708 81.0601 73.7185 80.7808 73.8737C80.2209 74.184 79.6365 74.5288 79.0718 74.922C77.396 76.1107 76.3848 77.5941 75.439 78.138C75.0097 78.388 74.7617 78.5257 74.6656 78.5512C74.5971 78.5742 74.5792 78.5632 74.662 78.5911C74.0039 78.4455 73.7088 78.381 73.7036 78.371C72.7314 77.6016 71.2862 75.7783 69.6022 74.6891C67.5129 73.3922 66.0616 71.3627 63.351 69.8446C62.7053 69.5357 62.1337 69.4208 61.8607 69.2738C61.8441 69.2674 61.8434 69.2612 61.8817 69.2995C61.9128 69.3356 62.0251 69.4448 62.053 69.7045C62.0705 69.9586 61.9803 70.0804 61.9671 70.1033C61.9467 70.1308 61.9626 70.1044 61.995 70.0731C62.13 69.9277 62.5029 69.7046 62.8585 69.5036C65.1849 68.1702 67.3552 66.7473 69.5994 65.4477C69.616 65.438 69.6326 65.4284 69.6491 65.4188C70.169 65.1167 70.7255 64.86 71.2865 64.6933C71.5213 64.6243 71.759 64.5713 71.9668 64.5593C72.1639 64.5458 72.378 64.5874 72.282 64.7104C72.3992 64.7471 72.5143 64.7883 72.6194 64.8354C72.6711 64.859 72.7217 64.8839 72.761 64.9112C72.78 64.9248 72.7974 64.939 72.8006 64.954C72.8011 64.9615 72.8005 64.9694 72.777 64.9769C72.7643 64.9805 72.7488 64.9849 72.6903 64.9854C72.642 64.9816 72.6457 64.9951 72.4122 64.9532C72.3705 64.9446 72.3203 64.9332 72.2527 64.9133C72.1608 64.8782 72.187 64.9171 71.8392 64.737C71.6871 64.6459 71.4646 64.5152 71.2094 64.1722C71.1472 64.0861 71.0853 63.9859 71.0298 63.871C70.9771 63.7607 70.9186 63.6201 70.8752 63.4197C70.7891 63.0378 70.839 62.6066 70.9595 62.2996C71.2073 61.6804 71.5588 61.4678 71.6647 61.3808C71.7477 61.3215 71.8152 61.2817 71.8726 61.2502C72.1018 61.1298 72.1808 61.1163 72.2246 61.0993C72.2754 61.0829 72.3119 61.0728 72.342 61.0649Z" fill="#1E1E1E"/>
<path d="M59.7767 67.8694C59.8382 68.3963 60.1142 68.8723 60.5371 69.1936C60.96 69.5148 61.4964 69.6549 62.0269 69.5831C62.5575 69.5113 63.0373 69.2337 63.3596 68.8116C63.6818 68.3895 63.8214 67.8572 63.7406 67.3329C63.7406 67.3329 63.7406 67.3329 63.7406 67.3329C63.7387 67.3222 63.7359 67.292 63.719 67.2011C63.7093 67.1534 63.6986 67.0929 63.662 66.9719C63.6422 66.9092 63.6176 66.8324 63.5612 66.71C63.5005 66.5914 63.4301 66.4126 63.1493 66.1252C62.9149 65.8382 62.0915 65.44 61.4749 65.5641C60.8808 65.6591 60.6498 65.8706 60.504 65.9719C60.2206 66.2043 60.1755 66.2986 60.1094 66.38C60.0015 66.5314 59.9747 66.5904 59.944 66.6459C59.6851 67.1776 59.684 67.3904 59.636 67.6071C59.6007 67.8129 59.5818 67.9805 59.5651 68.1426C59.533 68.4641 59.515 68.7518 59.4989 69.0404C59.4681 69.6105 59.4496 70.1641 59.4336 70.7151C59.4053 71.7417 59.4012 72.7359 59.397 73.732C59.3913 75.1991 59.3969 76.6687 59.3826 78.1029C59.3753 78.7522 59.3586 79.3949 59.3283 80.0363C59.3133 80.3591 59.2944 80.6758 59.2743 81.0154C59.2638 81.3655 59.1993 81.6974 59.2902 82.3987C59.3719 82.9569 59.6737 83.3698 59.8759 83.581C60.0871 83.8019 60.2499 83.9135 60.3844 84.0065C60.652 84.1848 60.8362 84.2794 61.0083 84.3752C61.3455 84.5586 61.6144 84.7095 61.8721 84.8794C61.7532 84.7834 61.907 84.9066 61.9909 84.9996C62.0889 85.1009 62.2017 85.2254 62.3129 85.3509C62.5376 85.6049 62.7711 85.8792 63.0045 86.1538C63.4733 86.7064 63.9465 87.2668 64.4279 87.8265C66.3787 90.0545 67.8788 92.0287 70.2615 94.5797C70.6728 94.9017 71.171 95.1763 71.9422 95.1451C72.3882 95.1324 72.9568 94.8669 73.2534 94.5249C73.5614 94.1874 73.6765 93.8756 73.7527 93.6298C74.1839 91.478 74.1582 90.1728 74.4544 88.5285C74.8214 86.2246 75.2565 83.9394 75.5429 81.5183C75.5467 81.4826 75.5508 81.4507 75.5531 81.4339C75.5506 81.4277 75.5721 81.3833 75.5168 81.5412C75.4905 81.5932 75.4961 81.6432 75.3224 81.874C75.2156 81.9703 75.0694 82.2856 74.3475 82.3678C74.0114 82.3892 73.696 82.2558 73.5413 82.149C73.36 82.0252 73.3025 81.9505 73.2356 81.872C73.0393 81.6064 73.056 81.5598 73.0265 81.4978C73.0083 81.4439 73.0027 81.4184 72.9977 81.3974C72.9827 81.3248 72.9876 81.3321 72.9867 81.3227C73.0048 81.4387 72.9464 81.9112 72.8926 82.3157C72.8371 82.7371 72.7822 83.1705 72.7343 83.6042C72.4191 86.4883 72.2769 89.3354 71.968 92.1061C71.917 92.5555 71.878 93.0095 71.8668 93.4878C71.8617 93.7276 71.8631 93.9715 71.8814 94.2376C71.9139 94.5244 71.8893 94.7216 72.0955 95.2683C72.2029 95.5766 72.6483 96.076 73.1459 96.1736C73.6217 96.2798 73.8971 96.1887 74.1078 96.132C74.5202 95.9973 74.7418 95.8495 74.9684 95.709C75.4037 95.4256 75.7467 95.146 76.0872 94.8691C76.7568 94.3208 77.3868 93.7632 77.9802 93.3479C78.9448 92.716 80.4135 92.1887 81.7754 91.5888C83.8979 90.5647 85.1688 88.8777 86.371 87.7292C86.6162 87.5181 86.8101 87.2825 86.9645 87.0612C87.1615 86.7589 87.1762 86.6374 87.2262 86.4987C87.2669 86.3668 87.2946 86.2538 87.3195 86.1448C87.3691 85.9247 87.4041 85.7274 87.4371 85.5284C87.5017 85.133 87.5519 84.7534 87.5995 84.3727C87.6934 83.6143 87.7729 82.8671 87.8518 82.1178C88.0534 80.145 88.4127 78.118 88.4998 75.997C88.5274 74.1455 88.725 72.8331 88.2911 70.3881C88.2518 70.3042 88.2186 70.2286 88.0993 70.0946C87.9926 69.9742 87.7833 69.8274 87.5476 69.781C87.0546 69.7032 86.8731 69.8712 86.7661 69.9233C86.5705 70.0566 86.5495 70.1076 86.5035 70.1563C86.4309 70.246 86.4064 70.2903 86.3799 70.3335C86.3316 70.4158 86.304 70.4742 86.2771 70.533C86.2253 70.6488 86.1862 70.7533 86.1492 70.8802C86.0636 71.1806 86.0291 71.448 86.0039 71.6883C86.0084 71.8949 85.8502 72.2828 86.2489 72.9421C88.4208 75.3107 90.7045 75.8026 92.8391 76.9736C93.3456 77.2303 93.9242 77.4339 94.2203 77.5876C94.4002 77.6878 94.4144 77.707 94.448 77.7566C94.5094 77.8076 94.5266 78.0797 95.0278 78.5139C95.6015 78.9269 96.153 78.8496 96.5382 78.7357C98.5887 77.9061 99.7117 76.5899 101.008 75.9378C101.702 75.6044 102.688 75.3128 103.58 74.9063C103.607 74.8945 103.634 74.8826 103.661 74.8705C104.677 74.4268 105.618 73.7024 106.323 72.9246C106.593 72.625 106.839 72.3058 106.991 71.7756C107.125 71.2787 107.043 70.7581 106.837 70.3465C105.83 68.6883 104.692 68.2467 103.734 67.4345C103.302 67.0867 102.872 66.5081 102.466 65.8688C102.189 65.4381 101.931 64.981 101.583 64.4596C101.553 64.4143 101.438 64.3045 101.401 64.2651C100.546 63.3841 99.641 62.666 98.7583 61.9796C98.7425 61.9673 98.6886 61.9407 98.6722 61.9293C98.0195 61.5128 97.4583 61.2999 96.9621 61.0838C96.4718 60.8719 95.926 60.9216 95.4576 61.1789C94.9891 61.4365 94.6341 61.8883 94.473 62.4271C94.3119 62.9658 94.3606 63.5383 94.6108 64.0109C94.8611 64.483 95.2901 64.8242 95.8162 64.9162C95.8162 64.9162 95.8162 64.9162 95.8162 64.9162C96.2772 64.9929 96.6836 65.0697 96.9096 65.1398L96.8235 65.0895C97.7491 65.5315 98.6292 65.9992 99.3693 66.5376L99.1867 66.3431C99.5058 66.6759 99.8607 67.1153 100.239 67.5492C100.815 68.2018 101.433 68.9024 102.348 69.4798C103.397 70.1065 104.629 70.8155 104.933 71.3247C104.942 71.3292 104.938 71.3025 104.954 71.2621C104.965 71.271 104.894 71.4284 104.795 71.5405C104.225 72.2173 103.602 72.7052 102.845 73.0445C102.82 73.0554 102.796 73.0661 102.772 73.0767C101.961 73.4496 101.133 73.6721 100.132 74.1386C98.3896 75.0732 97.1008 76.3874 95.9368 76.8172C95.9299 76.827 96.0145 76.7577 96.2482 76.914C96.4256 77.0924 96.3052 76.9606 96.1466 76.6744C95.9003 76.2637 95.4634 75.9605 95.1744 75.811C94.5545 75.4998 94.1532 75.3779 93.7447 75.1656C91.6338 74.0778 89.0418 73.0603 87.9434 71.7726C88.1218 72.1026 88.0154 72.0732 88.0551 71.9041C88.0747 71.7212 88.1013 71.5652 88.1341 71.4561C88.1384 71.4412 88.1513 71.4068 88.1604 71.388C88.1641 71.3795 88.1694 71.3715 88.1586 71.3903C88.151 71.4019 88.1467 71.4147 88.0976 71.4758C88.0634 71.5103 88.0547 71.5477 87.8748 71.6708C87.7757 71.718 87.6031 71.8819 87.1194 71.8059C86.8881 71.7604 86.6829 71.6163 86.5792 71.4992C86.4633 71.369 86.432 71.2967 86.3949 71.2176C86.3186 71.0102 86.3625 71.1172 86.3582 71.1268C86.3629 71.1562 86.3684 71.1975 86.3734 71.2413C86.3834 71.3289 86.392 71.4243 86.3995 71.5221C86.4147 71.7195 86.4255 71.923 86.4339 72.1283C86.4506 72.5394 86.4575 72.9585 86.4582 73.3761C86.4592 74.2142 86.4354 75.0559 86.3928 75.8994C86.2992 77.8387 85.9331 79.8169 85.6973 81.8803C85.6112 82.6232 85.5242 83.3623 85.4257 84.09C85.3761 84.4541 85.3239 84.814 85.2633 85.1585C85.2329 85.3303 85.2007 85.4961 85.1651 85.6448C85.1478 85.7172 85.1292 85.7857 85.1137 85.8329C85.1066 85.8707 85.0584 85.9326 85.1516 85.7827C85.0685 85.8985 84.9934 85.9803 84.9244 86.0375C83.4083 87.4947 82.214 88.8677 80.8674 89.4745C79.5378 90.0522 78.1779 90.4484 76.648 91.3915C75.8571 91.9305 75.2186 92.4893 74.5767 92.9946C74.2605 93.2447 73.943 93.4874 73.6681 93.658C73.5387 93.7407 73.3945 93.8051 73.4016 93.7972C73.412 93.8 73.4747 93.7475 73.7436 93.8032C74.0324 93.8529 74.3183 94.1853 74.345 94.2975C74.396 94.4484 74.3361 94.2174 74.3376 94.0825C74.3295 93.9245 74.3306 93.7458 74.338 93.5624C74.3531 93.1936 74.3923 92.8041 74.4445 92.4107C74.8173 89.5318 75.0148 86.6911 75.3773 83.9246C75.4682 83.0497 75.6745 82.4989 75.6986 81.1595C75.6913 81.048 75.6848 80.9528 75.647 80.7805C75.6361 80.7341 75.624 80.6844 75.5973 80.606C75.5593 80.52 75.5666 80.4495 75.3545 80.1635C75.283 80.0794 75.2219 80.001 75.0347 79.8731C74.8748 79.7629 74.553 79.6272 74.2106 79.649C73.4754 79.7321 73.3194 80.0568 73.2045 80.163C73.0152 80.4135 73.0101 80.4882 72.9748 80.5634C72.8841 80.8173 72.8867 80.8741 72.8662 80.9685C72.8511 81.0526 72.8414 81.1218 72.8325 81.1891C72.5211 83.411 72.0311 85.7213 71.6041 88.0308C71.2797 89.6444 71.1137 91.6668 70.8632 92.7556C70.8738 92.7253 70.8921 92.6252 71.045 92.4537C71.1886 92.2789 71.5373 92.1157 71.7571 92.1141C72.0776 92.1066 72.1385 92.1851 72.2064 92.2247C70.746 90.488 68.7282 87.8853 66.9583 85.7147C66.5035 85.1534 66.0572 84.5917 65.5989 84.0173C65.3697 83.7306 65.1384 83.4413 64.8904 83.1429C64.7665 82.9941 64.6358 82.8396 64.4887 82.6771C64.3215 82.5037 64.2247 82.359 63.8105 82.0527C63.4378 81.7889 63.046 81.5556 62.7182 81.3637C62.5585 81.2701 62.4083 81.1786 62.3611 81.1413C62.3395 81.1262 62.3483 81.1201 62.4294 81.2019C62.5015 81.2744 62.6969 81.5183 62.7515 81.8858C62.7516 81.9261 62.7631 81.5902 62.7954 81.2765C62.825 80.9531 62.8568 80.6071 62.884 80.2632C62.9388 79.5751 62.979 78.8883 63.0092 78.2051C63.0728 76.7213 63.116 75.2644 63.1717 73.8099C63.2095 72.8282 63.2487 71.8407 63.3086 70.8938C63.3429 70.3622 63.3799 69.8299 63.4259 69.3225C63.4491 69.0684 63.4747 68.8192 63.5049 68.6012C63.5198 68.4941 63.5366 68.3932 63.5503 68.3335C63.5537 68.2846 63.6085 68.2281 63.4737 68.5192C63.4517 68.5583 63.4341 68.601 63.3372 68.7374C63.2765 68.8113 63.2372 68.8984 62.9612 69.125C62.8189 69.2235 62.5922 69.4325 62.0026 69.5268C61.3907 69.6502 60.572 69.254 60.3407 68.9704C60.0633 68.6862 59.9952 68.5117 59.9364 68.3972C59.882 68.279 59.8589 68.2065 59.8405 68.1483C59.8066 68.0362 59.7979 67.9848 59.79 67.9461C59.7765 67.8736 59.7762 67.8617 59.7767 67.8694Z" fill="#1E1E1E"/>
<path d="M87 88.736C87.0271 88.736 88.0349 89.9869 89.762 92.0915C90.8634 93.4338 93.3889 94.9642 96.4819 96.6489C97.5491 97.2301 97.7205 96.993 97.7509 96.632C97.8273 95.7277 97.5989 94.08 97.6733 91.4072C97.7176 89.8171 97.9462 87.7597 98.0452 86.0369C98.2201 82.9935 97.9582 80.3768 97.5995 78.4011C97.4665 77.6686 97.3234 77.508 97.2384 79.2767C97.1534 81.0453 97.1028 84.7541 97.009 87.3432C96.794 93.2737 96.6988 94.9304 96.8929 95.7553C96.9739 96.0994 97.1623 96.2474 98.0172 95.9572C100.494 95.1166 103.288 93.3987 105.318 92.1546C106.807 91.2424 107.45 90.1751 108.074 89.3839C108.356 89.027 108.877 88.9018 109.266 88.6043C109.458 88.4575 109.603 88.2721 109.721 88.0866C109.838 87.9011 109.915 87.7091 109.96 87.4767C110.057 86.9837 109.967 86.437 109.805 84.4999C109.667 82.8312 109.58 79.7575 109.393 77.2056C109.062 72.7042 108.59 70.48 108.306 70.1153C108.143 69.9846 107.945 69.9645 107.83 70.0575C107.715 70.1505 107.689 70.3571 107.662 70.57" stroke="#1E1E1E" stroke-width="4" stroke-linecap="round" stroke-linejoin="round"/>
</svg>
